<mxfile host="app.diagrams.net" agent="Mozilla/5.0 (Windows NT 10.0; Win64; x64) AppleWebKit/537.36 (KHTML, like Gecko) Chrome/136.0.0.0 Safari/537.36" version="27.0.6">
  <diagram id="WI9T0HZ2pTsCkuznbFz-" name="Page-1">
    <mxGraphModel dx="2450" dy="570" grid="1" gridSize="10" guides="1" tooltips="1" connect="0" arrows="1" fold="1" page="1" pageScale="1" pageWidth="1169" pageHeight="827" math="0" shadow="0">
      <root>
        <mxCell id="0" />
        <mxCell id="1" parent="0" />
        <mxCell id="tZt0MmLbYMBhl0km-Nx_-1" value="Billing" style="image;aspect=fixed;html=1;points=[];align=center;fontSize=12;image=img/lib/azure2/databases/SQL_Database.svg;" parent="1" vertex="1">
          <mxGeometry x="-249.62" y="184" width="48" height="64" as="geometry" />
        </mxCell>
        <mxCell id="tZt0MmLbYMBhl0km-Nx_-2" value="ERP" style="image;aspect=fixed;html=1;points=[];align=center;fontSize=12;image=img/lib/azure2/databases/SQL_Database.svg;" parent="1" vertex="1">
          <mxGeometry x="-249.62" y="294" width="48" height="64" as="geometry" />
        </mxCell>
        <mxCell id="tZt0MmLbYMBhl0km-Nx_-3" value="Client data" style="image;aspect=fixed;html=1;points=[];align=center;fontSize=12;image=img/lib/azure2/databases/SQL_Database.svg;" parent="1" vertex="1">
          <mxGeometry x="-249.62" y="404" width="48" height="64" as="geometry" />
        </mxCell>
        <mxCell id="tZt0MmLbYMBhl0km-Nx_-4" value="Power data" style="image;aspect=fixed;html=1;points=[];align=center;fontSize=12;image=img/lib/azure2/databases/SQL_Database.svg;" parent="1" vertex="1">
          <mxGeometry x="-249.62" y="504" width="48" height="64" as="geometry" />
        </mxCell>
        <mxCell id="tZt0MmLbYMBhl0km-Nx_-5" value="GAS data" style="image;aspect=fixed;html=1;points=[];align=center;fontSize=12;image=img/lib/azure2/databases/SQL_Database.svg;" parent="1" vertex="1">
          <mxGeometry x="-249.62" y="604" width="48" height="64" as="geometry" />
        </mxCell>
        <mxCell id="tZt0MmLbYMBhl0km-Nx_-7" value="" style="endArrow=classic;startArrow=classic;html=1;rounded=0;exitX=0.229;exitY=0.028;exitDx=0;exitDy=0;exitPerimeter=0;entryX=-0.02;entryY=0.622;entryDx=0;entryDy=0;entryPerimeter=0;" parent="1" source="tZt0MmLbYMBhl0km-Nx_-8" target="tZt0MmLbYMBhl0km-Nx_-1" edge="1">
          <mxGeometry width="50" height="50" relative="1" as="geometry">
            <mxPoint x="-299.62" y="264" as="sourcePoint" />
            <mxPoint x="-249.62" y="214" as="targetPoint" />
          </mxGeometry>
        </mxCell>
        <mxCell id="tZt0MmLbYMBhl0km-Nx_-8" value="Middle DB joined data" style="image;aspect=fixed;html=1;points=[];align=center;fontSize=12;image=img/lib/azure2/databases/SQL_Database.svg;" parent="1" vertex="1">
          <mxGeometry x="-399.62" y="404" width="48" height="64" as="geometry" />
        </mxCell>
        <mxCell id="tZt0MmLbYMBhl0km-Nx_-9" value="" style="endArrow=classic;startArrow=classic;html=1;rounded=0;" parent="1" source="tZt0MmLbYMBhl0km-Nx_-8" target="tZt0MmLbYMBhl0km-Nx_-2" edge="1">
          <mxGeometry width="50" height="50" relative="1" as="geometry">
            <mxPoint x="-391.62" y="514" as="sourcePoint" />
            <mxPoint x="-244.62" y="324" as="targetPoint" />
          </mxGeometry>
        </mxCell>
        <mxCell id="tZt0MmLbYMBhl0km-Nx_-10" value="" style="endArrow=classic;startArrow=classic;html=1;rounded=0;" parent="1" edge="1">
          <mxGeometry width="50" height="50" relative="1" as="geometry">
            <mxPoint x="-350" y="438" as="sourcePoint" />
            <mxPoint x="-250" y="438" as="targetPoint" />
          </mxGeometry>
        </mxCell>
        <mxCell id="tZt0MmLbYMBhl0km-Nx_-11" value="" style="endArrow=classic;startArrow=classic;html=1;rounded=0;exitX=0.968;exitY=0.847;exitDx=0;exitDy=0;exitPerimeter=0;" parent="1" source="tZt0MmLbYMBhl0km-Nx_-8" target="tZt0MmLbYMBhl0km-Nx_-4" edge="1">
          <mxGeometry width="50" height="50" relative="1" as="geometry">
            <mxPoint x="-569.62" y="564" as="sourcePoint" />
            <mxPoint x="-428.62" y="564" as="targetPoint" />
          </mxGeometry>
        </mxCell>
        <mxCell id="tZt0MmLbYMBhl0km-Nx_-12" value="" style="endArrow=classic;startArrow=classic;html=1;rounded=0;exitX=0.313;exitY=1.028;exitDx=0;exitDy=0;exitPerimeter=0;" parent="1" source="tZt0MmLbYMBhl0km-Nx_-8" edge="1">
          <mxGeometry width="50" height="50" relative="1" as="geometry">
            <mxPoint x="-359.62" y="554" as="sourcePoint" />
            <mxPoint x="-250" y="620" as="targetPoint" />
          </mxGeometry>
        </mxCell>
        <mxCell id="tZt0MmLbYMBhl0km-Nx_-14" value="" style="shape=image;verticalLabelPosition=bottom;labelBackgroundColor=default;verticalAlign=top;aspect=fixed;imageAspect=0;image=data:image/png,iVBORw0KGgoAAAANSUhEUgAAA+8AAAL2CAIAAAC/tjCVAAAgAElEQVR4AeydB1wUR/+4edOT903RGDXWqGhs0cT2Ro0ak5imb95EY4pJNMb8Eiu9KghYkKagKFIEC6IoolgQpYkivShwwFU613vZ23J7+88xyf2N+GpMPATync98dLnbm5l9bm/nubmZ79oxkIAAEAACQAAIAAEgAASAABDomQTsemazodVAAAgAASAABIAAEAACQAAIMGDzcBIAASAABIAAEAACQAAIAIGeSgBsvqe+c9BuIAAEgAAQAAJAAAgAASAANg/nABAAAkAACAABIAAEgAAQ6KkEwOZ76jsH7QYCQAAIAAEgAASAABAAAmDzcA4AASAABIAAEAACQAAIAIGeSgBsvqe+c9BuIAAEgAAQAAJAAAgAASBwD5snSRLDMJqmzWYzQRDACwgAASAABIAAEAACPYgATdMMw5jNZoZhTCZTD2o5NBUI/EEC97B5VApN0xRFoc/DHywXdgMCQAAIAAEgAASAwEMnQBCEyWSiadpkMmEY9tDbAw0AAg+cwD1snqIohmGQzZMkSUMCAkAACAABIAAEgECPImCVGRibf+AeCQV2BwL3sPn29vaCgoLc3NzCwsLs7OyrkIAAEAACQAAIAAEg0HMI5OTkZGRkXL16lcfjdQfxgjYAgQdO4B42f/nyZT8/v4iIiKioqD179kRCAgJAAAgAASAABIBAzyEQERGxb98+Pz+/uLg4mDr/wD0SCuwOBO5h8+fPnz99+jSaY6PT6YyQgAAQAAJAAAgAASDQcwigSB5paWl79+61LoftDgYGbQACD4rAPWz+8uXL6enpFEXhOE5CAgJAAAgAASAABIBAjyJAEASGYWlpabGxsQ9KnqAcINCtCNzD5i9dunT+/HkUp9JoNOogAQEgAASAABAAAkCg5xAAm+9W3gmNsQWBe9h8RkbG2bNnCYLQ6/UGgwGDBASAABAAAkAACACBnkMAbN4W+ghldisC97D5ixcvnj17FsdxsPmec+GClgIBIAAEgAAQAAK/EgCb71beCY2xBYF72HxGRsa5c+cIgkAD83pIQAAIAAEgAASAABDoOQTA5m2hj1BmtyJwfzYP3/SBABAAAkAACAABINCDCIDNdyvvhMbYgsC9bf7WefMGSEAACAABIAAEgAAQ6DkEwOZtoY9QZrciADbfcy5I0FIgAASAABAAAkDgPgmAzXcr74TG2IIA2Px9XhVgdyAABIAAEAACQKDnEACbt4U+QpndigDYfM+5IEFLgQAQAAJAAAgAgfskADbfrbwTGmMLAmDz93lVgN2BABAAAkAACACBnkMAbN4W+ghldisCYPM954IELQUCQAAIAAEgAATukwDYfLfyTmiMLQiAzd/nVQF2BwJAAAgAASAABHoOAbB5W+gjlNmtCIDN95wLErQUCAABIAAEgAAQuE8CYPPdyjuhMbYgADZ/n1cF2B0IAAEgAASAABDoOQTA5m2hj1BmtyIANt9zLkjQUiAABIAAEAACQOA+CYDNdyvvhMbYggDY/H1eFWB3IAAEgAAQAAJAoOcQAJu3hT5Cmd2KANh8z7kgQUuBABAAAkAACACB+yQANt+tvBMaYwsCYPP3eVWA3YEAEAACQAAIAIGeQwBs3hb6CGV2KwJg8z3nggQtBQJAAAgAASAABO6TANh8t/JOaIwtCIDN3+dVAXYHAkAACAABIAAEeg4BsHlb6COU2a0IgM33nAsStBQIAAEgAASAABC4TwJg893KO6ExtiAANn+fVwXYHQgAASAABIDAwyOg75QeXlt6Rs1g87bQRyizWxEAm+8ZFyNoJRAAAkAACAABg8HQSeb1gOXuBMDmu5V3QmNsQQBs/u4XAXgWCAABIAAEgEA3IgA2f79vBti8LfQRyuxWBMDm7/eyAPsDASAABIAAEAACPYYA2Hy38k5ojC0IgM33mOsRNBQIAAEgAASAgMFgwH6fgMndCYDN20IfocxuRQBs/u4XAXgWCAABIAAEgEA3IoBhmPH3qRs1rls2BWy+W3knNMYWBMDmu+W1BxoFBIAAEAACD5SAVqulaRr1oxRFGY1GDMNQDWgmOkVRBoNBrVajfXAcZxiGJEk0Dq5UKu/ZHL1er7tXMhqNJEnq9XqCIHAcpyiKYRitVouapFKpOtei1WpxHDcYDDqdDh0CRVEmk4lhGFNH0mg0JpNJr9fjOE6SpFqt7lzI/T7S+Tjut4TO+/8RPp1f9dcfAZu3hT5Cmd2KANj8X79QQAlAAAgAASDQ3QngON7c3BwbGxsUFMRisTrbvFarxTCstbX1xIkTQUFBV69e1Wq1BEGgcfDfz2359a/bjrnz+tQ7PqJWq5GdczicmzdvyuVyvV5vMpmQdN5WJppXYzQaKYqSSCQlJSWJiYm7du0K7EiJiYmVlZUSiQR9N9BqtWj/2wrp3Pjbdug8e6dzyzu/5LZH7llL5zI7P3JbmQ/kT7D5buWd0BhbEACbfyDXCigECAABIAAEujuBa9euvfnmm/37909JSels8waDgSAIDofzn//851//+tf27dslEol1FB/H8d9Pb7H89ScOmKIovV6PYdj169eDgoJ27NhRW1ur1+tRe3Q6XecykcqXlZX5+Pi8//77ffr0sfstDRgwYM6cOV5eXllZWag9Wq2WJMnbCrlnyx/I7J171nJbq7rsT7B5W+gjlNmtCIDNd9n1BCoCAkAACACBh0aAJMni4uI333yzX79+p0+f7mzzWq1Wr9c3NjYuXry4T58+wcHBEonEbDZbJ+RoO6U/cTA6nU6v14tEot27dy9cuPDHH3+sra21zudBg+u3FUuSpEgk2rhx4yuvvNK3b9+XXnpp4MCBgwcPHjJkyIsvvvj444/37dt3/fr1AoEAx3GdTtfZ5js13DKEf2vS6XS37XPrs39w+7YS7ngsf7CoB7sb2Hy38k5ojC0IgM0/2IsGlAYEgAAQAALdkQCGYcXFxW+//fbw4cPPnTvX2ebRI3w+/8svvxwwYEBISIhMJjObzWg+uk6nozqlzsfZebbJbY8YDAaSJOVyeUBAwOzZs1euXMnn800mE4ZhNE1bvzncWrJcLo+Ojh43btyECRNWr159+vTp4uLiko6UnJzs5uY2evToUaNGBQQENDU1GY1GgiBufbnBYOjUcMsKgVsTmsF/6263NfuODbu1hD9SS+f5PH+iltsq/SN/gs3bQh+hzG5FAGz+j1wKYB8gAASAABDo2QQoiiorK0M2n5mZ2dnm1Wo1hmH19fXLli2zt7ePiIiQy+UURWm12ltH6O9CofN8lTtOPtHr9cjm33rrre+//57D4RiNRqVSiSbhdC6/srJy6dKlY8eODQsL4/F4ZrOZYRi0fBbHcQ6Hc/DgwaFDh06YMCEvL48kyc4237nMez5yx5bf81V33+EP8rl7IX/iWbD5buWd0BhbEACb/xNXBngJEAACQAAI9DACRqOxtLT03XffHTp06Llz5zq3Hs075/P5X3/99aBBg8LCwlQqldls1mq1DMOoVCoul3v27FlHR8cPO9L//d//JSYmNjc3oyFnpL9orkt5eXloaOjy5cvnzZu3dOlST0/PU6dO8fl85OtVVVUrVqwYOnTowIED+/fvP3PmzJUrV964cUMikXRulcFguHLlyqRJk6ZNm5afn4+Gz3EcR/FhCIIwm801NTXffffdtGnTkpKSMAxDMXNwHFcqlSUlJWFhYZ9//vnbb7+9ZMkSBweH8+fPt7e3o4MlSVKj0WRmZn7xxReJiYm5ubm+vr4LFy5cvXp1TExMSEjIRx99tH37dqFQaDQa9Xo9+qqg1+tbWlq2bdu2atWq/Px8tJKVJMnW1tZjx46tX79+yZIlH3744TfffBMZGVlbW4uWF+M4jmFYQ0ODh4fHmjVrzpw5c/To0S+//HLp0qVbt26tqalBC3nvSOAvPgg2bwt9hDK7FQGw+b94lYCXAwEgAASAQA8ggON4ZWXlvHnzBg8enJ6e3rnFGo0Gw7DGxsZly5YNHDgwJCREqVSaTCaj0WgymS5cuPCf//xn0qRJgwcPntmRhg0bZm9vv2HDhuzsbIPBgMLUKBSKwsLCxYsXDxkyZObMmbM60qBBg8aNG+fp6cnhcHQ6XXFx8fLlywcOHPjss88OHDjw7bffXrVqVXV1tcFgMJlMnRtWWFj49ttvT5o06ejRo2KxmKZpo9GoVqs1Gg2Kd2kwGKqqqnJzc+vr61EcHvRURkbG/Pnzhw0bNmHChFmzZr355pvDhw9/4403IiIiqqqqCIJgGEYqle7fv79fv37Tpk1btGjRggULpk+fvnjx4sjISEdHx2eeeWbatGnXrl2jaVqn0xEdCcOwCxcuTJgwYc6cOQUFBShoJpvNXrt27fjx419++eXp06fPnz9/0qRJw4YN++STT0pLSw0Gg16vp2m6oqJi7ty5zzzzzJtvvvnOO+/Mnj17+vTpP//8c0lJCdmROh/+X38EbL5beSc0xhYEwOb/+oUCSgACQAAIAIHuToCiqNLS0rlz59rb21+8eLHzkk20EpTNZn/77bfDhw8PCQmRy+Vms1mn05WWln7xxRcDBgx4//33Dx06xGazb9y4kZKSsnjx4uHDh/8y8p2Xl4c0Oj8/f8OGDVOmTNm8eXNBQQGfzy8qKgoJCVmwYIG9vf3evXslEgn6lcDFxWX27NlLlizJzs7mcDgSiaSlpUWv13fm2Nzc7OvrO3LkyFmzZvn5+V27dg39IIBG6NFEeRSBniRJFHsHjegvWrRo3Lhxbm5ueXl5LBarpKQkOTl5wYIFr7/+upubW21trdlslslkycnJw4cPf/HFFxcsWJCYmFjYkVpaWi5evDhr1qwJEyYcO3YMfVdB0XjUanVISMiECRP8/PyEQiFN02KxeOvWrQMHDlyyZMnBgwcLCwtrampycnIcHR1HjRqFfnlAX3jq6+u//fbbRx55ZMSIEQEBAZWVlYWFhVVVVQqFAh1O58P/64+AzdtCH6HMbkUAbP6vXyigBCAABIAAEOjuBAiCqKioeP/995977rlFixb93CmtWrXqxx9/XL58ub29PVoFK5FIGIZpbW319/cfMWKEs7NzRkaGNcQkwzBFRUVTp059/vnnPT09ZTKZRqPZt2/fvHnzli9fLhKJzGYzjuM0TeM4npSU9Oqrr65cuZLD4dA0rVAoQkJCZs2a9cMPP/wi62h4m6bpO055NxqNFRUVn3/+OYpLOWHChCVLlnh5ecXExBQVFel0OnQbKTT+jd6G1tZWb2/v0aNHb968WSaTIe1AN5xKSkqaOHHiqFGjjh07xjCMUqlMSEgYOHDg1KlTY2NjMQxD8/IZhqmrq1uxYsWAAQOcnZ2lUilBEChMTW1t7ffff//WW2+hiT1GozEzM3P27Nnz58/Pzs5mGIamafTtoqGh4dtvv/2F5/79+1taWkiSrK2t/fjjjx9//PFFixZVVlaimUIMw2AYhqL92OI0ApvvVt4JjbEFAbB5W1w6oEwgAASAABDoXgRMJlN5efn7779vZ2f3j3/847eI7bf//+STTz7yyCP9+vULCwsTiURIar/66qvx48fHx8dzOByGYVB4eL1eL5FIHB0dX3rppU8++YTD4ahUqj179sydO/fzzz8vKChAU9hRz11VVeXi4rJ9+/a6ujqCIHQ63c6dO2fMmLF8+XIul4vCSmIYdsd7waKbxZ44cWLhwoWjR4/+17/+9eijjz733HOvv/76mjVr9u7de/369ebmZuSsGIYRBFFUVPTBBx+8+eab6enpaL2s2WxG3xmqq6v/+9//9u3bNzAw0Gg06nS6xMTEESNGzJ07F9k5RVEajQaJfnh4+OjRoz///PO6ujo0Hd/q7p999llBQYHZbG5vbw8NDbW3t9+4cWNzczPDMARBoLq0Wu3evXsnTpzo4OBQXFxsNBpZLNZ///vfYcOGOTk5cblckiTRbbPQDyN3DLf/108jsHlb6COU2a0IgM3/9QsFlAAEgAAQAALdnQBBEL8Edfzoo4+eeuqpCRMmvPlb+vdvCc0snzFjxosvvjhgwICdO3fK5XKCIK5du/bee+99+OGHpaWl1miVOI5rtVqlUnn69Ok5c+ZMmzYtKysLw7D09PQvv/xy+PDhS5YsSUhIyM/PFwgEaHaNTCZTqVRosopIJNqyZcvs2bNXrFiBRNxoNKpUKrQ4tTNKDMM0Go1AIMjMzNy8efPixYunTZs2cuTIgQMH9u3bd8SIEQ4ODpWVlTqdDsdxkiRTUlIGDx783nvvFRYWtrW1cbnchoaGtra29vb2ioqKNWvW2Nvbr127trGxUaVSxcXFjR49euXKlcXFxWi6C4pHqdVqr169+umnn7799tupqakotiZBEFFRUSNHjnRycmpoaKAo6vr1619//fWIESOio6Pr6urEYnF7e3tra2tLS0tDQ0NKSsrMmTMXLVqUmpqKIvD897//HT58uL+/v1QqRdWhSP9oGXHnY//rj4DNdyvvhMbYggDY/F+/UEAJQAAIAAEg0N0J4DheXl7+3nvv2dvbJycnyzuSTCaTSqWSjqRQKMRicXl5+XfffTd27Njw8HCdTodhWEZGxjvvvPPll1/W1NSYTCa9Xm8dBccwLDc396uvvpoyZUpSUhK6LVRiYuKUKVMeffTRPn36jBo1avny5fv27cvJyeHxeGihJ47jMplsy5Yt77zzznfffdfS0oKCtSPX78wRwzAUkpKiLHHi1Wq1QqGor6+/ePHi5s2bP/3005c60rJly4qLiymKIkkyISHhlVdeGTt27E8//bRu3ToXFxd3d3cnJydXV9fVq1fPnTv3iSee+Pjjj9lstlarjY2NHTNmjIuLy82bN2+d6mM0Gnk8XmBg4MyZM5F8o9g+vr6+M2fOjI2NRTe9unjx4qeffvrCCy98/vnnzs7OGzZscHR0XLt2rYeHh7Oz8zfffDNgwIAZM2bExMRotdr6+vr//Oc/Y8eO3bVrl0wmQ4FuUHyeO64Z6EzjTzwCNm8LfYQyuxUBsPk/cWWAlwABIAAEgEAPI0CS5M2bN2fNmjV48ODs7Gy8I90aVR0pdVNT07JlywYNGhQYGIjE/fz587Nnz16+fDmHw0GLYtFiUzTKnpOT88MPP8yYMSM+Pl6lUpEkqdVqr1y54unpOWvWrFdffXXIkCEDBw4cM2bM559/fuXKFZVKhZaN+vv7z5kzZ/ny5fe0eZFIxOPx5HK5UqnUaDSodhQsUigUslislJSU+fPn9+3bd9u2bTKZjCTJmJiYl19+uU+fPmPHjn3ttdcmTZo0oSONHz9+9OjRY8aMmThx4k8//SQQCDQaTVxcXGeb12g0BEHI5fKrV6/OnTt30aJFLBaLYZiysrLFixcvXbr02rVrDMNoNJqUlJRPPvnkueee69ev3xtvvDF+/PjXXntt/Pjxr7/++qRJk8Z2pE8//fTIkSMajaaurs5q83K5HGy+WxkhNKbnEgCb72EdEjQXCAABIAAE/gQBvV5fWVk5f/78ESNGnD171tSR0Eg2Cryo1+sZhkE2P2rUqIiICDQH/dy5c7Nnz/7222/RpHkMw9AYuUql0ul02dnZ33///b///e/jx4+jeJFoAF6pVAoEgqKiop07dy5YsGDw4MFPPfXU4sWLi4uLTSaTVCrdunXrjBkz/sjY/LZt2959993Dhw+jifjoGwj6pmGVj3379o0YMWLZsmU8Ho9hmP379z///PNLlizJz89nsViVlZWlpaU3b96sqqqqqKhgs9lcLhfdiArdaPbVV1+9bWxep9MZjUaNRiMUCpctWzZ58uTMzEyaphMTEydOnOjo6Nja2krTtEajOXfu3Lvvvjts2LCEhIQbHam6uvpmR7px40ZZWRmHw+HxeBKJBK2CRZF2wsPDURwbDMNgbN76PsIGEPhzBMDm/0SnAC8BAkAACACBHkbAaDSWlJTMmzdv9OjRGRkZyInRBHF0/yPkx7W1tZ9++unLL7+8c+dOdO/SrKysd99995NPPqmoqKAoiiAIiqJ0Op1GozEYDGfOnPn4449nzJhx9uxZHMdRT0zTtF6vN5lMFEU1Nzdfvnw5JCQEjdOnpqaSJCmTyQIDA6dOnfpHbH7dunWPPfaYs7MzmnKDqtZ0JHVHYhgmLS1typQpS5YsQSPocXFxffr0+eGHH9BLGIYxm80kSXYWBblcHhUVNXr06NtsHv3yoNVqf/kxwdfXd/LkyYcOHRIKhUFBQVOmTImIiEAHqNfr8/LyPvroo1deeaWgoACtuLXWYg2Pg2YK4TjOYrGQzUdERCiVShibt7KCDSDwVwiAzfewDgmaCwSAABAAAn+CAIZhFRUVc+bMGTZs2Pnz57GOhKI6orFhFBCdy+UuW7Zs2LBhYWFharUax/GqqqqlS5dOmTLlwoULCoUChWFBS0IVCsWOHTuGDh06b968srIymUyWm5sbHx+fnZ2tUqlMJhOKUEnTdFtb28qVK5988sm4uDiCICQSyY4dO6ZMmbJixYp7zrSJjIx84YUX3nvvvbKyMoPBgO6Zir6NkCRpNpsxDIuNjR0xYsQPP/zQ0tJC03ROTs6kSZNmzpx59epV671aUZtlMll6enp0dHR6erparVYqlXFxcfb29rfZPLqXFkmSBoMhLS1t1qxZGzZsOH78+DfffPPZZ5/9MpUI3VQLwzA2m+3q6ooWtjY3N1sD3pMkiYLYHDx4MC0tjc/nGwwGFou1cOHCcePGRUREqFQqsPm/InDwWiBgJfDwbV6L6dW4To0b1EZMbcQ0GK41UFqDSWegdXqzTm/W6xkDpoIMBLozAb3BqNczljPWQOsMtNZAaTBcjRktZzVu6DjDdX/CP+AlQAAIPCgCBEGUl5d/8MEHI0eOPH36dOdi0f1Tq6qqvvrqqxEjRgQHBzc1NVEUpVAotm/fPmzYsPXr12dlZd0agbGoqGj+/PnPP//8mjVrhEKhXC739/cfN27cl19+yefz0cg0+lcoFC5dunTAgAHHjx9HISB37Ngxc+bMNWvWoFrQIPodI1RWVla+++67/fv3X7Vq1cmTJxsaGlBMdxQFUiqVXr9+/f333+/Tpw8aMidJUiAQrFixYuDAgRs3bhQKhajLRzd/vXbt2vTp0+3s7NC9nwwGw969e8eOHevu7l5VVYXmEaFIkUjHjUZjXV3dsmXL5s+f/9VXX02cOHHDhg1yuRx9r6AoSiqVZmRkTJw4cdq0aRkZGaguFNteoVAEBAT079//66+/zsvLw3G8rq7u008/nTx5cmRkpFgs7vwu2OIRWAVrdT7Y6K0EHr7N6zC9xqjXGA0azJK1mFFnIHR6Qq8n9XqqI5swgw4yEOjOBAx6o15v6jhdSb2e1BkILWbUYJjlrDYaOs7wO9zi0Rb9FpQJBIDA/yKA7gU7aNCg9PT0O+5DkiSPx/vyyy8HDRoUEhKiVCrRQs+Kioovv/xy4MCB77///sGDBzkcTmVl5fHjx5cuXTpo0KAPP/zw6tWrKHZ7amrqF198MW7cuJ9++unixYvV1dWVlZUpKSlubm5Tpkz5/vvva2pqaJo2GAyJiYlz5syZPn16QkJCfX29RCLRarXolqu3tU0mk6Wmps6cOfPpp58eP3782rVrw8PDDx06dPDgweDg4PXr17/xxhuDBw9euXJlUVERmv1vMBhycnLeeeedIUOGODk5ZWZm/nL/KbRedtmyZei2rxcuXEA/Tezevdve3t7Dw6O2thb9ZIECZaJtgiBEIlFQUND48eNRNMzY2FiCINBiXDTe39zc7OHh0b9//4ULF8bFxRUUFLBYrNLS0q1bt44YMWL69OmpqakikYggCB6Pt2jRotGjR0dGRqKpSrcdrC3+BJvvrQoLx2Ul8PBtXm+4TdWxjmFOo0GP/5YJo94IGQh0ZwKY5XQlfjtjcb3BqMOw276D2qKXgjKBABD44wRKSkpmzpzZt2/fkydPdn4VuhdpXV3dJ5988s9//tPf318ul6PZMgzDZGVlffTRR+PGjRs2bNicOXPeeuutqVOn2tvb//zzz2lpaQqFAi2BbWtrS0tLW7RoUb9+/caOHfv+++9/9NFHU6ZMsbe3X7BgQXp6OopYr9Vqy8vL16xZM2TIEHt7+6+//rq8vNw64ee2tpEkqVKpjh8//vHHHw8fPvzpp5++9ZZXL7zwwoQJE9auXVtVVYVu8ISqkMvlx48fnzdv3uDBg6dMmfLWW2+99957Y8aMsbe3/+qrr86cOYOi62i12l27dvXv33/16tXV1dUMwxiNRvS9Ao3QI6fPy8tDI/qzZs2qqKhAs/DRMlnkE5WVlRs2bJgwYcKIESNmzZr1y31h33rrraFDh/773/+Ojo5ubW1Fk2qqqqree++9IUOGBAcHS6XS247URn+CzVudDzZ6K4GHb/Md8o4ZLQqPsr5jCFbbMVKvwQxqzKAmtBRkINCdCRh1ho5zFf3CpMEMOqPeMlz/21mNGfWYjToqKBYIAIE/QsBoNFZUVKxevXrJkiXXr1+/40swDBMIBNu2bVu8eHFSUpJSqaQ6kl6v12g0LBYrOTl57dq1ixYtWrhw4U8//ZSUlISmi6B7NqF1tDqdrrS0NCQk5Lvvvps/f/6HH364atWqvXv3lpSUUBRljUijVqt/aYa7u/uCBQu++uqrvLw8iURyx5jr6BZLOp2utrY2JSXF29v7s88+e/vttxcsWPD111/7+/unpqa2tLSgO9RSFKVWqw0GAwpKU1hYGBYWtmTJkg8++ODjjz9etWpVTExMU1OTQqGgKAotck1JSfllwD4yMrKurg5hQYeDwu2r1WoMw5qamnx8fBYtWhQcHNza2mptJ5qUbzQa9Xq9UChMSkpav379F198sWDBgkWLFvn5+V26dEmpVKJvSiRJNjQ0eHh4fP3110lJSTa682vndxZsvrcqLByXlcDDt3mjDiO1RsvUhI6M67VGi8GrMJXyjD0AACAASURBVExpMCoMRrnBKLfMvIEMBLoxAaNB3XGuKjBMiWFKo0GN67W4TkfoDKTOYDnDtcbOfQw8AgSAQJcRQFNQMAwTi8XId2+rGoU/1+v1SqVSJBLp9Xo0mcRoNCKjRc6qUqlQ6HcUv9I6uVyr1arVaoIg0ER5HMelUqlGo1GpVFKp1Gw2EwSBlpYaDAY0kE/TNNJcsViMBubvONMGzXsxGo1o/Ssa5FZ1JIPBgOYCoUD4KBo9hmFqtVqr1aIGo4NVKBQikUipVGIYRtO0VqtFsm42m3EcR5HyzWazwWDQarUo2LxOpzOZTOjl6KuCVCpFUTJRs1HcG51Oh8by1Wo1SZJqtVooFEokEpVKhcb1aZo2mUwYhqFKrXd+tX4luO2NeOB/gs1bnQ82eisBsHn4ngAEHgABsPkH3gFDgUDgwRJA7ohWZ6JQLbeVr9Vq0cC22WymaZokSWS96GuATqfDcZyiKGvURfQnCtSIJqAja0QT6FG0Suu/JpPJaDSi0JZqtRoZMAociaI3ooWtd5xKjmGYRqNB3y7QhHX0QrQKlqIoVLjVmK3D/6jl1gYjj0EHhUJtGo1GhUKBFuCaTCaDwYCWAqvVanQUDMMg6TeZTNYAl9bonGhwHX27wDBMLpejuhBkVB1JktaDQhE/0bOoAbe9BTb6E2y+tyosHJeVwMO3eVynN+kwSofhWr0lWwYtDB0zb3Q6XKvDtVqjBjPKIQOB7kxAb1TpcZ0e1xk6stGoJzDM8oBWT+kwyxmugVWwNuqpoVggAASAwN0IgM1bnQ82eiuBh2/zmGU2gpYwGAgjjhuNegxX6jC5zijT41IDKTPScsKsNKghA4HuTEBuwCQYJTWQcj2uMBBqA67HcAwzEkbccm7rtLhWe7feBp4DAkAACAAB2xAAm++tCgvHZSXw8G0ex/RGvUanUesNBsyIa42kEjOpSbOWZtQ0o6QZGWXWUjRkINCdCchwk8hIK02MlmY0JkZD0FqMNBgJS8gmjdqo11BGGJu3TUcNpQIBIAAE7koAbN7qfLDRWwk8fJvHMJ1er9Lp1DhlImhaaSAruW25ZfUpmSVHLxafyLpx9jr7TFYlZCDQnQmk5bFSr9YmZ5afya3IKuXc5LXLdLiBpHHKpNOp9XoVboSx+bv2t/AkEAACQMA2BMDme6vCwnFZCTx8m9djGh2msMyPJ0mxWl1ayz+VXXrgdF5Iwvkt0ee3xlzckZC9M7YAMhDozgRC4q9uj8/aFpu+89DF6JSrKZkl+ZW1AqFUS5KW5R+YQm9U2qafglKBABAAAkDgbgTA5q3OBxu9lcDDt3kNhqlwo4Yi6luUF69WJJzMTrtSm1XaVMyWlzdoSgWaIp6yiKWzdS6o1eXX/Zqv1+mu1+oKOnKh7au29aHdsfzi3x9XIUt3e67VFv5tcjFLe/d8R4a3PlhQpyrkKIt5qussaVZZS1oO60By5qlLRexWlRInlEajmoQIlXfrbuE5IAAEgICNCIDN91aFheOyEnj4Nq8lSaWZqWnRHDtfFnfi6qWC1pommt3GCGRMo5IWyAmeTM+XmW2d2QozS2WuVVpyndLMVpi5ckvmycwCqSU3SG3eBlsfo7V8gZRusGTLQTVYjo7hd2SejOHJGG5H5suov09uklJ3z1Z0/2uDK8G5Uj1fRvIkDLudrm4wZRcLj54tP53NqhcapCQjJRkbdVRQLBAAAkAACNyFANi81flgo7cSePg2r8SIdoPp/LXq6KTsy0UNPDHdrLSoPEdkZguNHDHGk2EcMWXrzBZT9ZL/n9liCuVf6xVRXJHN22DrY7SWzxVRvI4j4v76r4kjRplmi82/ZgnJ/ttknoi8e7ai+18bPClhOVFFOFdk5kuZJgUjkDIF1ZJ9iZkZhXUSghFhYPN36W3hKSAABICArQiAzfdWhYXjshJ4+DYv05GVAtnRc9fT8zkCGSOQ0ux2hi00c0Q0R0xwxDhHgrGFpK0zt53kt5G89l8zt53kCC2ZLSTrRb9mW7fhoZZPsIW/yywx9ffJdSLq7vmebw1HTPBlBF9q4kkYnoThipm6NrpRQZ/IqEi6UMAWGdp0YPO26qqhXCAABIDAXQiAzVudDzZ6K4GHb/MqI5lRWHs47VpVo14go/kSmiOy+BBPauZKqPp2jNWqZYtIW2eekGxos2RBGyloJ3lCktuROb9VXf/bhq1b0jXl14spS/7toDgigiMiuJahZSPKtWLT3yfXi013z/d8U+rajXXtBq6E4kstvyzxJEx1E96kNFfytUfPF2SX8cDm79LXwlNAAAgAAdsRAJvvrQoLx2Ul8PBtXqolj5zNP5NbJSWYmhasvt3IlzJcsZkjNnElJoGcblIyXIll26ZZIDI1t1tyU7upUWhqEJn4HZnX0QyOxMSxcQNsenS3Fc6RmNhS2pJ/PS6KJyF4EoIvwfliI19sFIiN9VIzZCuB2wB2/pMvoxsUZp7EMmGJKzbxJOZWDcMWmRqVzLH04pOXS8HmbddVQ8lAAAgAgbsQAJu3Oh9s9FYCD8fmcRzHMEyv1+M4rjTQCaeuncgob7RMlzdzxCRXgjLFFdMd2cztMKQH+2/H1HyKJ6V5EpotJDlthEBICUQmXrvlX047YfF4EYUqZYuoBgXzYBvwEEurl9C1UnOdlK6TmuqlFEdC8KV4XZu2QYq1KQlum7JJouNIiL9PZkuIWzNXRvHkJq7U8i9PbmJLiD/wZtFcsdlyukqojkyiDYGcOZJ2PeXyDZGBIQgC9Tc4jt+l44GngAAQAAJA4AESAJvvrQoLx2Ul0E1sPv83m6c5YtwSHkRCWJxeTHNFZku2gc3zpWaLx4vIunacY1nhamJLqP+fxVSjguHLOqoWWUZbrWZvi8Z0cZn1EpolNddK6Vqpqc5i8zhfamS3awViXbNUx2tTNInVPJHh75O5YsOtmScx8qRGjkjPERt4Eowvw+/9Bok6zlWLzaPvor+ewwK5+UhaQcqlmyI92PwD7J2hKCAABIDAHyUANm91PtjorQS6ic0XnMiosIzNy2mOxMi1ZLzD5jtUXmSTQXG2iORLzfXtBFtINsgZnoqxhKdU0BwVUy+neUozX8E0qBiuhOaKKL6Ermsx3lvpbPCtwxaV1knoGhnDkplrZaY6GcWR4nypgSvW8YSqBqGiUaholar57X+jzBWqb8scobq+VcFqktW1yPli7b3fBYvNW2aI/WbzRq7UyJUQAjl9JK0w5VI12Pwf7XhhPyAABIDAAyUANt9bFRaOy0qge9h8StGJjMoOmzdxJHqu1NAh9ARXzFgMyTY2X9tm5Ektc2waFWaOmLoqkJ7htpypb84QtJ+ra87htl/nyVlSSqAwc9qIBjHNafkDA7Q9xealdLWcqZGbWTJTrYxiS408sZYn0fHaZA3tErFSq9DoVRrs75PlOuzWLNMY5FpMqtY3i2QNbeJmkewP2zzT8bMSYTmHLdkokJuOnClMucQCm3+gvTMUBgSAABD4owTA5q3OBxu9lUA3sfmSExcrG5VmgZziSHRcqZ4rwSxWZEubrxcSaMZ8k5IpqBF5xh5/x9vvHXef//huf9/FZ6nX9mN5N4uaNc1ahtOCNwrpJmHHfJse4ut3t89aKV0lZyxCL6ORzXNEKoFMx2uTNgnFOpzETTRjZv4+mWaYWzNFm2iGoWhaoVK1trc1tbbcnafl2V/H5q02r7ecxlKsw+aLUi7VinQw0+aPdr2wHxAAAkDgARIAm++tCgvHZSXw97X5jsAjdH070SBnMgo4P+7Y+8Zqhzd+XDdnvfv0lesWrHaPvZB/jS9v1THsFmOD0NRiWePYS4T+DjYvVDXI9Lw2SZNQglEmE8MwtPnvk2nGfGsmTZTF5s20TKFoaGpk87j3fuvB5h9g3wtFAQEgAAQeHAGweavzwUZvJdA9bP5UwYmLNxoVHbeAtUSEpDomHxMds+c7ptHfS6MFEgNfYlmwyJEa62REnYywzAi3hG0x10uZegnTyjVImkwNYlOlSF8lxurlZFOLXtSCSRp0ajFVWFzvtffQu95b+3j7TY4+MmFv4ofuEQln89lSU6kRL9IzN2UUu5XhSvBCHVGoI8rUVEs7xReR9RIiEzfkGfRFer2uWd8mVLd25CaRpkGsEUg0XKm2Xm7JLIWuRqmrk3WTyfck1xLFhaqXmOqldL2U5khIjoRkNyvahXKSpC0ef69EdyTz75P1QYZhzGYz+pOmabSN9rUWbDbfuxbrzrbdsP4QYRmjpxjGxDA0bWLUSpLPbc/JLL2QX1fTrBfIzPVCgiOifl0e/bvTkvhtvQfRMdkGRWQyCWTMkTPFKZeqYKbNg+uaoSQgAASAwH0QAJu3bQcKpXcDAr3E5nligiu2hMHpsFKKY4lOY4kQ3xEk3hLmUiRlRFJGoGPqTEy9ieHQTIOWadEwbQqmXc/ksqUeh8/O8d7xlIf/+P1Jk2NPfeAacfhMPldiuqnHKjVUvZhobmTa2vCbSuKmkqiVkfImSthCtYroAsJcZKBK1Liab6xW4NUKvEZBsORkrYzsCBdD88QMT8zwRYxAyPBE9L1HeX/niDb6NeAB2PytZ++t4m76LVEdiaZp6563yr31wW6xcSebN9OMUm5kVQtSU7ISzxUU10m5YhNbSFp+1ZF2fh/B5u+jc4VdgQAQAAJdRgBsvlv0s9AIWxLoJTbPFVvu2oOyVZd5Ysqaq3jq7OKG+OzyyOs3I6/fjCpkxWZXJWRVH8liHcpj+6fkLQk+8G+v4H/6hoyIODRiV+IHrrsTT+fzxaYanaFGhfOFuFBAi1pwlpxgyQmOhFQ3UPI2U0Mjfl6kzlUaKwlG2UhWqMhKJXVDSVXJTTUyU62U5ojNAqHF4xvbmOZWRtDe2QJt5Ot3L/YB2DwacUcnp9lstrq7dcSdpmmTyYT+RLpv3dm6jy3P7fsp+/c2T9Ok2Wwymy1j87U1jSknLh8+k19cLxXILFFNOSKqXtg5Aj3YfJd1zVAREAACQOA+CIDN3093CPv2SAK9xOY5EoYjtmSu2MwX0R3ZJBBRAhEpEJN8MZmcdcN/b/JC14B5G7fP3Rj4zuawBe6hH3nsWuKz/9OAA7O9dk9y3D5t464+gVEvhx18aXvcR277klLzG0Smeo2OrcBa2oxynknWTLClltwgIvV8yiihWVXybZeu+5/NS+XJVUKmREOXqukytfmGgqmSMSypJSBPY5sltzYz7U1MY1vvsflbz3eapnEcb2trEwgELBbr5s2bN27cqKmp4XA4ra2tarWaJMlb90fbtw7bd362Sx/5vc2bTARtNjFmRqcxcditZ0/nHk8vqeCpmpQMX2rmiKi69s4BjsDm76NzhV2BABAAAl1GAGy+S/tTqOxhEOglNl8nYeo7bJ4vYhqEltwopAUiy9R2nuXmskR0duXaXYemO/q+ERA6yS/sNf/wSV7hUzftm78jaV746TfCT722Nf6Nzfv/tSNuQPixIeEnP/KIPZaa3yikuWqtQGaZYa9lE+2tBEuOs+Q4T0yoBaYmnvFMRs3ShNSZ26K+O3HlYjXGlf566yu+mOKLTAIR3djONLdZcksr09rCNPSisXmz2UwQhFQq5XK5eXl5Z86ciY6ODgkJ8fX19fT09PLy2rx5c2BgYGRk5MmTJ3NycmpqalQqFYZh1tF6U8dq24dx2neq8/c2bzZTllXANKNS4HWsxjOnspPOF5Wy5TypZWCeI/71DsHWX4E6NsDmu6xrhoqAABAAAvdBAGy+U58HD/Q2Ar3E5mulTJ2EYYsZvpBpbLfkJstovZklMjVgzE0ltfcae2VE0pi1G1/xCRrmEzLMP2JsQOwIr70jvPbbbz86bOfJ8UFHRzmH2XmGPR90+IXAw2877zuaVsgXM404wVYYJFJawaN4UrJQZShU6qsUuKjdXMhS+MVfnBJ34q1TuYMikr8+xmpkCQ0yupUrb2tUt7doRUKsRYS1KshmGc4WatliPVfaeYbG3afE2OjZPzPTBk2nsSo4QRClpaX79+/ftm2bu7v7unXrnH+fXF1d3dzcXFxcXF1d3d3dvb29Dx06dOPGDa1Wi4TeOjZvNptJkrSW/BA+ZL+3ebQK1kxbxua57NbTp7ITzxWU85SNCsuNzCyrYKWdAxyBzd9H5wq7AgEgAAS6jADY/EPoVaHKriXQa22e12biy5h6GcPXMzcVpt15tSsjkkav3ThsY+Awn9BXAna/4r17qFvESO/oMUHHh4enjNuRaO+y025TxAshR57fbrH5gynXaptxLobXSrWtbbicS3KlZJHKUKgyIJvPqxStDT48cV/iR5fKxh++9J/YkqvpxfIWvaxZJ2vH2pq1rS3aZqGhSWpsEBvYQq3lxliWIPo2EvT7KvbP2Dxaw4rOT6lUmpubm5CQ4Ofn5+np6erq6ujo6NYpubi4ODk5OTs7u7i4uLu7b9y48ciRI2VlZSqVqmvP83vVBjbfZf0qVAQEgAAQ6FoCYPP36gLh+R5PoJfYfJ0MhVmkBR2hYwRCpq7NlFWvPFMtOctTHuPKvVOKvgg+OtY5cNSWPfbbo0YFRtv7Rb/qHzctNPnN2IsTD6RPDj062TPi2e0xAyOO9wtOfNs9OvTwpQulzecbm1PrGrKq2rkCqlpqvK7DruuwSqWxTcjk1Mg+2xQ5YO/RGVdqh1+4OSa6fN/BSzUCjUBs5EswjtDQrDIJlLhAbeCr9PUKJUsmrZfoeqjNW6PWGAyGpqamEydO+Pr6urq6Ojg4uLi4eHh4uLm5uf8+eXQkNzc319/S2rVrXVxcAgICUlNThUIhRVHWKDfWiJYP5yMFNt+1nSvUBgSAABDoMgJg8w+nY4Vau5BAL7H5ermBLcO4UqNARPFEDE/E5NbKvg9J+tAnamnkqQ/2nPjE7/A8p8gJzjtfC4qfEBQ/KiBqlEf4aPfwyb7RrwcdGrkjbvymiOluIf0C9w8OTxwQmjjdafcnTttXbY/7PHLvorB9y3ceScgW1LcZKjV4pZaol2LyVib/huyrjTFDY8++lskenMF/JZ7/2pbDS5MLFx24/HnM+Z+TcrZlVZ+uk1SIsFqVmScz8kUangjruTbPMIxOp8vJydm3bx8aj0dTaDw9PT08PFxcXG4bmnd3d/fw8HB3d0dC7+zs7Onp6ebmtmbNGldX1xMnTlRWVhIEwTCWm6SiUPQURXXhyX9LVWDzXdavQkVAAAgAga4lADZ/S28Hm72TQK+xeS1bpuNKDXwRwRVZIslk1rTPWx88ern3VM89o9x3zfgpdOqqoHEbwsZtiZmwPW6kb+RYr90jHYNHbdhh77lrsM+usR7B0522veAXPmTnoaG7kyf+HDR56do3l7uOc3Actc5typrNgamV7AZtrZqs1ZA8EaZpYoorZK7hZ8cdzp6SxX81TzLmSNsLO04M33P+uU1xr2w+8Pq2w7O3HVqfcPFitfiGzMQXkS3txibJHRdQ3tckmQey833PtDGbzRqNJi8vLzAw0NnZ2dXVFU2hcXV1RTPjO4/No6eQ4qNtNBvH29vb0dHRy8srKCiorKyMIAjrBHrrRld/2sDmu7ZzhdqAABAAAl1GAGy+q7tUqK/LCfQam1exZRquVMcX41xLnErmYrXog43733AMe3NL/Bj/2Hecouc77n/Dbe/ErXFTQ49MDkqYsnn/GMegET/7j3YNsvcLn+G/+22vsIHb946NPjn5yKXXHXa+vsxxxkr3Sd6bJmza9oZzYEgmj8dV81QUX21qbsOwBqalmTmcwZt0OG9UcuWrudJXD4ufSix86WT5cwl5ryeXToq+9LJr5GdhKZfqtPV6pklkbmskW3rs3aMoiqqsrNy2bdu6devQJHhfX99NmzZ5eXl5eHh4e3v7+fl5/T55enp6e3v7+Pj4+flt3rzZx8dn+/btaDjfzc1tw4YNjo6OO3fubG9vJ0kSzeS5YyDLrvhQgM13Wb8KFQEBIAAEupYA2HxXdKNQx0Ml0CNtvl5I1AsJjsgyzs2XmVvUTJ1aypIIOTJJu0rXJMe4QnUuv3XmxsBhLr6v7ox6PnTPSO+oYW67h3jufTX46ISIk6PDkkaGHXneM+xp522D/MKHB0SM8d/3qve+oZ7hr4cfmxl/tp9f+JNOm59xDRgZsHuIQ8AE7zCfQl61SqWXGbUSjGnC1a3UTSGxq4gz4WR236PZw/Kbnkhjv3i+5qn4rJcOZU+NOzclMG6GZ0hY6pVGGdOkYPgNerGIaZH0mHjz1jiSaEMqlR44cMDR0RFNkd+9e/eRjnS8Ix07diwlJeXw4cORkZF+fn7rO5Kbm1tkZGRSUlJiYmJqaurJkyePHj167Nixw4cPb9261dXV1dvb293dPTk5WavVUhSF4/hD+yyAzXdt5wq1AQEgAAS6jADY/EPrW6HiriLQI22eKzbxJLQlSqDEEi6QLSQbhKpWqY7NF9fUCqu46pscVeIV9ltuu0at3fqqb9QAv/2T1wdOWLN1wrrt07x3v+m3f8qmPWNdAkes9R25dtNrzgGvuwZMcdk+zSloikvQ21v2zw+MsV/vM/z/XIf96PqGs9/knz1nrNvknHjhHKuhtF5aUicuqZKeqpFuKeB+fCKrf8KFlxKyByQWDY4uHbDv8qjozLH70qdujV8Ymuh7uiBfoGpVM3wxxWvDG0UmTlvnuw49kJkz91vIvWfaoEkvKGqkTqfLyMjw8fFB0Wnc3NzS09PVarVKpVKr1dqOpNFopFJpfn7+tm3bHBwc3NzcgoOD8/Pz5XK5SqXSarVqtVqj0ajV6ubm5qNHj7q7uzt1pK1bt5aVlaHq0DeHrjr5b6kHbL7L+lWoCAgAASDQtQTA5m/p7WCzdxLokTbPEVH17Zbheb7M3KhkmpRMM1sla6Gyz1cEbT3s5n3AwTVq1cZDr6/YYb98x9gNUcNcYuf9uGnOSu+3Vm18d13AAsdt72wImLbc+d8rXWb/6Db3R5e5Pzi+tdJl7iqv+T9vfH/d5vfWbJr9vfOc7x3f/GbtO6uc3lvpOPeb1V+7b/nGP2pV4MHvtxxYuuPIjN3Hx0afeiUpY8SZkgkpN/rvuPC6X/bUXRdnhKR9mnDN72LtWQF+Q81wZAxPTNU06dhCnCsz1wl7TIRKpNdo6guXyw0NDXV0dPT09Fy/fr2Dg0NeXh7DMDRNo0kyZrNZp9Op1erS0lJ/f39k8zt27CgqKjIajRRFoW8F6F+5XJ6UlOTo6Lh69WpPT08HB4fo6GixWGw2mx9ayHmw+a7tXKE2IAAEgECXEQCb750CC0d1C4EeafMCmWVgniOiBDK6UWHmiqkKNVOmY9yP5c7YtO/NyDOzo87POJI/KbF04pGKN5JrJx5l9T1T3+dM3Yuna19OqxucVjv0DOuV09VDU24MPVExPKVyeErlgNM3XzjPeimNNfBU9bCTVeNP1Y5NvjEqsXT0qRuvnK/ql1L08oXKWYk5MxILXk+4MvZo+bA0zqC0+sEX+a+l1kyMzJq5PS3wWF0BW1vCUZaxdfV8qlXItLWbG1uIRhnNF1PVUvKGylwr72EzbWia1mg058+f9/b2RpEo169f7+zsfOnSJRzHkX8bjUYWixUXFxcSErJ161a0HBaFpwwICAgNDT148OCVK1c0Go3JZDKbzRKJJDEx0d3dHd1eysnJadOmTVeuXFEoFDA232XdG1QEBIAAEPibEACbv8X6YLN3EuiRNs8RU2wRyZPQAjlT02K4XMTLEBov6+lvEs8P2bF/xOm8EafzRl5h219pHnmRPzlH/O9M6chsZlQOMzbLNPkiNuW8bsZ57dx03aSjbeMONk47rZqVQUzIJoZdo8blUJMz8OlphrnH1dMOtE4/0DbjlGJylm5slnpsvmFQGefVIuHIq82TLsrfPKV6PZ4/6yBv7r6c13yiVxzLOKdUCsWMUsncvCHKvnTjZnmbXs0IRaZGmblJZmbJTJVyU620h9k8wzD19fXh4eHWOTbr1q3z8PDIyspCHwg0mi4Wi0+fPu3t7b1q1Sq0ztXd3R2Nu/v6+qanpzc0NJg6EsMwUqn00KFD6L6xKK6lq6trfHx8dXU1jM3/TTpXOEwgAASAQJcRAJvvnQILR3ULgZ5p8yKLzVc16i5eZ0ceSV/hEOAWEBV+Mvf74APjN4UP3X2if+iRJ3emPLrj9JMBpwaGZU2ILBqYUD4gvnxoXPHY/dfGRmS+GnxulN+J/q7xLzjGDPJLGROeMyT62vMHrw+JKxi59+rwwIvDXZNf/ClmwNr4QZuOD9h17uXoS4OPXHnyRM4LySXPHyvuF1Peb+vVZxxPDPFIHeca+ZrLNofUcwns0tSc4vD4kz86bV61zmdfXGphWQO3Uc9tJwRiql5iqpGa6iX3O8HdRvv/0XnzDMNcvXoVDcw7OTm5urquW7fO1dU1JyeHJMn29vaysjIej0eSpE6nu3Tpkr+/P4o9j2Q9ICDg0qVLOp2OYRixWMzhcDAMk8lkSUlJKGK9e0dyc3PbunVrWlqaVqu1npxonB4N5xMEgeM4hmHoQXTPKYqiCIJAIerR4yRJYhiGVtOaTCaj0SgSidRqtV6vV6vVio5057W2MNOmy/pVqAgIAAEg0LUEwOatHSts9FYCPdLmeRK6rg3Pr2o/ebk8Njk7eH/KobDEY4cubdwa95ZzyFDvqIFuu5/3O/Ksd1Jf96RhXqcmb7owaOfxgWHHXtlxaOKW6Akbw8c5bXvNYct4h62vbtg6yiVktM++oYFxfXcmDA9OGL0lboxn5Pg1wRPWBE1cGzzGNXSo364hgXsGhe79x77TduHn7MLPPRF0+V8eZ55de2jAT/vHrPL5eNvOsOvZsTXp8VlZocdPbNoX7b83fn/yhdPZZRX1Mr7I1ChluEKKa1m522PG5q2rYM+ePevs7Iwmxnh4eKxbt87JySk/P58giLq6utjY2JiYmNraWoZh0dcIQwAAIABJREFUVCrV2bNn/fz8nJ2d3dzckMprNBqz2axQKM6ePZuWlqZUKjUaTWJiopubm5OTE7q3lJubm4uLS3R0tEwm6/xJoyjqxo0bUVFRaWlpKpUKjd+3tbWlpKSUlZWh/c1mM0mS+fn5sbGxLS0tDMO0tbXt37//3Y708ccfL+xIn332WWxsbOcqGLD5ru1coTYgAASAQJcRAJu/Q68HD/UuAj3T5qV0basxv7o9s4SfU9ZYwBJVF1VdL6oOjTvx9qZdAzbtfdFr9/OhJ/8ZeubZoNN9dpx5OfCMXfxFu4QMu/2pj4UlPBUU3Sdo/0vB+/uExDy388Cje47aRZ20iz5pF5diF3PqH1Ep/4g8+cSuY//cnfzP3ccf35NkF5VoF3XYLvrwZO+z/Taf6uubYhecYhd05Bm/qOfdg2c7bfI/ejy/trrixrVk7o0Ubs1pXt25ev7Zat7ZCl4BW85uI/lis6CNbBZSjT0nQiUa/9bpdCdOnEDajSbPoHjzRUVFDMM0NzeHhYW5urqmpaXp9XqSJAsKCrZu3bp27VonJ6fQ0NCqqipk+YWFhTt27Dh+/LhCoTAajYmJiS4uLijepaurq7Oz8/r168PCwpqbm9Eo+62fMoqisrOz58+fv3bt2ps3b6Id6urqNm7ceOrUKYZh0H1kFQpFRETEokWLLl++zDCMQqGIior64IMPpk6d+vzzz/ft23fWrFmLFi1KSEi4tfBft8Hmu6xfhYqAABAAAl1LAGz+Dr0ePNS7CPRIm7dEpRSRXDHJlZA8iYkrMTVLVRwVdrKC/fG+4322xvcLPPR05PmnY7L/GZf7r7ic56Iu2x24YXew6vGYkj7hmcP35kw9VDj9UOGY6NyXd196Zv/VfxwofvRA8eMHih+LLXwipvDp2KIXYoufjbr2bNS1f+3Pezr6ylMxuU/G5I7zyewXeLHv9nS7naeeCD7Uz3/f64GxXvGp+Rxhu1zf1tpWplNU6NSVOl2VmrypIKqkxI0WnCui+RIz3xJGE+dbmm2jyTP3Vey9Z9qg0W6hUBgfH+/g4IACSrq4uDg7O3t4eBw/fpzP51+/fj0wMHD16tUBAQGnTp0qLy9PSEjw8vJav369k5OTj49PWlpabW3tuXPndu7c6eLikpiYWFtbW19ff+DAAQ8PD1Ssa0dat27d9u3ba2tr0cwZa8BKk8lEUVRVVdWCBQsWLlwYGhoqFArNZnN1dfW2bduSk5MZhsFxnKbpGzduBAUF/fDDDwcOHEBzezQaDZoL9P33369YsaKyslIkEun1+jt8hMHmu7ZzhdqAABAAAl1GAGz+Dr0ePNS7CPRIm7cKMU9K82VmgZyplMmrSTJXSy4+lWvnF2vnH2cXecEuIc8uqcAuudDu2DW7qFa7qNYndnMH76p6LZozP7Hluyumt461DtlV/kRElV0U57Eo3lNRgif38R6P5DweyX4isu65WN6zMbxn99X9c3f107sqnworH7Yx5/ngzOeCLtuFnXgmMGbUtuhVJ3MvV7S1yMySdkLSriuXSm4qVLUarE5trlWYWVKGI2cEcoYvY/gSiic0cIU9Jt48svnGxsZ9+/Y5ODh4e3t7eHi4urp6eHigiTcoxI27u7uLiwt6PCAgAG1v3LgRTbX39/cPDQ1Ffu/s7Lx58+adHWnLli1eXl6Ojo5I5dH2tm3bysvL0bz2W50ex/HS0tL169ejoJYXLlxgGIbFYm3duvWXiT0MwxAEodVqjxw5cvTo0czMzL179167dg0Jvdls5nA4q1atcnBwEIvFBoPhzrebBZvvsn4VKgICQAAIdC0BsPneJa5wNHcg0FNtniPuCDnfTrCFJFdiam8wNLYQLUomIqt9km/GCKeTffyvPLGz5PG95Y9GV9jFlNgdKrc7UGQXmfnyvvRx8ZlTEi59cZ0/NSX/pf1n/pFw2e5Y/mMJV5+KyXvswNVHEvLsDubaHcyyO5Rpd/CyXUz6o5FnHw0//VjYKbvoG3b7r9lFXnkk+NRcv6NukdnlJVq8hZE0MPxmpkDFiNq0ba36lhZDY6tJ0GYWCBm2iKkV0bVic52MqJXp68VG61eRh7px77F5NNOmoaEhMjLSwcEBRZP09PT08PBwcnJyc3NzdHR0cHBAQWnc3NzQ4+hOsSgADrJ/R0dHt98SeiF6FboRrJubm6urKwpj7+Pjc+3aNQzDGIZBzk1RFFr5mpOT4+vre/78+cjIyD179rS0tNTX12/fvj01NRXt3N7eHhwcXFhYqNFokpOTT506pVQq0ZwcNpv9zTffbNiwob29HY3i3+FzADbftZ0r1AYEgAAQ6DICYPN36PXgod5FoKfa/G0qzFbhNQpjhVR/TYa7p+bMcPQb77ZjtF/UsM1Rr+48Zh9xclJ4xht7MidF5/YPPztg/6XZ11reqpANOV3xRMzlf8ZfefbAlceicx+Nvf74gcInDhQ9HlvwSNRVu6ALdqEX7cKzHonItgu7ZBd0oW/g6Ve2He3nHfO6966A01m5zQqW3MiT4HwxJRCZ+ULmtlZ14z/vbfMMwxgMhrq6usjISDRvHgm9l5eXu7u7o6MjCkfj5eXl6enp5ubm5eW1oSP5+vq6uro6OTkhs0cD8Js2bULraB0dHdevX79hwwY0nO/p6eni4uLu7r5mzZqNGzdev36dIAiGYdDYvDVqTUFBQUBAQHFxcVtbm5eX1+7du+vq6nx8fM6cOUMQBEmSLBbLw8MjIyNDr9cfOXJk586dAoEA3biKw+GsWLFi3bp17e3t//PDCzbfZf0qVAQEgAAQ6FoCYPP/s++DJ3oLgV5i83UKrEZhrJQZitSmkPyaryIOTXQPHuUbOT7kyCuBB0fuOrEgqeK/Z+q/LZR/kNcy8kj+y4fyRp6veu5grt3e80/GZD0Tk/NEzJXH44ueiC96PK7wkeh8u8jcZw4UPRGd/4/wTLvgdLvQDLtdmS9sO/Wi5/7+G2MXHzibVN1YqiB6t82TJMnn8/ft23erzXt4eLi7u2/evHnbtm3+/v4bN25E0Wnc3Nw2btxotXw3NzdnZ2cfH58tW7a4uroiZV+3bp2DgwMKXonC0qNwlh4eHuvXr/f39y8pKbnN5tEdZ69cueLr61tbW2symeLj46Oioq5duxYYGJiWloY+iefPn589e/a8efMWLlw4adKkr7/+OicnB62OZbPZP//8s7Ozc3t7O9mR7vDhBZvv2s4VagMCQAAIdBkBsPk79HrwUO8i0EtsvrEdaxQTXKGRq2KutmIny5u/2pHweUSy1+Uqt8waz2v8eFbrEY7klJqO1TNfXakdEn78uaiLT0ZlPhKdZxdXahdbaRddZre/2C6qyG5Pvt2uK3YhmXbBl+2CL/8jKOPx4IwnQy4/E5Zp7x43b2viyqSCUxx5vYrmyYhGEdbajre0US1tTFNbrxqbR+tQJRJJTEzM+vXr0ZQYtBbWzc3tyJEjFRUVly5dCg4OdnJy8vX1PXDgQEZGxt69e5G4I+lPSkq6fv36gQMHfH19nZ2d9+zZk5aWlp6evnPnThSVEtm8m5ubg4PDjh07WCwWRVHoFrMMw6AlsDRNX7lyxcvLC8XBrK2t3bx5s6enJ7J5k8mkUCi2bNmycuVKX19fHx8fb2/vdevWbdq0CYWqrKur+/7779etW9fa2moymdBx3f4pBpvvsn4VKgICQAAIdC0BsPnbuzz4u9cR6CU2L24hJW10WxPRKqRbFUyLnDmZXbPreG50enmuQF8oMbMaOTd5tUXNjZcU2h3l9R/Ep/YLOvavsLOP7cmxiyq328+y211qt/OaXdgVu9Acu9CcR4MuvxSe229XzoCgCwMDTr248Wgfj0PrIs4mFzSXtDNNKqal3dDcohW26YWteFsr1dra22wehXXX6/WHDx9eu3YtWt7q7u5uvXsUwzAtLS3h4eFOTk5JSUlKpZIgiJKSEn9/f0dHRxcXlx07dqAIlSKRKD093cvL69y5cyqViqKoY8eOWeftWCNUhoaGNjQ00DRtNptvjWnDMExxcbGPjw+LxTKbzRRFJScnv/feex9++CFaBVtVVeXo6Jieno5eZTKZjh49+uOPP6Iwmlwud/Xq1S4uLmKxGI3W3+FTDDbftZ0r1AYEgAAQ6DICYPN36PXgod5FoJfYvLDVJGwztbWamlqpJrGpRWpmC4m0/PpdRy7uTs46dKms9GZZJetGCZ93Rao+3iTzuc6aGX95+K60Z7alPBaS+Y+d+Y+E5T4Wmvl4UMaTQenPBKf3Czo3aMuJ/r5JgzwPvBZw9JOEqz9fZOfUaXkKplHL8IV4S5tOKMLa2nUt7XhTO9XQznB717x5ZPMmk+ncuXPoLrAoiA26e1ReXp7ZbOZyuQc7EpfLNZlMra2tvyxL9fPzc3JycnZ23rJly4ULF9ANoZRK5blz/4+9946OIk3zNfeP3Xtnz7ln7+zunb27M3vv2b0z0zO3e3t221f3tJk2VV1drquoAspRFFB4K5CEd1V4U0BB4aHwIAQIJJyQBAL5lJTeexsurWy6iPz2RiZogMIUJSIjJf3yvEcnlIp4481HqfM++emLLyovXboUDAZ7enpy680XFRXl7gg7P/vI3T0qp/I57c5tp9PpmzdvLl68WKvVJpNJQRBisdiCBQu++93vlpeXOxyOgwcPrlixQqfTZTKZRCIRj8fLyso+/vjjL774ore3V6/Xf/DBB1OnTvV4PLnp+I/4E4bN562v4kQgAAIgkF8CsPlHdD08NbwIDBOb9/p4r4+nGeKjBIcv4fQn7f4E1UU09tDmvWe2Hjh7tvxUVVVFxY0bZW2qShd3xtv1mbnrzYvKv91W+ZefX/83W2r++3VV/2ZNxb9ddfYvlp34d0uP/8fFh3+88ewLW86P2n99abX+tDfRnCGuELH5k1Zfwh3o8/piHl/MR/W46KSd5i0MMbDDcKYNIeT27du55SlzNj979uw5c+bU1tbm7h6lUChomiaE+Hy+06dP51w/d13srFmzli5dmrsyNXcPKbfb3d/fz3HcmTNniouLp0+fXlJSUlxcvHDhwuXLl5eVleUWtOF5fmB4PuffVqt1//79brc7lUr19/cnEgmdTrdjxw6FQhEIBA4dOnT58uVIJJL7BJJOp2marqqqOnjwYFdXVzQa3bhx49atW7u6unLLWT7iTxg2n9/mirOBAAiAQN4IwOYf0fXw1PAiMExsXs/w5pBgCgomNm0Jpi3BlJnpN1HdjlDc6I82au1fXbq98+Tl9QfPbT9Xt+da2/YrrV80mFZf65hwqPK36w/8fO2+X248+rN1R3+7+eSovZfG7quYfqRq69Xm8yaqyRc1h+O2SNwe6rUzcQfTLwbba+N6TGy3nulWBePKcLojShRdw8rmB+7Jarfbd+3aNTDNPbfue01NDc/zuYtKM5mM1+v9bzdyWrlyZe6K2NwVrjmnX7NmTV1dHU3TA47OMMypU6dyC+PkVH7evHmHDx/OTZp/6O8r/bWHIAi5+fSpVCqZTPb19fX39yeTyVz+3K1hc8/H43FBEAY+AORm5D+U/+63sPm89VWcCARAAATySwA2/+jGh2eHEYFhYvPKiNAeTLZzSWUwqY/wpi6iCya1VK+e6bNF0o5IWhEm7RHS4E2VNzn3XmjZVVa/63TNuv3l6/af3Vl+9cuL1V9U3tpbqzqjsDV6u1WhlCWa9sSS3q6kiwlTbIhigy63x8IlzNkwBRP6UFIbSqpDyc5IuiPGd3RlFN3DyuZz89dz61RWVlYuWrSoqKhowYIFc+bMKS4urqur6+vry81TTyaTOp3u+PHjR44c2bBhQ26Z+ZKSklWrVh05cuTkyZMVFRUGg6Gvry/n0wzDHDt2LLcGfUlJSVFR0apVq2pra3NzcuT544LN57e54mwgAAIgkDcCsHl5GivOmkcCw8TmtT2kI5RSRQRtVNCFeWMsY4rw5nBaR/daQklHlFf3EGOSmPpJizt1Q8vd1LJ1an9Vi/lah63ZyTa52ZuO4C1fXyubMvURe5I4ezLuaNzgDzuooNtHef200/WwzWtCCVUo0RFJtUfSiijfGhMKeIF5/sHanr7e/MC8eUEQOjo61q1blxtxnz17dlFR0c2bN9PpdG6YPJlMRqNRr9drt9vPnj27YsWK3FWwW7Zs0ev1wWDQ4XDEYrF0Op27z2soFDp+/HhRUdG8efMWLlw4ffr0bdu26fX63t7ePL7zHzwVbD5vfRUnAgEQAIH8EoDNP9jw8N0wJDBMbN4Qy3QycWOMtHm6KxpNZTfV7Y5ud5SYacHGEistdIYynSFBy/E2TlzxhokQP5WhOcIEiS+YcQczLo44GGKjBBvNu4PE5Ou73qgrv9ZiCcTsTE82uq1MxsoQK0PMLDGxxMhmDIygZ9J6JqVnknq6QO7z+pC4P/Lbb2rzOWUPBoNlZWWLFi0qLi6ePXv2/Pnzb9y40Zt9xOPx/v7+np6evr6+cDhcWVm5dOnSmTNnzp8/f+fOnW63Ox6Pd3d39/f3x+Px3t7e/v5+mqZPnDgxf/78WbNmzZkzZ+7cuVVVVbl7vg5M73nCn9rABbIP7TPw/P1J7l/EZmCHhw4Uv4XN57e54mwgAAIgkDcCsPlHdD08NbwIDBObd0aIkUp4YqS62Va6et+EWWsbOxgqRJx+4qXEtSNtkS5bOOZguzyBXr8/zvh5ly3l9WS8fmLxEhNNnDTx0cRNERdFfGGitMcXbjoxYcHWimanwp9Wh4Q2Ku0KEGc2HAHiCBAXTbws8dPETwl+fzrgSzw4/v1IjS6QJ59u8/e/z1OplMVi2bNnT241yaKioh07dpw9e/bUqVMXL16sqKg4fvz4qVOnjh49un79+tw9X0tLS1evXr1v374TJ04cP368rKzs3Llz58+fP3v27MmTJzdu3Lgg+ygqKjp06JDH47n/dE/eHpgC9OTdnu2nsPm89VWcCARAAATySwA2/2wNEXsPQQJDxeZTVuZfw8amLUzKQidtXNqa3fZ2EQuT9MSES7e070woeXn09EY15QnxToZ30Lyd4s1MtyuWdAT7feG0m044fHEvk3EG0k4q7Y0SK5t0sGkHFXdzaRcnODmhUctMKt744pgZx64qdEza3sVrmaSdSjvZjDWQstG8NZBysryb4z0c76RTLjrlYVLOkGCmk2Y6aWPT1rsV8uJGrnjxyXRhGP/TbX7gFk6560oTiURLS8uGDRvmzZuXG3pfsGDB1KlTp0+fPjf7KCoqmjNnzrx583IXtpaWlhYVFc3OPnI75Ab1p02bNnA72IULF37++edGozF3Detjb+304N/V/UPvD/5kEN/B5vPbXHE2EAABEMgbAdj8ILojDh0aBIaIzbNJ631hDPSZ6bgrkjFR/Q1ab9n11r2nrx04W321yXChrnP0J8WvfzirSe+h+8XbPN1Wu09fbd57+tqRilsnqhrUrqgjxFvZpDHQ54pkHCFe64mduday78z17V9VHKm4Vdtuc4T4Bq135pJNf3p36vnaDnsw3aT3X6pXd9iCJqrfwiQsTLz8huLzQ+c37z+778z12narPZjOfqJIWNmkr5t4u0izIXD6avOhczXNhoCFSdiDokBbRaEvhOH5p9v819+/PT099fX1mzZtyi1cU1paWlxcXJJ9FBcX566Rzd0TKvdkaWnpwoULc2tQLliwIHf/qQULFixcuHD27NkLFiz47LPP2traBhajzN389evnzcczsPm89VWcCARAAATySwA2n482inPISmCo2rwzLNiDySuNus8PnZ9Ssnb0J8XvT19csmbX5v1nR00oev3DWa0mD5cUlXrTvrJJ8z99b9qiD2YsmTBv1YGzN1qMFBMnel93oJeonJFjl25PW7h+3Kxloz8pfm/aomWb97db2Uadb/ayLa++P6PqjrbTHtp1vGrppv23lE5nmDf4eytuKmcs3jBqQtGb4+eOnVK68vPDVXe0el+PMdCbLSzdaqJ2HLk4Yd6qCfNWVt3RmOm4I8RbmER2zH6o2jwhhOO4S5cubdq0ac6cObNmzSopKVmyZEluXZr58+cvzD5y+j6wZE3u2/nz58+dO7ekpGTp0qW5G8pu3br1woULuTXgc2vj5P4JIM+fA2w+v80VZwMBEACBvBGAzcvTWHHWPBIYkjbvDPPOcPrMtZZJ81e/M2nBxKLVC9ftnr96+7tTS199f8ZP/vDOqAlFbeZAvcpV/NkXr384c8K8VfNX75i/escHM5aMmVyydNN+g78rOzzfvWHPqXenLhw7pWTxhr3LNh+Yvmj9pPmfXms2tlu5nM1/eeLyss0HRn9SvHDd7hYjpfd17S+rHjul9J1JC5Zs3Lti66H5q3e8M2nBe9MWnb7a7AwLJqrvwNkb0xauf3vi/AnzVq3efqRGYR2w+eyUmyFs84IgUBTV2Ni4e/fuxYsX56bRFxcXlz7qkfP4kpKS0tLS3GT63P6lpaX79+83GAzd3d25SfCPvUVr3v4SYPN566s4EQiAAAjklwBsPm+9FCeSi8CQtHkbl6ptt01buP61D2Yu33KgUefT+3q0nq7ztR0T5q363i9eGf3Jggatd8Oe06+8N734s50NWq/KGTHT8dtq9/ItB1//cNbnh85r3LELdZ2vvDft/emLT11p6rSHDP5eMx1vMVIWJtGo85Ws2fUvfx7/9sT5P3/53VlLN3faQ1Y2vvXguVffn/Hx3JWnrzZrPV2emDjnfs3O4y/8cez81TscIf5Ko/6j2ct/99aEz744pnJGjIG+3LwgK5u0MAkznRy6M20G3qPpdNpmsx07dmzNmjW5RWnmz5+fmzyTm3uTG6TPTbPJzaefk33MnDlz9erV5eXlXq+XEDIwJD+QWZI58QPZn7ABm89vc8XZQAAEQCBvBGDzT+h++NHwIDAkbd7CJI5duj1qQtGSjfsadT5vF0/3EwvT74oIh8/X/eq1D8dOKa26o50wb9WHM5fUddgDvRlHKO2KiJfJ3lI6Jhatnly8prrVvGHP6T+8PWnv6WuOUMoZFifTe2IpVyTlivDNhkDp2i9/8od3Xho9ec7yrbeUDl93pt3KTF+04TdvfLTreJU9mPJ1C0oHd762Y0rJ2t+PmrjzWKWNS209eO6V96ZPX7Thjsbj7Uo7w2kblzLTcTPdb6bjFmbI23xuncd0Os1xnEajOX369Pbt21euXLlkyZKBMfjcWvK5ifJFRUWlpaXLly9fv3790aNHtVptbu35nM3nsuWmzn9d7vP3Nwabz1tfxYlAAARAIL8EYPP5a6Y4k0wEhobNZy88TZjpuJVN2oNpT0zYtO/MWx/PO3apXuWMZOe39BsDfc6wcLlBN27Wsrc+nne+tuPtifMXrd/TbuUcoXRu3N3bJTjD/PItB1/7YOaJqjuf7jj60ujJp640sQliYeI2LuntIsZAH91PWk10yZpdL/xx7MSi1bXtNl+3eL3s1SbDhzOXvjx26oW6Tl83aTMz6748+eb4uW9PnL/vzPVOe0jr6Vq17auXx07ZceSi2hX1dYsj9w+EuLjNEJ5pc/+7NKfgfX19FEW1trZevnx5165d69atW7hw4bzso7S0dOXKlTt27KioqGhubn6mZSjvP1E+tmHz+W2uOBsIgAAI5I0AbD4fbRTnkJXAULX5Paeujv6keN+Z61pPlzsqZCPj7yEnqhreGDf7nUnzL9R1jplcMm/ltg5b0BURbFzKHky7o5k2szi+PmZySfkNxca9Z14aPfnk5Ua6X9Ruva/HyibdUd4R4ht1vrkrtv6/v37jnUkLTl9tNvi7nWGhSe8bP2f5n96derzyzpVGfenaXX/+aM6EeatOXWky+GPeLkHv61m768Sb4+fuPX1V447lxvuHq80PrPsuCEJfX18kEqFp2uPx2Gw2s9lssVhsNpvL5fL7/eFwuLe3N3dzWVnf7Y8/OWw+b30VJwIBEACB/BKAzT+++eEnw4TAkLR5d1S4VK8eO6V0/JwVRy/WO0JJG5dyhgW1K7ps8/4/jpkyb+W2ug77jMUbXn1/xt7T16xswsYls7eGjR+9WD9qQlHp2i+vNRv3nr7269c/XLJxn41L+bqJhUk4QrwnRgK9pM1Mr9h66Fevffir1z58Z9L8bYcv2IMpM929aP2eX78+bszkko/nrhw7peS/zZi/3mJyR9NMXBzU17hjn31x7I1xs3afvKJ2RV2RzAMqzyazq+YPk7H5AZv/hn8Kss2J/yb1webz21xxNhAAARDIGwHY/Ddpg9hnSBMYqjavdIQXrd/z+1ETp5auO1fTrnSE7mg8X564/PbEonenLtxfVm3w9+49fe31D2eOm7XszLWWDltQ5Yycr+2YvmjDn96dtu/MNbUrWq9yfjhz6ZjJJccu1TdovQoLe0vpLL/Rpvf1NBv8C9ftfmPc7HGzlv1xzJQPZiy5eEtpD6ZzF9r+5A/v/Pzldz+eu/JsdetttetsdVuzwW9hEgZ/79pdx98YN3vv6avGQB8TH84zbb7+vr9/9F3IPu7fR85p8ffX8cht2Hze+ipOBAIgAAL5JQCbf2Tfw5PDicCQtPncBPqqO5rpi8RF39+btmjG4o1TSta++v6MycVrjlfeMVH9Ni7RZqY37Dn98tipY6eUTi5eM3fF52OnlI6aUPTZF8e0ni5nWLCy8RNVDeNmLXtz/NwPZy79ZMGnH8xY8tHs5dWt5k57cPycFW9PnH/0Yv0XRy+9M2nBhHmr6jrsznDqfG3H1NJ1L77zyagJRTMWb5xcvObDmUuOXqx3hpMad2ztrhOjJszbX1atccccofTwHpvPKXvuStbcavG5bT77yOn7wHWu97t+wf0Jwebz21xxNhAAARDIGwHYfMH1XBT0vAkMSZu3B9OuSMYdFRq03oPlNQs+FReVn1KydsnGvc0Gv41L5S6NtXEpY6Br57HKkjW7XvtA3GH+6h1l11vNtHiih9CIAAAgAElEQVQ/V183MfjFmz2dq2lfuG73xKLVOenfdvhChy3YYQtuO3yhaNX2Rp3PGRZ2Hqss/mzn1SYDlySOEF+vcm3ce2bawvVvjp/77tSF+85cbzXR2SVxyKFztXNXfH65QecM88Pb5h/5Vhww+5zcf32E/pFHyf8kbD5vfRUnAgEQAIH8EoDNy99kUYHEBIaGzT+0DoyZFleGcQQzNpY3+OId1kirkWm3hNTObqM/YWMFe5A3UUlHKOMIZgz+eLs13Gpk2syc0h7T+/otdDq3g40VHMGMmUoqHbE2E9dm5jqsEa2710ylbByvtMe07l4rw9u5jMEXzx1r43hnOGNj01p3r8ISeugQC502+OJqV7fa1W3wxS10+qHKC+RbEyvog8TAESMnmLi0hYvbuR5nqNdKBd1csDud7s9kcuPrI+RrSuDvjySfTvDppJCO9Xab7bbyigsnq1o67VFXhFiYtPj2Y79+8UPSysatbOLef2PSVkbIvkvJsYrW8usaupckk8lcC0skEvntZTgbCIAACIxcArB5iU0S6eUnMFRt3kKnHcGMO0I8UTECPcTXTdwRYg9mrAxvodM2VnQpGyu4IsTfLe7g7xH3dIaIlRV3MFHi0u/OsHiUJ0p8XeIO3i7iChMbJ1jodKCHiBfOUimjP+EICYGe7IGMKOj2YMYbE9M+dIg9mLFz90W2mAIx+PvLMLFCVuUzRo7P2byN7bFxPUYvYwnQVKzbH4kGg10jJ5hw1/3BRXuCsV4m3OXyM50a47mLV2DzI1cE8MpBAASGOAHYvPyyiQokJjAkbV4cfedEa78bLK/39ut9/cZAwkQlLVnhFq2dEUfosyPxmdwOBn/cRCVzQ/t2cWhfNH4xWN4USOp9/QZ/3BhImOmUhUkb/QlTIGmmUqL6B5JGf8LoT4h5vP2mQNIRJBYm9dAhpoB4Ohsn5D4PmAIFcq+oe6DuEfu6zVuYLjvXY6GCNoqxBqh2g1Gnt46c0Bis94fOZNebHRqDVaHS3WxoKTtfCZsf4t0c5YMACIxcArB5iU0S6eUnMDRtnhPswYyFSVtoMXLzGUQ750Q7v/skK86QsXOCleXNVMoRJI4gET8DZAfmxaH9kLj/QAY7J+R2yCl+bvA+5/22e2P5dk6cuuPMTuCxsaKyP3SI0S9+EsgNz5tpcVD/Xz9y3DPpQnjGzAomjpi4jInlzWzawiXMdLc92O8O97lD3R0WZ/m1mkuXb4+cqLhy+/64cLk+F+erbpVV1Bw7cxk2P3JFAK8cBEBgiBOAzcsvm6hAYgJD0uZzU2hyMu0MiZNnDL54zqTFqfAh4gyL85uz8i3+1BEUd8gNzFtZcZ6MMyyO3Gdn2GccQXEfccq7Py4OrucODBEbK5jplN7br/P0GQPidHxx1J8VB/Jzo/V3c953SG6YP2fzj5pa/fAYuVxmb2EEC5uxsIKF5S2suPCOhemzBxPOUNwdiXdYfaev1J0svzVy4vi5W/fH0bN1x8/dOnnh9onz9cfKbx49WwebH+LdHOWDAAiMXAKweYlNEunlJzBUbT7nzeJIPJM2Uyk7JwyMqZuplCmQzH0rzpnJjt/bOSE3Tm+hxf0H5sAM7GYVJf5uktwOuVH/+w/M7ZxT8OxsHzHn3QzZnLlz3f9VLl//BucVcpdpWsWPKCkLI17BaePitmC/0slWt+krq5UjJypuKB+KizWqS7XqizdUFdXKC9Wd15osame3IyT+t+fuhbAP/7MFV8GOXFfAKwcBEChkArB5+WUTFUhMYCjb/MM6VSgj39/ApOUv1cYI2eBt4mUDaUOgT1zFn0tauLjWF+t0ch2G0MgJhTH05FDaYzpvX+6fOeL1GI+4IgI2X8jdHLWBAAiMXAKweYlNEunlJwCbl1+s82//Npp3ZMNO83ZGFPrcBcRGJmli0yZODCstjJwwM8KTwxRI5i6JNlOpXHzttwabH7mugFcOAiBQyARg8/LLJiqQmABsfiTavJ1Ou6i0k+IdlKj1Nkawh4iNI0ZW0IuLV2ZMIWJh0yMnjFz6yZFb+TTn9APrJj0o9LD5Qu7mqA0EQGDkEoDNS2ySSC8/Adg8bF60eUeY2IPiKjd6VtAzvF68QHYE2bwpmH5y5FZENdPZgfnszcseVHneysDmR64r4JWDAAgUMgHYvPyyiQokJgCbH4k276DTbio3PJ/Ojc0bKd5E80Ymo2eJjs1omYyJS46cMASTT47cbQesrLgO0mNWK4LNF3I3R20gAAIjlwBsXmKTRHr5CcDmR6LNf21cGRAGTwA2P3JdAa8cBECgkAnA5uWXTVQgMQHY/OA1DhlAADNtCrmVozYQAIERTQA2L7FJIr38BGDzMFEQeC4EMDY/onUBLx4EQKBgCcDm5ZdNVCAxAdj8czE5JAEB2HzBtnIUBgIgMKIJwOYlNkmkl58AbB4aCgLPhQBsfkTrAl48CIBAwRKAzcsvm6hAYgKw+edickgCArD5gm3lKAwEQGBEE4DNS2ySSC8/Adg8NBQEngsB2PyI1gW8eBAAgYIlAJuXXzZRgcQEYPPPxeSQBARg8wXbylEYCIDAiCYAm5fYJJFefgKweWgoCDwXArD5Ea0LePEgAAIFSwA2L79sogKJCcDmn4vJIQkIwOYLtpWjMBAAgRFNADYvsUkivfwEYPPQUBB4LgRg8yNaF/DiQQAECpYAbF5+2UQFEhOAzd81OQvDWxjeyqSykbQxKTst2GnBERAcfsHhE5w+wcQi8k3AEgpagmFLMGLhui1sfzbi2a+9Fq7HwnVZxd9aIQRsvmBbOQoDARAY0QRg8xKbJNLLTwA2f5/Ns7yVTVrZhI2NO5iEk8o4qYzbRzxu4nERr5MYOES+CVhiNkvUaYl4LGHWEoxloyf7NWwJcZYwVRgqz1sZ2PyI1gW8eBAAgYIlAJuXXzZRgcQEYPP3hnVpwUoTK0NEO2STNq7HznWJwfY4mISDTjrotC0YQeSZgJMizkA2/MTpy4b33oZffB42X7AdFIWBAAiAQCEQgM1LbJJILz8B2Pw9m6cEW4DYKGKlBSubtgS7zGHWHGZNUb8p6jVmw+kniDwT8PjI3fASz0DknvQTjx82Xwi9EjWAAAiAQOESgM3LL5uoQGICsHnYfEF/RIHNF26HRGUgAAIgMBQIwOYlNkmkl58AbP6ezdOCjSI2cbKNYGV5Mxc3hnqMoR5DOKaPRHSRsC4atjAEkWcC1mA0GzFrMHZ3OxS2hjhriLGGKWs4gJk2Q6GZokYQAAEQkI0AbF5+2UQFEhOAzd+zeSZpY/utbMLKpqwsb2GIIUCMAfGrIUD02dB1cYh8E4jEdZF+XbRfF+3Vxbp1sW5NJKqJxAYCNi9bh8SJQQAEQGAoEIDNS2ySSC8/Adj8PZtn41auJ7v0YVIURDo7hz5ALD5i9RM7RZwMMXA9iDwT0AdT2UjqQwl9KK4PxQ3hpC6Y0LJxLRvXcQnY/FBopqgRBEAABGQjAJuXXzZRgcQEYPN3bV70+GCXheuzsKIg2ili9xGHn7j8xOUjDjexOTPmAEHkmYCRIXeDJcZsqDxE6yO63H9LfLgKVrYGiRODAAiAwJAgAJuX2CSRXn4CsPm7Nm9m08Zg2izOseFtjOCikh5f1BfoCrJcV8gdC1qjrCHsJYg8E2DFB8OyNMsFWI5iOYphOI7pD9Ipxp/xOzMYmx8S3RRFggAIgIBcBGDz8ssmKpCYAGz+rs2bGMHAEhNDLHTGTgteOsowNq/XYNFf0HduM6s3O42bKPMiRJ4J+IzbfMbPfcatPuOW7Mbnbs0um+KAXXGcMVzpcytg83I1SJwXBEAABIYEAdi8xCaJ9PITgM0/1uZZ1m61dt6q2XX+1LSKM5OqL35Sc/51RJ4JXC//5Hr5pOvlE6+XT8huTLpRPqfq2IIbZ1Yb7hzrcbbC5odEN0WRIAACICAXAdi8/LKJCiQmAJu/a/POgOD1EQtLjMG0Lhx3sLEEnbS12Ruu/R3bdphTnQi0fxVW7kHkm0DnQVazgzKu72o9HNJuDGk36gzHU+oD1Pmx3PmfmKI0bF6uBonzggAIgMCQIACbl9gkkV5+ArD5x9l8VzyQtLc7lXd+QFzXSKyZdLeSUAsi3wTYThK5Q3quk4CSRKpJpDoeN5NgW3ftotilV42hftj8kOimKBIEQAAE5CIAm5dfNlGBxARg8w/ZfMYYTGXH5rt6vXFLq72t7vtJS2WGqSfMbeJvReSbgEcpBBp5rprYVSRQTQLV4ZCReFqjlxdz5a9raaxQKVd/xHlBAARAYGgQgM1LbJJILz8B2PzjbL47HkjbFe6O+h8K9msk2ERCzYTSI/JNwGsllErk77ASupHQjdGIh/i0saufhs6N0TFY02ZodFNUCQIgAAJyEYDNyy+bqEBiArD5h2xeyI7NJxxsD88Rt5LqrP9J0nxN8DVkvHcSHiUizwSIzZB2K+KBemIyEM9N4rkZCJiIQxG9vCJ0YbQxDJuXqz/ivCAAAiAwNAjA5iU2SaSXnwBs/rE2H/cLtlZve91PeGstYTsI087TSkSeCRCPkafaU8F64jAQuo7QdaGohfhbI9cWsxdeU3OYNz80uimqBAEQAAG5CMDm5ZdNVCAxAdj8PZunBK+fWNiBsfneJEVsbX5F7U95603CdJKAgmcR+SZAfFqeaUmFa4lLTdjrhL0ejGpJ4Hakej536SVNpAtXwcrVIHFeEAABEBgSBGDzEpsk0stPADb/kM3zd2faMH2izbdSitqf85Y7hNYQv0rgmhB5JkACSp5tSEauE087CVaSYCXbrSBMdaR2OlP1K3UMK1QOiWaKIkEABEBANgKwefllExVITAA2/zib78/aPKOo+Wfe3CRe+unXEroDkW8CfmOaUSTCt4hbS7jrhLvOdKkJfTNcO4eu+q0qFsTYvGwdEicGARAAgaFAADYvsUkivfwEYPP323zGwg6MzfcnA8TWyihqfsmbmwllID4dCWgQ+Sbgs6VpdSLUSFwmwtYRto6OGQh1J1wzn658URmNwuaHQjNFjSAAAiAgGwHYvPyyiQokJgCbf5zNx7M2zypqfsWbWwhlJD498ZsQ+Sbg9aQpQyKoIE4HYRsI20BHrYRqCd9YSF96RRnphc3L1iFxYhAAARAYCgRg8xKbJNLLTwA2P2DzvNfPW7ikMRjXhfscbM+9q2B/xlvqCa0igQ5CIfJOwGfm6c5k6A5xGQhbS9haJqYnVEPkxgKm8iUVroIdCq0UNYIACICAjARg8/LLJiqQmABsHjafd0F/pg9FsHkZeyBODQIgAAJDnwBsXmKTRHr5CcDmYfOw+bvvgcFN2kla2biVTVjZZDbSVkawMrwjSI5VtJZf19C9JJlM5tpiIpEY+v0RrwAEQAAEhgYB2Lz8sokKJCYAm4fNw+Zh80OjJaNKEAABEPgWBGDzEpsk0stPADYPm4fNw+a/RX/EISAAAiAwNAjA5uWXTVQgMQHYPGweNg+bHxotGVWCAAiAwLcgAJuX2CSRXn4CsHnYPGweNv8t+iMOAQEQAIGhQQA2L79sogKJCcDmYfOwedj80GjJqBIEQAAEvgUB2LzEJon08hOAzcPmYfOw+W/RH3EICIAACAwNArB5+WUTFUhMADYPm4fNw+aHRktGlSAAAiDwLQjA5iU2SaSXnwBsHjYPm4fNf4v+iENAAARAYGgQgM3LL5uoQGICsPnCs3m6ndwXGUqRCbTdH/f/9DHbKkJng+okd2+8qiCBNhJoJYEWEmgWN6j2p4WaUE8MuoM8OZ7pnq+P2xn3gh0a7RJVggAIgECBEoDNS2ySSC8/Adh8ods8oXIi3pbV8ezX+1wfNj+4G7g+l1H5XBLcC7ZAGznKAgEQGOEEYPPyyyYqkJgAbH4o2DylEJ1+IJ5m8xlanaHV4vA8pSR3h+cHPhLkhufbnjYw305o5dMCY/P3fxiAzY9wYcDLBwEQKFACsHmJTRLp5ScAmy9Am+8k9IPBdJL746Gffu1bgdYItCZDa+4JvTI736b93jB/Kwkospbf+aSvjII8OZ48zYZ+TtPxMdOmQPsjygIBEACBoUEANi+/bKICiQnA5gvO5jN05wPBKAmjuj8e+OlDO2e/5WktT2uzQq/OUPeP0Lffm67T/iSPF4fzOzNM25PjKZPmYfOMYGV4R5Acq2gtv66he0kymcy1vkQiMTR6IKoEARAAgaFPADYvsUkivfwEYPMFZ/MCo7w/MoyKsOr74/6fPnKbp3U8rRPuCf29EfrcFbG5GTsd2Uk4yid8Fdi2Jwds/sEp+5hpM/R7Pl4BCIDAcCQAm5dfNlGBxARg8wVn82lWQ2Jmv/q67tZpzniT57QJf0fYcqfp0j5Xx+VMUNfrbktQSnPTeXvrxYj1DokY07SKhA08o+YZdSao63F3Urp6Rn877lMmvJ0kaOD9nSSoJYHs7JdAe9rTRrptSW97mtHELHeU146wmhoSMfGUinTbk74OErPybHuaUfT5GoWImoSVcbo1HmhOBztInzHNKpJ0K+9vS/laSZeRhLX9rkYS0jzs949bpuaZnsdMm+HYXPGaQAAEQCBvBGDzEpsk0stPADZfcDafpNX9vo5z+z7dWDq+o/pYJmxMUqqLh9Z98PIPDmwo6nG3kYiJtTZsXz7lwIb5rs4rJGLKRM2Zbls6YkrRap7VRp3tR7ev2LFiZsTaTLrsQtQqCr2vI0MpM1RnxteW9rWToEGgNHG3ourQ+qL3/3D1yCZKfSPp7RD3pNQkZEyynaTXnOk1JdgOnlMKUV2a7UwHVemQOh1SC92ixGeYTt7fJlDtAt0hUO2weSubsLLJbKStmGmTt16NE4EACIDA4wnA5uWXTVQgMQHYfMHZfIrRkm571dHN8z9+5fqp7f3+zkzIeOTzRa/+4m/Xl4z3aWqEoMGrrV087a0TXyzr9XWQqMXZcaX16hFLy6Vut4Ln9Iyp6eCWJfvWl9har7RfO+Fouxwy1mfCRhI2iNPlaaUQUBLOQDiDS3Fl+5LJCye8tnP5tM5rx1J+lUBrU34Vo62LuZo1t061Vx+hDDVxqrPf3x623YnYG4KWekPjWdXNk12Wm4RTpX2tKW8LCaqT3hbYPGz+8f0UPwEBEAABeQjA5iU2SaSXnwBsvuBsPkFr+ZBRU1++cdGkozuW+nU3Q7bmg1tK1yz46PPl066c3Jbi9Lo751fNfb/t+vGYW6G9fW7FnHd//8P/9O4ff3h0x9KQs9Wnazi+89OFU0evmPX+h6/87N0//ODLVTMpXV3K35nyd5CwMeVXZoImEjI1XTq4a9XMysMbl0x+6+iWRWFbsxCx6OvPfTrn/fWlk2Z98PLLP/u7oo9f1zdc6vNryvevXzJ9zMo5H0x869fv/P7/u7hvBaO9RkIacWw+oBACCtg8bF6eXo2zggAIgMDjCcDm5ZdNVCAxAdh8wdl8Jmbrp7RBW/OxL5ZvXjrFqriib7q4b1PJncpDR7YvPb3n07Czrfbcns+Kx7fXnr518cD6hRO3LJ9mabt8dMfyD179af3FAxGXqmz/po/e+NWuz+bfufjVgQ0lM0b/9vJXm3ocLSS7bKVAa5IBbZdTUXFwQ9VXW5yKa2d2rd67tsipuEbiPlXtmfGvvTBn3J9brp5pvnJ65dwJX6xeYFPU7lm3aPQffrpvw5L6iqPnDmxdOunlm6c2E1ZJovq0r5UE1bB52Pzj+yl+AgIgAALyEIDNS2ySSC8/Adh8wdl8P6VN0Lp+v/rc/rULJrxef2H/+YPrj25fxpobzh1Yd2jLIvWtc+cObdq/sdTUcvnQ1iUTR/3m/KFNDv3t+kuHiya8cerLT52q2tN71y6cNvrmhf2k22VsvPRZ0YdfbVkYEYfezb1uRZLWJSi9s716+4qZlUe2WtuuXTmxY/PiKZVHPhc4s/bW+aLxrx3cvCzFWjO9gcvHd66cM7712plDW5fPGfe6qfkaidOUsXnVtDeObpzH+9sFTsNTnbx4t6kHl8l/pqtdH7czroKVp/3hrCAAAiAwTAjA5uWXTVQgMQHYfMHZfCKgISFLMqBtunRoffHH1Se/OLp1cV3ZbtLlrCvbvXfNvMpjO45sX1F1fIdbfWt10fhXfv6Pf/e//sU/f++vf/h//+V3//ovdqye61LdOPz5km0rZ5haq/iw2dh8adeauQc2L3SpbmSi1jitzYSt6aC1+erJN3/zTz/5+//wwj/+bz/9+//ws3/4q30bFpJuj6L6zKJpY6+d+pLEXKTXV3vugPjt6d3Hd67esGhqwNCY4iwxt2pryUd7V01LeRWCvzPD6RLuVnEpzPvj7m1oB3cbKdj8MOmneBkgAAIgIA8B2LzEJon08hOAzReczacoLQmZU5TW1lJ1Yvuy0ztXbls6pf7cXtLj0t4sK9/96YFNi75cM7/l6gnG1LRx0ZR3//iTiW/95oNXXpjx3h+XTB9bfWZ3t6fjxM4VX6ye5dXWpsNm3Z3zm5dMPrC5xNFxTQiZkqyOD5nt7dXHv1g17rVfjHnxxxPf+s3Et37zzu9/sGXpdNrY2HT52IrZH9RXHOr2qISQ9fbFw2sWTGioPFJ1bPu2FbMYY1MmbGPNzSsmv7F7xdR+ZwuhVCSojztbHlB5WpW9QdXgVJ7qILB5edofzgoCIAACw4QAbF5+2UQFEhOAzReczadFmzcJjC5sbrhZtmtj8fg1cz/Q1J4mUatfdaPiwLptK2buXV/s096KONqPfL5s8dTRNWV7YpQ+7OqoObvHprjGmu/s2zC/6ONXGqsOJVldY+XBKaN/c/yLZUFrY4rVxSm1EDJXHNpc9PHrx7avYCwtibC1P2TV1J9fXzLp8rHt6pvnpo99ce/6Yr7LReL+/RtKiye92Xr1xMHNiya99Rtb2zUhare2Xp365xdOb1vE+zsIoxECSnHVy/sH5mHzWKFymJgAXgYIgMDQJgCbl9gkkV5+ArD5grN5ntHxlCbDGbrtLcbb5xaMe3nJ5D/7NbUkau2yt5zZuXzuuFd2rynq96n7AtrmqiOHNy/+bN648r1rl04f8+6LP6o6srXX235m96oZ7/1u06IJx3csLRr/p6KP/9Rw6UAmZEwxmn5/J2O8vWr2+2/95v+5fmon6Xb1eJTd7k7G2PDpvHHFE/985di2aWN+v3DyqCNbl+xfX7x0+pgLBzdypsaKgxsnvfmrvesW7Fw9Z2PppDWz3lFfP0o4HWE1KY+CMGrYPK6CHdo9H9WDAAgMRwKwefllExVITAA2X3A2T1htj70pw+lS3o6Ev/PYpuLyncv7vB29jmaB07Ve3L9v7bzqkzsSflWa0SeDJlf7tQ0Lxo/+7fenjPr1+X1ru90d/ZSy6siGE9sX7V83d9o7v5z17r80V+6POZtJxMgz6jStonU3j29bumP5dEfbFSFi4VlDktLGfcrKw5u+WDGj7MvVS6e+vWrWu+Nf/emY3/3TzpUzQ9amqL21fM9ns997cUPxxxPf+HnRuD9pbxxL+NrFpetZcWw+89DAPMbmMTY/HLUArwkEQGDIEYDNS2ySSC8/Adh84dk8pSRPDIHWPhSE1T0YasI+EAKjfCBo9dczpAPqlF9FQkbF5cNz3v19zcntJGQkXTaeEndO+ZVfrpy+cvrbMWsTiVnTgQcveP26ysPmYfNDruejYBAAgeFIADYvv2yiAokJwOZh8+Jng7inI+lTZjg9iVqV148tmvh6w/m94ieEsCnDaEnY1ONo3b9m7rbFn3TZmkmvk8RsD8+r+brQY00bhncEybGK1vLrGrqXJJPJXKNMJBLDsWPiNYEACIBAIRKAzUtskkgvPwHYfAHafGd2NZjHf6XV5MnBdJKH4qGV4MW14R9IwgeUQkAp0GrC6cKGm4qqg4y6WpwTz2gESpVhtSl/p7v1kvHWmX5ni8Bo0v5O2LyVufvmyW4krWwc8+YLsZOjJhAAgZFNADYvv2yiAokJwOYL0ObbCfXkeMpUHEK3PyXEWzU9mITTElqV8Wef57Sky0I4LQnqCKUU/B2ZQCfvVYjfZp8RL3jN7v8UocfYPMbmR7ZD4NWDAAgUAgHYvMQmifTyE4DNDwubD3SQB6KNBB6Mh/z+azafCXQIvvacwac8bYK/Q8iafYbqzAQ6CaMWaFVW4jUZf0fa08Z/fT1KzLTB2Hwh9G3UAAIgAAIPEoDNyy+bqEBiArD54WDzmUDHg9GWCTwQDw/Vf83mScQgCr2/g9BK3qcgEaPgbxf1ndXwXgXvbSOMKuVuTXvbCKsRJwJ93d2//gzG5jE2/2BPxXcgAAIgkH8CsHmJTRLp5ScAmy9Amx/0/VNFWR8ugXvB5r/14YwgAAIgMIwIwObll01UIDEB2DxsvrC9HzY/jHoqXgoIgAAI5J8AbF5ik0R6+QnA5mHzsPm774EH16h51iexpk3+ezTOCAIgAAJPJwCbl182UYHEBGDzsHnY/LOK+yP3h80/vadiDxAAARDIPwHYvMQmifTyE4DNw+Zh84+082d9Ejaf/x6NM4IACIDA0wnA5uWXTVQgMQHYPGweNv+s4v7I/WHzT++p2AMEQAAE8k8ANi+xSSK9/ARg87B52Pwj7fxZn4TN579H44wgAAIg8HQCsHn5ZRMVSEwANg+bh80/q7g/cn/Y/NN7KvYAARAAgfwTgM1LbJJILz8B2DxsHjb/SDt/1idh8/nv0TgjCIAACDydAGxeftlEBRITgM3D5mHzzyruj9wfNv/0noo9QAAEQCD/BGDzEpsk0stPADYPm4fNP9LOn/VJ2Hz+ezTOCAIgAAJPJwCbl182UYHEBGDz92w+IHh9xMIKxmBKF0442J4kTWxtPkXtj3lrLWEUhGolVDsi3wTu3gu2gbhMhKknTD0TtZKAIlK9hLn4Z1U4NbhbPj2rsj9hf9j803sq9gABEACB/BOAzUtskkgvPwHY/DPZfGEPY1PDse/7NoQAACAASURBVLy7Nn8na/O3CHOLiVpIoC1r82+owknYfP5bI84IAiAAAkOIAGxeftlEBRITgM0/k80rCYXIL4H7bZ69RVjY/BDqoSgVBEAABOQnAJuX2CSRXn4CsPlnsfmAhiDyTMBn5Jn2ZPg2cRkIe5OwN5momQRaI9WLmIuvq8IJjM3L3ypRAQiAAAgUMAHYvPyyiQokJgCbfyab15IAIr8EfAaeUSTD9cSlJ2wdYeuYqIkEWrI2/5oqHIfNF3APRWkgAAIgID8B2LzEJon08hOAzT+TzetIAJFfAv6czd/K2nwtYWuZmJEEmiPVC5lLr6rC/bB5+VslKgABEACBAiYAm5dfNlGBxARg84+1+bift7V522/+JGW+IS5oQ7cRvxqRbwI+bZpuiYdqiVNNmGrCVDNRHQk0hqtL6It/UoV7YfMF3ENRGgiAAAjITwA2L7FJIr38BGDzj7f5QMau8HXc/Gk6t0Il207oTkS+CQS0PNuSjNQSj4Zw1YSr5rr0hG6I3ChmKl9WRXpg8/K3SlQAAiAAAgVMADYvv2yiAokJwOYfa/M8R9xKRnn75+J681QrCbSSQDsi3wR86jTTlAjXEJeKsNcJe52KaEjgTrS2JHTlVX0ProIt4BaK0kAABECgAAjA5iU2SaSXnwBs/rE23+cTbK3iTBvR5tl2wnUQpgWRbwIBDc81p6I1xKMmweskeD3YoyNMQ6RmAX3pJWU4hrH5AuiVKAEEQAAECpcAbF5+2UQFEhOAzT/W5hMUcSj84kwbS83defN0PUHkmYBPmWYa4uHrxNVJ2CuEvcLE1ISqj9QUsZUvqaNdsPnCbaGoDARAAAQKgABsXmKTRHr5CcDm79q8lRZsFDEzGRPLm7i0i+nuYsKGds31ircV11apb37aUbNEU1+EyDMBQ+1S7a1i1Z3Z5ppi7e1p2tvTGhoWmWsXtp5913BlrItthc0XQK9ECSAAAiBQuARg8/LLJiqQmABs/q7Nm1jBwBETQyw0sdPES3d1d/s8Hm1H276O1kXq9qLO1sm61rcReSZgbhprbnrH3DzK2Pqavu1Vfdurxs6x2rbJmpbZTsOaPu40bL5wWygqAwEQAIECIACbl9gkkV5+ArD5uzZvZpPGYNzMpS2MYKOJKyAwbIJm4hwTCLG6INPBUY1Bbz8izwRirlTMHY+6+yLeSMgfCvlDlDtCe/iAS/DZid9OYPMF0CtRAgiAAAgULgHYvPyyiQokJgCbv2vzFq7HEuYswW4Lm7AyxB4gFhdx+IiXIm6fGAGGmAKIfBOweonFRyx+YqaIic6IwRAjTYzZr3o/bL5wOygqAwEQAIFCIACbl9gkkV5+ArD5x9q83UMcXuLwELuLON3EFyBGPyLfBCxeIoaPmAPESGWMVMZAE42P6ALEzBITDZsvhF6JGkAABECgcAnA5uWXTVQgMQHY/F2bt7K9tmDYyvVa2aSVIRaKmP3E6CMGb3ZUmCJ6P9F3BRF5JmCIxgzRsCEW1Hf79T0ufY/L0OdSRZ3aLp++h1WGKcy0KdwWispAAARAoAAIwOYlNkmkl58AbP6ezTNpmxiClclYGWJmiJETwxAU9KGkLhTXhfsttHiNLCKfBMw0EYMRR+ItLJ+NlJVNWdm0leWzv6yB36C8G0krG7eyCfHToBhpq/he4h1Bcqyitfy6hu4lyWQy19cSiUQBNDiUAAIgAAIjggBsXn7ZRAUSE4DN31NAmrfRgo3OWOmMlcmY2bSJS5i4hDHUawhHDeGwPhKyBQgizwQslPh/EitFrDTJ/oIEO8U7xBAclOAMZDA2PyK6MV4kCIAACHxbArB5iU0S6eUnAJsfsHlxvXkbTXI2b+ES5mCXOdhlCgdN0YAx6jNGvU4/QeSZQO7Dgz1AHAHizIbLT9x+8bpkj494fZg3/237G44DARAAgZFBADYvv2yiAokJwObv2bw4L4Lcm7mRtrFxO9uTjS4HG3OwUQcbtXExRJ4JiJ+mwiFTOGwJRazBmDUYs7NdTjbmYmJuMaIYmx8Z7RivEgRAAAS+JQHYvMQmifTyE4DN37V5C5uycInsvOeEjU04mKSTEpyU4PaLY8AeL/F6iYFD5JuAKpJUhVPqMK8NET0nhpG9e+mCOPeGwtj8t2xvOAwEQAAERggB2Lz8sokKJCYAm4fN51vQn+lDEWx+hLRbvEwQAAEQkIgAbF5ik0R6+QnA5gdm2mADBAZDAGvaSNSIkRYEQAAEBkUANi+/bKICiQnA5gcjcDgWBAYIwOYH1W5xMAiAAAhIRAA2L7FJIr38BGDzAzaGDRAYDAHYvESNGGlBAARAYFAEYPPyyyYqkJgAbH4wAodjQWCAAGx+UO0WB4MACICARARg8xKbJNLLTwA2P2Bj2ACBwRCAzUvUiJEWBEAABAZFADYvv2yiAokJwOYHI3A4FgQGCMDmB9VucTAIgAAISEQANi+xSSK9/ARg8wM2hg0QGAwB2LxEjRhpQQAEQGBQBGDz8ssmKpCYAGx+MAKHY0FggABsflDtFgeDAAiAgEQEYPMSmyTSy08ANj9gY9gAgcEQgM1L1IiRFgRAAAQGRQA2L79sogKJCcDmByNwOBYEBgjA5gfVbnEwCIAACEhEADYvsUkivfwEYPMDNoYNEBgMAdi8RI0YaUEABEBgUARg8/LLJiqQmABsfjACh2NBYIAAbH5Q7RYHgwAIgIBEBGDzEpsk0stPADY/YGPYAIHBEIDNS9SIkRYEQAAEBkUANi+/bKICiQnA5gcjcDgWBAYIwOYH1W5xMAiAAAhIRAA2L7FJIr38BGDzAzaGDRAYDAHYvESNGGlBAARAYFAEYPPyyyYqkJgAbH4wAodjQWCAAGx+UO0WB4MACICARARg8xKbJNLLTwA2P2Bj2ACBwRCAzUvUiJEWBEAABAZFADYvv2yiAokJwOYHI3A4FgQGCMDmB9VucTAIgAAISEQANi+xSSK9/ARg8wM2hg0QGAwB2LxEjRhpQQAEQGBQBGDz8ssmKpCYAGx+MAKHY0FggABsflDtFgeDAAiAgEQEYPMSmyTSy08ANj9gY9gAgcEQgM1L1IiRFgRAAAQGRQA2L79sogKJCcDmByNwOBYEBgjA5gfVbnEwCIAACEhEADYvsUkivfwEYPMDNoYNEBgMAdi8RI0YaUEABEBgUARg8/LLJiqQmABsfjACh2NBYIAAbH5Q7RYHgwAIgIBEBGDzEpsk0stPADY/YGPYAIHBEIDNS9SIkRYEQAAEBkUANi+/bKICiQnA5gcjcDgWBAYIwOYH1W5xMAiAAAhIRAA2L7FJIr38BGDzAzaGDRAYDAHYvESNGGlBAARAYFAEYPPyyyYqkJgAbH4wAodjQWCAAGx+UO0WB4MACICARARg8xKbJNLLTwA2P2Bj2ACBwRCAzUvUiJEWBEAABAZFADYvv2yiAokJwOYHI3A4FgQGCMDmB9VucTAIgAAISEQANi+xSSK9/ARg8wM2hg0QGAwB2LxEjRhpQQAEQGBQBGDz8ssmKpCYAGx+MAKHY0FggABsflDtFgeDAAiAgEQEYPMSmyTSy08ANj9gY9gAgcEQgM1L1IiRFgRAAAQGRQA2L79sogKJCcDm7wqcjU7b6ZSZTZu4tJHjbUyaowW/J2Ey7bZpa226Gw5TjV1XgcgzAZOh0q4779Gedmkq9ZYyvaXMpLnBdFZ7VeWM/Yyb6rcyg1Hw53gsbH5Q7RYHgwAIgIBEBGDzEpsk0stPADZ/1+fsdMpJJ4zBlD6U1oZ5O5PucaU8Srbhyn9WlM1oOjPxzukPG47/EZFnAtWn32g4/jvlkZ+1ffV65YVfVF74xe3Tk31HPjEc+QNV/3u/NwKbl6j/IS0IgAAIDA8CsHn5ZRMVSEwANj9g80knHf9Xm6f5LjvvaGWarnzHc3MT07rN27Q+3LkNkWcCfs2eiHJzon1Vb9suh2WVw7LKpziSqdtlOz3Ocf1VjzcFmx8e7RavAgRAAAQkIgCbl9gkkV5+ArD5h2w+qQ+lxLF5Wkj4iKs9oqz7ccZ+kcRuE+4qYWoQeSbABxsE5joJnCP++nhveby3XAipiPcOc2Oh5dqbLm8aNi9R/0NaEAABEBgeBGDz8ssmKpCYAGz+cTaf6XcTe3O45eqPUoZKwtzJOK8Quh2RZwI8pxfoVuKvIz51X091X091wqshbgVds8pwdbTFdffXVwBOj3nzw6Pv41WAAAgMNwKweYlNEunlJwCbf5zNk7iHuNt6O2t+KxgbCGcgvs6M34jIM4F+2pXy64mnjbht0a470a47Kc5NPB3+2pX6mndMfsy0GW59F68HBEAABJ4vAdi8/LKJCiQmAJsfsPm0k05l582ntOG0neZTfmJvjnVU/44YFcRvIh49obSIPBPo46wpSkV8TcRrifTcivTc6mdMJNDgrV+gqXvRHMRVsM+36yEbCIAACAw3ArB5iU0S6eUnAJuHzRf0RxTY/HDrq3g9IAACIJBfArB5+WUTFUhMADY/YPO8kxKMwXT2KtiknUmkAsTewnXc+DUxthC/kXh0eZ4yjtMRur0/qEnRLeK8ea8u2lMb7alNMDpC3fTVz9Td/JUl5C+AGfO5txDmzee3P+NsIAACIPDNCMDmJTZJpJefAGz+ns1TgjNAjJwg2nwkbmd7UhSxt/o7an5KzLdJQEV8nSSAyDeBJKfiqWbiqyNuY3fsdnfsdoqyEl+j/+Z8Y+3v7BwDm/9m7Qx7gQAIgMAIJQCbl182UYHEBGDzj7T5fjvblaIEe6uno+ZHxHyTUJ3EpyB+NSLPBFKshg+0Eu8t4rL0RJp6Ik1pv5N42gK1paYbf3QwYdj8CO3PeNkgAAIg8M0IwOYlNkmkl58AbP4hm89kx+b77VwsRfP2NldH7Q+IpYbQCuJvJT4dIs8E0oxO8CuI5w5xOnrDit6wgvf5iFsZqFlqrn7NSXfD5r9ZO8NeIAACIDBCCcDm5ZdNVCAxAdj8XZt3UrzXz1u4pDEY14X7HGxPkiK2Nr+i9me8pZ7QKhLoIBQi7wR8Zp7uTIbuEJeBsLWErWViekI1RG4sYCpfUkW6YPMjtD/jZYMACIDANyMAm5fYJJFefgKwedh83gX9mT4Uwea/WbvCXiAAAiAAAo8kAJuXXzZRgcQEYPOwedj83ffA4Ib5sabNI9songQBEAABmQnA5iU2SaSXnwBsHjYPm4fNy9xrcXoQAAEQkI4AbF5+2UQFEhOAzcPmYfOweenaKDKDAAiAgMwEYPMSmyTSy08ANg+bh83D5mXutTg9CIAACEhHADYvv2yiAokJwOZh87B52Lx0bRSZQQAEQEBmArB5iU0S6eUnAJuHzcPmYfMy91qcHgRAAASkIwCbl182UYHEBGDzsHnYPGxeujaKzCAAAiAgMwHYvMQmifTyE4DNw+Zh87B5mXstTg8CIAAC0hGAzcsvm6hAYgKwedg8bB42L10bRWYQAAEQkJkAbF5ik0R6+QnA5p+vzXcSKhcdhGrPhoIE2rLRSgKthGojdPtTIqAiT467mXP5h/rXp32WwL1gZe6DOD0IgAAIDG0CsHn5ZRMVSEwANp83m886PaV4isrT7U9R+YDq3ueEoe7xufph80O7TaJ6EAABEChwArB5iU0S6eUnAJuXzuZzntpOKMUDgbH5B/63AJsv8D6I8kAABEBgaBOAzcsvm6hAYgKw+edr8w+56cDEm/s26E7y5KBU5ClxX7a7E3uG7jMPEfvat5hpM7TbKKoHARAAAZkJwOYlNkmkl58AbP752vz9s0dyhq3MULlQZShVhlZm6M4nx9NUXnVvav7QNfj7K/+avlMPPgObl7kP4vQgAAIgMLQJwObll01UIDEB2LxENn9X5QmtytDqDK0WaI1AawVaLTDKJ8c3sHkloYZNPOjuD6k81UFg80O7jaJ6EAABEJCZAGxeYpNEevkJwOafr83npsi3Z4fPlYRWpWlNmtYJnDHFmfludzpoFDhditPynDZOq1KMOhnUpRk16bULnC7NalK0irAawqgztEqglHygMx3ozNCquLtVCBsTvnYSMfY5WoSgPuXr4IN63q8UOJ3AapP+zrRfmWY0PK2OB5RJT7tAq3lanfS2k4hZ/BRBa/iAUqDVhNWmAkrerySsLhM0JL3tPKVKix8ztOJHDkqdoTVCQCUeQqn47J4Crc4EDf3O1kzQkPZ1pgPKTMiY9iszjJgz7e8UKFXK2yGwunTIkKTVhNNlWC1Pq1PZ8vpdrQlKlWQ0KUab4XQZSs0HlNlPOGrydX1/6BnYvMx9EKcHARAAgaFNADYvv2yiAokJwOafq83nFqMUL3vtFCfY0Oo+j1J968LJLz9bNuejok/GFE34c8mk1zcvnmRuvki67VFHy+VjW5bPGr1sxjvnDqxJMdo+X2eGVWcYtUCreDGUAqshSXeKViX97Ul/B+m28rQ2TWuSfpUQNIaMt6PWpj6XgkQsJGRKB9QCrSW9LhI0CIyORCzpgLrPrSBRq8DoeEpDOAMJm8Wdg8ZUQJ0KqEnEkuEMhDMItDZN5f6BoCWsPulTxr2dSZ+SpzRi0Fqe0gisPmZtul2++/a53SHj7XRAzVOaVEDN09q4pyPpV/a723la3D/hU3o6rlYd2uBsu0yCxn5PR7+nI+HtjHs6MoyOhM25Q2DzQ7tJonoQAAEQKHgCsHmJTRLp5ScAm5fW5rtc7XvXl776i//6vf/0P33///pfvvs3/+P3/+Z/ePu337t+anuPR6G+dab0kzde+M6//4e/+u8+eOVHpqYKznxbYNTZUOWEPuFTkIhBYNQk6cl0WXqczUm/UjRyVi+wetGM0xQJmUSJDxlJ2Jzwdoq6H1ALrGjzAqtL+pQ5KSdRC89o+1wKUeLDZhIy5eRe/DZoFBhdhtEJtDblV5GgUczJaNOUOuVXJXxKcZ+oNeFTmm6f27jgo0WTXne2VqVo0fsT3s5M0Ei67CRqJayehEwZRjypteniwXVFbVWHSdRCuuwCqyd9bvGkQWOGy37Y4Ayw+YLvgygQBEAABIY2Adi8/LKJCiQmAJt/vjbfKt4o6u7YvEqgNVGHYuPSmaP+8OO9W1e13bqsaqjUNlYYmy+yloaoq+366S8Ob13UfqtM3VixZsFHO1bPrDu/J0Ur04wqzah4Vs2z6hSnIWG9s6NKUXfC1HKBD2pTjD4R0Hg6q2nTHd2dC43XjhubK7scrWlGn6K0/V6ltfmSsfGioaUyZG7kGX2S0vKMzq+uNSmuONuvRazN8YDaqbjaUXvG1FzpV9d2udp7/GrWeDtsbSJhczKg6XV3cMbbcb+az+bMfSVRK2e4fePUF2uLxs15/8W6si97vOLnil53e7dTwZobfZo6dUOFoelSMqDOhM1RW7Ph9rmovSXpV4ctTea2Ky01p42NF3vdHUmxzs4Uo4fND+0miepBAARAoOAJwOYlNkmkl58AbF5Sm9dG7IqNy+a899qv225dTnbRybAzE7GQmC0dNPb4VaylMeZuz0StSVZ/5eT2iW//etuqmUm6Myf0PKcWOE2aVbVePfjJWy+88J1/99Zv/v7cvlXdznZaX//FypkrZo794OUf/+zv/vLNX/5j+Z41fbQuzejryna/+ct//Onf/vsX/u5/3r9+QZdTIc72qS2b8/4fX/zhf14+fUzjxUPaW+Uzxvz+n/76347+3T8tmzZ616pZTZWHD20qPb1rVcKv6aO0mptnz3y52qu8IX7rVfZ5lTxrIF0O3a1zu1bPPrFj+Z4183atnu1ou0pCloRf01z51ZKpb38654M3fvEPb/36u21XjvV5lJq6s19+Oqej+mS/V3Xr3N4PXv7xP//Dfxj3yk9vle9J0fpkQNvr7oTNF3wfRIEgAAIgMLQJwObll01UIDEB2PzztnlKHJvP0J3ZeTLaqKtz66cLRr/yy3Mn9hrVTQ59o1tbR5vv9Ho745Q6HTTEKTUfMYftzcd2LC0a/6fzB9elKBUfMvJBQyZoEIIGe/vVz5dP3bR4cl3FgX2bSosnj/pq61Ld7QvLpo+dO+7VUztXVx3bNvuDP8358BVL6xW74tqn8z7au7G0puLA0R0rZn34p/MHNyYo/a1z+z956zdr5o3X1l8wNVzav27B8hljz3z56bn966aN/u2yGWNMjZf2byjesnhyj6eTNjYc27bs3M6VMXMjCZkFVp9mdGnWQKK2uooDm1bMaLx+Qt925fMVM29eOCCELAnGULZ37ff+5i+WzXrvVsXBNcUTPi0af6fyq4bKr0omvXXjzO6mqqMbSj/Z9em821dPHNq8+MDGhV7NzUzIkuBMsPmh3SRRPQgUKoGenp5cad3d3V0j/tHT09PV1RWLxbq7u3uzj/7+/hyfgY1C/U0+h7pg8xKbJNLLTwA2/1xtnmolVBuhFRmmkxdny2jjQfOWzxb88L/+H9//x7/57nf++gff+at/+af/uHzmO6bG82lWS2KWNKPJRM3NVQeXTh9Vtnslpa+7e/UqaxRXwmFNtyoOzZ84qurkbpIKqhuvrlk0c03xpI6as0tnvr+2ZBJjbiEp9uKRz6eOebH12qnqsj1FE950GW6TTJB1tm9bPffLdcXW9uq266fnfPhq1ZFtAmfV1V3YtnRG+f513e6OsL318JZFGxd+Qulv3yj7cuenc1yd1bo7F9aXTGy/sJf4lITR8gG1wBn6KU3Mpyw7smXfrlUWfX1vl+PQ9hVnD23uZQw9lO78ka0vvvCd6nP74py5re7s8nnjvtxQWnF029IZ7904u+/ikc/XlXxSXbaX9HjDjnaXsq4voIu5VQnaCJt/Dp0KKUAABB5DIBaLURTlyz48I/iRI+Dz+WiaDofD3d3d/f39vb29fX198exjeDs9bF5+2UQFEhOAzT9Xm6dbCZ21ebqTp1VpRsPaWnasK3nzxZ8sKpq0d+e6k/s3Hv58cU35nrCzLckZUkFjOmS6dfHAomlv71ozlzY1kFRAfePkqpljxvzu+6tmvXvx8OYze9a+/svv/faH/2Xi6JfefvFn//Kjv5/70Wu15fs2LppStnddr1eTCtkqRW9+V3f74sldn77wD3/1yq+/++5rP3/7pR/97sf/pWTKOyG7ovNG2YqZ7zddOsIz5ptn9q4t+rimbG8m6ox51OcPbNq3rtSvue3X3C7bve7ioa21Z/etK/7E33KJBPVEXINSlQka+JDRqb5RPGPMz37wf770L997/eUfv/C9/33+5FG0taWfMVSe/GL+5FH6lst8j9uluVkybfTyeeOunNq1au64pqpjHvXN2vJ9M997eexLP968ZJql5Sofsfd41aTbDZt/jITgaRAAgUER6O/v7+7uDoVCDMPk/LV7BD8ikUhPT093dzeXffT29vZnHznEOaEfFO7CPhg2L7FJIr38BGDzz9fm2wZsXqCVPKPuprWbls8YP+o3jdVnkjG30Ocn8QDp9aYith7a0MsYr5btmffJqK2r5/hMTb20gXN2uNuqzu9ZvWvF9IsH1rVeOXpm92ezP3xlTfGkLcvnbF059+qZfcraMmvrlWUzxpbvXZui9SnGcOHgxmUzxiqun7x4ePO0Mb/fsnLGrg0Ldnw25+LRrdrbF9yqGlVN2YbiiZraszxrvnnqy40LPrly7Ms+rzFOWatP7d9QMs2huJmibZeP/v/snQd0HMeZ54eSgyyH3bPvdt+e997u+bwO8tpay17LaytYlkTZXluS01rJCpbEiJxBAkxiBEWJpEiKCSRBEkxgAkjknNMMJucATM6DmenpON1dtz1FjocAxQCCIEhUve8Na3qqu6v/3Xz16w9ffbVz+aLX9m0sObptXUzfAYJq4BJeS0BIh9sl5w+VLXn9F8uzX/toU96+j1bsXJ9TtPiPpw+UjcpaLhzdmvnWb5Q95yP2EVVvdfobv8p66zdnD5StSn+1v/YwwG0gZq2v3P5hyeI1WX/esnyRU9HOerVRFDc/u4dA1DukwN2rQCwWC4fDgUAgEonc+ZF21vQgFov5/f7x8fFYLEbTNMMw8BYj3/ysuUWoI0iBqSiAaP720nzYIV2T/5fXXnhM2nMR8CGWcAo0Tzq5yCjh08l7albnv71ldaZD1wc4PxMyUX4951UAIWheA0J61qNuOflxydKXh5urABskghZFT6209ZSut2bZoj+e2beR9WkZt6q+cvuq9FeHG4+1Vu1elf7KmLIN8N44NmoYrrcrOzCbVNJ4fGPuW7KmEyBglNYf25jzztl9H4KoK2TXbF+Zuzb7XctwOwha26oOvvu7Z0sWv9Z4bC892gf8Ss4+nKB5bcjUt2310oIlfxzTdALeyxJW3KUoW75wQ/G7Fmlz3fGPHvvuP/TWHwacV9J26s/P/6Q045Xmqo/X5b7ZeOwjXd8Ft6qLDhkB6+2tObh88X8pOs7wAX3MOoJ883cvLaGeIwVmswIEQUQiEb/fHwwGWZadyvB4D+1D0zTP8xzHRSIRm81mNpu9Xm8sFmMYZkIY/Wy+p1PuG/LN30PPMrqUqyuAaH56aX4IuIeAezgxC3aE80jHzX2bit/5z59+Y33h2yf3bTxT8eHZI9tPHtiiH2kdd2s+eC/nZz/6+trixdXHdp6u2NpVf9wg6+DdUhDUsD4lCGpBxGSXNpcVvr02582zB7bsWl+Q987vj20vHWk6tjr95RM7VtFOGevXVpdvKn73RUNfjXmwdkPu6zvWZV48trX8g6Kihb+r/GiFX9c9XHf4vfSXB2sOgLA5qOwsX1+U+8Yfy8tWnty1OePVF9dkvmuT9oBxp76vOf2VF9Jeet460s25hkFAzlj7445hxiWRthxdtujF3ZtyGL+GCulJv4YNaD7ekP327x4/f7CsYtvyx7/79+vy36g5/P7Gor9sKnq7r+5Qd/X+ondebDi6tb1q145VaXvX5zQd2777vcyDmwvdyva4WwHGjYjmpzw+Gp/CCAAAIABJREFUoR2RAkiBayhAEASGYcFgMBQKMQxz9QFwzmyNx+Mcx7EsOz4+rlKp2traJBKJ3W7HcRzDMBh4cw0x7/afEM3PmSd97l4oovnppflh4B4GbjFwS3i3hPeMhMf6j21fvuRPT/7o/33hX//3/Q//04MP/Z/P//hf/+HjzcWy7urNK9K++89f+v7Xv/yjb//997/+5cWv/api53vAJQGuEcHcUt4t570qXffZjFee+8ZXRC88/p1d63Jp+4hdUn9gY059xWZibIi2jwzU7H+/4C1d1xlAO8R1h1779Q8f+87//OlDX969LsOrbqcdI/KmygPrszUtJ4BHxViGnLKOgrf/9POHv7bwD78oePtPu94rsMu6QcjqN0m3r8z5eG1RQC8BQSnwjwCvmHUOUraBwYt7d61e3Hn247hHwfvVpFNG2CU9NftWZ760Zfk7x3euKHz3+cV/+tkzj3w17eWnR8W1hEMiba4s35AtazpKjA3VHSr73WPf+Ne/E6X/6Sll63HOq+Lc8rhThmj+bh8mUf+RArNTATjF0+fzBYPBeDzO8/yEcX7yFo7jYBuO4yb/mtyd53mWZWEDPqUkG8zCSrK3GIYplcrGxsbW1laTyZSMnkeRNrPwrqEuIQVuXAFE87eJ5sUCzbsltH0oZOx2qltMkouGwfPa/vPqwVrNYK3f2M/4tU5Nl07WrO6v0QzVybrOmEeaoi5FAnAlkOl5t4xzy2m7xKFoU3adM4sbx0clnEvGeuR+dXvU1Af8as4li5p6A4Yeximl7ZLY6OCorEE7cF47cD5k6ee8Cso2HDP1jRt7SXM/cCviVrG+u7q+ctfFim1Htq5evvjlYx+t9ekGolZ504nd72W/1XnuIOXSAJ8YeIeBZ4hzDcadQ7i136tsipr7wLg+sUasnPMpcYfYpW5zyJvqj76/+L+e6DizUy+ptcmbWL+S9coJu9inaiNGB0FAEzH2GvurjUMXHCMNlHWIdUoZu4TzyBHNz04SQr1CCtztClyX5uEwCWmcS5TULck6y7IURUHYjUajJEnCkBU2UZIvAMn2sDLbPhHNEwRx/vz5vXv3zrZbg/qDFJgWBRDNTy/NixOO+eSnBHgkwCsFPqnw6R0BPgWIGABmIhwjIVNfPKQDESPrUwHMxIV0hGOEcsmAa/gy40qAWxp3SOKOET6gBVELH9TTLiVwyxi7GLhlrHPkUsUh4V1SzjnC2IZ5twwEVSCqB1ED65bS9mHglcdtYuCWMwJYax39NUVv/eaxh/7+h1/7m59976urMl6zydtYn1bcdLx44R8+WpMZMAzQbhXvGQCewYQNAY8Y+KSsU8zYxYxNHDP3sy454xqJu6Ugoqcc4ubjH27Kf210+AJgHXxITTnEpH2Y9ymAT8k6R2jrEPDIQVDDu2Vxh4RzjvAuqbDFj9aCvduRCfUfKTBLFbgpmoejaarHnSRJn89nsVg0Gs3g4GBXV1dHR0dfX59EIjEajV6vlyRJuBfP80yiTMuQfJsOgmge0fxterTQYWeJAojmp5PmoT8euCUpTD/M2vsYaw9r7wNeMfBK4vYBzi0GHglt7eODCmqsl7H1A5+Ucw2zjkGB/l1DCaCHTD8CAioQUMed0rhLHncpaIcMBNVx2xBwjbD2Yc4hBkE175bSYwOsfRj4lbxbGrX0ErYB2jFMWgfijmEQUAKPjLUOApcUhPVhefO53avKlr25NvflXevTRlqPUJ4RENWpe6vOlL+n6DwufMX0nLuP9/Tznn4B6L1i3jXMOQaF+B/nCGcbBj418MlpxzDwKxjHsLHv9EjDwZC+HfgVlH1QyOcDk+F4ZJxDLHTMp2BsQ4x1kHcKryiCJfp/+b1F/IkVu451S+hAFxhVA28L8LZ4wirg6g415Xpq5ktDEYPn0h280xXa4CUNXsrgpRMWN3g4g4c1+8HhcwNVDXJ3DNA0DcGHoqhZSkCoW0iBe0WBG6T5ySMxwzAul6u/v//s2bOHDh3as2fPhx9+WJYoW7du3b59+549e06ePNnX1zc6OkrTdPIdYPKhZs8WRPOI5mfP04h6cjsUQDQ//TTPX6J5IYaeTywmBTzDwD3IOfo59xDvHuYcA7wwWXaItfdxzgHhV88w7xwQYu79I8AprCZ7GeglnFMSt4tpm5i2S1m3gveq4rYh3ikGHilwj3CO4bhtiHVJQEgTtw4yY/2cfZhxiVnPCO+XA5+cdYrpsQHglQOPDHhkvHUYuGRcRAcwLcA0jH+EcA3FfSOYvS/mGGCjGhBRRa29TEDGe5I0PwCn9gLPiHBSlxQ4JJxVzLrEnFvC+2TAL2e90rhTzAeUnEvCOMUgqCSt/Yx9iHdK2MSLB/DKeLeUc0qAR8ZYB1mHGPjkvDA94JM5Hv6EaP5eoSt0HUiBmVTgujSfSuEsy9I0jWGYXq9vaGjYv3//6tWrc3Nzsy6XnJyc/Pz87OzsrKysjIyM7OzsNWvWfPTRRzU1NWq1OhQKwaPN2uQ5iOYRzd8OgkTHnD0KIJqfVpr3JCa/ptB8YiLpsEDDLmFhKd7RJ8wu9Q4zox1CZvrgSGJjL2ftFho4++OjHZdpHgJ9YkasVwF8KtYl59wKENRxjmHBLz7WLzCxX8E5hnmXQMnCZ1jLCQEw4rhbTNkHSWs/55UB3AS8MsEXPtoPghrgkZOjvVFb9/hoBxuQsAEJ5RkEEQUfko6PdhKuAYCpQ6MdwNcPvAPA28+7+3nXAO8c4B2DvC0RMxPSAp+K94wAv5y09lO2AeCTE2N9CaYfFr4KcC90UkB5rxx4ZaS5N24fjlsHgV8J3CNCf7wyeqwf0fxM8g06F1Jg7ihwIzQPR2Ke5zEM8/l8nZ2dH3300aJEKSgoKCoqysvLy8/PLygoyM/Pz8nJyc3NLSwsXL58eUFBQWZmZlpaWmZm5o4dO2pra61WKyTm2TO6p/YE0Tyi+dTnAdXvPQUQzU8nzV+fTa/rikYNJiiAfPNzh7/QlSIFpk+BT6L5JHNzHBdPFAzDhoaGdu7cmXtlycrKKiwsLC4uzs7OzsvLy8nJKSwshHxfVFSURPyioqL8/PydO3eqVCocxyElJFPdzBJoQDSPaH6WPIqoG7dJAUTziOavF+syAa9n+Cui+enjG3QkpMDcUeC6NE/TNAAgEok0Nzdv2rTpnXfeKbyyFBQUwLgaSPCFhYUQ6IuKinJzc/Pz80tKSoqLizMyMnJyctLS0srKysRiMZwdO9tCbhDNI5q/TRCJDjtLFEA0j2ge0fylZ+DW5tGiWbBzBxTRld4FClyD5mGKSZ7nSZLs6elZv359Tk5OxqQCN6anp0OXfF6iFBYWZmZmLlmyBII+jKEvKCjIycnJzs4uKysbHh4mCCL5F4BZMtIjmkc0P0seRdSN26QAonlE84jmEc3fBXCGuogUuCkFPonmAQAcxzEMQ9O0RCIpKytbsmRJRkbGpk2b1k8qZWVl69aty8vLy87Ozs3Nzc7OXr169caNGzdt2rRly5bVq1dv2rSprKxszZo1JSUlubm5ixcv3rZtW09PTzQanVVAj2ge0fxtgkh02FmiAKJ5RPOI5hHN3xQmocZIgbtAgWvQPFwQSq/XHz58ODc3NzMzMy8v7+DBgz1Xlq6ursHBwYsXLxYXF2dmZmYnyr59+3p6evoSpaWlpa+vr7+/v7Ozc8eOHdB5n5ubu3XrVoPBkJoz546P94jmEc3f8YcQdeC2KoBoHtE8onlE83cBnKEuIgVuSoHJNA/XbYVhNoFA4NChQyUlJenp6fn5+aWlpQ0NDWSiUIlCEAQMrLfZbGvWrElPT8/IyCguLq6traUoiuO4ZDNI7VVVVYsWLVq+fDlsef78eQzDruqe5xMF/okANoBB9jB1PQAANojH40kET30xgH9YgFjAsuwNLkabPBSGYUqlsrGxsbW11WQyEYmC4zhc7PamFL6LGtM0jWj+tqIkOvgdVwDRPKJ5RPOI5u+icRl1FSlwQwp8Es1zHMfz/NDQ0KpVq2D++JycnBUrVnR0dCSRl6Zph8OhUCiMRmNfX9+qVavS09Ozs7OLi4srKytVKpVSqbRarTArDhzFz507t2jRIpjoJjs7+8MPP9RoNPF4fPIYn6T5ZPg+bBaPx7lEgd1I7sgwDACAoqhYLDblybXJS0M0nxQWVZAC95ICiOYRzSOaRzR/Q3iEGiEF7iIFJtN80h3u9/vLy8sLCgrS09Nzc3MLCgpWrlzZ2dkJuZllWYZhVCrVoUOHPvjgg3Xr1sFJrgUFBYWFhe+9997mzZv37NkjlUoZhkni9blz5xYvXpyTk5OXl5ebm1tcXHzs2LFAIJBk91RugP51SPPQ757k/iTTAwBgAk34zgCPw3Ec9MezLAud9/Ag8ODJcyV7lTwponnkm08+DKhyTyqAaB7RPKJ5RPN3EaShriIFbkgBRPOpyIJoHtF86vOA6veeAojmEc0jmkc0f0N4hBohBe4iBSbTPM/z0J+tVqvXrFkD13MtKioqLCwsKSlpbW3FMIxl2VAoxDAMhmF1dXWlpaXvvvtuMkllVlZWenr6smXLampqwuEwAAC683mer6qqSktLy8vLgy78rKys1atXa7Va6GtPRQfoTYdBNcntMEs99McnvfUTXOwMw0Aoh389gPvGYjEAAFy1KumbT3r6k8dHNI9oPvkwoMo9qQCieUTziOYRzd9FkIa6ihS4IQUm0zwMU6EoqrOzs7S0FC4OBVdyXb58eXt7O4ZhJEnKZDKHwwEAsFgsR48eXbFiRXZ2Ngy2WbJkSV5eXnl5udVqhbHsdrsdksGpU6eWLl0K4+aLiopgyE1vby9FUalszfN8EtYtFovZbI5EIhDiAQAYhjmdTrgFNqNp2m63BwIBeBaPx6NQKIaGhsRisUqlkslkYrHY5XJZrVZ4FjgpdsLUWDizFn6iuPl7kuTQRSEFEM0jmkc0j2j+hvAINUIK3EUKXJXmAQCBQODw4cPFxcXZ2dnp6ekFBQW5ubmlpaX9/f3QMb93796jR4+Gw2GGYTweT3t7++rVqzMyMnJzc0tKSioqKiDKu93uhoaGmpoaiqIAAGfOnFm8eHFeXl5mZmZubm5hYWFGRsaZM2dwHIf+e0gbMAie4zi3271ixYo333yzoqKCTRSGYfr7+3fs2CGRSKBHPx6P9/f3r169euXKlSaTiWGY1tbW4uLiX/ziFw8//PA3v/nNH/zgB88991xWVlZfXx90z6e+OaTyDfLNI9986vOA6veeAojmb4bm3WKAbIYVcChZzyAd7ACjOuDpAp4uz7gBOHtDTbmemmek4/5bW8B1WjgeHgStBXsXkR7q6r2vwGSaBwCwLOt0Ojdu3FhYWFhQUJCXlwdzya9cubKlpYVhmEAgsGvXruzs7JqammAwyHHc6Ojo+++/n5GRUVRUtGXLloGBAQBAMBg8ffp0RkbG0aNHoSP89OnTixYtysvLW7ZsGZwIm5WVtWvXLoj+MEgGIjXECK/Xm56e/q1vfevVV18dGxsDAJAk2d7evnnz5tbWVviGEAqFLly4kJ+fv3jx4p6eHui893q9Npvt9OnTL7300tmzZx0Oh9PpvC6aIJpHNH/dhwQ1uKsVQDSPaH52v6Igmr/3uQtdIVJg+hW4Ks3zPD82NlZSUpKfnw+DZwoLC2EKmoqKip6entbW1rVr1y5atGjdunVVVVXNzc2HDx8uKiqCTvdly5bt3Lmzr6+vrq5u5cqV+fn55eXlWq3W4XAcOXIErkJVXFycl5eXn5+fkZHx/vvvj46O8jyfDK9PBr14vd7i4uLnn39+yZIl+/fv9/v9AIC2trb169eLxWIYFCSVSsvLy48fP75t27by8nJI7TDbfW9vb05OzsDAAAzIuS6FIJpHNH/dhwQ1uKsVQDSPaB7R/LR46JFvfvqBDB0RKTBlBSbTPCRavV4Pg2Hy8/OzsrLy8vIg0K9YsaKkpGTFihW5ubl5eXlFRUXLly+HyJ6VlVVaWpqbKAUFBevWrVu1alVmZuayZctKSkrKysq2bdtWWlq6dOnSrKyswsJCeMy0tLRVq1aZTKbkek+pvnm3271q1aqCgoKdO3cWFhbq9XqCIC5cuAB985AqGhoaVq1aJRaLZTLZqlWroHs+EomwLNvZ2ZmWltbd3f1JoTUTuATRPKL5CY8E+nqPKYBoHtE8onlE81NGJrQjUmCWKvBJNK/VatPS0nJycvLz83NycmCMe05OTlaiZCRKfn5+Xl5eenp6VlZWdqIUJEpOTk5hYWFaWtrSpUtLSkqysrJycnKWLl2alpaWlZUF2yRd/mlpacuWLdPpdMkUNHDhKsgQDodj2bJlK1euHBkZ2bx580cffWQ2mwcHB7ds2ZKk9mPHjm3fvt3lchkMhnXr1v13jh2O4zAMoyiqra1t0aJF7e3tNE2nviR8EqAgmkc0/0nPBtp+byiAaB7RPKJ5RPOzFMhQt5ACU1bgk2her9enAjqMcYeBN7AO42SKi4uXLVsGY+uTbSDNFxYW5idK8mUANkvSPPTQZ2ZmLl++XK1Wx+NxGGkDaR6CtcPhKCgoKC0tdblcg4ODy5cvr66ubmpqKisra29vBwBoNJrXX3/9O9/5zqOPPvrUU089/PDD//3mAANyeJ7v7e3NzMzs6+u7QRBBNI9o/gYfFdTsLlUA0TyieUTziOanjExoR6TALFXgqjTP87zRaMzPz4dJJ2FAfHZ2Noyr2bp16/vvv79mzRqY7qYkUfLz8wsLC4uLi2EITX5+/oYNG9asWZOWllZSUlJaWvr+++9v3rx55cqVMNklTGNfWFiYlZVVUlKiUqmYREmuRAuzyDudzoKCgpKSkv/GeoIg9uzZ81GibN68eXBwkOf5/v7+V1999ZlnnnksUZ544omMjAw4p5YgiLa2toULF7a3t0/ISf9JIIJoHtH8Jz0baPu9oQCi+Zugec41jGyGFQA2edzVT/rbgFkDXB3A1eENG4F3INiU6zz3lHTch3LazFKYQt1CCtxRBSbTPEw+Yzab169fD93zxcXF0MteVFR0+vRpm82m1Wq3bt26dOnSsrKyixcvdnd3Hzt2bPny5Tk5OdnZ2StWrDh8+LBUKm1padm0aVNmZuaOHTtg6vcdO3bAfPMw7B7Ogv3ggw9sNhsEbhjgDlNPchzncDhgAhybzQYA6OzsfPvtt5977rmlS5fK5fLx8fEPP/xw2bJlDofD5XL5fD6LxbJ69er9+/fHYjGYuXLBggW9vb0o0uZGnjKaphHN3xvMiq7ikxRANH8TNM+7hpHNsALAroi7B6hAO7BogbsTuDsRzd/I6IXaIAXmuAKfRPNOp3PPnj1FRUUw0j0nJ6egoGD16tUtLS08z4dCobKysry8vK6urvHxcQCA2Wxeu3YtXBBq/fr1MEPl+Ph4S0tLcXFxZWUlhPUzZ84sXboUzpSFTvqsrKyKigqv1wvTzsBmyRQ0NpttyZIl2dnZFoslHo/jOL5jx46HHnroueeeM5lMfX19CxYsqKioSB25y8rKFi5c2NnZCRPP//nPf+7o6Eiu/5racnId+eYRzU9+KtCWe0kBRPM3QfMo2fwdUMChiHsGL9G8pxN4EM3PcUhDl48UuCEFJtM8JNpgMHju3DnolV+2bBlctHXNmjUdHR2xWCwUCh04cODs2bM4jpMkqdfrq6urS0tLs7Ozc3NzCwoK9uzZYzAYeJ4PBoN9fX1NTU0wJv7cuXOLFy+GSXLgYbOysmpqajAMg+HykObh6lEURfl8vh2J4vV6SZKkKMrpdO7bt2/Dhg1ms7m7u3vjxo1SqZQkyeTCrrW1te+9915NTU0oFBKLxZs2bRocHEz+em0uQTSPaP7aTwj69W5XANH8zdC8RwKQzbACThXrHWJCnWBMD7zdwNuNfPM3xDKoEVJgbiswmebhaE1R1H8Hpq9YsaKoqKi0tDQvUVatWtXS0kIQBEmSarU6FAoxDNPT07Np06aMjIycnBy4Fmxubm5aWtqOHTv0ej2GYZDpIShXV1cvXboUvhsUFhZmZ2cXFxf39/dDlE9ms4GudIqi4N8BPB4PjMCBB6Fpenx8nGVZHMd9Ph9snHTnx+Nxv98fCoU4jqMoKhwOQ5QnSfK6IIJoHtH8dR8S1OCuVgDR/M3QvHcEIJthBVJp3tcNfIjm5zajoatHCtyYApNpnuf5ZOg8DKeB67bm5+evWrWqubmZJEmGYcLhME3TJpNp9+7dOTk5CxcuzMjIgElvsrOzMzMzS0tLz5w543A4WJZNusbPnz+/dOlSmP0Ghs5v2LBBr9fD5aJSs9nAXaCrHgBA0zRcpDaVJKC/H26Jx+PJnsOptKktAQCpjSf8lPyKaB7RfPJhQJV7UgFE85do3uiOm92MzkdpfbjGj1m8ATzg00jEfQ0vk7oKELoAvCeBqw3ZjCtQx3nOs75TwH4BuE8A94lYoBG4at2tJcbqt8YcUjQL9sbYBrVCCswtBT6J5nmej0QiR48ehfkl4SzYNWvW/HccfHJGKU3TGo2murr69OnT5eXlMA4+Nzd3+fLlu3fvPnHiRHV1td1uj8fjkMUBAGfOnFm4cCGMwoerRx07diwQCECah152iNSQ5pM5K6FvPumAh5QPD5tsA+ED7gjhHu5F03TydeLagIJoHtH8tZ8Q9OvdrgCi+Us0r/cKKK/zkXpfzOCLjvqc0ahaLr9YdyJj5MLr1q63jfW/HbuwEtkMK2CvW+yoW+Cse9tT92dvrWD2i2+banMGKpeKz5ZgplpE83OL0dDVIgVuTIHJNA/BF7rJh4aGli1blpGRASNtVq5c2dzcnKR5nucJgohEIj6fr7e3d+XKldA9//HHH/f392MYFo1GIXZDSgYAnD17dtGiRXAWbHp6+oYNG1QqFWTu2UAJiOYRzc+G5xD14fYpgGj+Ms17OL0HQDN4gNlDhsJBg0nf13pkuH69vHG1rLZgsOslZDOsgLjuA0nd5pG6TbL6NbL6VbL6VZL6db3127ob9siHanwePaL5G2Mb1AopMLcUmEzzqfwdDAZPnjy5evXq9PT0/Pz8kpKSs2fP2hLFbrc7nU632+3z+cbGxpqbm0tLSzMzM4uLi7dt29bU1ORyubxer8vlslqtLpfL7Xbb7fbDhw+npaUVFBSkpaVlZmbW1NQQBHGDjvPbN8Anj4xoHtF88mFAlXtSAUTzl2je4OYMbqB3XTKjE4y5BPO4IuNuR9QzhntNdi9ANsMKuPyY2x/2BELegMsbtHmDNnfYNRbyW8Yj5gipHb98+zx3vEIbvKTBSxm8dMLiBg9n8LBmPzh8bqCqQe6OCQGykKcoippbYIWuFikw4wpMpvlU3zzHcS6X6+TJk9nZ2Tk5Ofn5+Vu2bNm/f395efmBAwfKy8v379+/b9++3bt3b9mypbCwECa0WbFixdatWw8dOpRsU15efjhRNmzYAA9VWFi4c+dOs9k8ORr+DjIEonlE83fw8UOnngEFEM1fpkCB5nn9ZaA3OIHeypodvNPDuN1hh93jsNp1ToBshhUwOimTkzC5cJMrbPL4TR6/1u3V+KK6EK0JxUe8ceSbn3FMQidECtwFCkym+STRconCMIzZbD548CBMQZOTk5Oenp6VlQXz0sAInMLCwqJEKSgogNCfn5+fm5sLY+4LCgog5RcUFMD4+2XLllVWVqpUKoIgZmD8vvFTJK8dwzClUtnY2Nja2moymYhEwXGcIIi74KZOtYto9agbf1RQy7tUAUTzl2lecO5yBg8wuBPmAqNeYPECixuMujmrh3X442ovQDbDCuhcQDA30HmB1scKFuRUISDz8yM+IAsCRPNTHeDQfkiBe1mBT6J5OFTzPA9nmhqNxs2bNxcXF+fl5cEk9HDZ17y8PDj5NQnxhYWFkOlTWxYUFOTl5WVmZsKFXbdt2zY2Nga98hzHJRPX3HE+QDSPfPN3/CFEHbitCiCav0Tzeh+uD4QM/qjBhxu8lNHDC2SfiKTXeoHGCzQ+oAvZkc2wAiYHMDqA0Qn0bqD1CqbxJSxxU7ReRPP3MpCha0MKTFmByTR/1aE0Fov19fV98MEHaWlp2dnZ0CUP3fOQ1KEnPi8vLz8/Py8vD7rhsxMlPz8/JydnxYoVubm56enpu3btUigU0Wh09kx+TV4yonlE88mHAVXuSQUQzSdpPqYLBPT+cYMvavTGTB7a6GGNHlbv4TReXu3jVT5g8ESQzbACow5gcfBmJ29w8zovlzBW72X1iUB5kzv1Tyt3to7i5qfMXWhHpMD0K3Bdmk8mcSdJcmRkBGaizM7OhgtFFRQUwDCb4uLioqKiwsLC/Pz8rKwsGFqTl5eXDMjJyckpLCzcu3evXC6HKJ9EZ+Sbn/77OqUjokibe5Jf0UWlKoBo/hIC6nyYNujXB4IG/7jJFzF7cJOHNnlovZfVCCjPK/3AbEc20wrYHGDMwY86eZObM3jjCWNMHtrspkfdtNVFo0ibKY1uaCekwD2uwHVpHq7EBHO6MwzjdDo7Ojr27NlTUFCQnZ2ddMlDrIfh8rAOQ2uysrLgxm3btlVXV8MAm+TgCkPzUU6bWfKQIZpPPpmocq8qgGj+Es1rfYw6QOt8QkISs4cec9FjrviYK252c/pEgIfaByDfo8+ZVGDMHbO4Y2YPrveRGj+l8VNav3CPTG5q1EXZnRSi+VkyXqJuIAVmlQLXpXnoQYfrucIk9AzDjI2Ntba2Hjp06L333oORNnB515xEgQE2WVlZeXl569at27VrV1NT0+joaDQaTYI7XCgq+XWWoEPyzwVoFuwsuSOoG0iB6VUA0fwlmtd4OaUPaD3A4AIWJ7DbL9mYA5hcwrxYnQdo/QSyGVbA5AsbfBGdH1MGCVmIkYUYeZDV+Dm9lzW52THnnY2uST07irSZVSyHOjPXFbguzadGtyeXYoUTWN1ut1gsbmhoqKqqOnr06N69e3e6obhWAAAgAElEQVQlyv79+ysqKqqqqhobGyUSicViScbSpB5hegfpaTkaonkUNz8tDxI6yKxVANE8ovlZ/YqCaH6uQxm6fqTAlBS4Ls3DUZnn+SSIUxQFfeqQfSmK8vl8o6OjMplsMFEkEolKpbLb7eFwGL4MwMQ18Xg8ifWpgz08TuqWO1VHNI9o/k49e+i8M6MAovlU9yqqIwWmrADyzU+JudBOSIHbo8AN0vw1Blo4TZZlWZqmSZKMxWLxRIEx8bOH1K9xCcmf4BsLz/MYhqnV6qamJpRvPikOqiAF7gEFEM1Pmd7QjkiBVAUQzd8eKENHRQpMSYFbp/nJAzyMiZ+8ffZvQTSPfPOz/ylFPbwVBRDNpwIZqiMFpqwAovkpMRfaCSlwexS4dZqHUTTJ7DR3lzN+AhYgmkc0P+GRQF/vMQUQzU+Z3tCOSIFUBRDN3x4oQ0dFCkxJgVuneeiJ/ySIv7v89IjmEc3fY/CKLmeCAojmU4EM1ZECU1YA0fyUmAvthBS4PQrcOs0DAJJADz30cPhMxtOnZsWZMLLOtq+I5hHNz7ZnEvVnehVAND9lekM7IgVSFUA0f3ugDB0VKTAlBaLRKI7jgUDA7XY7HA6z2eyZw8XhcLjdbq/Xa7VaJRJJS0tLW1ubXq+PxWIkSRKJMiWZ746d0OpR0wuO6GizUAFE86lAhupIgSkrgGj+7hjXUS/niAIYhuE4HgqF/H6/1WpVq9XSK4tkLhWxWCyVShUKhUQiaW9vv3DhQkdHh9FoJAiCoigcx+GfMu7VZwPR/CykT9Sl6VUA0fyU6Q3tiBRIVQDR/L1KAui67mIFooliNpv7+/vrriwNc6nU1dXV19c3JUpdXd3Fixfb29uTNI8lyl18m6/XdUTz0wuO6GizUAFE86lAhupIgSkrgGj+eiMq+h0pMIMKEAQBz0ZR1NjY2ODg4IUry8W5VOClVydKTU0N9M0bDAYMwwiCiCXKDN6cmT4VovlZSJ+oS9OrAKL5KdMb2hEpkKoAovmZHqHR+ZAC11AARoTjOE6SZCAQsFgsfVeW7rlU+vr6ent7u7u7uy4XtVrt8XjmAsrjOI5ofnrBER1tFiqAaD4VyFAdKTBlBRDNX4Os0E9IgZlWAMMwmqZjsRhBECRJRiIRGHWT/IRTP+fIZ/LyMQyDCoRCIYqiWJbFcRzOMZjpOzSD50M0PwvpE3VpehVAND9lekM7IgVSFUA0P4ODMzoVUuDmFSBvS8FJ8q9GUQRNk6kWp/kJRuHxVCMJ+rb063oHvXn97uI9EM1PLziio81CBRDNpwIZqiMFpqwAovm7eLBHXZ8LCtweNzxOENcyPEZNMBKnU40gqNvTsescdS7c8eQ1IpqfhfSJujS9CiCanzK9oR2RAqkKIJpPDp2oghSYowrA6aSpnyRBTTAcJ6+0S7N156hkM3LZiOanFxzR0WahAojmU4EM1ZECU1YA0fyMDMvoJEiBqSqQCtm3qQ5TPaZ+4jg2wWKx6JWG3abOXPuwU1XxrtwP0fwspE/UpelVANH8lOkN7YgUSFUA0fxdOcyjTs8dBa5Nt1P8FSNiEyxGxFKNjMautCgeTjVMgPs7UObOfUc5baaXGtHRZqcCiOZTgQzVkQJTVgDR/JzCA3Sxd58CN4vMqS52WIdrpibTwkSj0UgkRhA0QdAYRsRiZAwjYzGSECa2MtBojqY5muEYhmNojqY4KoyHo0Q0SmIYiUXJKCZklMHC4XAkEsGwiX56GPx+sz2/kfZ33/27hR4j3/zsBFDUq2lUANH8lOkN7YgUSFUA0fwtDLZoV6TA7FNgMhPDPsZiMZjGPpEBk4phVDRCjIcwLEoyNAt4AI2heZfTJ9co23s7q+tq6lsaVHp1CAuzgGMBR3E0RuERAoviGEmSDMPE43GSJMfHx2EO+NR3htmnzV3WI0Tz00iN6FCzUwFE86lAhupIgSkrgGj+LhvgUXeRAtdWYDLNT876iMfiMYwh8DiBs1iUjkXpGMZEI1Q4hBv0Y+fP1WUXFv/6d394+N9/9JOf/bygZMXpmotOfzCI4Rgdx+Oc8EnRFCWktYGOf5ggH7rkr9099OuNK4BofnYCKOrVNCqAaH7K9IZ2RAqkKoBo/sbHVtQSKXBXKgAjYQiCoCiKJElhXSqCwyJUeBzzegJGg7WttWfvnorSkrWvvPzWi8//18svvfHntxctTM/JzF+2NLvg5Tff/eWLf3z+j69kFiw/WHlqSK42292BUJgkSYqi4CpOBEHAqBv4FwD4RnFXijWbOo1ofhqpER1qdiqAaD4VyFAdKTBlBRDNz6bRG/UFKTAdCkzI2R6Px1mW5RMlHo9TFKVWmU6dqN6w7oM3/rzgufnPP/vMr//4+9feeH3BgnfS83KXb9u6e9/hU+dqW9t6JfVtfTv3Hy1csX5xZuGLf3rjiWd+87P5L/zqxZezcgtPnTpls9kgIrAsC6NuWJalKArDsEgkMh2XMqePgWh+dgIo6tU0KoBofsr0hnZECqQqgGh+TuMCuvh7TwHB9X5lCYfDHo9neHi4srKytLR0wYIFL7/01quvvP3Ky3954/WFmemFK1ds2LF93/Fj59pb+4YHFZJhdc+wrmtA3dGv6hxQ90kMQ3JLR7/q1PnWTVvL03JXvbkw76VX33r55ZffeOON7OzsLVu2tLa2+v3+cFhw2DMMQ9NCHM69p+0MXxGi+WmkRnSo2akAovlUIEN1pMCUFUA0P8MDNDodUuBaChAxAhdmqwoFIwSLENEIFQ3TgoWoMBdn4gxN4jEsGolFowQeIwk8Gh7HopE4Q7MMQ9JxmgcUD6zu8brmng93lr/61uJX3lj0u5fe/NULL/36t6/8/qW30rJXrN20c+/BqvqWQbHcIlPbpCprqo0oTRNMphnVmpw6s0uuHR2S6WoaOj/Ysf/dpbm/+M1/PfPL3/3qhZee//1recVrTp1rGHOGiDgYx3kAmDhDkEQUj4WxaAiLBmPYOEPjDI3jsXCcIWDKHRgCFIvFkDv/0o2//A+i+VsFUJ4DPA8uTfAWpnkLRdgYBzwDOIrisQgIkyDKsRjHYCBOARoHTBTEwwD4WOBigSsMsLljGPADEAJsGNAYoAkqHmU4DAcYA8ZZEOCB91bvyKT9Ec1Pmd7QjkiBVAUQzV8eOdG/SIFZoMBkmhdyyFDRcSoSYTCMw3EMi2FRIoYxFBWnaYYik6zCUJTb6VCq9V0DsguNnR/tqViQlv/jx+f/079896F/+49fvvCnzPzSj/dXXmjobO4Qd/WrBiQGicIyohyVqa1KnSPV5NrRCabS23Rml87iVhlsMrVlYETbJ1a1dYsPnzj/3qZtr7215KF/+48f/MdTr7+TtnnbnvrWXqXeajJq8VgYgDg0lqU4lmJoHIuGopFANBKA4fUwGU4oFPL7/bPgDsyiLiCan8R+N7nhejRP8tEQCBAgAgABOBKwFIiTgI0BLgpAgAMeDngiAJ87hoMgAGHARgGDgzjFA5IHJAFiDBiPgwAQWH+aC6L5VCBDdaTAlBVAND+LBm/UFaQAEcMn+OZJlsYYIkxhITISoqJsnCcJJhYjKZKhSGZ8PGrQmxVydVdnb+XRE+vWbnxnQfrTv/ztv//k6afmv7AwvWDd5o8OVp6prLpwobGzrUc8OKJV6MbUBpfO7NVbfDqzT2P0qA1ujfEKUxnsE0xjdGhNTq1ZcM9rE1hvGPNozS6p2twvVrd0DVXXtW/eticzr/TpX/z2+48++fNf/DY/P3///v0tLS1yudxisQSDQZ7n4/E4hmHxeDwaFdafSt5x6KFPfkUVtHrUNGPjXw/HJ9zzrOCh5zgQ53n4vskADgeASbx7sgBwl1+TYwDMGSMAAGxCBFr4JDgB5ykAQJwHFAcI9q8qTlMN0fyU6Q3tiBRIVQDRPMIGpMAsUmAyzYewCM7SNAA0ACTgQwFyPEiFx2m3M9zdKa44eKp0+fo//v71h771g3996N9ffOHl7NySLdv3VRw/X9vc3dI13NEnHZLqpGqzgONmZ+LTpdQ5VXrBFFq7XGNTaB1qgzvVVHrbBFPqbUqdVamzakwO6KGXa0c1JqdhzGMYFbB+YEQrVVu6BuRNHQPHT9du3XXglZff/P6/Pfq97/7wz6+9vW7t5urz9VqN2eXwjwdxngNxBsC5s7FYLBgMRqNRmO9yFt2MO90V5Ju/RWKEiyhMPgjcziUoPQCADQAJAL0c6AegKWHNAHQA0JMwuGWOfLYC0HnZmgBoA6A+8dUNQJQDeGyylre6BdF8KpChOlJgygogmr/TIzY6P1IgRYEraZ7ACCIcw33hiMXhkuv0fVLp6arGvXuPpy0tevaZ3z711PO/+fUrf3krsyD/vQ+27D14oOr06cb6xt6BEY3aaNdZXEq9VWtyCs54o11rdir1VpnaItOMKnXOZFwNxHqV3pVqENxTPxXaMYVuTKGzqgw2tcGuNtpVeptcIwTkKPU2rdmpNtjHnCGlzqofdWtMzs5+WXNTz+HDVZvLdmRnL3/11Xfmz3/hl7/4XWZG0f59lZ0dQxaL02azRSIRjuNIkkz106foMaeriOZvERW5yx52IXpeiLoRwuj5hPc5nnBAOwDoAmD7GPX2oPuFdssz7eYnO61PdlifbLfNbxn7dZPl102WJ7tNc8fmt9h/0ex4rtkxv8XxZIftyW7z413GP/SbtxlinRQY427xhlxld0TzU6Y3tCNSIFUBRPNzGhfQxc82Ba6keRIjSNOYrbq+qaB01dO/+s03vvf9H/1o/q9+9Up6eumaNdt37Tp2+nTLmTOtLS3i4WGjXG41GHw6o0eps6oShK2zuDUmh0I3BhFcIHKtQPZqg+CeV+ocCq1DpXeqDa7rRtoodVa10a4xOtSGSxyv1Fv1Frdh1KM22iVKYwL07fpRj0xjkWvHTFafWmPT610jUmNjU19VVf2hQ2dWrNj85lvpz87/3bcf+tHPfvab5cuXnzlzxm634zhOJcpsux13tj+I5q9CfzezKRkvczm0hgU8xyVCaRJ/6QL9PMg3xX9ULfvHWuXftRjmXVSKWi3zWiz3tYx+od7ylQvmr1wwizr1c8e+VGv9Uq3t83W2z9XbRC2jolaNqF3/5XrpT8+Li/RY482If4NtEc2nAhmqIwWmrACi+Ts7XqOzIwWuVCAmpKnBcWGCKMVwLADHq8796Kc///PbSxam5xet3Lh1+5GP91SdrGppbh3p6dP2DxpkCodc6VCoXCqNW631qnWuCSHvV/l6pSc+1St/qT4pbn7CQZR6q0JnVeqtaoOA+BqTQ210JNoIATmKhKl1To3OpdG51DqnWutUqGz9g9pzNe07dh1dVlK2JG3ZSy+99Oyzz7755pt9fX3j4+MMw1ypxVz/hmj+Bonwk5rBGHjBocyzQhIbnuFYJi7MeAU4AEEefOSIP9Id/HK99f7ekKjDIxqIisSkaJgUDVGiXlLURYi6iPvaonPHRN1xwXriot64IMJgSDSCiTrsX60f/Y/OwFoKxONxjuPg+hU4jn+S8je+HdH8lOkN7YgUSFUA0fxcJwZ0/bNLgViEwDEcxxI0z7M82Lh5+1f/+aEt2w/UNPR2D+l6B3U9A9rufk3fkH5YapGqbGq9R6Vzq3RuhcYpmG7iBNYJIC58nQaatykTsfUw6kZjdMgTjn8hOEcvROOoDHalzq4xunRmj87k1hhdKr1DpXfI1GNdffJDlefXbtqxePHi73znO9/97nerq6sJQpiAN7vuxZ3uDaL5G4fCq7akE274BM3HAUcBjuJZmkmEy0cAcHBgjZr+Zm3wf55x/W0T8ZkG/LMdvKiNE7Wyolb2U83MA43UA43Ugw303LFPN7Gfa+A/V89/rh7c18yLOuL3d/Ofrgv+81n3D6oDuXZAUcKcWEjzJEleVfab2ohoPhXIUB0pMGUFEM3f6REbnR8pkKrAJJov27LzG9/596rqltrmgTMXu87WdJ6/2N3QMtw7qFNonMbREER5+KnUuZQ66CO/JtPfMs0neN12KYbeYFcb7Imo+jEB8Q02IZhHyIHj1pu9WqNLrrFKFOaeQVVrl6Suue/IiQtFpRt//6e38/LyHkuU5uZmkiTj8XiqEqiOaP6muHBy46vRPJOk+VEKFA1Hv3Eh8L/Oev62iXigiUQ0P4Hm53Wyn+rhP9MQ+tp577+d9S41CO/bQoabeByAS2Q/Wfab2oJofsr0hnZECqQqgGgeMQNSYDYpEIsQBIbjQvZGigEsD9Zt3P6Nhx49fb791LmOk+c6z1xovdDY3dkvlyjNUs3YiHpUojSPqCwyrVWht6uNTtWliJfbTfMCwQsx9AYh+41Sb9VZXMJcWKNdqbMKs2M1owNSdfeQrKmj/3xd66nq+qNVNYeOnTlQWbX30PEV695/a2HGwoULn3322aeffrq2thbDMJqmZ9OduPN9QTR/U1w4uTGZyAQlZFUU1ooiExnlhfRQUWGFJKDCwBu9vq90RL7YGPqbRvxLDcSX6qkv1FOfryc+34A/2BT+XHPwc81BURc+d+yzzdG/rYt95SL+dzXkly/SDzaSX2xhPtsw/tWm8D/XB18wgfHxcQAAI7wTXWL6ybLf1BZE86lAhupIgSkrgGj+zo/ZqAdIgb8qEAsTRDRB8zik+Q+27fuXh358+Hh91fnu0zV9py82XWju7B6Sj6hNErVxSK4bVhrEKoNEbRrRmGVai0I/dpXQmglx8Lfsm1fDWPkEzSv1NoXOKlYYB0a0XQOypo6B2qbuCw2dJ85fqDh5eu/hyl0HKnYdqNhzuHJ3xZHdh47sO3ps/QfbluQWLFiwYP78+U8++eTFixchH/xVB1TDcUTzN8WFkxtfSfME4AjAMZSwPJKwEpIkBH7ZPSqSh0RDQVFPRNSNidqjgnWMi7qCoj63aNAuGrTf1xaeOyYa9Ii6/Pe3Bz/bEv5UCybqTMjSExCJx0U97n90AL9fWECKYRie5zlhRvGtFkTzl+jN6GZNblbr5dReTunjtG7OYObsLs4THvB6IjaHz+ULWXwUshlWwO1gnC7c7h23ehi7J2z3hN1WzufkXJ6oa9xvsnEGz5T5e3p3RDSPqAEpMJsUwLDELFgYN8+yPL++bOvXvvmDY1VNtc3iU+d6mrsGO/ulw3K9VGOWqIzDCv2IyiQRzChRGsVKo1Rthrlrkp+T4V6hE4LaBdPbVXqHQmdTaG1KvUNtcMKvOpNDa7RrDFa1fkypHVVqLRqD7bJZE9utSu3oiMIwIFb2DEg7esTVda1naxqPV104eKRqz4HKj/cd2X/42N6DR3cfOLzn4JF9Fcf2VRw7cORE+ZHjFcerdh84vGzl2iVLljz99NNPPvlkXV0dTGszm+7Ene8LovlbREUcAJoDwlxyjqV4huIZniPjNI/FeT8Ax8Lg0TazqDco6g6JOsKizqioLZIA+nAC6AOiHp+oxzevLXKr1k7Mayfuaw0/0Bz4bHPoMy3j81qJeR3kvG5yXkdsXltA+Gwl72vG728O3d8yPq89Mq+XnNdFCm3aop9qHf9Ms/9W+3BjVyHqCYo6QvPax+9vjdzXGhV1RARZOkOinnFRu+9BCSULjgMWsDTLUwzNExRgsUTGTwHsWWHFrZstiOYvIZ3JzVpcnMoHZH4gCQCVG1j1wDMGHM7VLq3SohK7rWqJZhTZDCswKnYYZTqtSqJQ2nUqmU4lcwzRbimul6pNY70GHUA0f+eHStQDpMAsVAAjCZzEhaQ2GBWnWcBteH/L17/9yNFTdTX1A2dqBpo7Bzv7ZcNyw4jSNCw3iOWGEZXpSjNL1ZZUU+qFmamplkgen5iuqr+UPF5IPSlkrhQSyWtMDpXGrNKatfpRncGqN9mMZrvR4tAZrUq1USLTDEuU3X3ilvbe2vq2M+dqj586f/joqcOVVYeOnDxYcXz/wcp95Uf2lh85UHE81fYfrDxSWXXg0PEDh44frDj+3rrNubm5Tz311BNPPAFpnmXZWXhD7mCXEM3fLBpOaI8BQMOVTVkhuiYKAM8TIMbhFOcGoDQCvtlhveSPh1752/TZyYk6uftbI19q9H6hMfD5pvF57ZyoE4j6gZA6ptUtasZFDeCzrfznO2IPtEVFLeOiFkLUxYp6wbx2/DPNwS82eWainzdw+RdCmLBcLg0ARhAgHAGMO5G5n03oLETT32RBNH/ZN+8hzV5MFaDkwfhICGi8IGAFVg3o7fplz7ldrac/bKveqqp7GNkMK9Bf/4vu5sfbOx5papvf0f5IR/sjAxf+IGv9bWfL96T6b3lDSkTzd3CMRKdGCsxeBSbT/Ob3v/Xdfz96su7cxd6aeklL13D3oFyiNMo1o1KVAO5XorxA9lK1OdVgFHvqJ0wuKaz2mpixqjW7tGaXymBTaIUoHf2oW6sf1erHdEar3mg1mGwGs13geKm6q3e4obnzQl3L6XO1x0+eP1JZJeD7gaO791WUH6wsP1h54NCxAxXHDx4+cejwiVSUP5Cg/MNHTyVoXmizsWxrQUHBz3/+88cffxzSPJoFO+GxRDR/k2Q4sflVaB4QAAcYzVviICcAvtZumxFK5kTt3P2t0QdavJ9u9d/fFhJ1s6JWStTJfq4l+JVa40MXNc81aF7uHf3zsONPvZYnW8xfqdJ/pc77xZbYvBZc1Izd10HMSD8TgUbXZPrjgSiIQ5qnyATNe2DiIFbYiGh+6rETRg9h9oZVQUweIkbGaZ2XCY1xuuFwS+0jmpY9pr5D2p69jp5lyGZYAXvPmtGBQpN4qXZ4pUm82CRebO8o8wyvG7j4q96OR3xWB6L5CeMW+ooUQAoICkyi+fVlmx96+MdHTtaeru6qaRjpGpAPjGjgIqwSpUmiME6keaVp5EoTml1pcu3oX93zBpghXljnNZlc0mhxaPSjI3Jt/5CsvbO/qbX7XE1D1dmLR4+fOVBxfN+Bo/sOHC0/eEywQ8cOHBI+BZpP1KHr/eCVjvkDFcfLDx47dPiE0DLRbPuOfaWlpU8//fRjjz1WX18vzPqlKPQMpCqAaH4int/k97/SfBxEARcVIkFIQIAwA0Yi4C0r8Y/NozNBya2cqJW7rzX6qTbvfe3+eZ1BUSf+mVbsvsbx/11r+9VgoHQsetQfriXIxjhfR3CHwmCJgX22H/+ni+7768bnNcfmdTIz0c9rcjzswE57kKYATQGA0RSIRAHtBUIiXSGciQYM4G/yFgHkm7/sm/fGzL6gKjQuH49Iw5jBh4cstG7APtT+fX70AsB7wXgL8BqRzbQCTjnw9oJQEwiMgFC9YE4tCImdPaXSlhdDGhrRfOqghepIAaTAJQUm0fy6ss3f+t6Pjp6qO1PTXXW+f1CqHVGZE6s12WUai1RlnkDzEqUQQH+FKYySK21EcOqbZWqLTDMq147JNQLcC5NZtWNiuaF3SNnU0lXX0Ha2uv5kVXXF0VPlh47tLT+yr/zIvgNH9x+sFCwB9PsPVl7yxB85WXHk5MHDJw4K1F65/4DQYIJvHrrtE+8Aggu//GDl2rVrn3322Z/+9KcNDQ2xWIwgCPQYpCqAaP5m0XBC+1gy0iYOMCHCmxVWjqJAMA46XOBFdfDvGswzQMnzWrh5LQLNizp9oi6/qCcgah//Yuv4Aw2+Jzv9W0NgEFA+gI0DKgKAkAgfgAEANgfB/K7w37Thn2ohRN1gBvp5I6dYq/eMYwAjAYgxNIhigPYDnuOF5bkAg2j+FiZEGj2U2YurgrgiiMtDuNmLEWO0pX9M3PhtTnUCeJuArZoIdCCbYQWAzgVMBmCVgjEbsA0KpncCq3KsZZ2s+VXMwCOaTx20UB0pgBS4pMBkmt9U9vVvP3KsquHsxZ5DlS0btuzc/vGhU+caWruHB6U6hW5sMs2LFYZUm+CYlwgB93qxXGgjuPaVJqnaIlYYeoaUdS09p841HDlRfcnXfhnc9x84Cn3q+xPhNBDok172S9R+yTEvuOqFLfDzSg89RHnhIIeOHak8vWnTpvnz5//kJz+BNI+egQkKIJqfQOc3+xUHgEn4jEEcxAATE74RgAEeFpyzgcfk41+sH7sRhL3FNp9tjH+2MS7QfI9f1BcQDQRFXYF/uGj5p2bnWm1klAEYGAdgDMS9gMATBkgAtCzYNUr/SMJ8qSko6uVvsQ/TtXuGxmuNAjcNAMEzIIoDMgTiwt884gLN0zc/Dxb55i/PgnVxFqcQLq/yAWUAWFwsZwdjfV5Z46NA0wwc/cDWDUxGZDOtgEPCe7r4QD3tGwaBGsFsQyBUpx9Y0Nf3Y6/Timh+wriFviIFkAKCAlej+f/3re8fPVnb0Dqy/3DDH175y29+9+pLry/IK17z4c7y83XtFxq7Bka0xjGvzuJS6Magt16YBasyixWGgRGN2miXa8eG5YZhmX5Yrh+S6YekumGZAPSXAnWEOBxjR9/IoWPnPi6v3H/41ES3+pVQPrVfL70hwMD6CiGwvqys7Oc///lPfvITGDfP8zx6BlIVQDR/s/g+oT0p5EQHgBJAEwckDkiKx3gGjHJguwL/Wn/ggSbXdGHuNY7zYAP5YAN5f2tEyJ/TFxINhEUd/q+fUT/a4WkLUMKkUiF9Ow7/cgCIhH8+BiIMMPAgzQv+T71V1HH9iPZrdGAaf/rtiEdNACcQQpZ4EKMAEQW00PPE1FgS0fyU2c7k4kYdQOsBah9Q+oHFxbF2MNrnH2n8KdB0AscIsA7xdimyGVYA2DWcWxz3dxJeLetvY/1twtzkYKemP6u79+cuh2/Kd3y6d0QZKlNHT1RHCtxpBSbR/NpNZd/4zg+PnKy92Dh04kz3rv2VZVt3F6/csDij8OXXF77y5qLswpXvbdq+99DJMxda2ntHhOSVwixYS3IibMINL4TXS1VmidI4JBNQXsiHA33zKiHO/o7Q/Icffjh//vzHH38cxs1zHHen1Z9d50c0P4HOb/ZrCs3zBC3qjGwAACAASURBVCAIQFA8xrFAz4INkujfd/vvb5wZmscfbMDvbw2LekKi3rCoLypqCz5Sa/m9mhnGeEBxbDxOA4biAEcLBjAACCbGsHYAlofBN1qdwr43ENQ+A22eGXIPR8GYsBIs4AFGATwGSOiYBzQgBK6/uYJ885d882YnZ7UDnQeovZDm+bgdWPpCksYngaYfONTAquB83chmWAFgH2NdGtonjnnttG9Y8NCP2UFAouxf3tnza7sjNt1QPuWJ1IjmZ9f4jXoz1xWYRPPrhFmwjx45WXu+tq+2Sa41OeWa0a5+WVV147ZdB9/btG1xRuGrby7+7X+98ZdFWWvLtu8/XHX2YktL15BEaVTqbTK1RWWwK7RjQzJd77BqWKZX6qyJqHphaqwwX/bO0fzOnTt//etf/+xnP4ORNihD5YSHH9H8zYHhpNbUX33zHAlwEuA0iMV5oKBBYY//wTavqHEmMj8+2Ig92Ijd3zou6g6LeqKiXnxey/hTbd7MANCxAMQoOs5hiQSacRbEE7H9gCSoOBMEYDMFHun2faZ5fAZI/UZO8cMee1sAGIEw55UDERpgBCAu0TyDaP4W4uZHnZzDzhu8ca2fVgVJkxcn3cAw6O5veYw2DPAeLe9U+yMjyGZYAeDs5b0tXPAC7RPzgXo+UA+sMhBs0g0s6u37scdpQTQ/YdxCX5ECSAFBgUk0v75s87e/9+jRU0KGyqYOjUxtUeisCt2YRGHsHpA3tvefPFv//ra90FX/8huL3lyQmZW/Ys3GrUdP1nQNyBQ6q0QhLCklU1uGZUKYjSwRhJMIyLk8g/YO+eY//vjj559//qmnnmpsbIzFYojmJ/wXQDQ/ic9vbgMNAAsjbeg4KUzdFHzJJAB9OFjU6hG1hUTNwRtB2Fts80Bz6IHm0KdbQ4njEKIO5oF6fH5LMN8PdBwAFMGzNAcYCPRRkFiNifVRXCQIiM0keKQr/Kmm+C32Ybp2/3qX86wbyIT1YAELwnFB0sR8BJoDNIwWurl7hHzzl3yxoy7a4SANvpg2EFWFwkZfCPdwumFbb9uPCWMv51XF3UrcPYJshhUAVgnv7OG9LaxLIwTQe7qA2Qi8vaae3MGupwNWL6L5CeMW+ooUQAoICkym+c3v/8tDjxw73XDuYm9ju7pfrBZ86gmHuhANLwC6rntQ0djef/x07ZaP9hWUrF2Qlv/muxlvvpuRkVeyav0H+ypOnjzX0D0ghyE3MJWNwPTqBM1fSl55B+Lmd+7c+Z//+Z/IN/9JTz6i+ZsDw0mtL9E8CQDNkCBKgigFcByAJh949cKoQPPtcPHX2xuV/tmWwGdbAp9uDc5ri4raSFEb+2At+eQF91saICd4wFJ8PMJzIQqwcIkrwDGAc5B8yAMiq0LgW83++5q46cLxWzzOV1uth0x8/yXffJgFGA0wwMSFRXdpELv5jPOI5pM0TzidEaM/qA36VeNeY8AT88W1EnN3xw8xc3fcr6C8CmAZQTbjCmiAVQKcvcA+BhwSwfRu4JSPta+QtL0QNuOI5j9pAEPbkQJzWoFJNL9h8/v/9xsPnzjTVF3XX9csH5br5doxOL01UTGqDXaFbkxlsCn11n6JurF94HRN84Ejp1dv2LogLe+Pr7z9u5fefP3ttNziNRu37Kqsuig47LVjcu2oTGMZUZkTQfN3Jm5++/btv/zlL5944gkUN3/VZx7R/CQ+v7kNqTRPCSgv0HyUA+ft4PdnDQLKd8/EqkyfafV/ptX/6dbAfa3YvBZK1MJ/4QL96Kmx33QQA+MM4Cme9gHWBt3zmHCJOODMBPDbQSDPBf7vBY+oebZkqPy7FutuDd2ZoHkeRFiACSl5EM3fOtJZXKzNwep9tMZPKoNChkraBYyDjqGWR1l9B3BLgVMMXMhmXAG7jnVL6EAXGFUDbwvwtnjCKuDqDjXlemrmS0ORW7/103SE2RE3T/oIeowgggSOkTGajJEkHiLxIIUHKYyiInEqDK462qGNSIGZUyAC8CiPYxxORBMPKk5FAR1JWJRkcB+Jj+N4LNEfAscJPEbjsTiOscIuGLhk1+3u1Wj+699+pPJU/dkLPQ2tygn5KCd/FYJqNBaJ0tTVLztX23ao8uyGLbuWr9r09uKc1/6yZGFaflb+ivc2bdt94PiJs3W9Q0qYY16sMHb2SQ8fP7+7/Ni+ipNTy1pz7b0m57TZsWPHiy+++MQTTzQ0NOA4TtP0deW5HQ1AOMaFY2wEJ2NUDKeiBB3EySBBhPDYOI5F8CiGY7fjvNc95t1M8zyACwklVhOCX+ASopSQ8h0IuU84GFJy+ZNL7MELu7GA525+HaKrkD4t5KTEARgHGCugZwQwwA7A+2bu3y6YRUOYqGvmZpd+oQH/21rqgSZC1B4TDXrubx75mwHjBy4iTANKSPjI8TwtZIrhCCGAJSxkgbzgBM8o4v+jzi7qnC1x819pDS5VRPcCEBImwuKAIUCcgHdSWAiWu8pNuPYm5Ju/5JtHND9L31UQzV93pEppgBGRKBXCCALD6ViMw2MMgWMEHiHxMI2RdDRORxDNp+iFqndEAYHIWYHRBbZLUDvGE1EhQxuBxYlLwEfiOInHqITRCaCn8RgjYD206/b8k2i+qv58bV9ju3oyvk/YImSilOtHVCaFzqo22tVGh0Rp6h1Snr3YsnPvkeKVG95dmvf871/7/ctvpecuP1/bptAJnv65TPM0hlMYTgm3lIjhBEaQEZyI4HgEj0XxGIbHYpde0q5786a5wd1M81dBODaRlDyRl/wSuAvEPtkub7vKIW52EyNMKiWFlI8xVgB6DHBCPpbVOvobZ7SigaioeyYibYR3hq7wg42x/1FLfa6RvK+VEA2GRG1aUYfhV11j1U5gE943hEw2cT7OAS4OwCgAp3Dw2lDo79sCn2nwinroW4yQma7d/6Y19BdxcFsc+IXQeQIw/5+994CToz4P/kcS1bjEcRKXxG9elyR27CR23tgkjg0GTDEYGxtssOkGhAQIEAKBioWQhArqvVekU73eb9u17b1c79v7Tu8zz///2xVwd5LvJE4nkLn9fD+j2Z3ZudnZ1e53nnl+z8OBxE3Z/IeuQ/LBE6dsfsrmJxak/1jE5qds/hJbwNTmJuMIfIQ2n8+bL68xaxrbR7n7uXfdqMNrvyvQa/N0WVztZmd7PqlmwB3os7o7anXGojPVS1dumPXi63NeWXT0ZMV7lek/ubH589g8yxFs/hJM/iytcMFlMj5TY29zyuYv1t5Hr38+mx8AWOBhvn7S/1HbfCfW1PODYvu6xoQ1KycLNq8gm+ckcLCw2k/cWhb4THXoWk0Ga+UvlY5PcDuf1WT+YIysoSGBbJ6bsvkPdHxiKiZP2fyUzU/sI/SxsHmCEbMs5FjAGSAYoBiFoQWW5jmaEyhWIFmRnGr5Pvbv/tTSST8CLArQFkBBXIbhKEakGJliZJJRSEamzgbgxfdC8jyK06M1L+Z2Tmx+ZX4U7PEz9RW1Fl0zCrqPC2r+6utx+Lpd/l5POyplg6L1/l5vx4DD12O0+S2u9jq9ubhS02CweNoH8r1gP7k2j3PoOiDJMTR6j2k0EpmhOZpBXPT7dzHv9Xjr/oXZ/LAwvCpDAVSfvMAHORrvR+tHu/nF35dARoMzgQFGBlYGVgBwqDDTkv7q6TbMxmDNlyU2b8xhxtzVWuqvqvkbavlrGwSshcaaY5gl/Xc1PTeeaZ9tGyoTlQyAooCqQjPB3OsZ+GZT9wxNP9bIXN0kTW/4uMTmr9Vkf97QuyAJQdT/VQCJB5l7/028+HLzMJVpM5Vpc9lT4S9q+MFUps14P1TDl5OMmGPyNs9KBIcuejMoh0HlSJWnWJ4iBDozfP2p+akj8BEcAS7BsBmUgkHzNJI9luZwissiWIZkFIqW8+k079k8UkEmfwJAoWcVGHe//4zNnyhuqKq3GVpRE6hxeK9GDWr76u60ONut7k6Lq8Pm7vS0D/g6BgvVbDr6Iv7OIU/7AKpc6e36JGfaJEUuLbA5nmEZQqBwhcwBhQNFKRQj05zACNzZt3LcN+8Sr3AF23zByPP6rYKiFoxdkUAWQRJBFFC5chBUNHxSyj8kS0hl83nXav6ffML9xfv7yGcooKiqjHJXOAn9LTELUCnB/c3Rf6jqw1wy1nhZbN6Uw0w5TE99ppa/oVa4vk7CDAJm5jAjjTVnr60L/2tdYA0HqDYlhziQzGFNXswYwmwsZoDrNOpf1cgTjKlfqqdP0+I/qup4LgQ9MqDjisrvCB+cj11086gpm3+vRP0kxebVsA0i9rO8b7HvPYKWvv/gx3zmvX0+z8uZ1D2fsvkxf9e4/A2ZDo0uYtO0SFJA0AzJELxE0gzOkgqyeULlKI6jcZ5Jjrm9qYVTR2DSjwDNR2k2zTAkQ0n5tHiGF5OCFGH4IZKKMTTLMShRnqJYmkaR+3xUFwV6EROw+VVr133z298vxOY1jR3nqny+FVTP+1O7t9t2ttVrTz5C3+P09zpQqL4Hla/x9dg9KMDvbutDvWD9KIRv83yibT4l8ul8eF5kSZnG1VxKSSeJgQEmFhdzFBqIz/CT/vE63x+4gm2+MKQ1nwGvgKyChHqcSjzwLJ+M89EIKBwonKryCggSsntBBLkghSiEj0xxpJd/uHsqqKqioAA9J6HS83JMhYME3Kkf+mp9CLNymOGyjILNx+YxPfWpOu76OuG6OhEziJhJwJoorJm4pin3zYbuFSzwMkrwBwp2J7KYsRuzpDGrNL1e/VSN9Dc14qXS8QluZ5qO/H8VbY/2KAHUulb+wObzJ20XX6ByyuYn2ebz7js8+O38QN8jDrR0UlX4Em58yubf+6j8mYScjybThqIolmU5jmPzN4rgRRYUhWPZuCBFeD7FkQpSeQI4iueYHMfFzvdjN/XY1BG4fEeAFkI0l0JqjhLoRZZmKLonkTSlMxZJDKk8w9E0xwn5zzX6YFNUYbBsweZJhs0z7v6eE5tfvW79N771vWOnasuqTbXa89S0KZj6RU1HnRLknf6Tm2mTVWRKlkiG5tNxOZcCnopYjKe2bHFqdECyCq+iMfkfxe0vwObz4XZZVUWRp4DGuUjQXllev2c3HuwBIonqtwAryLQE4qTYPDoHQBkhALyU/2cIYEMSftzQ/xVNGGsmscbJrTR/Vp1bcawVxwzUdQ3ctfX8tfUippewFgFhZLFW+uuGoeUCoJI2aQAcdqZymCWImXHMDFfXwWeqxb+tvByVNC9M9Jn/qOi4L8DbKAlVHsqH59HJFzpxyh/iizzvmsq0uSyZNgVxj9gh/F6c/oqrdzll8x9Lmy9IfMHmKYriskmg08AHUkNVoZ5jPOWRSF7AJT6HqoUwTI7hwx/Fj+nU35w6Ah8cAUKMkBxOMRJLAE/yIkX2d56qK3teW/VSrOso5Np4cpCkkxSTpugsRWdoGv+g+g0qdJOvdfPB9v7M3JTN/5kDM3kP07yMMqUYDghc7OuJ6jV1q1ceWLTIWlouJXMyr3JTsfmLVLSzwfV8ho0CkoryajgQaTE61HrkYNHCN+q2bmwvL+YiAyDTqkgqCiOh8jP5vOtLF5tHlwVUEWmyLIqoeym0A7walL9T1/15TQRrprFm5sIUdoLST2EGChWm1DOYjp2m4zAdjxnyNPNYK/91fXhFoXJnGtWm3JLOYMY41khhGvh8BXy6lr5Om7ws+3kBL7NZ/JfK7ludtDaHStmgPCYVvXFKIbcKVam8uNuUzU+yzYdtUCBkU0PWAhB678ErKNMGhfmdIxl+zWHS5qcybcb87ZUkiaZp5PEcJwiCRAch3IS3bXLVzXbpniYjp4Eg5BwvZFGVblTxRpyy+TEP6NTCyT8CWSmZ42iCBi4HIs6qZDbUvq214pf6M3f5a58S/QdF0slLEVaI4mQYJ8Msly8/j0ZWCvmS8yoK6o97m7L5cQ/RpV5BJmSVlADnoXdgoOh45bxXWlYst+0/MNTUKkSTPKvwnHip/+YFbe8Kjs0XUmXO5suLisKCRIFAQizYdvq4adOGlpWr9EvfcuzbIw12g0iDSKmoNPwltnkZBEXlQeFBlAo2b1PgkU7q/9R03KCLYU3M5ekedV0Di8rM6xl0/tBEYU3UdD11rQZxjYaermO+rg0uE/NDCSgcOHp1Lok1xq+vpb5QCn9TAZ9qzGCu3o+LzRvVr1f1/qcxXRInJPR+oeqU0vs2L16cygNMZdq8F3CdrLz5kPWsu59Nqsln2qAgvQ3yfn/FZNpEHRBzjuASpvGMsakpmx/v1yqXyxEEIYqioihyro/1l/Y2L24tedxS+3h64NiUzY93/KaWX+4jcK7NB9u2dpr+2Gn6Y3v9M701y7J9dYIcldU0wyUIKkLRaTQEdsrmDx8vdJX62HaPUigFeJXuHuooOqlZvtyyelXkeJFx1+7uei3gtCwASVzuD1vh7/3l2LzMgkiAQKrhgY7ik969u5PFJc5Nm8uWLnFXlcjpCCjs5bF5swgPeJJfrWr/tD6GNdJY8+XIYPkLs/mvVfZ8Vx89PpSZsvmzYfU/k8d8cUsnyeaRtUedEHdBygfZAOTa0DTlQ49EnfmlkxbVHkORP8SiWP5VxF1ozwt8iI18iKdM2fyYP380TZMkybIsz/PJZDLirIg3rIg2zxpqeby39UEqtAfwtJxjhCxQNBAcgUtTsfkxD+jUwsk/Amkpm+VYnAYuC1KOASKdaF/T2/yLXPsTYu+rGe3rXs07vvZ6gukRlSQrRKjC0G3USUpGUXkyz7j7ORWbH/cQXeoVIC2mPb2tB04alq3u3rlHbWria6rN23f6SyshR8sSEPhHU3H+L8Lm1XyAnAWVRm2TIwNdp4937N0NhhZFYxg8eqxi/RrTmeMojR6EQtlKNAr2vUG0Fx3pHfkECThF4UDmQDgbm9dz6p228JdrOj/VmMD0JArPGy4gvWRi63yuhv9cDT9Nx2KtFNZKYK34dH3us3WIz9fgn60l/7lhYImMBguDFP//c+ffJKNX62N/XUn940n46yrpelMM6/Jfhv28oD9hhq9W9n6jfuhgb4Kfis1fEo8vbOQS2bwHom6IuSBuU+NWJWHlIiYx7iYHzXXHt5Uf2rJ/01vFR7cW7VsT6zGBEGGibjHmYkNWYLqlkAmogBIyyukAOWSNBLTtxuIuS5mSDuADZjnlz/WbVKqHCTvUZLsS86lxnxKyqUELGkqbCTCDdiXXF2k3acqOpgJ6qtekRD2Q8Ktxnxx1QzIgR9xK1KPGfRD3KTG3GnfJUacUtkPaL8echTMNqq8l7KwK6I9JETsf9dNBDxD9QqIj12cTYm0Rf1NbSzkb9mV6LL22ukxvKxN2tBuL3foifMAsJX1S0icmvFTQpqQDkOuQ4x6I2LlBIx+zQdarEn4g/WzMKiYcUtiqhmzorGZcv/8k2XxClFKCmOEFmmFFihJJUiJJgSI5Go0CJDmGwYGjgFG4NAQTajiuJHBGRqOSWEEYKE+0PN1ePzvRthWih2jfxpD+T0x/scz3c0KEEFCYk2NCIt0vEPJEwRUBh4lCZ4UxYdjsXw6FeixjTNF40Imi5GDyURRcniACmWFIliQhRwFFCwLLRNsOdRneiLtWKbFmPpyIuZd1N349anwR+rogl4QsSFmQOJkWmBifjXBEQpEkXJVwScIFGVVvYkSSFimKYyg63/0Y/Wc51+bXb/gGqmlTV1Zjqm7wOn39Lv+gyz9gc/fY3L3uwKDD2z+SsxVsxhgX6/IP5TeCtuPy9xWK0zeZHUdOFO86cGTvkWOFaPolnh4q2n+oaN/BY/sPFR08fOLwu6d2795977333nTTTbW1tQzDAFxAJtLFq7yC8yKJQC0CWHSxhBN4jiCAZECU5WQmqylu2fp23fo3284cFtwW8LnwWm3Ljr2Bmjo5myaBI3mWZ8XLj8CLHCOUlVTu3b3/rOMWklE+/tN82BZQgcj3h6EC0BIE4wNFp/t27CEsrdDuE93OoVOnbVu3Na5eI3V2AI8DkQAprQBOKhSZT7xRRBUYBRgAFoBHye8KyklRGXRExrkJALIso5I5HPp4MQD7cfU7JuZTlfFpWg7Tq5ieuyCFnZjNX1cH19UBqkppwTFrGrMlMGt2hhafocWva5Bn1MDXavtXFspTptFevp3jr2qVrisXPn8cvlzJftYYwzzuqxuEazTMNRryGi1+jTZztTZ7lS6HzhB0cJaJ7eSFHocWEtNFsYbwnI6coIAsSSBwJGQJYHEAoMd5R85dPJU3f2nz5kfbvJiwUUFLY+n2X/zvt++88dt3//g7v7jl3x+97ydb337ZXH+UDDnkdEBOeiHt45MuNe1REk424gJuoOHk5hXzHrE3vMuEnWLKr6QDIt6pUL1ipk1NtvMhFzdkV6P51JeIXQrZpbg/1WXatWbBM3/4pav2cLq9EZIBIehQE36I+9REQM50SImAmgyoCb8YdiKTzrUrCQ8fsooROxe2Q66N7DdqitZVH1ypxFxyupvPdHOpLgnvB7xPiLd1GCtP7lwR9jUSA85ty14+uWtptt/kazpVtP1P5uoDUsrPRlxSKqBQPUD1oh2OuCDsVBMewNsVvI3L+ri0R8z45LRXjrqUkF0JXkCBzk+SzRdUPsfxDM0iO0FQPEWz+UYsBMfSJNAk5Gg+zWUzfAaXchyfArorO9DaqV3WW/dMwr5eDGsgrsnZDvTXrKN7myUmyzAkzjIUTTMkwRNZjs5NGJyjyAnDctRY5DMr8sqAUiyudFDJxbH4oKHS+52VLnqGp1H99kkG55n0RKGDDJ0maS7HSBRHCHws1rmty/B83LVQiVeJ0W5+6CTlfaGzdnZf43ai/YyS7hWzHI9zLC0SopCT2LRMCoSaPymVRFIQSDbfhRR9SmiGpljEeWx+3fp8hcq6smpTZZ3b4uyyuXudvn6bu9fu6XX5B0aqfL/De8XY/M6dO++5556CzdM0rarqxbv6+M8QCYGnEPl+UKggLs8yEkVCDufDEW91nXb1Iu+R7dmWas5rUv12cNuRzW/f01Zdq2RSlMoSPD3mf/qxvxI+/FJWECmWLy6r2Ll3n6yi2K2iXDHI+cqUoorGwKKmSAIAK0I43n3iVOfuPckmHW23qD6P4nSlqmvsW7c3b94UNTeq8SDIOUXJiMDyhUopcn74KqMUVB7VukQPqNzF2TxL5Zutbs9I/9RMXF+VwLQsppUvj81fpZGv0sjTdfxVTeSMZnx6SxYzpDB9bpqBmKHjptVz/1jXsVSSVClfoZKG9UlihjZ9fT372Wr4TA17TUsM83XP0IhXadmrtNRVWuIqXWaGLjtDl8N0DKaT88CF6vgEpb+ZxHQxTBN5JpBlFRCRzfPUWZtXp2z+4rJrhof2Jyk2L8atdNDacHLjCw//3FhVJGV68aDL2lD0+H0/euZ3P+1z1nARJxN2dLSe7mw9Zanc3WsuYcJI6Lctf/7xX954es+yeIcB5EjI1+BtPGmq2t9lKUt1tEhxP6Tb82NSHShdJ+GBbJe/qXTh8w/Pm/XInhUvejVFajIgRTyQbGMGrCFnnaPmUK+pPO7TEj1GJeFNBBpCriox7oJcO9XXSvQ0x7x1dL8x06FPBBrEiIMYcPgai211Rf6m0lhbMzno4iL+aKA522sNNJcunPXbzUtnD7hqQr6GXnulEPcyYQeXCrQbSyy1h6x1h0M+DWTaIeLBO5vDvvohT6235aSrsSjR1chFnGLIAREPRL1TsfnhP6EZXshxPMHxLM2JqG8rI5IMn2+nSDEczvE0CwQFWRxIGgRRkhWBZwJD/j2WhreclS/SvrUQrYdMDyT8mday3vIDdEdAKpwAUEAQQOWAzQLLhyYKF2a5yEQhgR2Ticeqr6QtcAlmwlBCYtIRQ5TUN0F4tpPmQiSXy/EcLcYFqSvRs6a76Ym4+0UlUaQkHFLIAFEN3bbJUva4qfSxZOe7wFEKzbMZyOZ4nCEYyHIo0qtypMxTEk/xSPToQrdYJPToDPic2PwqZPP/eby4vrTKWFbtaDR6jbZ2u6fP4e23e/quaJvfunXr3Xff/b7NK4oy/IvlUs3zlMTSIkuLdL40DU0SCs8pJBF3uSwlJafWrA0c2ka21ECnTfCZOYcRAh68Vtu6fU97da2aTjEqi/NUjmMvP5Qo4Dx3qqJ82/69Qt5pC2UWP/7TgoHnC9kgCZdUQKrKixCLt50+5d+3h/c4WJeNs5jB7QGvn9c3WrZvP75iScuhPcRQOwCuAiepIAmyIuXH0hZec35wbaHmzYWMtxTfj83zHJFX5VVh5qva5PW1KWTzGvHy2DymFzC9cJWWu66BuUZDX62lUL0aM4eZWMxAYDr8W8a+FSCj6xj5c47DWepT+shVGgKrhxkaZnpLAnP0TdNK03XcdB09XUdO12fz5DA9jenEPJfL5ptIzJDAdLE/ONMpFjgRXfqgIUcCS0D+Esq54fcxH5mKzU9ubF7JuLN9LaX7V8x55O4OUx3wEaB6uJR/zfzHn7rvf6rfXQ94z6BHM+/p+370nS/99D//cf6s33r0J72Np2b97pZvf3H6/bd+t/74FibkOrPn7Yfu/P6Pv/O3sx+8te7oplyfBag+pVAbJ+ZUw3Yh7DYU713+6tO71i9d8txva4+sZ4MuyHVzIXdXa9mGBc/c+z/fXDjz14fXv1Gxf02ftaLiwMp9q18edFQB3hFoPLFrxfPVh9dQA6bmku26k5uZIWtT6b77b/mPm777lQdu/V7FoQ1yqivQXFp+cJ2j4fjRLUt/+M2/++7fX316z4r641ve3bK401QuJQIDrrpFsx/45U/+5bFf3Hh0y5+YfgdE2n0NJ3eumLt87mMP3P79X9z07T1rXiMHHEAMQsgv9rmmbH74Dy2yEZplaY6nBJEUBYTE0BJFSyQj5TiJEimcJxgcVdIFigcCz3Rs8eh+52y4P+5fDnEDJLSQ00GmRCf3LAAAIABJREFUOufY1t+wjOyp4IUoKeRSIpfh+RxLkQxOMcKE4S9BgI1PUWPCcKm/IMaT9UuRVpSSspMOz6YYmCA8HaaZNMkyOZ5jhIQk9KY7t/bpnk/a3oDIGYg5lL5uGGQh3BR2zfXrn/S1PkaGi1TSAXwCcEbKkEALJAMko5KMkgfl2lCMwKBGU6ifLMcQ57F51D0K2XxJZWtJpa3BYG80+mzus1F5p29Ums2VFJvfvHnzXXfdddNNN9XV1dE0PUk2j7MKwUoEK9EML1CUTFPAMUS7v3nXjpIVyyw7tolmneoxCp7WnM1A21qgzYvXaUzbdndV1UAyIcs0yZNZgbn8kKKQE9gTlWVbD+zh8yVPCoVZroSpKoBaKLrI5auQK4oCEi8no66Sk7ZDe3ifU/C7WJtZNpvB6wePj6jXNKx75+SiBZ6SE5AKAc+iXrGcrPIS5H1ezG/nbLPRQgLPmJoI+fMfWZFBEkAUkgBJgNf7yb+ui13XkEM2X89fJps34pgRv6GO+WqJ8qVS9W/KAWtWMSeHWUhM0/t39d2/dg+czGcSAYcDT3hI4lZj31fqerHaGCqDYyIxQwTTyyhXx8CiwbuNONaYQxgIJPR6GqXcTDDofoFP11NYUxozJO+2pbtJICQFRJkFnAaWAhllQ13kbcrmJ9fmpaSdGDRVHln98uO/sNSeZCI+PmSTwg5b1f7Ni585vGFBr6Nu1+r5i198ZOfahcvmz/zjg3fuXfNaNND4zhtP3/GD/7vkhQfbW8tqjm5cPvfR7ctf2vH2yzMfuHnuoz/36U5Aul0ayifNJ9xqxIn3mMoPri85uNGsK9uwcObRTYuHnPVADXa0lm1/a84Lv799y5vPn9qx7Dc3f2fe4/d0tJRsWPT0iw//zGc4AXhXU/GOBTN/tW/NKzG/duvSWRsXP+NvPLFu4aw35zy8f+2CDYtnb1v2Uo+1tv74ttXzn24pP6A9tWv2g7fPfvA2S82Rg+vfWDjrft2ZnYmOlq3L5rz82M/XLnhm3pP3zn3inqp9a/le16FVb/zkX78867c/27N2wbMP3T7n4btbyg6K4TYIt0Oqb8rmh9s8appDMTzFCqQgEBJPyDyJWtznbV7EWYES04SQEikWcpQ82JN1attr5w2Y5hBdS9VciZK0S+E6yFZD+nTOtW5Iv5jsO8FLPaQUTsnpjJjF+STFxiiWmChcjuIyEwanuLFgGfwvBzbNjg3FshMmy7GTDstlWX6CCDjBEgxFiTgjcSwus9Fs29H+usXJ1jUwVA/hDjXUB7396oAFiFolXtJpnOfQvhDybRYzGqBiKkEoKaGglTgr4aycn4oEK9IMy9IURxM8jZ9r8yvXrvunf/3PE8UNxRUtp8tMFbUtDQa71dXtDgyeT+WvJJtfv379nXfeefPNN9fV1VEUJUnS8C+WSzWfY2WCRceZoVmZJKRMOupxGQ8fqF+zsnXbZrpJD26T5GrlXa2018R7rKLLhtc1mLfu6qmshkRcEUmBIziBufywPMuwVElZ8e69OyVVkRX5ikEVZVWSVFlUVQllB6mqiBKslUTUU3zCfnB3srWR8dgVn1u12cHhVC02sNqo1paOY8fqN63zlJygOjoAZ9DIWElWJZFHjaZQdo0AZxvM5otZjmOOKDZfsHlJjABEAGYGMtdVDF2nI5DN1zKY4XLkzWPGNGZM31BHf6VU/UK5+ukqwBpFzJzFmuNfqu/6vSOzL6N0oIR5WRaTipRJytxOEh5w4/9QHbqqEZ+OOk/FMb2IStQ35m2+icCacKwphxnwaXpimp6Yrpv0sbxnzxa0FNaSw5oy/9uatCUhI6kgKhzgLDA0SMCN846cu3jK5ifX5oWomRw0lx1cOeeRnzu1JSJKffFA3B121ex667ndK+cOuLWtNceIcAD4ZF/AvHvT8hWvPE4NuWqObV712pNd5kpyyGmuPtJlrgKyXyb7q97d+Oz9N1srD6hxrxrOt5INWaWwo9tUvnfN622mGg4PVx/ZWLR1qVt7EnK9Ne9ueuye/z6ycTER9TNB9xvP/GbF3Md8jae3L39h0ezf9FjKlVSguWz3a0/9YseKObk+0/61r25b9ryl5uDSFx8JNJeBnGCSHV3mqmigSX9mz5rXn+kyVzMhz4bFz53Zu4oOus/sWfnmnD9oTu5oN5a//syv966Zr1ADnabKt+c9seTZBzMeY8Xudbf+x//duHgOk+71NpcvnP37ioOb5FA73+OBYPuUzQ//oc2PfKXzOTaiQCg8oXCkytAyTUsUIxIsR4kRQghLVBoSoaS52nn0bdK6ClIHIXdUCpVJMR+QZmCqIHM041w21DiPDh3mFS+pdKfVYEaO4MIQzfdTfHLCxCghPFHyQVTqz0+5fHLuX8iUyaFGvGNAAOrXOzFIGqVgTS4MT3LkBJEyqJoNQwBJAU9zKo3jvqr+qg2pxj3QZ4FgEAbaYcgDQ22ovG/IDtmSfufz9oZHAy3P4x0NkItDGgiOwzkhx4k5Tspyco6TcE6iWI6jKZ4mxPPa/DtrCzZ/pqL5ZKmxuMJQq7VYnF2etqF8mg1KuRnJFZM3v3bt2jvuuOPmm2+ur6+fPJvPcmdtnqMZIPCE31e+bUvN2tWsQQMBD1iN4DSJzlbG2UK4TYzbIriRzVu37uqrqIJ4DHgCves8e/mROFqiieqS0wd3bUdNN2XxikHhUJV3RUQp8zKApKA0G45TYxH/mRPOg7tzdiPtsbMOq2S1gNMFZqvqcKkWK7S1D5aXVa9d7Sw6znjaUY6mJCoiR4NIgkIjoc/bPNrmuWY4+hFUB12RQRZAkYcAhgAedqew0oFrDRSy+Rp62mWy+QRmTHy6jvpiGXy2CrV3xVokNBzWkrrFHD2TRjvGIpsXRYjLkOSB6QbYmYHbDYnrdOnp+jRmoVFgvjFv800M6mLbTGDNKEI/XY+4Spe7PLH5aRoaMxJYS+57zXF9DBL5DCgBCA4YFkSUVnWRtymbn1ybF2NWJmyvfvedlx67x6EpFiM+NeoShmzehmPrXn1i76rX2Gi7q6li8YtPzp35h5mP/PrOn/y/Va89TQ95Kg5tfGPmbysObeQigVzYf2TTm4uf+/2CZ3/7m5/+++9v/76lYr8S96kRByQ9KrJ5u/7k9kfuvvGpB3720tMPPXnfTb+/64cl+9eqxEDxvrXP/f5OffFeMuwDvH/Xqtd2r55vayjatfqVV5/6ZZe1Ukl3tFYdWDDr/iNbFocD+sObFm1cMjsc0B/fvnz+07+Z+/i925fP7TJXS6mu5rL9K1990tdYEm9vXbvg2ePbl6c6zSX73ln83EPak7tMlUdef+aB1orDYryDGnJXHNrw1uyHOzVllXvWz3/qgdqj27lEV7u5duOSF0v3recG/RDpUkIdUzY/3OYlkhRJSiQZgZQ4UuUphSVlmqBZihRQNYiUIPRKQk8ydLLDMKdH8xLlXAWDBhjoQoT6xHi7HO2CyAAE3TlzaU/FdrKjUaJyLM0RDNAU8KQq4+qHqEUjEqjG8QhI9JvwPgKBaqYN5/1FFziDnjuyTs655VlUHMYhB+pIUErSMEYtPe9dJQMjyIIyknOfpeAwgpHro6fj6tgAkx6FSifHI6XSIwAyfdFQaRgFnYHhjFpKMJBTR4CrKDV3DND6yggIUqUIhcFFISbzA8B3kG0nB6rXkJZ9MGhQQg413gLJWoi4YWgQEfZCsizl3eCpfc5d+UbKfQQyLlGIUUwcZ9I4T2Z4PsPxWV4kWZ6nKYEiJCp3bmx+1dp1//yd/3r3RHVJVeuZcvOZcn1JpaFeb7O5e7ztwXxRmgGnrz/PgDsw6PL3j1HNprDoI6lpc/Dw8YOHj+8/eOzAoaLD7548WnRm7dq1d95550033VRdXU3TqBzG8C+WDz1P5m+Fp6MudQwjcqzE89ngkLuqsmbbVvPB/aRBC3YzUnlLq2o3C04z4zbjXgvltrAua6amzrJhi2PPvoTBEHNb43Zryuq4/GScnoTJWrZu4+nVawlvIOfy5dz+KwOvM+txZz2erCeQc7fjrnbcGaDdgVxji3P79rbdO2m3jXbbWJdNdNhku0212VSrTTFbwOVWPZ5EXa1t117Ljr3+sgpqcABkTlB4GkQOFAFAlVVVkAG1Ih3nhpxfFkERJUXuBLAocLspglWFZxgoTMfN0IuYlr4cEqyPT9PHZzTgmAYl0GPNImYn/17T9R/udGWUhzRACsGDHIRcCHAKSCkLBA96v/igDf+GLow19M7QU5ieQDS+RzOJNeKFHPprtJnL8UIM5PUaAWshMF3qa+bU3nY6jJpHgQKUCAwPPOr5e5G3KZufXJsHuk2IueqK1s994l6ntkSKdyrRAOT6ag5vWvTs7w6sXUQOet+c8/gDt/3wsV/dOvPBe277r29tWvIiZPrLD2xcOOuh2mPbmaD/zJ53nvzlzQ/+7AfPPnD7z2/81m9v+TdL5QHIdeZLYbogYk9563Yum3P/Lf/xwqP3PvXQPS88eu99t3xv6/J5qV77u9uWz3v6fn3pgWy/iwr7D2xYcnT72wFjxb4NC+c8dnenrVpItRvK9r068zdFO5fHu4y7187ftGwOHfWGvIYdK16Z//SvX3r0nr1rXu+x1mpP7VrxyuMdxopMj+WdN2a+u+mtRLv52Jbl8596QH9mv6H4wLKXn7RUF4mxTiHaUXN021uz/9ClK647uGHBzPsNxXvkTJenqXjjkufLD6xl+hwQDkCkbcrmh//QChTJU3R+2KuUL63NczSnsFmFiap0P7CdwDszfRXm2mecml+RvUuBLELxy14OMZhSYl4l6lOifggacMfhoGYN23sKBL8qdKtCENgw0ENADgATHAE9BNTgOBD9MIJeIHtGgHfDKLKdMCYKVTkcmawYTa5MHomUKx1BtlQaiZgtGQWfOj0cLnmKTYyAjp0YBRU9PhwyUkSEjw0HDx8dRTZ4ZDiZocPncDAzNBapwZ2jSA7sGJt437ZR4O1bhpNr25wNjEPat3E4Kd+GUSS960cQWJzseGE48bbnxibqnxXxPTucqG3LkHNDr+ed9vYlnW0Le9rme+sf7657lva9BYn9fPqIkqqDmB0SekhoEBE3DEYhFEpZW91VC121TyU7ZgupZuA7VSUkSjGcx7McleO5vM0zIkXJ5Pnz5ofbfGlVU0mloaK2xdDqcXj7fB2hQsFKp++s0zt8H9fYfL6N1P5DRQcOHT905MSRo6fWrFlzxx133HTTTTU1NZfK5guNLDiOY1mWplGdeGBzQGWzXYHGwwcqVq9yHTqEGwzgtIPLAXYrOKyKzco7rLTbmvXZCA+yTK6ltXPPgeZ31rVu2aLfu6N5xw7T5o8A67bdzl37apetKl34pnffYdvWXfYtVwaW7Zss2zZbtm21bt1l27LXsWWfdeMux8bt9vWbW99eFT56hHUhlWddNt5p4x02wWGTnHbeZhHtNtXjBq+Hampy7NxdsmyZ8eBBua8XeAYUSREFRURp9KiuzfgyDwqosiKCKrGq6gCoYuG/TVGsPjGticEa+asNIqalLoMEf6qBuLY2izWksdYsZs5gluSXtF3zbNF38woMMYAcGqIrqyhI3wNKD4gg5h/MgU2AOc74P9WYP9cQvV4Tv7Yxe3ULiZLpG/PF8hvzg2J1qGzlZXghmIH8bK2IWTisMffp1tjqADVwdgADrQAjAXshF0xG2f6UzU+uzXNhIxW01J/Y8PLjv/AYyhUiJCZ6Im2mBc8+9OwDtzcWH6w9tvPFR+51a0v47IDPUL7spSfXLXieGvKV7Fv/5guPaU7uGXI3vvbUA1venMsmenJDvqUvPv7Ur/4X2XyqDWXaJNyQ9llLd8x95K6qI5uocIDNDmUHvZoz+ze8+XJj+eHyI1v/+MDPNi17JRP084muuX/8zao3ZrsbS1ctmPnQ3T/0tpax8cCe9QteeOzuA5v+FGprOrR5yfqlL/iN5R79GWrILeJ9XkPx7lWv6c/srj229Z03Znr0Z0Je/aYlL5zauZoJBs7sWTfvyfv1p/d7DWVzH/915aEtcnawrbly+ct/XPb8wyFztebdjYufe8BQvJOJefymknWLnyk7sFqI+iDRroY8UzY/3Oa5fGE9huYoWqJpiWMFjqFFMqSwg8B2SqmWDsPagGZVj2kJNbhBSR0TYsVyOKAOxdWhOAQH1YhbidnlhAWilZRvR1f1S126V3vdW7rduzrcB/vth0LW/XHz3kHP8uH0u97qdSz9CHAu6B2Fa0HvmPQ4Xh9Ot31+l+214XTaXhsH66sdlnkTpM38yjiYXmkbzdw20wcEjC/7R9GywD+SQPPCsfE3LxxFl2HhcDr1Czr0b0yQNu38EehebtM/P0F6at9qb1jk1c+3GmfbW591tjzToXsubn5L6NqqxI7x+Bkl24gadyQMkKxDRG0QjigDfepQrxSvivpWmWru7zdvk3CzwrXRRDvBJmmJzvEMyfIczQgUJZHkuLH5smpk86fLdBW1LU0mv8s/6PD25YvQo1KVdk+v3dPz8YzNH8h7PJoePp6fL3r77bd/9rOfFWyeoqhLNQqWZVmGYUiSpGma53kp1hds1eoP7SxZtazz5HHOZgW3S3W7RLtNsFpEp12xIaGk3LaMz4Z70Ixqd3AN+nhxad+JE4Ezx7vPnBksLrv89Bw/1X+qOFRa0XP8VKi0ou/E6aGTxVcEfcVH+84U9Z85PnCqePBkWfBUxcDx0oFjp4ZOnIoVF0vmFs5p45w2dhiC2yG47YzDQlqMnMMqO+2s0Riqqqxdu7Z248aUxwMkrfKiKiqqDLKsol5L490UUAo2T6nQDHAgQv170xCmy6CmUU3itU0Sprkc6eaf0QifbuCxJhIzJq5vCn1B3/uoM2XIQZsCjAo5Gvpxtp+WRRkyMoQ5ychzfZJM8ihZKaFCCSk/4+v9ijZ8Q83gdQ3R6xtzWBONGSiUQ29g81Vu6GsuywvBDORf1eRtvpmcYRh6w5boypcfBUA2LwODqhdd5G3K5ifX5gH38jGn9vSW39zy7wtnP3xgw1uHN69cs+DFp35zx9uvzop12Dpba+Y++svFzz508J2FGxfMeuyuGxc++wc52as7tf/hu360ct4zLk3JljfnPvfQ3Stfnbl75RvPP3T3fT/+Vvm+lVLYBcl8hcew7djaVx64+V/t9cfxIS8R7ZIyfQFTzfOP/vLt15+160rW/unFx+776Ztz/7h5+at3/Pe3F815rM9jOLpzxX23fW/ezPt3vfP6/Nm/+93Pf7hvw6J4j2XzirmLXnzYojnx+jP3r3n96SOb/rRr5bzDGxf3WGtqj21Z/NxDvsaSRIdx2cuPvfjwLw1nDh5Yu2TuY/dpTuyJtZm3L3vtxYfvXTN/1rwnfjPrt3fpirYxXa2lu9567al7qo68wyXc5vqDb8196NSuN7mwE2I+eegC+uB+kurNowLODEMxHMmgRHmWZUWeAjkKcr8QbewwrPdXzg+3rBKDRyFXI6cahHijGPcr0W4l2g1oYLFTiRultA7SJ6WBzUONz/prf+/QzbJp51i08zx189pqXu6uetHb/JPh+FtvbjPdMjYdlttG8rMOy+3D6bLeOYoe+8/Hps/6xCj6bU+OwPlU/0j6HH8czoDr6SHPzOEEvc+OIuyfPZyQb9YoIoHnRhFte344sfYX4h1zhhNrf2EUic4Xh5Psemk0nXOTw0h3z8v2vjYcvHvTKIiezWND9W0dBde//WIRBneOQhzcNRw1sn8E4SNq6MRwIHJqHKKnIV48gmAJRI9D8rBIbpWIrTK+FVKHIFkKyVI1WcEQlVLaCJEAJJogVYOImyDYD5FBiAUhbZATx7nYps76Rc7aFeneCoB+FXCSy+A8/Z7N0xJJjWvzJZWGgs2fLtNVN5ibzX6zo9Pm7imk3Di8fXbvx9Tm81H5vMofPr7vwLE9+99dtmzZrbfeWqhQealsHqXWUBTHcZIkiSL6OuqqPXlq2evla5akdbXgdas2C9jtks3G2u2s3U67nIrNzjvslNue9tlzXhvpyad82JzgcIHNLrpsissBLvflR7I7VIcTAm0os9wfUGwOsLuuCBR3i+Iyqi4zOBxg94Ddi7A5wGYDhxXcVhSSzws947LRLnQ9hHJZeb9LCLg5r4PzOSWPAwJe8HljVVWtW7ZpNmxN272QIlAuh4pGxl5IhUqkmqoEqkgA1AOsDgT/SduHoSGkLNYiX98iYxriMoS0r6pgPlUnYc0Upu/7oqH3R7ZILYFaWRESSqhsA+lQt7dSyEkyiDxwDJRkqL09XX2qyvFACxBUoVqFW7rEfzBEb6gZ/JQ2gQpc6mmURm8Q8mUruWs0l6OpLWYgP18pYEYG0Ric1TjgkgsCz5xt8SVfwBWTkbo/ZfOTa/NcxBRv19UWrb/jB1//n2995WtfuOGf//5v7/rxD3auWepr1Uh4OOxuWjPv6Vv/9St/+Om/L5/1wMrnHly/cE7I06o7feCBW/7riXt/WrJ3Q9Xhbb+77cYffP1vZ/3u52/OeWLxrAeai3chm094IGSVBk3H1r6yaOavB11aKd0rUjEpOxDttC6d9/SiOY+1W+rdTZWvznzo5u9/48n7b3/qd3dufXv+UFurVXvqxSd/9T/f/co9N313wQu/X/zSoyWHN0a7zAe3LN21dkG3s2Hzm3P++5//5jtfvvaXP/526f53uIjfVHV485svdFtqcn32Pavn/+62Hx7ZuKxo68p1C16w1pwk+n2NxYceu+emH37j737+w2/PfezXfaZKadDU8O6aDX96Ql+8iU3Yva1FO1Y9V39iLTtglIcsStA6FZsfHptHdfU4Fuf4HCcRLEezhCzmQOgVovoh68722gWCewX0bIKoWQom6WCMTacJ3MQRpRxRikKYQYc41EEPhiDkhagZukuh9zjTdZruLKU7qxR/peotA3ex6tWPwN8IbS3j0N4Cw2kzQZt1BH4zjMYC/rGxgn8YASu02UbQYYNRdNphOF0O6HaOoNcNo+hywDDUTrvaYRvOiA0WNj5s/eHP/WB+1B899+6ofeh1Q0/bCHrboa9jJCboG0m/GcZmwAwjkUOW4ShhK0Rs4xC1ocj3eyhhixQ0Dwei9hFEnKhTxEUR9ULMN4Lubuj3oeGtKR0kDZBsggEP9AWhd0gKxqlUQkgGUGA+4odwPyLuUHOlQJYo+Ekh1iTFA5BJ0/alzpKXOhrX8gkDxw3RXILgCRKNguUEipXI8/SCHZU3f7pMW1xREHptaVVjrdbSYglYnF1OH0qad/oGPrbdo/bne8EezOfb7N1/dNfew0uXLr3lllsKNk+SpCzLw79YPtw8TdMEQaCQvCQlk0mPx2PZudK0ZUXfyb3gMYPHqRpbwWoVHS7G52d8/ozXp9icvMNBuR1pvz3rRck2aDim2QZWB9gd4LbLHofoc11+BK9TbfdBZ4D3OKCrTXDbFa/rioBvaxYCrWLAJPkcsseTxyt6XILXIQTspLtZyGfXcE7k8aQbHXPC7yACTqrdxXR46DYX77HJTjM4bGBzUFX1jnU73fuOZ0xuyLKgIqW/sK6jsqpKqiLkACoAFjl6/o+mF2uhsWYOMyo3tCpYw2VJUCkXr6kHrJm+vjZwlzG0LQiQyY+MykI7KC9D54+7S5+DGC8DRFEdzX1x6mfuhm1M2AcKSCAoKBPnJRZu9FBfrBv8XENkhp6apmfQuFi9PE0rTdNKVzcIl+G0BDOQXygX0GkJKpYfe1TbY+JBVAFUVlUZ1DtKPltBdKSxj3VvyuYvrc278h2dnBCzqzGbGrNJUascc9EDJmf9u00le+qPb2+uPNJcfijXZwdiQIz4pKgv5tVqjm5oPbN9yFqe6zDEfI1kn50ZcPp1p521xyJurRQLOOqLGo5tbmsqHjBXDtoqyJ4WNepUIzY1bFXD1oijvMd4hgvaxaiHi/rYkEuM+fodNYGmM9SgXUr4+1x1jWV7HPVHV736+La3nk91NkOuM9Hb2lq5T396a9BTN+Cojga09JAt6KmPBnR81B0PaA2ntxpOb3U1HIkHtHLcg/e09lsrmEGLHPNEPPWtpXuDzvpkW9OArQbvtUgxPxtydzSX6E9udzUUDdhrIemHuCsdaOizFKc7tErSJUStA/bSdIdGjeWj8smpTJsRv7NZNklyNEFJLK7wlCQyKSXnzfUf8enf8tQvSHv3KNFqJVmvJFxyuJsPd4qJbj5lkVI6KaWDaDMEnUrEJcZcasyoJprVmEZNadSUQU01qakW9Ei8UY0ZIOi/aIZ8MIIAytcfTqgDRhFsRzWLxiDkRWcd7xP2Qtg3gnOVEbUbG0bEA2H3CM59yqhHwh4YRcgHowj7YTijloZ8I5YW1hy1zvCnn12hE0LDCHacc2TcEBxJyANjM2r9oBvCjhFEnBB1jQOy8+G4IeIdwajDde7bNOq1X8jdARcMuiDoyr93HjTINdgJQ/0w0KcMRblgElWwjbeg79JIABFzQKZJjmuUhAaSTjXeJgY71QEzHjjsql1gq39psH2nQLTwXA9PM0yO5SlW4thxY/OnygxnKpqKq1pOlzeeKm8srmqp07uazO1235C7LeLwB53efrevx+Xrdnm7Xb5uNO/Nzw+f+ofy2faD+Yh+n9PX4/B1N5kdR04U7zpwZO+RYygZZsLsP3x8OHsPHtt3uOjAkeMHjpzYe+jY1p37Fy9actttt//kxzfX1qJ68zzP579ZKHSpD0GO+KI57518pwuGYfMtiGmGIQUyx+UyUi4r9vcHKirrtmyzH9nG2PSSzyw4W0WPlXfbeadVcDs5r5fzekm3S7XYJZtdcNhJT14rPTbO4+DsVt5mFmwWwW7hHDbW6bj8MA676HXzbhdttwkeN2uzSQ7nFQHjMTNuC+u2Ck675HCJdpdkd4l2h+hwyG4nZ7fwDpTdxDltZ2PzLhvrc1JcRhCvAAAgAElEQVRulOZEe+yUy0p6nTmPi7bZRLcXXF6mwWBZv9m6Y0+isZmLRWWeFeTxo/MMUKLMq6zAyrBHgj+29nzW0I+1UtMamRmN4nUGcdqlSFCZYeSvqSc+U5v+XF0MM7JYYwYz52a0Dk3Xh67Tp6dpeMygXq0TPqOJ3KXz7hgk+hUZaBmNzOdgF8F/q7PnW5rGN2lcEgFSPOTEXVHy77Stt7nbNqtKXAFcUHgKNEAsyQi3Ggf+vqJjRh0zQytiOnmaXpmhZWZo6ev0KayJv7oh/RlN8AvajmtNJKZPYnp+ej19TQP9qQYK0/CY9hLE7z9Vy2M6EmvmrmpO/0rTV0ZDCqXOi4rMqQoryRdQaWik20/Z/KW1+XNSRyIO9JsUc0I8H0pPeiDlgYQL4k6IO5HUJlyjUGOePG6IudEvcdIHRKcScShDZiDage5G48MuFqINcn4lZD648rnNbzwyaDolh8yQckPGCykXZH3n2WDcAcM59y+es+ejXgh61dFzDsjFPvJJyrTJ8CGKI8ksqCkUb5BCgZB1l7v+cZ9uNtGzQY3Vy3FvHrcad6joHclHVSN2iNgh5ICQS421qOk6Nd2Q93idmjSoycb81KCm9GpKp6Z0MBj4WDBu2DhihcvAqPOBybo78gzhXN3/EKdY5z4l5IIJEvRCMDDpRI0QdkKoDQbDZxnqQUIf7ITBEPTlINgDMTPELOgTjj7kDvRNGHHnrwkUTjZ8ar8IyVa8a3On8dFA44ODtiUQrwWSFnICT3E8f75esCNr2pyuNI6iuMpUo3M3W3ut3pDDH3X7h3z+Hq+v2+Pp+nNcnpo2+44cH86eQ8f2HTm+93DRgaMndx86tnLd5vmvLbrj9rt//L8/ravVcPkbMnaWZFgiD35egR/+YKFpHcNwKNmPpRkWByoDmVjOZmrbucv01vLMoaNxo0bsdAkdDjpgI7yWrNNIeqyooIrTzjrtvNOOwvD5eud8Xi5Jjy3ns+H5lBs0ItZl41wO3uX+yBEdbsV+ZcC43azLzbncojO/wzaXav0AxeYq5M2PMc16veG2zozbyzhd4HCC1SzXV3ft2127bIlu3y66pwNEZqQWnudeCpKcyAKJ8nLeouFewwBmCmGt5AwDfY2Gu6aBn3EpBBfTwt9ohRsd8CMH/+l2wFoSmCc13eycUe/5rCY0rQowPYnpiH8zxo70JQYEEXWz4oQ+gNa4+HMPGtL6b5XJ3QlA5R1xAmhmd4Kd3pK8Qd/7wyB7JiIGGfTDSkLCBPB2gvmxYfDaGmValYQ1wHQdXK3NzmhIX6PtwBrhrzTp7znit7Z1fqULMG0QM8DV1exnatgv1DBYHWAN/MTj99P0PCruqeOu1+Zu0w3uyUFvvmaoIqLyqcJUbL47ftbOL3amPyoHw3JXUmhPcf4M05eghCj0WMM27Y1yVyMSa+TlH5q80BecPu/xyOZjDsT7d9+bUWMeQORtPuZWwg416lJjLjXqhLgbjXw9V6zHe0SOWCHphrhz0HKm33iKGzKii9cxuxp3QMyuhC3n22Z+9wo7iabn/N33dvjcl3D2kUIA/sMftPzR/iTZPC7iOEMTOR5IiY+aBm0b/bpZnYaniLYtkDJAf0yOBeRYQIn50Sckmj/ZizjQJzNyNiirhjrUUFANhdRQWA1F1FBUDcYQoRiaR49EUDryxwAl2jkeHUp08ol0K5OPlGoZGzXRcglAJ28TpFFNNk82kNRBogXiVoj60Ddb3KakG+RsOSJTK6WalLjpvS9bZ/5qZ0HlR9g8DAUhWQP4MSG6fMg5z1H3RsJfqhKCSKs0TZNcdtzY/CiVP11pPFXecqbSWF5n1zQHTM4Bl2/Q5+/1+no93m6Xu9Pp6nB7u0fxkdg8UvkjRbsOvHuw6NTO/UfeWLL8xTnzbrv1zoLN8zwviuLF2jxHcQIp5G2epViG5nCFyUA27qspP7XwjdI3XieqquWAS25zsW4L6TBSLgvtsjBuK/NeTRXOaQerTbGhOolsPoEbRei9dtpjZ9x2zmUXnWhKux0fOYzbwbquDCiPg85T2GfO5Sjw/v6P4fGFRTmnI+n10m63YLerVgtKuHc5g6dPHZjzwu5Fi6IeNyrOPt4tAyle4oBSaQ5eTcNtml7MFMFayBl6+toG9moNGkI6ccG9ur7/Vz3EPlYuJ/hno/BVTRrTEZhhENOFrmrJYM1wVbXjS47Q0jAbZYBXUG35fklekWWftHd9uXpgejn1rarMOwQqY4M6Gwj01iSH2SjMMHCVsfe3GtfBQSaGGtuyOQCnBFvD3E1e9vMNCdQI1sRjRhoz0jM0iU83KHe4mc24WE4zz+NwszGBemNp4zO08ev0CUwrIwu/wIavf3616Toe03GYlr1Wi/+ornddBPW9Qs16JQkUUVSmYvMfU5s/q1xqxK7GHCgkPxZnPT7v9B6Ie5WIix+yCUN2OeKCdBuKeV8sSbcad0ohq5p0Q9YPSbcacwhBsxS2omsF2cC5Gyzs5/DpOeuM/So+9JnPyCd+omxe4AiWohlSpLoGvKutdY8lO56D1CZIV0GvCbyiGu1Qox0QaUfFPVESgj8frSxkSthQJDtqhbgNeVLckscM8QKFuxaIW/lEx8cBMd34sSCjFycfLuUeGyHpvhQ4hOQEsQsp22SDvkmiXoi0K9FuOeaXEg4hV8uSp1nyNEOW0bhGSJog4svzftrPOcn60UbInFQTe4me5X221b7G7elui0KpJC3lWDInpT+EzZfUWE6Vtx4vbSquMtfqvS2Wdoe7y+Xt8fj6PP4+l7fnPFyWTJvhgfnC/N7DRbsPHj1yonjHvsNz3/jTrGfn3HrLHTf95Nbamnqe58/mzV9MbJ6jWJHkWZqjGZZkGZIjCCIuMdnMYGeXrk6zZ0fF+jWh6irBYYeAX3Y5RYddcjkEBxqCObxIIqqvUhiL6UajYFmvQ3A7JJdDcTrA4RCcVspl/sghXWbSfWXAOM2000znDxrpNlMeC+2zUf4PGNfmebeDcdkEq0l1O8HnBZMpfLq4ZfM2075DPa0WOZ27kGKIOKQFiQMOIjQ8GYIf1HZhxjjWRF2lo69rYKbrqGn6S1DT5kanezeXjAEOckLLwN21zGdKATMAqpxjSExrTD1s0i2JD7aLqEEUJ0EWYA0lfq09eYPBf7U2+8Uy+JfK7CIB5dKj9iUKtTkpYBYBM+cwa+zLta67XJl3BJAoFLwXJEjzcIhU73O2/a2uGWvxY2YKcwrTDfDVmsEVUdQkC0QwAOzuVD6vT2Gmfqy1DzMOYnoG01+CcpxXoVMCAdOyM3Tkv1V2LehiPflGXpKsgCKhCkIXeZvKtJnkTJtCZBqFTu0QtqlhmxKxKVHk9AWhV6P2UbwflX/f5lECOt0PUhioXiB7z7HqC5D7tFeO2ISgBdJeSHuVhAsyfkh51Nh72T7nnB6oUccoRv3dUbt93rvvBdhGCvpFRes/STafYRmSRemrAtnZ515pqX0k3fkCZLchm+9qgXZlyuYv/QnA5Ku8mNGPrfJc6pKovHvCKu8QkleUzWdPkd3rOppm2+vmd5sPiIkOhQSc5HGO+nA2X1ZnO1NpOlnWcqq8taTGUqeztxjdZlvA6e72+Ps8vvMJ/Udh83sPF+3NZ9ocPHZqw7bdz8+dP/OZ52+79c6bb7qtprquUIXm4mPzo20+l4uJXBb1hMvEBg2aM6uWt+7ckdA0QFsA2tt4m5WzWca3eZ9T8Dglt1NxOcHpFJDoWz5yKLeF9FwZsC4Lg66BoINGeiyU10r77cMZ1+ZFr4vzOASbGdm83UZVVZk3bGrevI0w24HigJeBGb9T0Vmb52EQh9/3KN+vaJsMm/9pe+e7Co1sXoy1yPBLjfC5csCa8wk2tUPXtOJvJob2gRoEpOOcBDEeZgaGbjD4p9fYrjMQXyyHb5anR9t8M4WZMpg98aUa53/WdzzhZoiEXLB5GqAOYE4S/6bDi2y+OYM6xWrVL5X3rE6iivUgqK0Ah4fgCyiDf+A9m2cvic1frWWxRgnTMDN0xLdL2172ZFxnbV5GDQGmbP5iE2zeX3/SMm3yueMRuxqyqkGrHLJIYasctqpReyHNRonaR4EyRM+m2XjUmFcIu/utVboT28oPrG0s3jPobFDirg8BH7KpSa8UdaY7dH3mkiF7BdXXKsdcUtQhnW+DUtQ5HDnmHP1Hz9nzUS8EvcaLEvfzrvxJsvk0QxAsSbGEwofoeHmXZZnf8Fyo5RW+YzdEG6C3LR+M96PAfLj9LChC70ZErRAzQbwZ9dz5/9g7D+g2yqwNT3pCAuxStrC7wAJLX3aX3ktICKEkBNILcRw7vUIC6aSTXki1U5xe3OJuS1a1JMtd7r1bltXL9H7/M3IAJ4BNgjeE/TXnPcpIGo3Gn3SiZ+6833vt6WCXgSMVHIngTABHgrTiSJacCfZU3qG5GQRt2V2pq4s/354Sd3qlq6udWDOlAMT/skRzc+eClubuUBO0/ELVg7nmv67GKmioh4YWaLBKRvnmemgz8bYc3pbDWssZi5lvrQNzhf8bXupvM1fsvwbVnjGQ257AI7ad8ZZvL5IvLlJ8YS6NIp3lgGMUCm6C9nB4G2W5jtp8dGJmTLIxNtkYnZQZGa+PjFPHJWnSFFk6Y0muqSa/qO6H+lWcNuEnzh4/G3nszMX94RGr1n89cVpoaMicIW+/++YbQ5ISUzAMuzwL9ppr8xSFSwHzGEl4adRHeQjaSxBOnvLSbmudKTsz7Jhy1zelZy9SmTlQUCzkm4ScXFaagplN5WcTpmy0UKrHt0uahWnKYYvyBVO+6Ed5ybRdkAeFub+6xKJcofi3ISjIlWTKFYty+ZJctjiHKc6WVJTNFmXzhdld03x+FhRmQ2Eul5lhjo7K+mZ/9tGT3qJycONSnyIWfk5EJQ5ulqeAhUIvvFvBPZhQjhiciJrorcAHyDFE40HU3ZBp87GxUs34AFoBLcsVYbiC6p0MiB4GKhx/k9cvbnS7KQspejhRdAEYGVhdYH9A1YBoHIjahmiFATL4e5p7JeuvzdNu4NHwNqanhkfUOJKF98ho7qtovjvDtanY2YQDTkkFfgC+hMF2tZX/PScH0doQvQuRwR1y02YragcAJ15HQVIB81e1G8lpRgxNiL61n0zolU79cqeNFIWZwSNSICb+t5iyoFybAYACoAWJ5kW+61Osq2r3gdr8DanNd+TUrhBEaMkBa6FgMYGjVLCWlGqiNy7+9IVH7n79X/c998gfD25ZVqaNJFvywFXGWgpERwm4ysBdzlsLeWsh+Ko4ayHaYARXmegq421FTGu+YCsCRwlrKQBHCWcrLtNePLX7y4Tjm3lbEe8qA2cpazFxbYVA1NFtJk+NDnxVvK1IdJaCu1y0F/O2Iq7NxLaZiKZs0VMh2Io4a6H0bFd/SDegvCUP/j/RPEq7MBLFCYpBefD5eHttrTHKGLWwLGUR1O8E6y7JPNNqAHM2WEvBWu4HnVKwFEpqywarAVrKodkBrW3Q0gitdSDZckqkzcxl0FIFLTXQUudfqbq226YK6KjGcmgou0JN5XCtqm+GzlXXCp2r3gINbV2o8z1IzzZcrdo6uEL1V2/Q0ARXqalZsnF/p4ZGuEptmdK51neyGMCivza16sCccYVa9XC1DNLX4zuZ9dCi60JX7cGsAbOyM1lUYNVcIVsGdC6LGsyKK9SaCOY0aFFBcxa0GMGcCTYDWHOh2QB1VVDrlabGmqskoG/PtGktBEuO2GIQzTop68auB4fOVbJLH7ugTLsN3BqgzDzuYjAaw0EKeKVRN+u6Dpq/ykkfnaiLTlBHxiljEjWpyhxddnmu1FWqLsevvKL6/JLGonKzv+2U1G0qv0TSL8+0OXLs9JHjZ46dOHf0+Nkjx06HHz196kLMiXNRx05fCD9xNiziTFjEmRPnok6ci9q6e//M+Z99MuHTWTPnDR0yfPBb76SmyAmCuB6al7pu+efA+mneR2F+oPehlA+nvDjpJUivt7w6Zc/BU6vXZ4WfpHTZUFACuSY+J4fIySRyMrE8g7ckz1echxbnEUV5ZGEebcqjso1QUkwbM53pcp9GTWdk0ErljRen0XJqDa/NgOwcQiZntBoqQ/ubECi1okorqrVMhhbXawlDBqbT4BoVrdUIOh3k5BF5WVRBDm3KJfOyibwsxpRH5mcTuVlknhQ6xBTm8SX5UJBJGzTFJ49fXLG8JDoWSA4oQQqn5P2NYH9GnyIGfLxAAw8yG/uI3nZvehNi8PVSkP3k2ECZD9HZEa37lwPuiGiLHhelw6Gs8QDPZ1CICpBU9PH4qrU1PgvOgM8NbocXIBpgajN2T2rJ71Ldt6Ryt6Ry0pZG8SGV62scCBCBdADjOdNM357M90vnEC0nHaEUkE8Mym9dXO7OE/yVcBQDmsRw144G8+PKpj9GmfqmEL0yilf4qHoA8LIVDMSY4B4FgegdPfQ+ROm9NQ76y7phFmx/6SyIlaSl/5zcMMLQGgeAAlAcCwIHHHUVrHd5N0DzNx3NS9PCzHliawG4yhtzU7+aN2HbshmZqefLc5WpUUeXzZs6e+wbOWknBVcZ2ZLXZEozKc7my89YShS0VeJse6W2sUxVlnmpTBfdVJgmxU22FQrOMqI511Wtc1TrHJXalkJZhT6GbSskzXnOuswCbWSu6lxNVjzRkgdYra8xu9IQa0w+XqA4aylXM22FjMWENufW5SSaNBdzUk805qdIpxMBmr9ikgZTbaOqbXS1jfGLq7YK1Va+zgGnLmVFpRW14cAwTHuIxLf5cR0jJaR1jHLhBIbjDOUTeC8t+HyMtdFTebFcubpCMcdbvhDaFGBVQJvOHwFugjZ/tf5bmhetBqGlUKirFupLxaYiCfGt2aJFJ7YaxNZM0ZwrmvPFFhM0ZXaDmo3QUV3us14HV0sJ9Z2qQQedqz4D6rRdqFYLneuHx1CngI6qTYeaKyTWpF8loVp+hapkwpXi6k9eqVNcw+mOYhtPXyWm/sSVOsk0nOoouv7ED3SKrv9eVN2pLkXWnrxSx8maI52IqDmCV4d3FFYV1oWqw/GaIx1F1OwiqvcTVWFExSmi8iRZdZIoO8TXXgRzPLQWQH0jNFSDuVKqzbe75y354MgVWjSi5JXXUo2JjVlhRfK1rUUnaJsGiDKBcnCkj/I3UfaRpI/CfLS3G2g+SRedqI2KV0fFq2OTdQkyY3pGoTqzNMtUm1/anF/anFfSWFDSlFfUkFtYl1dUV1BS1y00f/zE+YhTF06cvhhx6sJxf7T84eOnwyLOtEfZfOeh37Hv8IIly6dMnzVl+qzvnTYpMoZhLveCvZbaPIkTNObPpyQIKZ+SxKVhJDGUxDDpgiGKk6joRonaprI0ZfyWXbq9h+1pKs6QwxqzxKJ8KDGRBcZ2lMe+RXm2II8z5bemJBecOJ4ZdijraFjB0aOF4b+Cio8eLz56PGvf/twDBwvCwk1Hj+aGh/8mVHYgvORgeNEh6WiNRyVlhh/OCwsvCjtSeSSCTEr/MZrPkdrB+s+m6IJcMltvlyVkHTl4adP6RrmMaWyRJpCyomSXF0QQBUldLZTg5gVGECC6lfqzouWOlFpEj/VJp/pLNO9F9FZE6/rlND8+EdegAg3AclgCwIsGokcy+seUxhnlPjUHNCMCRgJGlgniDIx5LLP6Nm3jbanY7xL53yXyiJJHcphHVI6dPqAkmrcB6zrTQt2RyA2QcYiKk64eaKRGUT2Mrc+rKrc3kmUUSH1iaRZYLofmFjYJIzSNd8c2DFAUr3TTNdJUWjaPh/OV8GcFhWhdPbVoz3R0YBz06w6aHyBDL9N8BnN3StO7utaznBSHTwZo/jvPzPWt/NecNj+wjHcJwdYCaCsQzPngrizTRi8JHrl37UJnUzFwbo+tbufGZTPHvKGI3A9YXWlG9LyJQ1574u7nHrxt7YJxraUq8NWoYw5NGPaf9158YN7Et9cuGH9gw/zKzDjRVY6a8y8cXBux80tl9IFTe1dEha0nWvIdtYbwrZ+9+vhdj/+px8Ipw8r1sUxbUXbqydVzx7z0yO/ffvovK2Z93FquAV9NnvzMgslDn75/wKuP37l0+ofVWfEBmr/ym9YNNE+QbumXFOek6fgeYF2cdClQqGOsl2qMS0vV73tKj9F158CWDrYssTmTb8iWSu/tNG/NEW0G0VYElkop7saay9XL0cqLRM0FouYiURNFVMUTlYlEZQpfHnWtoovPdxRZeJYwnekovOB058LyT10t0xasU/nydnYub+4Ob+72zuXM/Lpz2fTrf6B1Nv33surWtl0pi3bNVWrVrO4os3r1VWrSze2oxow5DdrZHVWXMfsq1WhndVSVekalKrSjKpQhV0sxo6KDyuQhpbLpnaskLfhKBZWkTe1ERSlTCpMnd5QpaVLnyosfn3NpbEcVxL1bcOnDgthPCqInFURPLIieUBw3sV6+CC/cDI3JUJcPDUV+mi+73KaqLYdrVkpNppxqpulSjX6PIXaZvewcYIUiUUW7qmnMxdIkQZAYQWGkFLCIk133gr2qEv9jd3XRiRnRSRlRidrIeM2FS6qYZH28xPRF+rzqrML6nOLGwtJmU6kUOZ9fXO9H+W7Imw87eurIsTPHT5yLOHm+vUVUxLmoiHOREWcvK/zE2W17DixYunxy8MyJQaFTps+aPWvBkLffff21wclJaTRNi6J4rb55EpcK85LPxr/4h5GQpsNK4ykNKUbivA+TnNYun9WQq917WLF1tyUuGYqK+fxszKBlCrPR4jysSCrM06Y8tiCPz8/zaTW6A/sUe3aazp4qiTpfcv58+bmLN15VF6NLz5xLWL8xetWaqotRNdGxVdExvwk1n49pvBBTHxlTGRNTFhtTFhNTHhPTEH2p/Ngp3cYdTeFnf0jzjCkPzTJgOUZp/mtuVn1CTMqW9fFbN7Vq1WCxAMVIHM9L8Sn+yjzvr1F3gfM07xZEhhPgWCN2a2r9gKQaRE/0k9MDZNggmQfJtCAZzl9O80FpoJASJKWEyUiAF/Tu32XgI8o9kQAtAIBxQAK44Uir5978ip5p+UiOY1Aq/cc44Y9xAqJkkAL8cbV1nwdoEICyAuc800L9IYEdmMr1UPBSuqXab1Uv8N0qK39XV7232uWw+IAUgJRaaCUDHLbB61rzwETTMiteDQCcoAE4Xg9/UjCIytNbjfeR4QPioW93JFQOlGiek6Tj7kgzv6FpPoiCHYDkeRB54OkuPpIfPB2ozd90tXkpO9xZIrQWgKPUVZ25e/W8t599aOOyuTkZaZUl2ZVFWVXZiY5qQ0uJctvykC1fBqcnHI09uWNpyMij279w1BjiT2z/8LVHZk94O1d+Nvns7m3LQy5FbDWXqGzVhtXzxh3ftazMcGn7ytBT36yyV+uTz+7eu25u4qmdcSe2bf4i6OLhDdXZSWFbPt+6bLoiNuzYzi9DRr9+ZNvShgLZmf1r1i6amHhu76XjW7etCFHHhgVovttpnkY5EmMInMYIGiV4DOdQH8OgTpFtY3xFTcVHi1JnVWs/85TtEywpYNUK5ky/x0aKNBWsubw9U7ApRHOs2HoGr91XopibkzyuQD62QD6+QD6xIC24IC20IHWWKeP1a1Wh/s2OKtK/VWwY3FGlxrc7V3n20KtUYpjcucqNMzpXRdbMyuxZnas2b17nqi9Y1LkaChY3mj7rqIaCxVepsfCzjmoq+vwqNZq2d666wu1XqaFkZ0c1luxqKt3dUc3le65W2f7mDmopP2CuONi5LFWHr1SYperINclac6xz2WqPO+oirlDzCWfTKWfjWVfDGXfjcU/j4brsz0sVc9pMq8XmSGjRSw2tzKVSE6v2TrRWndAmY1vjm3L35aZ8Waxc6a49LPpagcI5nMA9mBfFUBJFaQ9BOWkcY1CS87G/vDYfmaCLTNRFJ+tjUgzRyYaoJF1kYsbFBEmxqcY0baE6qzKvqCG/uCG/WKL5vOKa3KLqX+60ORYh9Zw6eSby1Jmok2ciT56JPHDkxL7wiD0Hj+zcd3jHN4e+2rQtdN6isZOnTQmZFTx7waRpM2bPWjB06HtvvjkkOTmNIIjLlwGvpTbvbxp1GeVJf1AlJU3IJ0mcIojLcpAE6vWxNANewpdblH/8jH73gfqLkWx2plhiYk1Z3xls+Pw8IU8KsbHL0lT795ZEX6BryxlzLdFUi5mbb7wIa5u7vi7x9MnT+/aSDjvtdNAO+29CrNXO2KRDJVx2wm0nHDbS1ibYnERxVU746dLDP0Lz3xpsTD6jvujCmfQDewtjLlqLCgHDgGF5Tso+9LvlBV4y3BAiYD8gw6sf4AUfByzGwfZqb6/Uxn4KM6JnBqYxg9KwW2VuJKtFMtv8dBrjz3xqkqIxjQQnAMdDNsBnyqqVlR4N6WsFDhMxgYNUAb5pYl9U1ffUNvfIsCGZeE8FMzCNHJhG9lJ5EKP18fTm/W5AgeegFcB20I7/LoUYICN7KujeSm9Pqe0riygA0aH9VE1/yWr4rNKiogR/Bo5UF7dxcLyp9eO4+mNVXqd/qm0swM5W4S9Kbz+Z+RalvW+6TXq5uhucNoPSfJdpXi8MSrc+o2jcYBHqOMBFAQQe+IDT5grzw2VSv5K6fvzBm6c2L7RkgzQt1W+dd1U7qrMvhG8bOfTlF/79yNP/fGjMR8NL9XG8u8qYdjpk9BuR4ZuAMTtqjQc3L96yPMRebYg7sX3yBy9sWxEKRKOlIuPApkWr5o2rzknJU5xfPnt0evShpmLl9lUzzx9aX56ZsGPVrAuHN/ispcC3NZjSm4oU8Sd3zBg3WJcUQbqrXHXZBzYt3r9xYb7yQtjWJQc3f+Yym1h7WYNJ7qw1Bmj+yu9VN9TmWQ/QKEMSuI9rdAt1PrHNRTucTor08kCC4AJX6RcNxtkl8jnm7D18SxK4skDqRSC1G+NtebzdKLQVQmM5tALATdsAACAASURBVORhJYmF8VubMnexDafY+jNs/Tm2LpatjWdrkj3V9dcqtL65o7y1jZ7qhitU0+DpVL7apqvkaqrsXFhra9eytGKdymc2dy681XmViDbXD+Qm2r4XaXVfJcrq6Sja7r1KpNPVUZTLRbvdHYV73VeJRL0dhXvdmNvVlVDM/b0ID075yC6EktQVYmhU6EQMKrCYeKWAxa5NJAkUATQBHAkChQNtdzbLijP2NRWf5s1GMNdCW7XksZHyALIk2dRMc0xt5o6sxCXFqi/xpsPAxwlegUOlPdAkeEnaTXh8jI2gWznMJ3hpcMMvp/moJEN0SmaUxPH6yCR9VJI+KtkQmag7H6c5H6eJTNTFpBplqjyNodiQU5FTWCP55rulF+yJc8cizh05fuZQWMS+A0f27g+fvWhJ0Iy5H42d9NawD156Y8h/Xnz1qWdfeu6VN9/5YNToSVMnTZsx9dOQt958Z8jb76bLVTRNcxwngfm10bxUfccJ6eog5ffQsyjlF82gDI0yNMa0AuflWDdDcS4f2Dx8VUPtxUva7Tsrzp70qdKp7AzalMcUSHmUkJcHuZLcinRt2IFaWRL4bMB6adrrE6kbL0xkCOCjZQl7jh2kQGAkY/JvQ1Jaof+AcRAwEEhJLPAC7/DmxSTnHIv8YW2eLshli/JtaoXx+BHt4QNVKUngsAPLCgwDojTPEpfmfwokcCxgPHilcndXi8B5WWCtGKwodCKpjbfonIieHZTK3JqK3ZbmQrKbEX030Pw4XXoa53UBCxgtcpBX3NYqnWhYOLDT4M6h4E07PJRPD0g0D1TifaUMeALRUYjOi+i8PdVtg9Ibn0pp2OMBG/BuMKNg3eLC+qajvZSYNGFX6eqpQhEN/dRJQJSA6H1IVlO/nPJxDd54fxilFFPPgpX1yEuguBoVSZoERyTANidxn9J8e2rlraq63qoaKcjS0A3h+remeS/TvEHsr7A/IatbWkeXEiImigGa/3FMvxK5fnKbm4fmuZZsoTlbtBWxLfngrgHSDN6m3ZtXTBrz/icj3pn+6dity0MaTHJ55IFxw54J+uiV1QsmrFs8edIHL0wd+Updfprs4v7ls0cf3roEPNXmUnXY1qVzJw8r1V+KP7nzq4UT8xQXzKXqvevnn9q3Rp8UsW7x5NQL+3CzibAUgbeGQ+viTmyf+N5zsyYM2bhk6txJ77z02F1LQkaa1FHxp3aunj9+cfCH+zYsKFBHcs6KAM1f+dXqfpp3sS0e1iWhj994IxVQ2KN47ZrsuCBT0kq0/DxY9VfTvMUEjWXQnIcWJ5an7sYbzgOvAk4DXAYwuUAXAF0EOHPNwijpCvv3oq/ew/dPddys03XGK0UCdyKKgs5FktClaBo6F8bCVSJ46Cic62IDggecvUIdX96+fuVxigQh4lKXo+/EkvgPRLDk9+IokqepjuJI4moRLNdBLM4wON25rkR5kkZZBhW7ECYyHUT7+C6ECh23ZzARwwHHgMCAwYDDMYGwmqvis2XbanKPMk16aK4GS9VVNG8tOpqVsMwkX4k3hgGfAOg5wKTvDu4BzAc+ivHRvm6n+ZgUY2yqMSrZcCEh43y89ny8ViL7ZENkkv5iou5cnOZMrCo2QZOqyFbri7ILqkyl9QXdMQs2MjrhaMTZTV/vnDl70chR44cNH/nWsA9ee/vdF14b/J8XJI5//D/PP/XsS089+9I/nvz3I08988xLr48fN+X11wYPHTJcpdLyPH8dThuc6JrmmzjKSRFuhgacBrsXbB4oqig4FJawdpVh3x7UoPohzTvT5coDe8uTYsFpBtpNEC4ng954uRmCAiFGlrj98F4KBFJkOal8+xsQDzwruS54DHgUeAJ4UmTaaT43OskYfv6HNM8U5nkMGTknj51fs8J07hTX3AheDxAk8DxH0YQgXgfNc4ybEdkWF78014akNAw0uP8bND9en57aTvMoJXJgdbdfNbCgXCMN7sQW971G3x0Ky6DUtkEqorccReTYddD8v04BohB75pBIvgVR5z2nMoVZBVGKuBGABRTYGgzqLBiL4hhYowB2eugbQPOPpdZ+Vk0Uo5yf5rlAbf4nYf1K8PqRzW4czXfMt/mxdbEpX3KLWooFs8leoqnQxWHNJsJWhtrLLY35EYc3zZ30XnpkmDH17EdvPDV6yDNzJg6fOe6dBVM+iNi9xlZlTD1/4Ku54+Xn95HWUsAakk7s3LBocmz412GbPzuxc7mtPKM+N3XXqjnRR7cbU899ETpaHnnYUZNDWysoSxnrqJZHHp4w/MWJ7700/ZPB0z8ZPHvCsFN717ZVZLob8s8f2jRz3NBZ44etWxyULbvQPZE1PzYCV+z5/1OmzeXr3D/9j48WXThvbk6ozgxq0E7EckOg+SI0lUBzqWBtQp1VPmc2galF9KK1alupboGj4TTNOjAKd+OA+oDyMoLvp/ceeCYwAjdkBCjMg2GUlwAXBSiFU4zdWnWiWrukNe8rtvUc784U2oqhsQ6aC6E5HSrjPYZdJUmrmvOOkHa1l2lyCQ4z6+n6SDGKlCwiBI5jNMfwIHy9fcfDTzx7+kJybJI+Ot74Y0Z5w7U+GJ2YFZWQGZWQGZeanao2KfQl2pyKdJ3pVFRK2KnoI2dizp48fvrE8RPHjx05fuLw0RMHjp48cPzsdzp4/MzR8NPnj1yICDt5MCz80JGj63Zunbti2ZBPRj8/dPigPzyA9PtznwF/uf3x0a9PWjV5dfii/bHTD8s+2Zs2eGvKP5de/Pv4Lfe8Nf+Pr4be/8bHtz303P3/ei3y1DmgUCBR8Fg4p5mjvF7c0yZNKuiGhUOlsj2FEyhF+CiCIAmR43115qxjUfGb9ht3nWRiZKDUQ1Yum2+gCwxCea5VmaoOO1ySmgJO5+UrBt1wINe8C4ZhSJKMi4sLDw/vqgx9sz3PSS5qQQBRcpMTAD5p1irPOe0FsbGVhyMaTVnWykKitAiy8yG3CDIL3NHx6Vs2pWxYVyiLJnx1INH7L15osLGikoAXC7xINoFkuBEd3kPl66VA+6bjPRVsD2U3tEcNVSkVDCMFvXMUoPb2DlANADkAh1FmREYtYgBEB4jmW+kAyWARPYXoqR5y7+8SXP9JaNnrlS4+AEuCwB6yMgPk3t4qF6Kz91LbpC5X6aLU9lXp6aXG+ih8Ay+577xoe17F7TILTQxYpYx5wgKijSIZggZaeusT1d6/qWulFlRGEtFSdyRgt8i7oTaPqJg+cklIBoFkWe9Q1g4t9hW0Ac5JQZUe6SLKtS0B3/xlsr95aB6sxf4E8UKhOd8Yd+SruWM1seE8Wg+iA3XXHD+wftLwF5PPfGNIOrVq7oRc+QXg7cC0WSsMheoYX0NB8plvvpo7Lu3MHtZeDo6K2qykdfPHzxr95sJJw4wJx8nmgqZ82d41c6OPbM2RXdi0JDguYidurwTGWp2dZlJFXzq+46v5kwuU0cDZwFtfk5NWoIhqKlSbS7Su2hzg7Q0FivWLp57cs+YK5u4Syq97gwDNd/zlohia5QXSzbYam4xHiuKXefLXg+0UeC4IlmSuLZezl/H2Gim/r/hklWK9uyaOo70ESUk0j3EkhnKYveP+AuuBEbjxI0ASFpTweEnGJV28IRnK5SiPbFBudGTvERrT+eYKvjUb7CpoSsCKI8z6PaaEdZ7qZMFTApyNJGkvxuAsdH3YN4TmY5NzohKkhlMX4jKiEnWXUjMT07PPx6Vv/ebY+u0HtuwN37xl68avt67fvGXtpq1rNmxZtWHL6o1bv9OajVvWbti69qsti1dunL5q09iFy+4fOqLXo0/3f/SZgY888+eHn339zZEvvjz830MnDh0368Opi2at2L7yYOzmC/qDqvowgzVMVbM/uWDJnrNvzll775Dxg/755oigRYmpGTX1Np4SRIamMC9LY5QUG98NS0ea99KEj8Ao6eoZD82uFl2BbNdR7ZrNtug4KCqG0gIu1yDmZfrSUjMPHK5ISgGHk+EZf5x9NxzJte7it0vzAnCiyEsAL0iTVxnJJyOCyIt2e3FUbO3BCG+ukSiSsoOgwCQYs10JKfLNW+QH9zWmpwHhBEBFTopV/6ULC1YeUjF4Um9FMjHJpqLDe/ppvo9E80wPJfEzzfGdbDYmoyyKg0J/7DqQUtgMKUIpwGmHOF1d89zZ/KdjC5++VPh8TOmzl2r/EVV1x5mSgekOqZeTCu0po25JYv+ZYOuS5gfJ6u5X1TyhrX1GW/2SouLl1OI3U0rmGSuTrc35kmfQiYFASeH6NDBQAHC21nO/qgYxeBAjhWjpW5OI/lJI/C/vfUv3lUtCtCSSZb9dUfdKviujGXy89DF7AzTfZQ3+pza4eWhebMmHVpNoKQRvtcUkP/r1Z/vWzju1f+3FY9uO7l2zdM64RVM/KM2Ic9VkH968ZPPS6ae/+Spi18rPp408sGGxryE/9dy+JUHvJxzfytvL8IYctCHnwLp5z90/aNI7T7cVKXlrSUNO8o7loaf2rKkyJkce3rzx86DDm5fsX79o+cwxJ3evKsm4dHTb8lVzxp/dt+7Qps+njXz12PblVcbko9uWbV8+88LhzRG7Vm36fJo65kiA5q/8LnWD06bLnyjM58N9qIDTQDrZ1qK2okulqsUN2QtclasF2znBqudbCgVLC7TleAvO18q+9lYl8pSPICSa92E0gXlYvK3LdwlsEBiB/+4IkC0o6fJQlIsCnCJZ0uWtulSfttGm2yU2aMDSKOXKm885C/cXpq4vkW9yVccBUSvSdp7GGJwnfDyB3iw0316bj4w3XIzXRSZkxCTpLsSr9h09P3PRyrFTZ0+cPm/K9FmTp8+aHDxzUvDMidNC2yNoPp0+6ztNDp71aej8N8cG3fns2wMef+m2oeNfmLd25Krdj3ww5bX3J54/l5iWqt958uL0z1a9PWry4BGTh4+fP2bW2kmf7Vi0/cyOC/L9scojSerNssIvL2g+WnPwoeHBz7wfPGLmmkuKPJQSaYrAvQ7a29otH2hHmvfQhJfEPZiP9uHgY8COekzVOQfCsw+FVUVFujXpQkGOkJuFJ6XmfHO4OjEF7E5KYDBScubf+OW3S/MccEI7zfNSniQnAuX3VYs2e2lkbP2BCDY3mzHl8fm5qF5fHRmZsHFjaWwM1dwAqEekJSsbiNwvRXm/rbxNgEi7eL+8AdFjiB6VaF4p1eb7pGM9FAzSHTQ/QVMUy0KxP9MGSFHggeGhmIPzTb7NhZaVZdj24qbd5a27Su0byoh5JnSYoumvcnPvdHcvuaunnOuTIjyRYO+S5p9Orpxdi69z8rt94gEPt9/B7LNSEa1OlbU+l3C4RQslTTKgpesDjJgLcKbW9YCyGtF7kEwK0TIDksm+im64EIFoyL5yqq+cQjQkYnTcqqj/p741roJzCRLNSzGb17gEavM3X22+JRcsJrE5VyrS20rspepDGxa8/cx9/3rgtvffeGLT8tBmkwJvNvH2ioY82bLQj0e8+tiQ/9y7+fNplYZEQBsyE08cWjcvOymCtxSRjbl0c35W4rHVMz+O2LpEsJbw9tLm/LTz+75KObOXs5Vby3XfrJ3/4cuPvvPM/V+GflyuiwO6tTorecsX09/85z0jXn1s9dzx9XkycFXnpJ5ZMWvMy4/cNfqtp8K/XmIr1wVo/sbTPDA0h2OUwz9tyYeLnlZb/W6j7D19yjBn0Wowy6ClCJqd0FKE58Y2pu5EK1IFEiMJ2oODDycJ3MmS5hv/Uxp4x8AIXDECVCNK2T004aaAoEiOdGHVifVJG22a3VCvh5ZWaEi16JcYo6bXZO9l2i4BWQysi/J5cDcpJbd6gLLfLDQfGZ8ZlZgZnWSMSTZeSjXGpRmjkrT7j12csXDFmE9nTQieO27anHHTZo+bNnvCtJkTgmZMDAqdGjJrasjM7zR55txX3h/V5+GnkWeH/3Xs3A8PJsy5lDf5YNz9H4Z+NHVhzIWE42FnNh38ZsPuPUfPRp04F7dr7+nQ2av+8/x7L7798ajgOSHLVp5MSd2UUf2VovyL+ILRO2Lv/WAh8uTIJ96fcT5R4/RgEpQQlivG/3rv8ChB45JQipA+PhL3SJE3JGC0JC8NlrbCqMgLG9ap9+7yyGVQWEjFp5n2HK5LkGieFBmMCtD8tTEaK+W7+Js8+TMlBRFYUQSeB6u94mJs0/4IUaWCQhOuUSt2bFPs21MrSwGvCxhSKi1LYqQplb98EaBFhPB67J6UGslwokMRHfE9zSsZRIqL+aXl6inqgngGyqTJqCAFR3JSjKYVoAGgHCBX+t3jMZBavdYB6AG+scE/ZfX9ZPa+qbYeSrFnGjyW4OyS5hdk25QARQBV/v1UAdT4V5oAbwQUBwcPFC/gwBHA8FkAp+scDyqrEF07zbN9U6k+3WErQrREPznVT04hagoxugapmv6ubDie47awIDKA+8fgmj63AM3ffDTfmgeWfLDksw2ZUnA4WmMuSFNc3B93fJvswv6qrGTWUkSbC/HGPN5TnZV0IvXUrsSI7bVZSZy1lDYXmgsVZarz7goN05wLjjK2JR+t0Zcpz5vzUsS2QqGtyFela85PbcqXgbuabi2sNSbKzu6JP7a1RB1FNOVzbcVYQ251ZkLyyZ3RhzcWKS9SLSbRXuZryM1POxN5cJ383Df1Oclkc36A5n8FmqdYwCnaDagXMJzHKAYjs+tKv87WfF6dvojP3wN1qdBSCmYFlXekNXUVXhkFpIsiCA8OXpzFcZQmAk6b62WZwOu6aQRwss1Hej0U46d5lKcsWPXpZtliT+YaaIyEWpU750Blypzi9NUeqxaEcpS2uknGi/M+FBinwDt5cPvz1Ds/nhvitImMz4xONMYkZcUkG2OSDZdSM6OTMg5GRM75fM3E6fM/nblozIwlY2d8Pm7GZ5ND508JnTs1dHZw6KxpobOCQmcHhc75dMa8YZOD737htT4vDPvr4r1v7E/8IKF2ssz87gHZ3aMWfRT8ecSBIxtXrH178ojXx4ybvmz9mt2ntu26cPBA1N7tx9at3jhmWtBjr7z0r+FDPwxPDUkun55aN/RkyT2fRSIfb0VeX/BW6NpoVR5JMUDZOh+qn/ks9x3Nk4SbIVw07mIIlKUoiiJJksJwEJjWytLUsydTdu0oDj/KJsq4GFnprsONcSlgd2BA+wI0f02AJnlOOO47mvdTvciLwPJgsVddiG3eFwFJqZAqr4+IiN260ZRyifdYQar6sAzPSYnyvF/X+KY/3JwCqATYVum5O7UeyeGQDAzJIHsp0d4KtI8CQ5QUouoGK/mC9DQtRTYDSNcTSBfQTmAdgnSmSOMgolI+PgVAc6KUy14EEOGGfyuqe6ebe8laEC2LKOGxZEeXNH/Y6HKB5OEBAYClgOWk0wbh27HipOZT/kx+aUKqGuCoGX1QUYtovYiekd5FTvVUdUdtXuftLyf6y4keShoxogO01ruVjduyHFUMUCxIfXevcQnQ/M1H8+0Ry/ZCrjlLMOfz1iKwFomeaknOCtFRQTXnC45yuqVAsJWyrUWir1Z0V4u2MtFezphNvLUE7CXgLGObc8FdLliknrLgLGt/RGgtEC0m0VnOtJgEawlnKRbdVYK9TLSXic4K3lrCthYKtlLRViq6KkVHhWgv49ukBzlrifTu7mrRXeV/sDhA8zee5kUvBV6KQQkJhmifh8VIzgJUEdqmbdLtbEz+wmU8AI0ysFwkC7aZZfPx6lNA2SgCk2ge43GMpPHucdD+zJ//wGaBEfixEXCjBOEhebfktPGyVLOvOsysnoWblnF1+yzGfWUpa1v02xlrusA2cUyjh/LaccZH8zjJMR6Mc3sB+xlf4xtC81EJRqk2n5gZlWiITMiI8reaOng8MnTB8vba/KiQzz+evnj09IUTgudMCp45JTh00qdBQaGzx08N+XTm/JETp9/3zKv3vPXe22v3fxJdMDGp7N34uo/iaj48ov3LhGXDJs45vj9s/bLVdz710B9fHvzY+58+Mjz0n29Nf3vEnHkLNu7dc3j5pq9f+GDEgIcfvWP6urHRprHxVS9GlD19qPShbcY/zDp225vThoUsl2UWcKSLoigURSmK8ng8NE17PD9jGvEPPjn2u1mwpFSb9zCEiyHcJOYjcFRKt8RJ3MeSmLOprj5drtu7T7Nmg/3IuYp9R+vjksU2KwqUj8J+sNcb8cBv12njz5H0U7y/5ZPIiwIrSDRvdVRGXqr95qjl2MnKHXv0W7fVpqdyrjaBw1iR9WctgiBxv59Tr5ELf7i5DyBfgOUF5rtkjUg2h2TgHWgeRZRkt9B8qC7nEs2aAGyi4GZJO0/aRdICTJPI1ItsM0ArzzQD1yCIZQBygK0ueEBR01Pd2kNllg5JxTyWYu2S5pcYnLkATYJg50Ufz6G84BNEFw9eQRLKilYQHSC4QTCLEA9wwMXer2ry/8kUomEQBdlD3Q0XIhC9e4AMHyDDe6UziBHvq7XfkWFZoTGbCCB5oKWuANe2BGj+JqT5HLDk+Num5EmJy1LosklsKxLaiv0q+Xal/e6P3F5+Vftrf+xWtBR2uZMuNwjQ/I2nefCw4GFpwuHhm118m4N3ogwPGC6iGN+iQ7O3VCUttWVtA/Nepmpdk2wyVhcOdCtF+iSaRwFHpRlxN+LHM/AegRH46RGgcALDWS8BbmkWrJuh6tH6ffXKcS26yWb9zEr1F46iMGjLAKqWoV0EZnWSjIMGN8WhJMXjDgGzANr007v/9pkbRvP+TBt/GI4uKikjJll3+GRMyPwv233zo0KXfhLy2ZiQRROnz5kcPPPT4JBpIaFTQ2ZPCJ499KMJjzw/+LYnX3xl1pIpEckfx5VOktWN1rpn5ZDTE6seDtk4fPLciANhS+bM7//4A08HLfxo3ZHBS4+8Pm3bs+/Pe/aN8dOC536xccvQKcG3PPH0bdM3jIop/iih7s04+8uxnofDax/cpHl4xs573wv9MHRJXk42ANA0zTAMhklTVzHseqiaxS5n2mAk4aX9ZhtGuvX6JaXccBTDkiJLgsPm0miLD4RnLl2rXv11fXwyuN0oUG7iZ5yGffsBduO//zs0z4kiK0ruG6u96Fykcf02/ap1RVt3eeTp4HMBR3AsSvkr2BRIPvvLVedrw8If2doFoGVgrqH2DnkzYmQRHYlkUL0v1+ZRRNU9NP9uWvbyaueOBvRMhT2+ynKhtP5CRf3J6oaTVU2nqlrOl1uO12Nh1Z6wavybVlhaw32UY79TUYPo2xCdRXLCqLHH0ixd0vyrcVVrypznHLTMhRqt9sw2r74V15gho0VSZhOkO0itm9I6MTnG78RhZTP5V5UZ0dFSK1k1Lf2x6m64EIFkOm+RYbfIsL5yFjGSPTT22zPtc9PrDajU8ZYRJLfRNS0Bmr/5aF5qmJLtV46fmPP9dG4CS5HUHLG1CNqk3p+dyW/Uabfr/MRtQWcv73zn3z173TE11/TCQKZNh980zitwXoGiG32Q7xEq3bwZI4CwA+MGwAnBpbaXh5coP69WBpkzQ2sV47y1+wXGTPpp3ucDwsezPrbD/gKrgRH4FUaAwQgCZ33+hEof5SHpRmvNN3nJo4zxHxRrQmz1h1g0X8A9HEmgPsrrIXyk4CVZH0lglJemWhiqgaNquj7um4PmPwn9bEzIwvEh86cEz5g6bfq0adOCpoeM/nTGu+ND7njkxX4PvvjEx7M//OrQ6P3xYy/mzVU3Ly2mttZwK1RV/5mx6t1JM8IOHF44d8GARx97YcnekJiKTxPtk89Vj9wc+8gHMwd/8Mni1V+PmLZ40MOv3ha86eOY0o8S6t5Kcr6p4J6OdT10uPSRdfEPzD+APDt69Mq9LS0tNE3jOM4wjNfrvRxI3/UgXrEFhROklEspLRhJoO2iJBv9t6IximI4DlhSdNrp6qrCQ0cufLmyOCGBd9vdPOql0Cv2eKPu/HZpnpB6PHWozQsgigAiT1ktGefPxa1ZWxOf7MkpEL0+4BiRpUWRY/y+cxb8W/pfek1Q+KMbmwFiUXGiqvxWeSuSySM6BtEyfSSbjSREqlVjv9w330tB35nB35FGPphCPq6g/p6G3qvw/UXpvS/d+6Dc82Sy56F02z+U9sfTnY+kO/+c2jYw2d+1yuhEjA4kw4konY+lNndJ80imrbeh+m+FDU9XNLxsqn4hr+7FvNYXcryvGyW9o7ePVrWMVjeMVld/nFX/Sp79aV3TbWo3omH9Jy0kovIgau8v/2ORbOsgmW+QzHdLGodkcojWg+jsY5IrUz3gAxAE4Uc/iE4eDND8TUjzxssdENuyvy/StxZIsZVmE5gLuyy9X26H3u7Y+fHbb6v+P1a5/xn7918xuCYov+6NAzTf4QePxGlJhI+gXATpJkgvhpEEzkoiMJJ2clyrtVJWKN9giF5giAq1lJ7kGBdBElJCJSqSKMlh13OFvcMhBFYDI/BLR4Aj2kjCi5KskwIPRWKU29qQWKT5ulS3zdEg42inj/G1kZiLJDCcQDGcxnAGI2h/YRgjMR+FeemfUVq+OWh+fMh8f1V+1rRp04KnTZ0+7dOpwSFjZ3z+wEvvI/e98Kc3g975/OCodec/3ho964JhfUbD3lL7sXLLFpnh5aA5704IOhh2fP6ipX968JFnF+0dF1n1YSr6XnzLyOOaf4Z88f6Y0WvXbJ4wcd5f73/17uDNE2NKxlyqHHKpfojC91KC5YmztX/YnH7vZlmPad8g7y/fs2eP2WxmGAbHcQzDaJq+jk/xu3xJkrhcpG+fFNseQi/dopzPR3owHKV8LO0F0o031hQlJzQX5uLOVjfrkdqh/RrLb5fmr3DaSHGVUkglCzyOOmqLc2tUaTzNSv54ETiKvrwu+N01392KnRDgz32qDiCsjR6eVNBfbkEyBUTHfkvzvj4KX3fRvBQnrwVELvRQ+lc0ovRIJiA6AdHyQw3ohwAAIABJREFUPRUsovEgOrSvFu8r9/ZM9/TS4lJbVgMuxewosUEp2L8SW7um+VwRyfIhBjuibUbUZkRtR7Q+REsgKgeicvRKr789jbolyTEgubWfrA6RtyDpLYiGQtSCND1AifVWWnuqXN1A87mtt6Z5JaXwSKYo/Qla21uxpgs2QerNywdo3nqZzq90QXT94M2TUAltmdD2LdBbcqA1F1rzoDXfj/J+oO8awXO7AvoAzXf9lbjGr9CNSKjEpbbrBIHRlI+kUZJGKZq0E0wrRrW4CLuTxAnMC4RN9Ba25J4slW/2NqQyNIqTtJ/mGQrz8pj11/gxDbxnYAS+HwGObKBIO0oSEs2TDErirK8UbVbjZi3ns1A46SKJNoF0CwTN4CSFsj4P78NY6QvP+AjGTTJOivl+dz+1dnPQ/ITpcycFz5oSPCM4aOr0oE9DgqYETZ8xePS0Wx988fZ/v//vyV+NWnvukw0xE3bGL4kxbtHWHDQ1nK9o+iZd9/b02R9MnrY/PGLOwqUPPPjw8wt2j7lQNjzVNyypZfix9IemzhsxduTmlesmfjz9H/e9cueU9VNiSibFVb4TUzVU7ng1vunZ2OY/7dLftSn9ns0K5P11o0aNioiIwHG83WaDotdTI5dKB/7/gkhcOrli/GK/XWEwQiCAIjgfTjkpj49y07SL91lFZ5uAOgTa6+V8vkBt/ufy8+XtrqJ5RhBJUaSAYwUKWBQoDyEIhCAygiiKUiq9VMf3O+zbC/rS5M7uoPkagO01rtci9f1krYjhhzSPd1Nt3tpbbu+X7uqb7kFUPgmyDT4k04vo3IjW2VduR7RSDb6nyt033dNT4e2h8iF6QmoHm0H2klO/S6T/k9C1b76vjBmgwPvL3f3TbL2UaM92/4yWlYruKk9fRcMtGUI/JdU/g+ittSMaZ08DiqgYRCkgShpRYL0VrT2Vju6gefOtaZ5b0zy3JftpPpNCNNbnz2VFNDMuaRpwYBbs/wDNW9tp3g/0AZoP1OY7wApKoSiFEj5gncC5gPeAwLd46Bwfm4eCy8aCF/P3F/G2cWYTsJVAVNM0jZGcv3sUQeEOAW/usL/AamAEfoUR4KlKijJjlNdJgZsUfCTHYa2AWkR3M+kUUC/YaKZO9LbQdoywU4wbSC94Ud5LsT7Bg4ODACt5syRUSrNgO/XNT5o+W/LYBIeE+FE+NGjKJ+Mm/umJV/r8/cX7hwa/NHvPmI2XRm+In7g9fslZ1Yak/H0Z+adzCvYkJA8NCh4xZdr+o6fmfLbskfvuf2nBrrEXy4amuF+Lrx0akfbAtNkffvLutuWrpnw4+dE/Pfv78auDoounJVaPiK/6QGV/O7n5hYSWf5ysvH2L9o5tht6LYh999NFhw4aVlJRwHIeiqCAI1/HBoxQh5dySUmGexQgWJTiU4P23XPutm6cxHiMZO+Nz0i4f5+JIO9Be3GlmKY+P97kx93W87y9/yf9SbZ6SOsLypEBwAgqUywvg9feIlbhd8KM8679tz2nxl+2v8QziRzavAlhf2vb8WXWfyzTPIVrWb7Npr813D80PSK8cJK++Pb3ulpR6RG3uZbAima2IsRnRNyIZ9QPTaxC9DcloQ1S2/mpfb5UPkTkllNeyiIbtl8bdFSc8E9d13vxdyfD7WPz2GN8dCXi/NKFXuoio/M1lJTc8PkDRLN1NF/zXBFDpjCKHRVQcohR7KOmeCrSvoqWn0t4NNJ/X0k7ztyf73yubQbS2f582hDVIGdQCHfDN/w/Q/HWbUv4nXxig+V/+UxbYQ2AE/h+OQNe1+YyoxM6l889tNXR22xXNfzjty8kzvpg6dfacCePnfjp1xqSpb46agfztrV4vTv3D+HWPLDwwbPO5UVtPvL/pxKRDKUvjizYo6veoaledUjz3yeyPp87df/DoshVf3fGPN/71ZdiY5Jp3lNZxGejbe5SPjN8wYuT8VSu2jBw79f6nnxswZ9+I2Mr3I0tHRFWOjKkbEV07Mr71X4eLf79GdvtaZe/lsj4vjkTuf+FYmhqARD0tgmR2QlGC9pDgJYDAOQK/Hu/Nb+Vr9dul+R8h6//GQ+3QL7Z7dr6t5ksNaNvF6wHmVlAPXipHNF7JN2/geimIu5Jdt6e6b5F7kQwS0XTHxNAuE+vzvIjeiqQ7B6Y5eqU2DjSYkZwyJKsOMVQhydhtF+HZaNchF0iGJJ8bcPSIhUUyANGLSB7coqd+L6fujsL6pFf2zPZJ7WwzcESPIxkeRGMboDAPSHcNSHf1Tqe7gdS7/EPU6K1pXkTfLqKfTOwvF3slM4NkDVMaGBkA4IHafIDm/8eYPkDzv5UfzMBxBkbgphqBm4PmR05fPil06ZQpM2dPmDA/SAq1eerNsciDw3u/HnrnuLUPLzjwzpbzn+w898HXp4dtOD1mb/ysE9rPTyiXhic+O2rGR1Pm7Np7eM78JX986KV/Ldwx4VLxkLiqiQrb6HD9vyau/2TU/HWrt48aF/THh5/oF7pzZHTZiOiyEVEVwy9UDj1T+vb52gd3Gm9ZljRoTXq/VYq7PpjZ8/lRweu3t9mbaNIJtJMkfBhBeQnBRwgUxkhtoP53lwDNd3EK8OM0L35H82kAwUXE3y9VSDRvYP00j9+Z7Lot1T3ghtI8hhg9vdW+e1Ltf0ttejLD/GBG0e2KotuUxX0yqAEyeDJByptnBBEIL9D4wTYO0QqIgUH06MCk+nuT2p6Tk0+qau+WmwckW/pr6R56FlF5EbWrr7Ktj8LVR+HqqaRuNM3riH4yob9c6J3CDJQ3jK3GEwGAuGaDVGAW7M03C/Z/DMd/4Z8ToPn/3Z/YwF8WGIH/4gjcHDT/ceiKSaGfT54SOmfSxPnBIaFTgv/wxGDkX6MHvjP/d6PXPDB37+BN5z7ceua9r88MXXfy3Y1nPtkWOXHz6XEr9//5uffenzBj/+ETcxZ+8dcHn3syZM2MxOIRcWVjL1WOP6x6ZsKaj0fMWrdq29iJIX948LHbZu3+JLbso6iSEZHlwy9WDTtX/sqJsns2qfstjR+wMm3AV+pHpq//85glD7zzsSFXL/A4sG6K8OEEiRIcRvAMRlHfTXH9L34kv9quAzTfNc3/cAsJ8YV2nRdgtNF1/6VKRItKgTaZfC8lfkeK69a0dpqnblBtvoBCjF4k0fz3S81jy4XtIqwh4LUy+4OKQkTeihjgYZV9Ow44ADAYCNReG98nE6QzELXlQXn1R2XUchds8MGIKvhbmvO2dLKHmkfkKKLy9VbZe6jcPVRuRNMdnaF+Vm3ed7k276f5vjK+n4wflN70XqH9Ikhtw651CdB8gObzblBy/PVhfYDmf7VfwMAbB0bgtzwCNwnNhyydOH3h5Ckhs6dMmTE1eMzHE/o/8GrPl4MHfbC0/0cr7p625YU1p4dsufjRN0lTjyrGH0gesS5i2tZT78xcfddTgz+cPGfH/ogZC5a//O/nBz764r0jQh6ds+mtNcfGr4949ZMFY0cEffXlxgnjQ+6574m/zt4+JaZw7IX8j6PLRsQ1fHip4ZnjJXduUPZbntJneWq/1cp/LD5279xD/Z7/MCI6GqNQkfEwuIfCMYKgaIwQUB9zXQn0v5XvR4DmO0fDn6oDt5fsBYBtKLyubL0nvtZP7SRi4Hsq0dvSnLfI3P3SfVJPpW5pqNQlBGfgiI7sk2Z/I6VlfxtUAbh5SPIwe/Mb79WUI3ltDxhqNzDQDOAGDgXY7uDvTHfeGV/6pKZsWXFVPMkWANQDHHXCkLi2ByIdt8ihl4xHlDyiQZEMryQdemNq84PS0G9pHu8n43unsv0VwgBly8uZTeG8P2S088/sB88GaD5A8wGa75Z8mxuRafNb+e0MHGdgBH79EbhJaH7awonBc6cGhc4OCpoycepbQ0b0/sfg3oPnDxixAvlweb+xqx9YHPbi13FjjuuDjqkGrz356PjP7nzu/T89/96TQ8ZOWbBm/Z6IOV9u/mrenKWrvw5auvGlSYvuHzz+3ueG/e2xFz8Y+tHqLzZOmTjn/geeu3fil6Hn9KFRuZPiKz9IaBweW/vAvqx+q2V9V8l7Lk/rs1Lx1xWJf/g8usfrQUu27q5uaQaBYHEXg3tpHONQFHwuFvP9+h/Zf+0IAjT/A/a74gEeeNEvKdvyW9eN4I9UYPxl4nkueCSt8c7Eph4aGknHER3fQ+UdkO7ol+72J1Ry/s5K/30OTsN7a4T+Gu+z6sYdDonmpWx2Bki78FWVfZCx4uG0zB0kNAHYAJwA+23cMxfLxqQV72loq0JtGIgsSKx/0AovR1beF2vvqwZEDogaEA3tz6n0IdruyJLv8rREjQ5MwyXvvt6H6LD+MrZ3KjVADX01lsdVNdtpYK7ZNg8Bmg/QfIDmAzT/X/sVDew4MAK/1gjcHDQ/KmjBxOC5QUGhc6ZNmzR+ysuvv9v30SF9hywcMGI58v6XPUct+9OM3U+vixp9NGPkjth/BG/o+9xHf3tzzJtTFn+5++SBcymn49S7jkReOhpuLKw6r8ybu/PUW9OXP/n2mMefH/rp+Olb1u2aMG7m3X947K6P5gefzph9qXBqUs3wS3WDL5T/eau6x7LEPqtkvfw0f+/KpLs/i+ozOCR42eqCynIAKkDzV/Ds/+87XdL8LBs8lFx3Z2JTT4nmMUQv/Do0r2T7Zog9U9r+EVf8dasg0TzhL2PTcMBN/aXc8mh69lU0/3xM1fxCewKAByQHDs6JjQA76oXnz5U+mOCWaD6VvyloPoW6RSPR/KOKii1kgOavdwpstZW/ifLmr8+R8r/6qoDT5teCocD7BkbgNz0CXdF8TLIuJlkfk6yPStRGJmijk3QX4zXtj7TfjU3OjEkyxiQbY5KM0YmZkfF66e6V6jKhcnzowsnTZ0+eEjQ7ZMbYCUH3PfZ8v39/1PeD5b1Hrurxydqeo1cio9fdteDkkP2al5eFI699+mzQl4eTMy9oi5Nza2R59crCFk2JpSwnK99UZSxs0Jha0vPrEzR5J2MSw46e2LotbNyEhQ89+vYf3hz77+AVg1cdev7rqOcj8h/erbz9a2WfdSpkpQxZLuu1PP3O1dpe8+NuHb3mPx+MU+cVCALJ4S4W9zA46q/NuwO1+f/PPM8CIwArAAsiB4IIgsjRLAeAAaAALlF8txVuT6z7vcLVQ04hKlpqjKp291bZeyndPZWolMWuuhGTRwfE+QYmYD003p6KshcLGrfjjJ0VJIs5CW4OjjdTi5Jzzzg4L4iY9BjEmJlNBkeWT3CKAKwXBIZjxYOoe3B27R9TKvupPIgOEK0o3WqoXkq0lxLtreiGprY/x6tzSxqF6FFJOnSAjO4jo/upeERlfkBe+aUHHNw1fx8DtflAbT5Qmw/U5n/T1BY4+MAI/NgIdEXzUYkZ0UkZMcm6S6mGS6mZl1IzY1MMcWnG2BTDxXjNxXhNbHJmXGp2bHJWVIIhKkEflWC4CuVjkoxd0/z0WVNCZkwNCpo5Y8aIMVN+//f/9H1uQu+P1vYctQ4ZvR4ZvQoZs7n//AvPbJU/NX838sqn7y3efCRRG5GccSbVEKkuSTFZVOVuY0ml3tSoK2gxFjuyKm25tRZtWfmJ5KQ1u47PWbY3ZOE3I2Yte3DYJOT+55FnxvxudeSfNyUM3KbpuSkDWaNEVip7r1Dcuiaz5+eKQeM2/f319+I1GQAMd9lpg9MYyaIE9TO66/7YKP82Hgs4bTpnQwZIASiJi0VW6kLKizzNsf56thegiWX/bYHeaS0D1WivNKa3kumlZBCNE9HaEI1b6hulAKmz0s+wl/zCbW6Nd9yW4JR2omntr6q5r6BlL0rZAewgVeg5LxTWkXlekP4KkRNZyuSEChxQyTwkUCA5cNI88GxZXS9lBaJoRLJpJBekiB4d2UP1f+ydB1hUV/r/r10TTd/sP7vJZrNZN26STe8mMcXE3iuCKKIgiNhQQcCuiBW72LuC0vsMQ+8WpPcidXq5vc75Z+Yk8/Azu1ETQ0DPec7Dc+eWc9/zneE5n/ve97zH0FeO95XjfWTcbzTyHi8fkMRZ1n/NIrBM44Akuo+M7pMqYGntL8mrXVWgnvvlb+y/HEU0j2ge0Tyi+e4xJCMrkQL3ocDdaD5GXhCRkH05MvXcFdmJC7GHToaduBBzKSLFivVZ1lT0maHRWSFRmSFRlsTz0El/B9Dfleanz50/23nBXCcnV5eFIyfN6vfC630/md1r8uaekzdhUzdhU3wxu539l0UMWR/zsuN67IPp0333nIxLPxohP3gpNuhi0u6QjKDQzCPRiotJt6Iz65JyWxPya2W3qmWlZSfkSWsPXdp4MCr48s39l+KW7Tnz+lQ3bKh9r6UnBvleHrAjo9e2nB4bM7C1qX18FY/5ZfdZnf6k3bZn3h56PjoWAI4ndSxpoi2Lu3IMwdIop81/AaRHZRcLKBHQIqCBmYM0L3EiZ5lLaglQKTaZXq4HPeVt/dOoPgl8PwXfW8ZgaRosQ4ml6bBUooe8k2j+SZnuSZkOS6GwDLJniqqPvHH09fqrBjbdOh3WzAM9C5pEYBZZYKYFSt/EgzZLaL2ZA1I9ABf1olOu7ilFBSZrtDyN5AmWmkli6YbeCnXvZFPvZFPPZPEecfw3ntb//9A81UdG907lsQzVC7Lq6XV0qSUvz/0VRPOI5hHNI5q/D0ZCpyIFuocCd6P5kKi0q7GZkYm5F8MVvpv2TZ7lNt/Dd/W63XsOXzx9OT4sLisiIS8sLjc8Pi88Pi8sNjc0+tdE2syY6+xopXkXV7cRk+37/vXNPp/M6Tlla4+pW7AZW7Hpa7EZOzH3Ky95h70wcw324QyX7cfTyhoSr1VEpN84m3h9X3j+rpCsLWHJgefTdp/PPHb15tn4ayFZNy/n5wclxPocCV29N3xzcEbgwTPrjlz+ar439ulMzPPoMxvDB+zK6r0jv9fWnF4bMvv6pfT3ze7rk/WU/faBr3908mo4pHmGxCmLU16kSBGtHnV/6PRwnc1YFiv6PzQPeDMHgM4K9Flt7U9U8JhC1TeD6ZcgPJ4q9kmkLTSfqcTSLTTfUwZ6JHeGb76vrLW/vB1LxDG5uUeGgKUQT8fcmJ17c53KWM6bzRJgzJbHDyDQwIwDVqu1dsEIzFozFU5Kswva/xRa0zdVg2WxWLaAZZuxTApL1/dIU/ZXtPZSmHopTJaFYH//lwxYKt4/ibf55h9LovrIqN4pPJat+ZOsekSRJt/wv/IM/c9fHqJ5RPOI5hHNdw88Q1YiBe5DgbvR/OXIVEs4TXz2lZiMbUEn57n72Dsvt3dePmvesnnu3svXBG7ZeXz/0bBj5+Iuhadfjcm58qto3m6es6Oz89y5jvNd3UZOmzPglfd7fjwHm7wVmxaA2QVidhsxuyDMI+rFNVHPT/PG3pu2YFtwVkWD/Hp5XE5RVH5daF7rpezbO3Pr9ybV7Q4v3XPx5q5LKduuxK8NCVl69tTyY+Feh+JXBiUH7DzksyN4qP1i7DO7nitOPbclqt/unN67rvfelt9rU3Zfv9R+a7L7eGc+ZR/45BsfnwqLAIDlSD1NEgTFGa3LweIUfx/adrdTUaTN/2RA6wEGEKLFPU8BMwtE0eKe5wELgMaaGSapobFHCY2lantn8gPixSdSxL7xJJamxrLasQwdlkb26iyaxxS1PbJb+sn5fpFgQALAokEvhfKZmKR/5lzb3NpYIYlKMzCaARAIi+FmjQaAdgBqRCq+oWjGrbqX5A1Ylrl3IuiRAjAFwJJBL4VpQIpqYHLDwOR6LM1kqZmdRvMClklYq+GxJLKPjOqVwmE52qeTqofmt6Rp7zupDaL5H0muRq2r1TXUtoHaZlB3GzQ3A70ms6L0am6iM2g5BPRhoPoiqKlEtbMVaLwG6m+C2iJQVQyq8i21WgFUhdWyq9lXQvW1purfMPX5gV6LMlR2txEe2fuQK2BkGIJmSJKkWEYSeLBt67533xoWGZYecTU9NiovNDbnSpylhkRnnb2acvJS0qkQ2a5Dl5f77rJfsGr8TPcJdk4znOY6ui1c5ucXeODgsQuXz4fFXI2TRySmRiSmRyZlXIqU3TXSZtq8TTPnrpg7b6HHwlnjJ4154dV/9nl3JjbxYK/5IT1WJGFrYjC/TGx7/bMbUv4yeTn2wdSlm/blXK/OKahOyyzLyiq5kVt0PacoOatMllGsyC5NziqOVeSHRiuOX4jYfuB4wN7DgfuOBAQd2rL/6JatB6aOmv3UG99jKw/033gGO1jQO6Bk0NZbz2251iswvq9fXi/v7CfsAv70zidX4qMBMElkC0epaNpgYmiTRSn6If45IJr/ZZoHoi0vJQ/MNBBZwDKiNTV7HQAHa5RYtgFLUfeUq55K0j4p1z6RpO6VosXS9ViqAUsx9ZMTvRS/f3rKVEtQex8Z18MSo09jqSSWRmBy/TPJpmcV+L9klLMGZAPLQwggTIAkAGEiAYgHYJEJ/C1H219ODUygn4zujNm69+Ld75ck/jQLVv24TNsnWY8l67Hc9gGptX/PqDmvuu/AeUTz/5PmSVN+bVVUbpIzuL0f4FFAGQtab6Pa2QqoSkF7BWirBk01oKnYUlvzgKa4RhaWHxGON1IPlMh/i5Me0fxDDAOoa91RgTtpfuvmoH+9+kFYSHJcdG5yYuG5qykXwtNCY7Mjkgqi5Nej5TdCY7PPhCbvOx6+aedJn40HPFatdXB1meroOMneYY6b+zLftZt27ttx8OihUxfPh8VHJKZfjpLfM827eiycNXHK2Jdee63XW9OwiQf6ukcM8E3rtVHeY0MetrPxuY2pVpqfsnh9UN6N2oycirTMsrzc8vzMG5mKXHlmaVJ6kSK7NCWnLCnjZkxy7oXwxD1HTm/be2Sblea3HTq+ecv+KSMhzR98bNO5O2i+l082tjJjoF3Aq19+H62QIZq/C90+aod/TvM0LVqnjTYCcKRejeUYO9L8oC5D8z1TjM8m48/ITX+NVH9bAC7qWQvN0yQwGgBJEBI4CsD0Ov75lNY+ifjjCfQTXZXm+yoMWIoRy1c9llb398xaRPO/nsZq1Ppa3W2Lb74F1DWB2y3AiJdU1STHhruWKPwas4Ka04Lr8t1Q7WQFqm441lxzqitY0Jzj2pbj2Jbj2HJtWl3RnOT4CWlp89XGUETz3ZGzkM1Igd9fARPDkFbfPAl989sD9782+IOIqwqF7EZMRNbVuOwrsdmhMZkh0RkhUZYaFp8TnpAbnpB7NTb7clT6iUuRQUdPbA06sGr95oXLVzu5L5/isGDGXHeXJWt2HjhzNc6SD+euND9jnq+dk6ejk/NC15lTZk567f33e7w+ARu3e9DyuKe2FvTZlddrRwkW1PLcptQXJi/D3p+80HdHZn5FalZpRk5Fbm55ftbN/KybCqtvPjm7NDW3PDWvNC2vJDIpc//x8wFBhwL3HQncH7wj+OT6Dbsmf2/3tMU3f+iJrZewgzd6BlQ+FlD69JZb2Hb5k/5ZfVbIHpvsP9xhXtbNAmA2imQbS2ko2mhiaJxmCAr55h81hO/QXxFIloWjgDVJJWPxzVOUBEALAM0ABNe0Y9kklmLA5PoBckN/uaFvkq5nigFLM2Kpxh4ppr5yS27He3FI/8Zz+srYvjK2p4LB0ijLqrTpBJZmGqgwDUwxPROteilaa5fZFqknmyVgBJYqMzJjCtteybiNyZowBdErmekdT/1GGx7U5da4ebh6lOYxmaFPCmFZTzdfPyDt9svp9eeUfIev5542kW/e5ps31mpba9tBbas12KYVNGtrq5qKk1L2pCXvl0Xtl4UFJ0X7odrJCsTFrUqI8UmK8leEb0gL90kL90mJWZKW6p8g35Rz83SdugjR/O9PRegOSIHuqEBHmhcFAezdc+Slvw5Z5bXxxLHQ6Mj02OSC2OSC6KTc8HhLyvmQqNSr1r+XI1MuR6ZciU67EpsakZgWq8iJTMo8eSkqcO9JL78dS1ZvdV++aeuu0yGRmfeSodJ+3lIHJ9fZTo7zF86aPmfmh99+iw0ZgX23btDyyMe35GC7r2F7KrH9bc9sSnlhynLsg8nO3gHyzKK0nPKUrLLQq7LYKFl+dmF6flVaXqUiu1SRXZKSW5KWXxqRmBEUfGbLnoM7Dhzdc+RkwMHDq302Tvxu+nP/GYl5HX46IBQ7cAsLqO0fUP3E1nJsR8Z/duQ9vzL6sRHubn7rqxprgKDnKRVD6UmawGmGpCmyO37D92wzirS5Cw+KQASWKgDBGjrPA4YBZktCmBYAjpbW9cnke6RQlnWjFBSmILFkHEshsRSihyVHu6lPsrGnwvSgMPcX2ukro/vK6J6Kn1A+g8AyTJbHjBTDoBT82WT85aTWL/NUQQSQA3AWAPtb7c8l1/eXN2PpBixb6JHJY8nkL7TfmYcGJDFYltFSM7X9ZURvBYMls1iO8TFF88spt8+33HfCeUTzP7nzVXiNRlnTDmpaQU2LhenrVE2tJnW9MlelK2puvqVur1U2F6PayQq0tBW2thS1N5doGst0jUW6xiJty/V21a365pImdV2tSo1o/p5HNHQiUuCRUgC3+OZpkiRJlhEEwZyTfWPO7IVTJs2eNmXugnnLvNduX7d1377gixfDkqISs+IVBZEJmRHxGWGxaVdj08Ji0sLi0sLj08Pj08PiM8Li4VJTOSFRGUfPxh0/lxgalXMpPOuuvvnZ8xbNnrfA3mn2XFd7u/mOX0+Y2POfX2Ofeg5YdL7f+hRsRz62txrb3/rURsUL01ZgH0118t4aI8+XZxYnpNzcFXRyZ+C+i+euJmeVpedXpeaWy7OKk7OLUnKLw+LTgo6eDQg6vPPgsd1HTqzZHuju4TVh+JQ/vz0aW3bwmS0h2P5bPbbWDdha88SWCmxH1geBqS94nn/86zn7zpwzkAaRVnOUhqaMBE3hNENZYP5h5nlE83elecGC8pak7dY0KEQYAAAgAElEQVQklTxgOSABJQAqAC7VNg1K5/skW2k+lcZSaAsTp9A9FWTPZKJXsqmXwtAjxdgJKNxXRvaVkT0V1oj5dALLsCy9hKXjmFzbO1k/INkwMK7t6aiGEcX4Ci2wKzENiSl+XN7aW6HFMmgsS+iRzvXorMWh7qrGgCQayzJYaqaun4zslcxicg7LNg1KaX0tvSVCiWbB/uo5kSqiRqOpUYLqNlDdCmraQEVbeytJ3TbWt5iaalrrWnXa5tsA1U5WoLEF3G4CTY2grR4orbW9Wai/LVQ1crfVoKIJIJp/pAANdRYpcM8KEAxD0TRlo3maEkwGtiC/ZPu2/SO+m/TWB19+Omz0jNmuXms2bwrcv2138MWwhLCYlDh5dpw8OzI+7UpMSmhMamh0amh0mjX9fFZIZGZEfH54XMHVmILI+JuhkXl3pfk581wcnefNcnKY7Trb3tV51Ay7Xq98hr3r1N/1eL/1cizoJnaoHtvX+sSG5Beme2GfTHfyCbgclRoly5OlFx84fGHLpp2HDp6IkV9Pza1Iz69MySlNzS1NLyiLkmUdPHVp+4GjOw4e23Hw6JL1a+fOd5/w7eS/vjsGW3rg2U2XsX23em2pf2xr7RNbKrEd2W+vCX1+3t6nh9nFpKYKgOMIJUvpKQonaIagWatrHtH8XYj3YT4sWVBeAICzOOh5IAkWmhct2R4NAMhUmudS+cfkdA8ZiaUxWCpr8dCncL2T6d7JZO9kvGdKZ9G8nOgrJ3oqCMv813TcQvNpBiyXwdJNPdJMfdIJTGbqkcINjG35c3jZS7E1z0ZX90rW97C8SWCxFKaHguqZ3BkRQXdFeSwVfyyJ+pHms/T9ZHSvZB5TiFgu9Uy6+r0cdbJlQaz7K8g3/6NvvkrFVmnIKpVUpTRXt4PqdlCl4qpUXKUWL9cSZVqqTMvWqFDtbAUqLV8KV60EtW2grt1Sa1VElcZUoWbL1KBEiWj+ntkGnYgUeHQVYCiKYRmB58wmI1VX25SXe+Pc5Yg9B45OmeH48j/feOv9z6bbz/PyXnfs1MWklKyYxNTwGFlolOxSZPKVmLTw+Kzw+OywuJxTl2RhsbmRCdcvR2Rfjc6/FJ4dHl8QHpcfFpt3NSb7SkzmFeviskfOhM1fvHr6HLdZzh6Oc2Y7ODnOmu80w2XBLBc3BxePv735FfbOtKfn7vrz5kRs301sdzm25/agjckv2ntjn8+auybgbLj8YmRqpKzgxLnIjZt2HD9+XpZenJZXmZZXocgpTckpTs0rCYtP23v07I6DxwKCDvlu2T5tkauz2+IpI6e9+NbIAcsOvrjpUo+9hU9sqXlyQ+kz625im2Xvum57ZqT7l7M9svKyzGZOINU0hRMUbaIFguI4AmfIh3kxWOSbvwsYmgFvoXjAWILnRSBJgLeE0FMAEAAUEvj3xeDZ8NYB8WqsQMQyOUuy9hSxfxLXV0b3SSawdKMlt+Pvn6a9t8LYW2HsmWK9XZrpR6C3xNsQ1hh6AkvlsFSAKcT+cn1/uX6AzNBHJvSWSb1koJ+MH5BEDkwydIKd93KLATLCkiko2+Ke75/E9EsWHs8GWKbhhdgap0ZQbrzLN/bzw4jmf6T5ShVfoeEqLTQvVbdbgL5KKVYpRQs1arhSDV+iFarVJKqdrECF1lChIStVfNVP4F6lMVRoteVavEzDlqoQzT+6gIZ6jhS4ZwVoiqJJkqIplmV5nhN5TtIYiNut6txrt0LCo7ds3+PuuWL0+Klffzf6+9ETF3os27n34JnLkZci5RfDk67EpEYkWFaHvRqbHZGQFxqVdSkiMyL+2pXovNCo7CvR2Veic65aFovNvhqXGRaX2ZHmnZ3mOs6bN2v+gmkL3GY4u9vPW/TlN1OwP3/Ub8zyP/uFYvuuYQeqsX3Nj2+Q/XnGCuyTaQ6rNkcm55++knQhMm33wTO+/pvPXwhLTLuVklOemlOenFWcnHULxs3vPHTSP2DXUp91jgsXT3SbP9d10aSRU1/6z/cDl+x7ecP5PrvyBvndfNInb8CSpEG7U16b4tn3vXGrdh0xmbQCYyR1LRRF4hRrpEWC4njcxBCI5n8OSI/MHjPgLI55y2KwEpDMkhkIZsCZWQvfg1qemVggvhLZ9ExcC5ZlsvjFs1hMIT6WyPdLYvrISUvweqfQfM8Ug/U9gAFL7QD06RDlSUvOyhTOkkheIfRWGHorDH3lxr5JYr9EqV8CeCyRezyRGJikuxfU7oRz+ttoPtPwWCLdJ47sJ+f7pLS/Gl+5tFnUUPf920M0/yPNV6ikMo25Qi1VqqRqpbnG6p6vbgcVKlCqAcUaUKQFVRoTqp2sQLleXa41lmvoCjWoUPOWqtOW65XlOl25Di9TI5q/Z55BJyIFHm0FeN6yQJLJZDIajThOUJxIMDwrSCIABM1W191OSc8OPn5q2Upvu9lzvx4+4pNh3020m7d41bqDJy9HJGYmpt24EJYcGp0eFpdzJSY7NCorJDIrIv5auCX2Jv9/+ebnzXGc7eQ8c/7CqS5L7OYvcZznOXOy05P/Gtbv63l/97uIHbiOBZVhB1of2yD/0/QV2KfTHX22hslzj16KO3E5YZnPFqf5i46fupiYVpSaW5GaW56cVZKcXZSaW3wpUrZm0w6XJSvtFyyaMNNxrKuTg4vbxJFT//bm8Cc8dv3d/2TfbemDVmQ8vVzxN9/0vutCXxw25aVhU2IzC4BAMCY14EwkxZgo3kCbSYoTcROLaP6+8emhuoC1ZmqnrHNhJckadsNKMPxGA6TVjWBosur/RdVgOTosh8FyLTQ/MEHon8T2kdM/Bq///r75Hqn6Hql6zFIt6XSs6z0RluQ2lkpZktAreCwZYCkCPKF3Mt4/0fxYvHlgHBiUwA5KNA1K0nQCqd/LLfrJyR9985mGgYnUwCRmkJx7XNH8eV7bXmtWofv9eSGa/5Hmy1VSsQZYgZ6vVjN17UJdK6hrtYTRl6tAqRoUa60h9W3ob6cqUKEWKlRShRKUt4HydkutUIFKNVepEi3e+lZE8482oKHeIwXuWQGCxCmatATTMyRF4Sb4mWZwkjIRJEHRnCCyvKBUa9Izs44eP+G3abPbilWzXd2/mzB1+PgpTu7Ltu8/cfDkpZAoRVhcxpWY9DjFtZDIbOievxqTfTU26+e++bn2c2bNcZ3mvHTygjX281fPd1qxbOb8b7+dMmjwl887ru+zK63nnlvY/pbHNyv+36xV2OczZ6/Zej429VxU6onQJOfF3mMmTl+7MfBKdGZUUn5UUl5EQnZEQmZUUtbBk5cXeK6a5jh/lrPbLGe3EQudZ7kumjBq6stDhj3pvPHlFfseXxv9Z4+Yl5dGfbEts+8s79c+G75k0y6lVmOmtQKhESk9TvFGStTTgCJ5M27gCPyehex+J6JIm7uiIaR50orxkmgGvBlw1qgbIJJAiOeAc4H6n6F5WEY9lmvCMnW95PyTceKARL63nLXkr8wg7gVhf+s56VosXYulabFUfQ+Ln97YU0H0VFDWyvRQsL3kXB8Zbwmmz2q31HRdX5nQP1F6LAH0l1F9kvW9UpW/1YYH9NDSR05ZsvjnGLFMw5MJ+FPxxkGRqv+XULawnki3LICFZsH+2lmwpSqpUANKLe55rlpNNrSzjS2gsQXUtYBKJShXSaUasVbJotrJClTrlFUafZWaqlSBCrVYoRYrtbpqXVuNRlWr1tYrGTQLtvsNrchipEBnKHBnAnWaJikaxwm93qBWa9pIimI4lhcFhmMZjhUlSalWmwicE3hBkswAkBxX1tgQm5KycecuJ4/F0+c6j51u/+24yeNnzlm2ZtPuw2cuR8lj5YXRSTciE65djc0JiUq3eu7/T6SNq9NCR+cl0+avmjB/3cw5q51mLfWzc545aupfXvsM+3Q65nVuwL5i7EDLoK2pz89ahX00ecJin8OXY06EJQVfigvYe2KV78Zd+46cvpR4MTzlYrji3FXZuauJF8OTdh48Nddt2VTH+bPmu89ydhvp4Wrv7jlh9LSXBg8d5OD9onvAAK9zf3O78vrS0H84H8ImuXqs9isorxY4EkgmxtguEDoTJRooSWeheQGYDDyi+bsC78N8gsRYg2oIa/S8KFjj5jkJmHkgcRSgKwDYr+K/SynF0suxLDWWpe4j556OFR9L4HvLOSyHxjI6JfNjhhrLUGPp2h6p+p4pht4KY185AdNW9pWxfWRcPxkxQK7HMlqwvHpLzW7HFExPOd9HJmGpBJahxbLbugjN90qmsRyTpWYanok3PherfTFR/3mh8gAPSgEAev39/tyQb/6nSBulWKqSKlRSpYqvVrG17Xxdm1TXJtW0WSLpK5VihUqsUfKodrIC1Wq8SkVZ5igrpUqVaHHJW2YvmKpVeI2KrFVyiOY7g4vQPZAC3V8BkiQIEictHnpLuhuSogiSNOG4CccJS0w9zXIczdAESRIkYTlK0yTHMqLIiFKzSpWWnbtz735v//VzF7jZOc6bPN1+3OQZixb7bQ08fPTE1bDIlNjErJiEzKjYtOOnQxd6rLJzcHGct8jDzcPZxcNurtvEWQtHjpnxzbBRQ19/+51/v/X6u0Of+cc7zw6d8uTKc9jeiie2pzwxbQX27sRhjp7+O4M3HDi7+eiVbSGKrRFZexJvBMWkHoxLPxyXfjgmJThSdjJKvuPYBefFq2bMXuA4z33W7AXjFy6asnDpt5Mdn3jr28ftvF5atPVZz/1vex5/Y872vu/MGOrse724FGd5AjfyHEEatTxHExSLU5yJ4inScgDNgr1feHq4zjf/lNPGktRGEiUgmi3VLAJJ4ABXC0CqGWxrNn1xveYFednT8YVPxtc8GVf/eEJdP1lt79Tq/rKGgXEtv3tNaByY0Dgw/vaguKZBcU1PxDY/GdPyZEybtbY/GdP+VEzL0zFNAxPqBsqqLTWxfmBs26AY5ZMxKottCbctezrBznu5RUL9E0mVgxIrn48rfTO85BtZ3cJyer8B5FpX7BIp+n5/YIjmf6T5LgOFyJ5uqgBXrWKqVWy1irNWoVopVSvFOg04G5F3JbGonQQcx0EiYlm2+6MR6gFS4CFXgLAWmqY5jmMYhiAIOL42NTXFxMRs2LDByclp1sx5Y8dMHT1ysuNsl3X+AQf2Hbt0MeLi+fDVq9aNHzf9q2Ej33vvvX//+9+vvvrqkCFDvvjii4kTJzo4OHh5ee3YsWPNmjVjx459eqw7tjX96aC0/lO9sP+M/8/YuUvW7lq65dDiwON2e8MmnEibejbb7WLEyrD4zYlpQal5wYqck7LM3efDXJausZs133mex1wHFzt3rymLfT60c8E+Hv3YzGV/WbjhtWW73nVe//h/Rr3y/vjQi2kP+Vd1t+6hSJv7RcM7zm8CoBqAAgCO0aJbOzmnTj1RRX+v5741sF8bma9N9Cg1P6kFoHrvCoxXmae2MFOamQWN+Np63REVozCDBgDU1lVsOfMd38DdPyKa76bsiMzuagogmr/biIqOIwW6lQIEQZisBcdxlmVFUWRZlrMWgiDa29vr6uounLu60HXJd8PHfvrJVyNHTFgw32NbwJ4dgfvmObkN+/L7L7/47tVXXx08ePB//vOfL7/8cvHixUeOHElPT6+trVWpVC0tLQcOHHjx81HY9CWDfYOfcdqCfTq719fun/qc/sr/zPfrz47ZeGJq4KmZu875b7q8OTBs9/64Y6fSzl3IvBSSfehwlMeijbNmLp47Z/ksO48xLovHeKz69wR77N3hf5nm+arj6k88t/3ly2mP//2D+cs3tzRrupXwD95YRPN3h8FfPkNnzTxvsmSsJIzAoAMqI1CaLH81BktUiNoE2klU70OBIhGUcKCYBTUsUPEAt2QEtc5B5iRAcoCxfLqvgmi+q0EhsqebKoBo/sGPwahFpMAfqABtLaQlQIcgScviSoQ18Ys1ySUP37ARONdQ31pSVJEQnxK055C729LxY6d+9ulXQ157+/Oh3yx0XXLw4MHIyMiCgoLi4uL6+nqdTidYC8/zkiQ1NTV57wgaPHra0+Oc/uEZ9PKi3X0dAnt+taTft0uenuD9hvP6Md67pm44NGNV8NwNZxcEXHTZdtFlx/nFB0IXBp0f5bXxM9cVX3v6fO6+YqT7ktGeq/89YdaA979/fcaSt+29XvzG/ul/f75g9dayRi3Li3+gjF3h1ojm74sL/8vJOAdwHhA8oCUzZwmn53nAs4CngUABiTALrMBJLKr3roCeBUZrJTgzK0g8L4g8Z9GUoQBNWGS9z4JovpuyIzK7qymAaL4rjNrIBqTAA1MAtxaKohhroSjKYDAYjUaCIKCr3mw2EzjHcwCYLdVkpGtrmjIz8hMTFBnpeaUlVU23lRDf4bgsCALLsgRB4DhuMBjUajVJknqTYe+R/X/9YgQ20u2vzpv/5Bs+YGVYzwVHsCkb+30z76kPRw1897tnxi7+aHnQ2O2Xxu8JGbHn3Pd7z34ddHLI2i0veK3+q7fPc8uXf+3u+clc17+PnIy9/O6z7416aeiUP735jYfv9rJGNW0Gxod6Zah7+b4Rzd8nGf7sdI4CHAM41pLrxhZiTwKAW+NCdABQHJAIVO9DAQIA0lopM2AEwLCAoy0JhEQCSCYgolmwvzanDYqbRwr8NgUQzd/LqIrOQQp0GwXIDgUyPcuyMIDeZDLhOG7BekakKZ4kWJJgOVaSRDNDCzTNi4KZoXmOFQVBgJdAvz5FUTiOwz0kSbIsK9AE1dxwNSzqo/lez341qc8kz79tDHl53eV/rA15zTP4xSn+z41Y9pdvlj0/zONPn87/y3eeb85a+/3Kw2P9jr2/YP2LE12fGTF7wGcTH//o475D3nzivc96PvvqK//6bOhXU48evtzeomQYhuVJI6PqNqL/PoYimv8Znt/fDiXg2gHXBvhWILQBvg3wOsBTgOUAYwY0ABRt2QNQvXcFLNRuJi0VEAIgWEDSgDQB0ghIA6A0FtK/v4J8813NxYvs6aYKIJr/fcZh1CpSoEsrwFDUL9e7WM/iPMABRwo3KksPnj7+zvgRPd//8KlRM9732vn1rpQ316X91TPir3PW/2naqoEj3fp9NffxofbPDXN84oMpvV8Z9tzrI179ZOq/Pp32yqjR/V9/C3vq+dff/zIo8HBKQo5k5EWc4EgDQ2sJTnkXIx72w4jm7w8Mf342a10qlrcGdlvfRFlOsawb+1O1rB1rPQf9vTcFSMCSgLNWgQQSCcwUAB3rz7+EX96DaL6bsiMyu6spgGj+YScC1D+kwH9RgKaoX67/5ZqOu3CcJ3Ag8GZaINvVLWkFct+Du4c5Lxz08fc9PnfpN2nXYzMPvOC54VWvgNdWbP27q+/fZnn+eZzTc8NnPD90wgsfjnr2za8GvvrR8x98NGymw6odQdFJGepWg8QCwcTyOMGSRobSkwyaBcvRNB0ZGXn06NFfRiJ09L8rQFpJk7byOoy0kQAwW4pkNotmsyQK1jh6Fv29RwU4s8CZRUuVJE40c4LZMhWBs1ariv/9i/jfexHNdzUoRPZ0UwUQzXdEFLSNFEAK3JMCBopvx4HeyAJaA3gD4JpZQZNRfGPjyQvf+p3+07wjA6bvxEaMx778DvvoC+yDodh7n2HvfIq9N3TQZ9++NnLKyIXLXTft8t29LyItS0WLAgCkidUoDRzBcATBkiaGMlK0/p5MeXhPQr75/w2B93bEZA2RJ4AlrAb6nkXLXBHJGkXPASBKLBBNqN6HAmYAJGsVrJIyVm0tcTdWqU339r10OAvRfDdlR2R2V1MA0fzDywKoZ0iB308BnjeJookiONxo8dITJpHAOYo2EVRBTcPByPh1R0/bOywbOcLho/dHvPvGlx+/+cUXbw8bM3TUwsmOu1aszbgUbSypE2nA0RJJcAaCMnIsIYoGljExDEExFMkyxKO+wAWi+Q7U92s2bcEjrIU5Rdo6VdMIgN4aK68FwAQYGhhQvXcFLAkpO8oKF+OFTE9byf4+vyhE810NCpE93VQBRPO/H++glpECXVYBkrKsKvsL9S6WE5QBp1U4ZSBxhiIYhmBYnOZpTuR4hjUojY1NqsrbjYbbDdqGuvba6uaayts1VfW3G5pUre06pZLQ62iK4HWkiHMCI9GCoBMYNUupeUbPciaaJ0mBxYW7GPGwH0Y0f59keOfpVuyUeGCJp+EtudAZzswykkRLZloElAhYUeBFBtV7VwCIkmStoihxgpkVzIxgpgRAWhOB4vedbh4gmu+m7IjM7moKIJp/2IkA9Q8p8F8UICjql+t/uabjLo7TAKlZEIw4BUykpdIUoE0cayQAUQe4IsCXSNY81DQtkjRnYmlCsMyfMwJSB0xaYFQDPaCAoGdIlUFtMrbxRLtAtomMhhMMtEiQZs4EOt7xEdxGNH8nnt/nZw4AHoiixZ9MWQNBcMu8TVEAgnXRI+hj5i0noXqvClj0tFTOkpZSwoFkBJIGABUASgDa7vMLAgDRPMpoiRR4MAogmn8EIQF1GSmAFOgGCiCav384RFd0MwWQb76ruXiRPd1UAUTz3WBQRyYiBZACj6ACiOa7GZkic+9fAUTz3ZQdkdldTQFE848gJKAuIwWQAt1AAUTz9w+H6IpupgCi+a4GhciebqoAovluMKgjE5ECSIFHUAFE892MTJG5968Aovluyo7I7K6mAKL5RxASUJeRAkiBbqAAovn7h0N0RTdTANF8V4NCZE83VQDRfDcY1JGJSAGkwCOoAKL5bkamHcw1m808b8nXKElSh91o804FEM13U3ZEZnc1BRDNP4KQgLqMFEAKdAMFEM3fiX7d4bMoiizLiqIIjbVtdAfb/wAbEc13NShE9nRTBRDNd4NBHZmIFEAKPIIKIJr/A+jyQdxSEAQI8QzDQA/9g2j14WwD0Xw3ZUdkdldTANH8IwgJqMtIAaRAN1AA0Xx3BFgYY6NUKqurqwVB4DiuO/ai02xGNN/VoBDZ000VQDTfDQZ1ZCJSACnwCCqAaL7TmPIB3shsNtfW1h44cGDevHkKhQJF2vyytojmuyk7IrO7mgKI5h9BSEBdRgogBbqBAojmfxkEu+ZRmqYjIyOnTp36l7/8xdPTs6GhoWva2UWsQjTf1aAQ2dNNFUA03w0GdWTiw6oAy7I8z1MUZTQaSZIURZHneaPRSFEUQRAkSUqS1F36zjAMQRA8z5MkSVEUAICiKIPBYDQaYfQwy7LdpS9dxE5E812EOO9qhiAIAAAYVKNWqxctWrR06VInJ6fp06crFAqGYWwtiKJotha4h2VZmqY7HuV5vqM7H7bJcZwkSTzPS5JkNpvh/xcAwGQywWsFQaBpGubPgSfb2uziG4jmuyk7IrO7mgKI5rvIwI3MeEQVIEmSpmlRFDmOw3EcAhxMi4HjeDcShaZpHMchshuNRsJaeJ5nWRZuQ8rvRj36w01FNN/FSdRmHsRoiNoZGRnTp0/fvHmzTCZzd3ffs2cPZH2WZW/fvn3kyJHV1uLj47NmzZqAgAC5XK7VasvLy+VyeVNTEwAARt7n5eWlpqbW1tYKglBYWJiamhoREbFt27bExMT29nZRFBsaGg4fPrx+/frly5efP38ex3FBEHieN5vNAICOjwQ2O7vgBqL5rgaFyJ5uqgCi+T98yEYGPLoKMAwDnXMkSRIEgVsL9GcTBAFd2t1FHY7jDAaDTqfDcZymaYZhoOUQ4mma7i4d6Tp2IprvgvT5v0wSBAG+Sdu3b5+jo+Pp06f1en1AQICHh0dbW5vNbb9ly5Zp06bZ29tPnz79m2++GTRokKenp0ajuXTpkpeXV1ZWliRJgiAYjcbt27f7+PikpqbiOH706NEpU6Z4eHg4OTmdPXu2pqbm2rVr27Ztc3BwmDNnjp2d3YwZMw4cONDa2mrj+O6S5x7RfDdlR2R2V1MA0XzXGbuRJY+cAiaTiaIoGGDDcRx0qsEVZziOI0kSRt10C104a4GuQehcNJvNHMeJoigIAkEQ3agvXURwRPP/C5274H74y29tbfX391+/fn1mZiZFUWFhYe7u7sXFxRqNBnrotVoty7Lt7e01NTXnzp1zcHAICQnheT40NHTlypW5ubmwawzD7Ny508fHJzs7myTJ/fv3Dxs27Pz5842NjTiOa7Xaw4cPb9269ebNmyzLmkym8+fPOzk5ZWZmQprvGMzTBbXqaBKi+a4GhciebqoAovkuMnAjMx5FBRiGMRqNtbW1RUVFhYWFt27dunHjRlFRUUlJSXNzM0VR3cilrdVqjUZjQ0NDcXFxUVHRrVu34N/S0tLm5maTyWTz1j+K3/Sv6jOi+Y7Y15W3YYyNIAg5OTleXl7R0dEURZnN5ra2ttWrV+/atau4uFj8qQAAVCrV8ePHXV1dT506ZTKZaJr+genXrFmTm5vLMIzZbCZJct++fb6+vpmZmQRB7Nmzx97ePj8/X7KWhoaGNWvW7Ny5s6ysrLi4uKSkJDExceLEiXv37lWpVDBWB0Xa/NL/nO2VKMuyeko6eTU7JL6wQQfqNKBKKVarhGoVX63iqlVstYqxVGU3JTxk9qOjAKL5X/qXR8eQAr+rAjiOx8XFjRs37pVXXhk8ePC//vWvwYMHv/rqq2+++ebatWvb2trgXNLf1YYH1TgAoKSkxMPD47XXXvvHP/4xZMiQwYMH//Of/3zjjTcWLVqUlJSE4ubvV2pE812Z4DvaBv3uBEFERkb6+fnl5eUBAFhrCQgIGDduXHx8PM/zcDqs2WyOiIiws7PbuXOnXq+H02cvX77s5+d3/fp1SOEMwxw6dMjPzy8zM5NhmMOHDy9dulSlUsF58+Xl5aNHj/7zn/88ZMiQF1544V//+tfbb7/90ksveXt70zQtCAJJkh3N68rbyDf/6OAm6unvqgCi+fsdYdH5SIHfpIAttQvLskajMTo6eubMmX5+fhEREXFxceHh4Sp2CSkAACAASURBVBEREUeOHHF2dt6+fXtGRgbHcSzLwgh7iqIEQYCTTXEc53neZDJB5jMajRzHwY8MwwiCQFEUSZIcx0GMYKzFNlHVdi1FUfAQDHaHE3DhHSmKMlkLbS3wRizLchxni/KHLxDgzry8PBcXF2dn58jIyKioqMjIyLCwsGPHjs2cOXP+/Pk5OTnQSJZlJUnCcZxhGNiy0WgEAMA+wiQ/MPie53l4L/gkgOM4nDTMMIwoiqS1QEtYloVpPX7Td9PFLkY035Ux1GYb9LnTNF1XV2dnZzdkyJDPP/98lLWMHj369ddff+eddzZt2qTX60VRZBhGLpevWLHi1KlTKpUKxtdRFHX58uXVq1cXFRXBxDUURR06dGjVqlUFBQUmk+nYsWNeXl6NjY0AAJ1OFxMTM3PmzK1bt0ZGRiYmJkZHR8fFxSUlJdXX15vNZkmSuotjHgCAaP53JTzU+KOjAKL5LjaAI3MedgXuoPn4+PjVq1dnZGSYzWaIpDDo/OzZs1OnTt26davJZIJpHwEAcJV4mqZhljqO4/R6vdFohK/mYQ4chmFgbhwI8by1cBzHMAwc5g0GA0mSMAOG5T2zXi9Jkm2PKIqSJMGseTiOazQaiPsQrCElQHtomraxNfQFFhYW+vj4HDp0CNoJPZE0TQcHBy9cuDA4OJiiKJjlBsdxGOBLURSO49AA+OBhNBrhRAKGYaDnEjYOLwEAGI1GmyDwYYCiKI7jYCrMh+nng2jeRsxdfAP+RCMjI7/66qu1a9eGhYVduXLl7NmzISEhJ06cGDt27MyZM7OzswEAubm5S5YsCQwMNBgMHMcJ1kIQRExMDJwFKwgCwzAGg2HLli0rV66UyWQMw+zbt2/FihUQ1nmeT05OnjNnTkREhG3Oq00fQRDg9Bv4usC2v8tuIJp/dHAT9fR3VQDR/MM0+qO+dAMFOtI8SZLx8fGenp4ymYzjOIqioFPcbDZHR0ePGTNmy5YtarUaZryJjY11cXFxdHScNGnS7t27GxsbdTqdQqHYvXv3tWvXILtzHHf9+vVjx45duXJFr9ebTKawsDCY99rBweHQoUN1dXVms7m1tTUmJubq1auHDh1ycnLavXt3U1OTXq8/fPjwNGtZunRpeno6fDygaVqn0504ccLBwWH69OmLFy8ODQ01GAzwjnAiL3xpkJeX5+3tffz4cTgjlmEY6FmPiYnx9fU9cOBAW1ubTCaLioravHmzvb39+vXr6+vraZqOjY2dNm3alClTZs2aFRQU1NTUxPN8RUVFYGDgmjVrcnJy4HOLQqEICAgICQlRKBSBgYEVFRUw7Y9er09ISDh27Fh9fX03+AXcs4mI5rssg3Y0DD7oMgwTGBi4YsWKyspKmFQexq/r9fpNmzZ9+OGH27dvv337tq+vr7Ozc0VFBUVRSqUSvlliGEahUDg7O58+fbqlpcVkMuXk5Hz22WdeXl4FBQUkSR45cmTlypUtLS3wObmpqcnHx8fd3f3GjRsmkwnH8crKyjVr1vzg9ScIAtqGaP6X/s9Q3DyaCfDQKYBo/pf+5dExpMADV6AjzRuNRplM5uvrm5ycDCeJGgwGAMAPr9TXrVvn5OQUHh5O07TJZIqNjXV1dV22bJmPj8/69evnz5+/bt26+vr6s2fPTpkyJSAgwGAwmM1mHMd3797t7u4eEhJSVVV15swZb2/v9evXb9y4cd26dfPmzQsMDKQoqqmpafHixcOGDVu4cGFAQMDFixczMzMvXbrk6em5fv36tWvXTpo0yc/Pr6SkBABQXV29bds2Ly+vNWvWbNu2zc3NbdGiRZcuXVIqlXCtK4IgWJYFANy8edPLy2vv3r0wgz4MjGltbZ0+ffqnn34aGhqqVCrXrVs3cuTIJUuWbNu2LTQ0tLq6+syZM7Nnz3Zxcdm8efPKlStHjhwJu9Pa2rpnz54PPvhgzZo1SqWyvr5+9uzZEydODA0NvXr16vDhw48fPw4d9k1NTb6+vsuXL6+urn7g39cf2CCi+Y7Q3JW3eZ6XyWSOjo5nzpyxrehkM1ihUEyaNGnu3Lk+Pj7PPffc4MGDR40aNXXq1GnTps2aNWvXrl1NTU0ajWbjxo1Dhw4dNmzYggULAgMDR48e7eHhkZaWxrJsUFDQggULampqbHknc3NzFy5cOGbMGAcHh8mTJw8fPnzRokXXrl2DGbHgZFmbAV15A/nmf1d/LWr80VEA0fwfOFijWz+KCnSkea1WGx0d7ezsvGnTpsjIyDhrSUlJOX78+LJly44ePVpcXGw2m3/w9vn5+W3duvX27dtwYL548aK9vX1CQsK1a9d8fX2XLl0KPYJKpdLX19ff3//WrVuFhYXLly8PDg6Gb95Jkjxx4oSnp2deXl5jY+OiRYvefPPNoKAguMZkSEjIvHnzDh8+DACgaVqhUAQHBxcVFQEAUlNTR48eHRkZCWN8i4uLd+7cuWrVqhs3bthWfmVZ1mw237hxw9PTc/HixUlJSQkJCZGRkeHh4YcOHfrkk0/GjBlTWFj4Q2ab1atXf/bZZ7GxsRA7ysrK3NzcFi9eDNfN+SEjx7p16+bOnXv9+nWz2VxaWurv7z937lyZTHb06NFJkybt2bOntbW1qKjI2dl5165dGo0GAFBcXLxq1apDhw5ptdqH6SeFaL4rY2hH2yiKSkxM9Pf3v3nzJnSKwwg3+K/X0tJy+vTpvXv3bt68edSoUcOHD3/rrbfefvvtTz/99OOPP96wYUNdXR0AICUlxcHB4aOPPho3btzZs2dPnTp18uTJwsJClmVjY2ODg4Pb2tpsSWwJgoiKipo8efLQoUPfe++94cOHZ2RkQMc8NKC7hM4jmv8RN2va+bp2rlJDlGnJEh1VqpIq66S6ZqleebuxTaprFRu1UrWSRbWTFaht46uVVJXaWK4Sq9R4lRqvb5EaVWKlsr1cX1XUJnUZHz+i+Ydp9Ed96QYKdKR5kiQTExO/+eabd9555xtr+eSTT55//vkPPvjg+PHjOp0ORtampKTMnz9/586dsbGxCoVCJpMdPnx46tSpW7ZsMRgMCoXC1dU1ISGBYZjr168vXbr01KlTra2tcrl8zJgxe/bsSU1NjYyMTEhI2Ldv36RJk4KDg8vKyrZu3WpnZxcXFwfzwV+6dGnGjBlubm7h4eGFhYVGo1GtVlMURRDE6dOnx48ff/jw4YSEBDjZbtOmTdOmTfsh0tc2yxauKn/z5k17e/s333xz/PjxX3311YgRI77++utvv/1248aNGRkZDMO0tLRs2bLFxcWltLQUxif8MHXP0dExNDSUpmkY3H/jxo2VK1eePHnSaDSyLFteXu7i4mJvb//555+vXbu2rKxMEISWlpb169e7ubldu3bNZDJduXJl2bJlWVlZD1lKe0TzHYm5y27DiaeSJKnVaug7/3m6d4qijEajVqvVaDT19fUNDQ2NjY0qlaq+vh4+gsIIeJ1O19DQ0NLSYjQa4bwUOMUWzpiHHnd4C/hv29LS0tjYWFdXZ1ugShAEyPE2L36X1Q0ahmj+R5qva+dutzHlek2RUXsd1xeqQWU5aG4ELZq81iZQXcc1qMwNOg7VTlagRS026vFaXFlhAHVGXZ1R19AAlBqxzlBVI6YWagGi+W6AXchEpMDvoEBHmtfr9XFxcUuXLr1y5YpOp2MYJikpydXVdcaMGTDJHUzwEhUV9cknn7z22msvv/wyzGX5+uuvf/DBB7t27QIAVFRUeHh47N+/X6lUXrhwYdmyZTdv3qRp+uTJk0888QRMYPfaT2XYsGFhYWHl5eUbN25cuHBhRkYGz/M0TdfX14eEhIwcOXLIkCFffPHFhQsXioqKYM6ZLVu2vPzyy//4xz9eeeWVF1988Y033hg8ePDo0aOTk5OhPDCXPM/zJSUlfn5+mzZtqqmpaWxsbGtra25ubmhosMXytrS0bN261dvbu7a2VhRFHMfPnDnj4OBw7do1vV4Pg+z1en1gYOD27dt/CMuB4/3Zs2dfeeWV4cOHFxQUQJcnwzAhISFTpkwJCQkpKyvbtm3bqlWrWlpaYCaf3+FL+2OaRDTfxUkUmffbFUA0/xPNt0mNLaBMSxXp8RsmY7EGNNSAlkZQ17y7sbqsqiq7sT2zrqwY1U5WoKm4vL78enV1RllldU1VTk1VTtP1ZmV5RW11TL36eGUDovk/ZnREd0UK/OEKdKR5k8kUExOzZMmS5ORkSZLg1KyEhITJkyevWLGipqaG53m9Xn/o0KGJEyeePXv2xo0b+fn5ubm5+fn5JSUlSqWSpmm1Wr1nz54lS5akpaVt3779yJEjJpNJr9fv27dv2LBhoaGhOTk5N2/ezM/Pz8vLKykp0ev1dXV1mzZtWrhwYWZmJkwyA9n61q1bPzD6ypUrP/zww0mTJoWEhPywYI2/v7+dnV1ERMStW7du3rx57dq1vLy88vJyo9FoMpmgzTBQPj8/f/Xq1UeOHOF5Hma6tC0QS9M0y7JtbW3btm1bs2ZNfX099B2eP3/ezs4uLS0NrrZD03RLS4u3t/fGjRt1Op0oinCJ+6effnrkyJEymUyv18MnnIqKiiVLlgQFBZ07d87Hx+fIkSNwRuwf/v0+QAMQzf92WEQtdHEFEM3/SPO1rVJDMyhTg2IdV2gkKrSUshHUlBAy2TuJoYujQubERNqlxfwH1U5WICvyvbTYIYrEvyXGfahI+Lsi4e8Zlz8riHk7NeH5W5W92zUXkG/+AY55qCmkQDdSoCPN4zguk8m8vb1TUlLgq3Oz2azT6QIDA999991du3bB/PHnzp2zs7MLCwuDiSNhqkqtde1VmKpSLpc7ODh4enp6eHjExcXhOK7T6S5evPjhhx/GxMTwPA/T3kmSBAPNGxsbN2zY4OLikp2dDdNBGgwGtVoNI26bm5urq6sXLVrk7++fmpoaGBg4adKkwsJCAACcpAvTRMKFbEVRhNl4AAAFBQUrV648ePAgTEJP0zSO4zDpDYy5b29v37Ztm6+vb0NDg9lsNhqNcrnc2dk5JCQEhgewLJuenu7l5XXmzBmDwUAQREJCwnfffefl5eXu7r5s2bKIiAiYcV+r1Z4+fdrT09PFxcXHxyc9PZ1l2YdsgSpE812cRJF5v10BRPP/k+a1LaD8piEu7o1cmf/NHL8bBSuqboxAtZMVqM8fW33j6/Kij4sLJ1Tc+qzi1mcNWTOaro1Il/01+wbWpjqHaL4b4RcyFSnwABXoSPMmk0kmk3l5eUVERGg0Guh4liQpPz9/3Lhx7u7uP3i7GYYpKChwdnb29vZubm6G1FtTUxMcHCyTyeCk1ZKSkgULFnzwwQcwrTXMwp6Xlzd69Ojdu3fbkrvfunULzqz9IXH12rVrnZ2ds7KyRFEkCEIulx88eDAlJQVmpwEA+Pr6rlu3rqam5sqVKx9//PHFixfhyC0IQmZm5tGjR8vLy2GSSp1OBx8zrl275u3tDd3kLMviOG40GkmSNBgMer0e+uYDAgJsvnlJkvLy8hwdHf39/eGK9Hq9PigoCE575TiusLAwICBg7Nixubm5p0+ftrOzW7VqVWtrK1w6Kj4+ftKkSV988cWKFStKS0vhClYP8Jv6w5tCNP/bYRG10MUVQDT/E823SfUtFt98iVYo0jM1apxq5WuvN+alDBYaTwEyTNIcB/XNqHa2AtVKUF8HmkpAoxo0lVpqNQla2hrlBwviXHUlKNLmDx8okQFIgT9GgY40D9eC9fDwiI6OhrEocH1TkiQPHDgwfPjwUaNG/TArlKKosLCwadOmzZ0718/PD6aahqu+kyTJ87zBYDhw4MCrr766dOnS5uZmuCqqSqU6duyYi4vLokWLfHx8Vq5c6ebmtnbt2oqKipqaGm9v7zlz5mRlZcFlWXNzc3fs2OHo6Ojl5bVq1SpnZ+e1a9f+8N6AZdnbt28fPHjQycnJ3d199erVLi4udnZ2O3bsaGlpgVk1YbCNKIr5+fnLly/fvXs3QRA8zxMEAd8t4DhOEIQgCM3NzVu2bFm9enVNTY0gCJIktbS0xMfHu7m5zZ8/f+XKlR4eHjNmzNi9e7dery8rK1u9evWECROuXr2q0WjUavWKFSvGjRu3f/9+uPJOWVmZk5PT119/vWHDBrVazTAM8s13cXRD5iEF7lAA0fxPNN/ONrRT5RquVMsX64S6dk5oBfV5rTfk74NKBWi9DpqugbYCVDtbgaYi0JYD1Mm8qgio5ZbaUA7UudVZPrnp49QNHPLN/zEkhe6KFOhKChgMhmvXrkVERPyQTRIu1WQwGODSM9evX9+8efOCBQvy8vKgyXFxcXPnzp0wYQJMBg+XlSEIAq4tlZ2dfezYsYyMDJjlnaIouAj81atXZ82aNcVa/Pz8YEbqlpaWmJiYH54QysrKWGsxGAxVVVV79uyZPHnyxIkTlyxZkpSUxLIsXBeW5/ng4OCJEyeOHj3a3t5+165dP1+niWGYmpqaqKio1NRUyNZ3KM2yrFKpTEtLi4+Pr6qqgv51eHeZTLZw4cLx48fPmjXr6NGjMByooKBg+/btFy5caGhogK8gbt++febMmXPnzrW3t0Nw97GWyMhIHMdFUbQtZXXHrbvpR+Sbv4P80MeHTwFE8z/SfJ2SalTqKzRMqYYv1kp1baLQCupy26/LPgbleaC5BjTUmdvzUO1kBUBLoaTMErUyRl0oahNFbSK4XQK0mRU5K7MyR7XfJhHNd9PxFZmNFHiACkCvNpxLyrIsXBiSoijGWmBKO+izh2BnMBi01gJ93tAbbTQa4UxWvV5PEATM8wgj120n6PV6nU4Hk8/QNE1RFG4tcJskSZqmGYYhCEKn08H7UhQFm4VxOwRBaLVaHMf1ej3MHXmHDtBOk8kEXxfAljueY2uHIAi46i1N09BgiqLUarVKpYKNQ3vgUwpFUbBHJEnCBx54d0mSmpqa/P39g4ODKysrbZNxO96xu28jmn/44BX16A4FEM3baB6/rVJWaugyDV+iAfVtwErzquuyoaC0BNxWg1qDpMpBtZMVAG03RXUmr0+ktDd4fRyvjwPNt4A+rTRvWUb2dy0tRkTz3X2gRfYjBR6IAtA5DdkabsM803D+KFy2HXIwnNtqMplganbIxHD9V51Oh+M4DLCBzwaCIEA0hy1AFz40GGKxIAg8z9tmqdpWmOc4Tq/XwxmusCmYQwY+GECgt3F2RwUggsM9sAsdj1IUBYOIbDZAk2AQDtymaRpm6YHPFbZL4FGYskalUomiqNVqs7Ozvb29/f39r1+/DtMBkSRpi2K649bd9COi+TvID318+BRANP8jzdcr8WalqkollKukUhWoawOsUqopaMhLeYuvvAZaWkGDHrRfR7WzFWguNbfnS5oUVl0saWWSVvaTb94rO3NkexOOaL6bjq/IbKTAA1QAMjRJkgzDsCwLw9Chmxy6zyFPw21IqxBYTSaTjYbhHhh5YnsSgOs62fKvQ4KHvm2GYTiOg2wNM8rb3gZATGdZFj4zQIc3bBm+DaBpGjrs4bNERylsKWVgyz8Ha/jCAV4CH0ig3x0+w0CChynnCYKAhsHHGNsLBNhluExPcHDw5MmTr1y5YjQaJUmCl6C4+YeP9lCPHm4FEM3/SPMN7VRLm6G6HVS0g1IlqFVKtMZQdbM4O+svdH2CpC4SWmtBUzGqna1AfQ1ougXas82tlaA9zVLrqoAyry7D+1rqWH09g2i+IwegbaTAo6kAdJzb3PN6vR6mkrSF3NA0DTFaEASSJFUqlSRJgiDANWJhaki9Xg8DVyBGcxwH88kYDAaj0WgwGKDXnOd5eK2N/iEr22yAnmBI2HCnyWSCq6vC7JlGo1Gv10N7oMO+47dGkiSM+aFpGt6041G4rCxBEPBZhSRJGJND07RWq9Xr9TD1DXzJAAWBO3Echx2haVoQBFtUkkajaWtrg68jIMTbHifuuG/3/Yh88w83yKLeAQAQzSOa79qPKIjmu+8QiixHCnSWAtDdznEc9LWbzWbo84ZubOifhpBKEASck2o0GiETw4wx8HwIxzBBuy1qBXIzRH/YCIzngdNkoRsex3H4WgB+hM8DMFEmtAGiv9FohNdKkmQymXQ63c+94DANPDwfZrD5ryoS1gIfMCD9wwB9SZLghi1ASBTFjjrA1qDBJElCEoJPO0ajEcbW/zxY/7/a0F12IppHvPvQK4Bo/qdImzaxqUWsUnPlGqZER9WpCK4N1OS3FCR/LFalgfZCS1qbNlQ7XYHmSrH9BqfNAA1lQJUMVMlKYyloy9TLViijvy/Um5BvvrsMqMhOpABSACnwhyiAaP6hZ1nUQUTziOY7HdDv66EI0fwfMvqhmyIFkAJIgYdFAUTzCHYfegUQzSOaRzT/42/gt7n5uWoVU61iq1WctQrVSqlaKdZpwNmIvCuJRe0kgLG5MDD3YRklUT+QAkgBpEBXVwDR/EPPsqiDiOYRzSOaRzTf1QdjZB9SACmAFPjVCiCaR7D70CuAaB7RPKJ5RPO/epREFyIFkAJIga6uAKL5h55lUQcRzSOaRzSPaL6rD8bIPqQAUgAp8KsVQDTfObAriqLBYKisrNRoNIIgAADM1tJxA2Z3hfZIkmQ2mzmOM5vNNgtFUZQkyfbxjg1RFAEAoiiyLFtUVHTr1q2SkpKbN2/W1NTAu0jWAq8SrQWef0ebHMd1bNlsNguCABuXJAlumM3mO66Cl8Cd8JKOltuOiqII98O/giDYTvvl3nU06X63Ec0jmkc0j2j+V4+S6EKkAFIAKdDVFUA0f79o+OvON5lMO3fu/O677/z9/evr6+HSwgAASNgEQdgYWrAWhmFsuA/vaINd+JX93AyDwWA2m00mU2Rk5NixY1+0liFDhjg4OFy/fh1eLooiXAQNXs7zPE3TcFsQBEmSGIZpaGiAeV05juv4AEAQBKR/261ZloUsDhEfdgcetbE+wzCQ4G3U3vEBBl5yR09t7T+oDUTziOYRzSOa7+qDMbIPKYAUQAr8agUQzT8oZPyFdliWra+vnzFjxocffjhy5MijR4/iOA7hmOd5G+ZKkmRzxtsAVxAE3lqgG7sjXne8I9xfXV3t6urq7OwcEREhl8sTEhIUCsXOnTvHjx9//PhxnU4HSRoAAFdrhh8hx3Mcp9VqT506dfToUWgbfIcAAIAG2N4ViKJoM/sOmud53uZuh68XoBcfLkkBsd72WsDm6Yd9tBnTsV8PZBvRPKJ5RPOI5n/1KIkuRAogBZACXV0BRPMPhBd/uRGz2SyXy+3s7DZv3jxy5Mh58+Y1NTXZYml4nofhMbARs9kM/eXQW09RFNzPsiyMeLGR9B03JUkyMDBw1qxZSUlJ8BC8RXNzs7+/v5eXV3Z2ttlshiu72e7FsizP8/Bja2trQEDAnj17TCYThHjbQwUAgGVZuBMaJooiTdOQ5jmOg+tAw4827ofN2rogCAJcgxm2ZjabIdnbemSzBF74oP4imkc0j2ge0XxXH4yRfUgBpABS4FcrgGj+QSHj/2pHFEWlUrl9+/YlS5akp6dv2LDBwcFB/v/Ze+/gOK48z3Pj/rrYi72929vYid2I2TbTPSPtTs+0NNNSa0am1bKUKHqKngAJGpAEDQiABGhAA3qQBD0BWhAkSBCggSW8ITzKW5SBL5OmHAq+XNa7LiSJ0ahbarYKApHSt+IFUKjK33u//BQifp989TKzsnJijXt7e/udO3du3ry5c+fOzz77bOvWrc3NzW63OxAIDA8P3x5/XLp0aeXKlXPnzj169KhWq52YNZ8Y1O/3GwyGmJiY9PT0kZERfiUPf5xACLHZbBqNhmEYjuOGh4clEsnOnTsXLFgwZ86cJUuWJCcnS6VSjuPS09Nff/31V199NSkpqbGx0efzDQ8PFxQUrFy5csaMGWvXrs3KyqIoihCSk5OTnZ1tsVj4NTZisfjChQvV1dW86Mvl8qysLK1WOzQ0ZDabjx49OmvWrDlz5ixcuHDp0qUVFRWDg4N1dXWXL1/W6/X8AYDb7S4sLMzJyaFpemKnJusJbB42D5uHzX/nKolAEAABEJjuBGDzk6WM39JPc3PzwoULs7KyhoeHCwsLN23adPnyZd7mx8bG8vPz33///bfffjslJeXy5cubNm2KiooqKChwOp0URS1ZsuStt95au3btgQMHDh06tGzZsiNHjphMpq8NR1FUVVXV9u3bRSJRMBj86ow7P9HOa/fAwEB2dvb27dvj4uJOnDhx+fLlFStWvPbaa/Hx8Xa7vaSk5JNPPomIiMjKylKr1TRN37hxIyYm5syZM7dv3967d29ERMTdu3ddLldaWtrmzZvz8vL4pUGXLl165ZVXduzYwc/f5+XlLVu2rLi4mGGY1NTUqKio5OTk9PT0LVu2zJs3b9WqVVqt9sGDB2+88cbdu3fHxsYIIT09PXv27Dl48ODERP7XdjCcP2Hzk2rztIRMh2ZVkVBTEkpOKCkJ3Xu1jVCthGohVBOhGkJPpkOe9AscSOBesNO9UCI/EAABEJjWBGDz4Wjin4zl15xMvOX1eu/fvx8REVFXV+fz+fr6+o4ePZqYmMivYne5XBUVFW+88cbMmTONRiMhRCqVbt26dePGjUajkWGYP6yceeutty5cuDA8POz1eouKimbNmlVdXT3RfyAQ8Pv9CoXi+vXru3bt0mq1/Fter1csFt8ff+Tl5VVXV9tstoGBgTt37vAT/PzhhMlkio2NnT9/vm38cenSpXPnzvFLfSQSyfr1669fvz48PMyvy799+/a2bds6OzsLCgoSEhIOHjzodruHh4f37Nkzc+bMo0ePMgzj9XovXLiwYcOGvr6+1tbWtLS04uJi/nzZoaGhysrKiIiIsrKylpaWefPmHT9+fHR01Ov1yuXyJUuWFBcXu93uiV2brCew+R+hzTeGzB42z0zKlPxEJ7gX7LQu50gOBEDgR0sANj9ZyjjRz8S5nvx1v92ZbwAAIABJREFUXfj56dOnT7MsSwgZHh7Oy8vbvHlzXV3dyMjIwMBAc3PzunXr7ty5wx8GDA0NXb9+fdGiRaWlpRRFrVq1KiUlpaOjg18039HRERcXl56ebrPZCCETF7t0uVyZmZmJiYkmk4lPwGw2nz9/funSpR999NFnn332zjvvZGVljY6O8oMODQ3pdLqysrLc3Nz169dv2rTJ5XIxDHPq1KmTJ0/y8+VlZWWRkZFpaWnl5eVPnjwpLCw8f/783Llz79+/r1Kp9u3bFxUVZTab/3AFzH379u3evTstLU0ul7Mse/LkydTUVJvNNjw87HK5xsbGGIYpLy8vLCxMSUlZsGBBa2srTdN/mMtPTEx0OBwcxz18+DAyMlIikUxgnMQnsPkfvM3LxqfnRc+n55vHp+dh8xMWPllPYPM/WlXAjoMACExrArD5SbRGvite4ieWtjc3N8+YMePAgQPNzc0KhaKtrS07O3vRokXnzp1zOp0ul6umpmbHjh1PnjzhV8j4/f6cnJxVq1bdvXvXaDTu2bPn/PnzLpeL79xisZw+ffro0aP8+nJ+rEAg0NnZmZ2dnZycrNFo+KH5M0oDgcDY2Fh3d/f69etv3bo1MjLidrs7Oztra2tjYmJ+9atf/fznP/+rv/qryMhIevxx/PjxEydO8Ge1Xrt27bXXXvvZz372k5/85Be/+MUrr7zyy1/+cvbs2eXl5W63++TJk9HR0fwenTlz5uHDh2fPns3NzRWLxX+4io5MJvN6vWNjYxRFNTQ0pKSk/PrXv37ttdd+8pOffPjhh3/Y5dHR0ZycnHXr1pWWlprN5hMnThw7doxhmEn/OAghsPkfpM0rQ8tsrIrxlTYyQsnGF9uICS0idNt4E2Fu3oi5+Wldf5EcCIAACEwOAdj8pOsjb9j8T4/Hk56e/rOf/ez1119/55133n777ffHH6+++uqKFSs6Ojrcbnd5eXl8fHxlZSV/NZtAIJCTk7N06dJ79+51dXXxM/HDw8P85WUoijo2/rBYLF+dm/d6vQqFIiYm5tatW16vl7+IJH/lR7/fzzBMXFzczZs3WZa9cePGnDlzPv744zNnzrS2tmo0ml27dm3bto2iKH5uPjU11efzjYyMpKamLlu27MmTJyqVSjn+0Gg0fzjX1uFwDA0N3bx5MyEh4fLly3fv3i0qKtJoNPfu3bty5UpmZmZKSordbh8ZGWlra9u+fftvf/vb+Pj4mpoarVb78OHDiIiI+vp6juN6enqSkpIyMzNLSkqSkpKKi4v5K2NO+icCm/9B2rwipPLPbF4ecnpaFhxvHCPlGGlwmiyzwbr5ySlV6AUEQAAEQOAbCcDmJ90dv3oJ9u7u7q1btyYkJLS1tdE0bTabe3t7jUbj1atX33777aysLIfDIZVKly9ffuXKFf6CMAMDA+fOnVu0aFF1dTVFUStWrEhKSmpvb+fXx+v1en4tu8Ph4K/wOJG/0+ncu3dvbGysXC7/6m2efD5fdXX15s2bHz58qNfr4+Pj/3B5HKVSyZ8Xq9Fo4uLiEhISKIpiWfbUqVMpKSn87P6tW7eWLl1aVlbm8XhGRkb4/eLPc+UX5V+/fn3BggWbN2/WaDQjIyPNzc27d+9euXLlkSNHRkdH3W53RkZGREREZmYmfzMsh8Px6NGjefPm1dfX81emv3jxYnJy8h/W+WzZsqWrq4tf4TOxR5P1BDYPm3+pZ+6GztD91oazYL+xQuENEAABEACBP08ANj9Zyvi1fnghlsvlsbGxpaWl/LqXieU3bW1tv/vd7y5evGixWJqbm999992VK1fy0+0Gg2Hr1q3R0dFardZisaxcufKDDz64ffs2f7ZoZWXl7NmzS0tLJ7rib6fKq/mjR4+WLl169OhRlmV5+R4bG1MoFNHR0XPnzm1ra9Pr9YsXL160aJHBYAgEAv39/ZcvX37llVdmz57tdrttNltqaurevXv5zsvLyz/++OOUlJSJ6993d3dnZGTU19d7vV6WZa9fv/7uu+/Onz+/p6eH4ziZTLZixYo333zzwoULhBCXy7V///4vv/yytbWV/xqhqqpq4cKFb7/9dmNjI4/r0aNHCxYseOONNzZu3Dg0NMQfKnyNZPh/wua/X5vnaAlHiYldEaAlfquI2ORBVsZRYs4qevbTKuKfBynxs9UvrIyMT59zVlHAKgpY2ohNztGSgKUtyEjHehp9tCRAiTlGGnqdkQYsbaGuvtIIrSIWObHICKUIWuWEUY71ify0wsuqvKwqYNdwNmWQloRGHB+LMFK/pY2zioKMlDBSjhL7LW2hDb7aWJnf3MrREuJUBShxwCoKsrIgP9Nvkwdpid/SFuptoo33E8rNKnq2a1/pPLQvtIQw/PV2YPN/vhphCxAAARAAge9GADYfvix+rQd+SQzHcR0dHRcuXNi0aZNOp+NvnEQI4Zekm83mhISENWvWtLW1VVVVzZ07d8GCBXFxcfHx8evWrTt06FBlZeXAwADDMJs2bZo5c2Z0dPTW549bt27xF33/6rj8DZgGBgYKCwsTExPXrVu3devWbdu27dy58w+iHBcX9+DBA/f4IyMjY/Xq1VFRUTExMUlJSbGxsZ9++umyZcskEsnIyEhJScmMGTOio6OrqqqcTufVq1fnzJmzbt26HTt2bN++PSoqKi0tTa1WcxzndDpbWlpmzZq1adOm3t5eQojJZIqMjHzzzTcbGxv5VUO1tbXJyckRERH8riUkJGzbtu3jjz/OyckZGBjw+/1KpfKzzz7767/+6/T0dI/Hw3Hc93EDKdj892vzvLOGdNauIHaFt6+ZsLIAJR7rbQryoj/uuCGv/ao6j+s+r/IcJQ5SYl6+/eZWvpPguHCPdjdwVhFxqkIbfKURWkFYVeinRTpu82rOpvXSqlFKNWhVDliVY9T4EQUlDum7Tc4PETqWYKQhHR8X/a8eHoQ2GM+Qf9fb1xywika7G0L5jPcQOvwYP5zgxT1IiQOWtpCyj2ce2obv+Xnnoc34V759Yp6SEMzNf7fyhSgQAAEQAIFxArD5rzrxJD7nOM5isZSWlubm5g4ODvLL6HnR5+fRFQpFZmamSCQqLy/fv3//tWvXjhw5EhkZefjwYZqm+Vlqk8kUHx9/8uTJzMzMdevWLV++PDs7+5uu4chfRJK/xmVycvLy5ctXrFgxb9688+fP9/f387sWDAb5q+jExMRERkbGxMSoVKqOjo6cnBx+tp6iqKNHj8bGxubn5w8PDxNC8vPzFy5cuHr16oiIiNTUVP5Agp+8HxgYyM/Pb2pq+sNFKvmFQHV1dXfv3nU4HCMjI4FAgOM4hUJx4MCBxYsXR0dHl5aWdnR0FBQUtLW18UvkHQ7HunXrFi1axM/W898nTOKnwHcFm/+ebZ6VEYfymQ3b5KEJ7PHp+ZDlO5TBcQnmPZh3d34yOzRb/7yF5r+toqBNHrJ2WhJ0KAN2RciVKTHp1xCHMmD9+imtwd628fNf5cQqI6zab5aRwW6/Ted3d/kGe3zuroBdEzq6cKpC3xs8/x5gYsQ/+ST0FQEtCUXZ5CGndyiJS83vms/Uwu8Xf8QS2sAmD45/b/BvXfFfRzzfqYnX/8wyG9g8ijEIgAAIgEB4BGDzk+6OE0tfgsGg3+/nl6nw+sv/JISMjY1xHDc6Ojo4OFhdXb1z584/nAs7PP4YGxsLjD84juvu7t6yZcuVK1fsdju/EMXv93Mc98fWyx8h8G9xHMd/rF6v1+1288vx+Su+TxxO8H96vV7+PlO+8Qf/Ln9pHf5UWo7j+G8V+AvUjI2N8Vvypu7z+bxeL38Uwc+sT3wFMTo6yqfK72YgEJjwe/6GUzwWvV4fExNz+PDhvr6+r671n9wPBTb//do8qyrtasplFCU+U+iGTUFaElqjQokd2or22jsdDTn+8Tnsry5HeTaf/XymnJ84D2m3TT7W29TZlKssvzHc+dSmKq3PTetqzgs59MQEP/+kp5VYpcQkIayaYzWUvEJaeS8n/VB6auKF44npackVuRf6dVX8mpln3xuMz8fzE+qh+X5+9K90G9qMlfFfEXBWkau9siHvTE/rQ36BDf/6cHeDsuJmZ+P9UA92xbNvG77yPQN/rPJs7p9fRIS5+fCqFKJBAARAAAS+nQBsfnLFkRAyodr+8QffPz/Xzjs3v96GEOLz+RwOR2Vl5caNG/lr2nz1MjUcx/X19UVHRx84cMDlcvGXiv+mleXBYHDC8jmOGxt/DAwMcBwXCAR45+YzCQaDPp/P4/G43W5eqflM+Oc+n48fyO/38zvCcdzIyAi/ap8Qwifg9/v5M1b5/nmh5/eXPwDgx+K/keCPAQYHByde5FfUVFdXHz9+/OTJk1VVVROZ8NtM7k/Y/Pdr82W3jpxMWFqRddRjagmtoWdlnE0e7Nc0PTp/aPO8zGObQx5PS0Kz3U5VaK7drX2m5jZ5SIgdytDPESM3PiPuMtTkXUjaH/1FR+N9l66q4Mo+ZfmNUNTEanX+CaMgrJKYxMTRPmqWtRZeX/H5bz968xdzPnh93oy3Zn70xsZlH1XePjZorP23oZ2q0ED8Mvrx7wH4KfaJnxyv+7ymO5SUrCjvfKKqMtNnbg1l7lKTfk236PGu1Z/cOLIppPhubWD8+4dQt/x0Pn9swHfuUD4bCzb/7VUI74IACIAACIRHADY/ueLITzDzFjtxgcgJR58Qbn6ZOz/P3drampGRIZfLJybOJ+4/NTg4ePXq1ZKSkqGhoYl3+bn/r6XN98zP/fMWzk+f84Y9oeYTXw5MXA/nq93y3wl89ZCDv9JlMBjkp+r5cN7gJ16c6IoP/+rO8ne84u+KxXfrHX+MjY05nc709HT+aj9DQ0MTy4QmjoW+toPh/Ambn1ybFwUpUTA0+z4u6HZl6e2Tx3dGlt8729/dRtwdw7S2tiS7sSI379bZ9Su+SD+d7DCphpxdbXX5orr8x9kXmW7ZMKPl3N2Uodmkre9R1z0tyWoqyzbKKjl3d3vbk50bF0fNfbcw83TApjMrawd6JCZFjUlR7aU1flY3YlY4O1oZdQ3HqIP29gDbPmpRFdw8vfyLt6+n7SMeNjBg7jdr76QfO3MotuLhFdrYYtU3t1XdbyzN1onLvA6jrUtc/+R2/ZPbhtZ8H6vy29Q2w9NeeZmPVRHOOmqR9shK9S2P+7tbOuTlzj7JMKMeopQ96uqawmtV+VeXfPHmhWPbRxg1GTPRXdKCnOvNVfnKlgq2W+UftLAd4h5FbXtzibaxUNtQMNjLXwgfZ8GGV6kQDQIgAAIg8M0EYPPhaCJiBUEANv/92nxJ1onjOyPL7p0ZtioCTv3Tkqx5n/72k3d+dWTv5l3bIk+lxA2xBrpHvi9h7duv//zd3/zy8O5NVkMzGbXUFNzcH79q99blcz96/fe/+ZuMk0ljNn1h9vnXfvH//vX/9R8SoubWPrx67+LBttJscfm9+5cPqZ8+8tLaPnl10a00dc19l6HRRykDrHbMqi6+fXbD0hm5V1NHaP0o20GGqaK7l07t3/Lw1unG0uyDO6I2R34Rt27Bw8xTTEdrWV565Pz333j1r1KTVpuUFR5aXvfocvb5Pd3SEjLSbWwryLuS8uj6kdbSm7cvHWituhsc6KSMTYcSV7//m5/GRH629Ivf3jy/12poGLNra4puL/j8d2/8/U+3rllcU3yP7ZIPWrR5105Gznlv7YLf30rb2yurwrr5by5AeAcEQAAEQGASCMDmBeGjSDIcArD579fmn9xOPbYjojDzxKBZpm8tSty0OHHLivPHE/dsX7141juXT+2hu6Q3Lhzal7DmYuqulKToJbPevXFm74BZkX5i52fv/K+dGxddObVrw/IZG1d8Jqq631SWvWH5jJn/8kr2+QMtJVn7tywvzDwlq8o9tXvD/cuHPA6Dpj4/NWm9uiZnsLOFs7dzrNZjVZXfu7By1ju3zh109sj7re02s/byiaR9sSsLs8+VP8j49F9fiVs3/2HmKV3bk6pHV7eunr0vduWZg1u3r5p59cQOQ0tR5f2LezZ9WZl7kXgt9QXXd2/88lba7oaC67tilj7KPN2tqLmetndz5BfXTu9JO7D19V/+l3OHtzt7ZaLqvPgNS6+cPXzmyK4tUQt3bV0lqc1njaI9Mcu/ePt/3zi5S1mTZ9M1wuYnoVKhCxAAARAAgW8mAJsPRxMRKwgCsPnv1+ZL75w8mhBRcPO4q6u19N75dYs/kjcU+IZM1YWZOzctvZy6qyQ3fU9sRG1xVmDUMkBprp3Zd2jHaltHy/XTuyLmvP3g+nGvXaduKtgfu6LgdtqwVZl96eDuDV/qmgr75NV7Ny2pfXh1sFeac+nQpUPbbfrmukdXLxzc6tLVEZeeuPQ+q8JrVdbmpa9d8Pv3/uGvF370m9m/e23J529HzH0v9+pR1thcW3B9wcevFd05Q0ZNZMx861xybNSsLnklGejMv35q0Ue/uXlqr6ouf9/mFelHdoxZNI+upu7dtKwq94qh+cnO9Usr867X5mfFrl5wL/0EGbR2y58u+/zdM/u3K+qK7lw4umfL6kG6wz9CN5Xlxq9fcu10st9uTNkemRA1x9YlIoPdPkoFm//mAoR3QAAEQAAEJoEAbF4QPookwyEAm/9+bb448/jRhJUVOeccnc3Fd9J2xyzpUtaO2Q2diuqrp/ekn0xqqcyZ9/E/zfv4n7ZFzY1e9unM3/1q47KP5bW5WeeSE6Pn1+Zf9djaOyVlJ3atzb16xN7Zcip5Q/zq2eqnj7vE5UnrF9Y9ujZmVdfn38g4miAqy759dt/j6yeGOxuJXe23yHwWuZ9WV907v2HRh0tnvHk8cd2B2FXnUuJyrx5njU1ktK/28dX1iz6oK7jms2ndfZK0fRv3bF5s627z2rRtT+6tnffBhYNxXaLK8/tjz+zdIqt6ePV40r0Lh7sl1caWssPx0Q+upl09sXf13I9anuQO9GoYg/TAtjUPr51pK3twPDHmnX/4+caVc7esmh8x9/cf/ObvLh3d2SWpPH9gy9nkTay23k+rgjYtbH4SKhW6AAEQAAEQ+GYCsPlwNBGxgiAAm/9+bb7k1vEj8StrHlzqVVTkZBxK3ra8R1Xrsev7NE8vn9h57vD2mvzrK+e+Gzn/d+uWfLx20YcH41dlntllUlXlZhzat2VJY/ENr6NdVpNzZEdkyZ00u7HpWuqOrSs+k1fndUvK921e2lh4c8yqVtQ8uJgSm3l6z9GEKHH5vYBZTFztHK0gTp2fVedfPbLiszceXTtORszBgV4ScAQHezmHbtSqeFpwNTF6XkPR9aBTP2pVXD4Su2vDArO6mnPoFNWPY1fOObUrxmEUl2RdOLcvNufi0dTEjeKy3FGzVttQsit6Rf6N8w+upK2a/WFDwV0/202pW/dvibp34URTUc75/Tvmvv+b9cu+WLNoxq6Y5edS4lvL7lGap5cPxaYf2ubuFnG0ymvGWbDfXH/wDgiAAAiAwGQQgM0LwkeRZDgEYPOTa/NiQvNNGqSlHCMryjx2bEdE3aPLjs5mUeXdxOj57S1Fo7Ra21x47uCWswc2NxTfTNr4pajy3oBJ1t8rsWifWlSVQ32i22d2HY5b3lR0baCntVNUdDZ5/YMrKXZDffqRrXGrZhtbn3SKyvZtXlrz4ErQYexoK71/+fC2lTN3RX/ZJ68m/dphQx2xKYc7GolD++Tm8XVz3753PtlrVY1ZVH6b3s9oRswSL61oKbkRv/rzpsKrQ30iMmDMPL0zNuJTSvfUSytKsy+smv3e1eNJzg6RpOJ+atKGdfM/uHhwO6VpHLNqjS2le6KXP76aVpN7Y9+miMp7Vwe6lN2y+u0r52ae3K+pK75xIvns/u1mbdOQRTPQp+iUVFKaeoui6vLBLVcPbxvoaiGMMnTDWlyhcjJqFfoAARAAARD4JgKw+XA0EbGCIACb/35tPv/64X1bFhXfPunuE/cqKpM2LMi+sK82/+r5lC3Lv3gz43h8p6T04uFt5w5ubiq7XZh16siO1RcObGS0NbfPJO5aP7u15EZwwNjekJeybUlR5vHBnpaMI1vWL/x95f1Lsqrc5JilZXfP+9n2IZMiN/3wshlvXji4lWlvJHalp7OBOFSenmafRVJ87fDi3//q5okEP60K2HR+tn3MIvczCuLQ1j++vG3FR21PbhCHhvTr868fiVny++xzu+qLrh3aHrFn46KKnIs+p4HW1ieum//Pf/OfT+1e76HUZLhPWpWzN3pp4Y00q7I+/VDCsbg1zQVZD9OPf/CPPz2VuKG/Q1yVk5Ecs6Lk7qXWqgcnd2/YsXZB7YMMp6Hx8oGYC8nR7u4Wwqo4qxQ2/03lB6+DAAiAAAhMCgHYvCB8FEmGQwA2//3afOW9tIspMZW55wctMq9Nm5txaPa7r7z20/90OH5l+rHt2Rf3jVKKLknpmvnv/Pqn//G1n/7HOe/9r8b8dOLQFGcePbJ9aWvxVT8t1z69f+nghtq88/0dDY+uHPj8rb9NWr8wL+Poqd3RTx9f81Bqn7tLU5+/Y83cyvuXRihN6IZN5lbCKgKmNp9Z3Jafnrjq87yL+z1mmZ/WcDadxyIPMHKOVTYVZKRsXdRSdNVPy4hTM9jTkn028ZN/+h+v/Nf/sG3lp5r6B36b2seo3D1tmWmJ67/8XWl2GhnsJKM9qrrc1B1ryrLOEj9rkVXHLProH//7/xmz6KO4lTMfZxwjNoO7oy0v/egH//Tzv/n//o/P3/q7aycSaXWdVV5x53TirRNxAx0NQYvE39cGm5+UWoVOQAAEQAAEvokAbD4cTUSsIAjA5r9fm3d1NHZLnrC6p2O00mdv7+9uFZfdqs/P6BIXd0tKWEO9h5KPmCWd4mJR+e3aB5e0rQWjfa1Bm5JWlVvkT8YoaYCWjZnarPInNm0Vxyqcupr2pkJl7QN7R2ufvKq/S+Rn202quivHdqTt3WhR1Y1aVPxtVjlTS9DcRljFgK6mV1zMKCuCdu2YScqxWo5Rcqw8aFcOdjUaGnLdnQ3EqfFZxZxN6e5qlJbdkFTcUtXfCThk3KDWw4j9LiWtKze2PXB11w1bmsfoNndvvUX2xNXRELAp/ZS0T1pS/+CC9ul9u67Wpa8jDg3HyJ3GxpYnd1qe3JFV3qPUdRyj8VlkNk21VVrCMQrOLCKMHDb/TeUHr4MACIAACEwKAdi8IHwUSYZDADb//do8GTAQt5H0G3w2jbtPEuw3EIeWjPWS0W4y2hNwaonbELBryHCnxyojQ50kYOUYOXGoiFNNhgxkQDfa20xsCmJTBqySQOgWs3IyavYxWuLuJv2dZKh3xKzMOJow819eyb+R6mPaA3YDMTUTVhroaSSMNLQ9Iyc+E7FryEBH6MRTm9ZnkY72NntMrUFWMd65ItQzP65LQ/g2pvGwzR6m2WdrJcMqr1MccIo4p7i/p3qEauD6paO9DWSo3Wdp8VlbiU1K3GoyoPFbW73WVmKX+a2tnF1N3N0BVkfcncSh5xh1wCojbgOh5UFKOtrxlFhEsPlJqVXoBARAAARA4JsIwObD0UTECoIAbH5SbZ4Sk2dNEqQkQVrqNYv81tD8eoBRjPaJgqzSb5X6rRKPSURYpc8qITblaF8rR4eWvoTWunQ2BqxiYlNwVKiHiSehP2kpR0k4qzjIqgO0gqOVAUpBbJrRXpGyMrsiO22wq8VnlXOMiutrJrQkaG4ljCzUCSUhtMzXF5qnD1ilhFUGadl4V6E+g7Q0YBX7zW2hsRhZ6AkrD2VubQnaJMQp91ia/HSrn271WJoDjMhHtXCsOMCIOErEUWKvqZkwUs4aej7eREFWGrCKvKbmAC0jdq3HJCF2TZBR+s0Sb28rYRTEGsonaMHc/DeVHrwOAiAAAiAwaQRg84LwUSQZDgHY/OTa/Lg6/9nrtGCDFydg1gdoqddRT3q0hK0ibBXj1hCqwVURxxR+LHcNGJlnn+DLfuI1smNG1mNkvePNb2Q4IxPospOsx615ZUp6mHi9Xr46eTyeSStT6AgEQAAEQOBbCcDmw9FExAqCAGweNj+9j0Bg899apfAmCIAACIDAtxOAzQvCR5FkOARg87B52PykzO5jbv7b6yneBQEQAIGXQwA2H44mIlYQBGDzsHnYPGz+5ZRYjAoCIAACU0AANi8IH0WS4RCAzcPmYfOw+SmopxgCBEAABF4OAdh8OJqIWEEQgM3D5mHzsPmXU2IxKgiAAAhMAQHYvCB8FEmGQwA2D5uHzcPmp6CeYggQAAEQeDkEYPPhaCJiBUEANg+bh83D5l9OicWoIAACIDAFBGDzgvBRJBkOAdg8bB42D5ufgnqKIUAABEDg5RCAzYejiYgVBAHYPGweNg+bfzklFqOCAAiAwBQQgM0LwkeRZDgEYPOwedg8bH4K6imGAAEQAIGXQwA2H44mIlYQBGDzsHnYPGz+5ZRYjAoCIAACU0AANi8IH0WS4RCAzcPmYfOw+SmopxgCBEAABF4OAdh8OJqIWEEQgM3D5mHzsPmXU2IxKgiAAAhMAQHYvCB8FEmGQwA2D5uHzcPmp6CeYggQAAEQeDkEYPPhaCJiBUEANg+bh83D5l9OicWoIAACIDAFBGDzgvBRJBkOAdg8bB42D5ufgnqKIUAABEDg5RCAzYejiYgVBAHYPGweNg+bfzklFqOCAAiAwBQQgM0LwkeRZDgEYPOwedg8bH4K6imGAAEQAIGXQwA2H44mIlYQBGDzsHnYPGz+5ZRYjAoCIAACU0AANi8IH0WS4RCAzcPmYfOw+SmopxgCBEAABF4OAdh8OJqIWEEQgM3D5mHzsPmXU2IxKgiAAAhMAQHYvCB8FEmGQwA2/8zkdA6HdqCr3Ub0FOkwE5OFDDkVnbqKluIkrr2QWNTE2BGk1WhTTMBHGwPWTmLpJn1GYhaHGlsTdD9tfXqttPRKN9VtZCbFxcPvxGtkx4xId7U7AAAgAElEQVSsx8h6x5vfyHBGJtBlJ1mPW/PKlPQw8Xq9fN3yeDxTUMAwBAiAAAiAwMjICGw+HE1ErCAIwOaf27y9X9tvbmdDNm80kz5LoN/ZZmgvbHqyLdiZQ9hm0iXiKCXaFBPws9IALQ9SSmKWE0t9qLHFZLhK2XS5uvyCmdLC5lGtQQAEQAAEvoUAbF4QPookwyEAm39m83r7ULvLpmOI3jpu81av01mv0z14+mStp+MycZYRuo5QMrSpJmCvJWw9oZuIpZFYS0PN+YgMFakbT9eXn2RpGWz+W2oY3gIBEAABEIDNh6OJiBUEAdj8c5tnvTr7mJ4mBisxWkgPM+wYbNB2PCjMX6pp3GaWpVDiE1btLLQpJtCnWWlWrbIq19qk0Q5ZpEMWaVN9adUtf1r2SUPNIpfrGmwepRoEQAAEQOBbCMDmBeGjSDIcArD5ZzZvYL1627jNU8RoJV3MKDso76Eba+v2tFQm1hfsaHq8p7V4N9oUE2gsjW1+sqO1eLekYL+sIElWkNSSv6m5LKGmaJeiNcPGSGHz31LD8BYIgAAIgABsPhxNRKwgCMDmn9m8kQmdxWigiYEiRop0Ml6TQ2sf6bY5K70DtcNMFedoHusZQZtiAsO0asSqG7V0+vrMgb6eQF+P36ofpTudfT39VhfV44PNo1SDAAiAAAh8CwHYvCB8FEmGQwA2/8zmO9jRTpu7g/EbaS7k9ExI6ENOTw8wlgHWNGjvGzYxTrQpJtBNe3qs/l4LMfUR83gzmUmPhXSZSaeZGHoJbP5bahjeAgEQAAEQgM2Ho4mIFQQB2Pwzm+9kRnsYdyc7YmS9BjbYzhAdFWpGC+k2kZ4+0tdHtM4htCkmoB6Rq4e06sFOtZvSuC2hNmhUD+lVg92qAavKNQSbR6kGARAAARD4FgKweUH4KJIMhwBsHjY/rQ9RYPPfUqLwFgiAAAiAwJ8lAJsPRxMRKwgCsPlnNt9FBXqtXBftNTJevc2nsRE1G2oahoQuW8kEDSynswXQppiAxuHX2DgNS9Q0UTOhprETrZ3T2oLt7PiXJ7h71J8tZdgABEAABH7EBGDzgvBRJBkOAdj8c5u3cn0m0k2RDiagt3nVjoDSQfim7ndp3FbtQFcXRdCmmECH3WVkR4xMgD+ZwcAQg32ow27rtDm72YEeyo+VNj/iGo1dBwEQAIE/TwA2H44mIlYQBGDzz2y+gwp0WblOmguJI+trtwW0No5v7fYRncOtczg6aA5tigmMq7xn3OY5AzPe2DEjO9TBDncyo500bP7PVzJsAQIgAAI/ZgKweUH4KJIMhwBs/pnNT5spXuQjUAKhK5waWY+R9Y43v5EJHRl22UnW49a8MiU9TLxeL19QPR7Pj7myYt9BAARAYCoJwObD0UTECoIAbF6g7oi0pxsB2PxUVmeMBQIgAAIvSgA2LwgfRZLhEIDNTzcpRD4CJQCbf9HKiu1AAARAYCoJwObD0UTECoIAbF6g7oi0pxsB2PxUVmeMBQIgAAIvSgA2LwgfRZLhEIDNTzcpRD4CJQCbf9HKiu1AAARAYCoJwObD0UTECoIAbF6g7oi0pxsB2PxUVmeMBQIgAAIvSgA2LwgfRZLhEIDNTzcpRD4CJQCbf9HKiu1AAARAYCoJwObD0UTECoIAbF6g7oi0pxsB2PxUVmeMBQIgAAIvSgA2LwgfRZLhEIDNTzcpRD4CJQCbf9HKiu1AAARAYCoJwObD0UTECoIAbF6g7oi0pxsB2PxUVmeMBQIgAAIvSgA2LwgfRZLhEIDNTzcpRD4CJQCbf9HKiu1AAARAYCoJwObD0UTECoIAbF6g7oi0pxsB2PxUVmeMBQIgAAIvSgA2LwgfRZLhEIDNTzcpRD4CJQCbf9HKiu1AAARAYCoJwObD0UTECoIAbF6g7oi0pxsB2PxUVmeMBQIgAAIvSgA2LwgfRZLhEIDNTzcpRD4CJQCbf9HKiu1AAARAYCoJwObD0UTECoIAbF6g7oi0pxsB2PxUVmeMBQIgAAIvSgA2LwgfRZLhEIDNTzcpRD4CJQCbf9HKiu1AAARAYCoJwObD0UTECoIAbF6g7oi0pxsB2PxUVmeMBQIgAAIvSgA2LwgfRZLhEIDNTzcpRD4CJQCbf9HKiu1AAARAYCoJwObD0UTECoIAbF6g7oi0pxsB2PxUVmeMBQIgAAIvSgA2LwgfRZLhEIDNTzcpRD4CJQCbf9HKiu1AAARAYCoJwObD0UTECoIAbF6g7oi0pxsB2PxUVmeMBQIgAAIvSgA2LwgfRZLhEIDNTzcpRD4CJQCbf9HKiu1AAARAYCoJwObD0UTECoIAbF6g7oi0pxsB2PxUVmeMBQIgAAIvSgA2LwgfRZLhEIDNTzcpRD4CJQCbf9HKiu1AAARAYCoJwObD0UTECoIAbF6g7oi0pxsB2PxUVmeMBQIgAAIvSgA2LwgfRZLhEIDNTzcpRD4CJQCbf9HKiu1AAARAYCoJwObD0UTECoIAbF6g7oi0pxsB2PxUVmeMBQIgAAIvSgA2LwgfRZLhEIDNTzcpRD4CJQCbf9HKiu1AAARAYCoJwObD0UTECoIAbF6g7oi0pxsB2PxUVmeMBQIgAAIvSgA2LwgfRZLhEIDNTzcpRD4CJQCbf9HKiu1AAARAYCoJwObD0UTECoIAbF6g7oi0pxsB2PxUVmeMBQIgAAIvSgA2LwgfRZLhEIDNTzcpRD4CJQCbf9HKiu1AAARAYCoJwObD0UTECoIAbP6ZO3ZRgV4LZ2QCOke/xm3WMlwXxXVYuS7a2WHlDLRfx3jULIc2xQTG4Xt17IiG5XTssI4d7rRwXYzXYGe1/Xo5HfrIpkeDzU9ldcZYIAACIPCiBGDzgvBRJBkOAdj8MxfstXBULzEyAY3bLPeIFAzp7CWdfcRsN/fSpNvOdfYHVG6CNsUE+ljS5fQaBoY0/cToHjS6By00sTr8XcNGja+swRr6yKZHg82/aGXFdiAAAiAwlQRg8+FoImIFQQA2/8wFeyyctZcYGKLptyrGJGqa9PYSk4k4nUra2m+imB7WbKL60aaYANNDLGZPLz3YYSW99HAvPcx2ELaHoxx9faONivEDMNj8VNZFjAUCIAACwiIAmxeEjyLJcAjA5p/ZfLeVM5mIPmTztGJUoaOIw0KYPuKm8wZN0iFaOmgTj/XVo00xgRFLxQCT73TcZdgaly3PZcvzW+Q+qtJtv2Ib3mNmgtND5QNGBnPzwqrvyBYEQODHQgA2H44mIlYQBGDzz2y+y8r1mYiOIWoXqxhRG6zEbfUa5XRL+ebGhyca8k+U5+5vzl+PNtUEHsfWF66vebKivHhHbUlUbUlU870D4vz4pyXz2iQfmE0UbP7HUpCxnyAAAiDwnQjA5gXho0gyHAKw+X+z+V4zaQ/ZvF05rOuwEo9tzCgxtBQv6aw5NajLduluu43r0KaYwIDmoFOXaOvYajUcsxkTbMYEr/baiPqIvGpGS8OrdrMeNv+dqhuCQAAEQODHQgA2H44mIlYQBGDzz2y+k+K6rUTLELWzXzXY02UhAZutWyqVl31KejKJq5DYiohlCG3KCSgJ00Ic1cSmJfb6UOvsIqymr+6QrPzLISPOgv2x1GPsJwiAAAh8NwKweUH4KJIMhwBs/rnN04FuitPSRO0YUA2Yu8zEb2O6JGJZ6UekO5M4iglTFrDq0aaYAOmRE3MjoSuCViWhqkKtq4PYFL11+yQVcwc6nn1802CGHuvmv1udRRQIgAAIfL8EYPPhaCJiBUEANv8Vm6cD4zY/pBpguszEx1JdkjZZ6fukK5PYSwld5WOeok0xAdIlJ32NxFrBmeXEWh5qXXpik/Q83SWqnNnf6ZsGHs//C8Hmv996jN5BAARA4LsRgM0LwkeRZDgEYPPPbZ7xdDPDIZu3jyn73Z0mMsawBrG4rfSDYGcuYZuIReZnWtGmmACxNgTZMs750OOo41x3OdddYqklg/m6thVPG35FW42w+e9W3hAFAiAAAj8SArD5cDQRsYIgAJufsPmRHra/PWTzPmX/SEcfGWYcOrG8ufRTX0cRoRXE1EmsSrSpJtAz6DdTY4xxkLZ7WIWHVQR7rMSpUTTur6yd3duLufkfSTnGboIACIDAdyQAmxeEjyLJcAjA5r/N5ttFsubST73PbL6DWBRoU0wg2D3gM1lHacMAZRtj5GOMfNzm1bD571jWEAYCIAACPzICsPlwNBGxgiAAm39m891UwGQJGGzedvuY2jnSxQ55KdLRZhFVvRkw1BFaTqwSQqFNOQGzPkBLvY560qMlbBVhqxi3hlANroo4pvBjuWsAK21+ZHUZuwsCIAACfxkB2LwgfBRJhkMANg+bn3JB/4sOimDzf1nZwtYgAAIgAAL/jgBsPhxNRKwgCMDmYfOw+Wf/A+FN8+OaNv+ufOIPEAABEJgmBGDzgvBRJBkOAdg8bB42D5ufJjUXaYAACIDA5BOAzYejiYgVBAHYPGweNg+bn/zyiR5BAARAYJoQgM0LwkeRZDgEYPOwedg8bH6a1FykAQIgAAKTTwA2H44mIlYQBGDzsHnYPGx+8ssnegQBEACBaUIANi8IH0WS4RCAzcPmYfOw+WlSc5EGCIAACEw+Adh8OJqIWEEQgM3D5mHzsPnJL5/oEQRAAASmCQHYvCB8FEmGQwA2D5uHzcPmp0nNRRogAAIgMPkEYPPhaCJiBUEANg+bh83D5ie/fKJHEAABEJgmBGDzgvBRJBkOAdj8D9HmaQn59vYX3Y315W6Me8FOk3qINEAABEBAmARg8+FoImIFQQA2D5vH3Dzm5oVZopE1CIAACLwAAdi8IHwUSYZDADYPm4fNw+ZfoB5iExAAARAQJgHYfDiaiFhBEIDNw+Zh87B5YZZoZA0CIAACL0AANi8IH0WS4RCAzcPmYfOw+Reoh9gEBEAABIRJADYfjiYiVhAEYPPh2bxVHLSIiFVCaCn5hrNFgxZRaBvq27b5ptg//bpVTMbHDZpFxCp+NjQtI1bJeDJiQks4SsxZRYSVhRojDdKSIBV6nTBSQkuCVvGf7DloEXHmtiAlITbFn9iAlgat4tAGFtG37O+fCPwGMi+0Jc6CFWb5RNYgAAIgME0IwOYF4aNIMhwCsPnvbvOcuY1YRISRE1oaNLcF+lr+WE8DvS2ElRO7klCSQG9LwNT6x9v8pa8E+lpCPs3IQo1VEJsy9MSmCGViFY+nJA1JvE1ObPKApW20p9FvaQtY2vzmVr+lbfz1P5J1y3ggJSGMPGgReboavjErJnTY8G0bhOPufxwLm58m9RBpgAAIgIAwCcDmw9FExAqCAGz+u9t8yHdtCuJQhUz9T6k8oSScRURcmlCjJJyp9dkk/R8761/yCtfXSizi0EHC+IHEuMGLQ6/QstCLFrHf3MpZRQGryGdq8ZlbQ7PyNjlxqYlDGbCKQn8yf/RNQmhqf3zC3qEirNzf0/x1m5/48sGhInblN+3v16P+kv3607GweWGWT2QNAiAAAtOEAGxeED6KJMMhAJsPw+ZpKWcR+3ub/X0tQUoSpP5IkSlJ0Crx97WEZtPHXfmblrj8aZH9JhW2KUJLYkytZHxhTMDUGqRloZ/mtvEJezlxKEONlYWm5Ckx51AGGWmAEgcYKbHJOVoSWoTz7zsP9WYWcePdho5A/milTehFy/MNTG2hA4l/38P39SdsfprUQ6QBAiAAAsIkAJsPRxMRKwgCsPkwbJ6fzLYpyKCeDOpDy83/uNHS0Hy5U00GdKH1Nt+wYP1PBP5xVxOv2JWhxeumtlCHTnXIvEPT/9qQYY+vaA/NvrMyMqQn/l7i7SYD7aEn/RqOEgeZ8UU49B+lSktDXQ0ZQl1ZJaEDg4nhJp44VGTQ8GygSdmRiZ6/5QlsXpjlE1mDAAiAwDQhAJsXhI8iyXAIwObDsHlaShiZp6/F3PKou+G+1/QnDDhISbymVqeyrLvh/qCuOjR3/i3m+oJv0bLQ+a+UJEhLh/Q1tKSwu+G+39xGbIrQFDslGaMlVllRzd3Uwqv7i67uf3Rpd9HV/X2ix6RfE7TJ/fzam6+NxcgG2qt6m/L6NRWcRRQ6VPj3GwStEremsqcxt19T4edP6v33G3xt+0n7EzY/Teoh0gABEAABYRKAzYejiYgVBAHY/F9k82JC8U1KKBmhFYRVu/QNx+Mjrh6NG+6V+ph2MtDj7hZzdoO3v3PUogrY9B5KU3n/8t5Ni83KmoBN69Y/9ds1ZMAYpBWEURK7JvTTpg5YpEFKTvr1fpvGx6i8Ng0Z6vIyKr9dO2aV+1h1wKYZtciIz+J3dQYHez023Rir7ZGXZ53dk7Z3ndPwNGhTBSgpsSkofduhndH/8vd//Zu//W+v//z/ee2n//c//fQ/pe2OduobiV0boBSc0+jp7xlzdo46OtxWtc/VEXDoRZX3Tu5e21R4dZiS+2iFz64nw71+h2GEVnvY9mFK1fgka//2lYqnjwbNCo+tnQx3eBgZcWk5h3qMkpKAmQx3hF6kZcSt4xzqQUpst7Zyo8agS+Nl5T5K5qflwyYRcetG7IpBu5z4uryhXTa6eiX+/k4SsPv7u8mo2W/Xevuag4yY0K0ENi/M8omsQQAEQGCaEIDNC8JHkWQ4BGDzYdq8qt/QmLpj1bVj8YPdYg+l8bK6oMNIRsxeh5EMmwJ2g7OjteDmqZTYiD55NXF3EJeOONtDEm/XEGe7zyT2W6ShVwY7yFAnGe4KuPTEpfcyKi+t5OxabrAz6NR5aaWPUQXsWkdHE+fuHqLUQXdXwGVU1OWeT9n8NZvvVtan7Fi/esGHV07sKr59vuTOuYwjcRu//H3h9WNuY9Nobxs30D1A6wYZPfEyZNTK9XeO0ipxVc65A5uai68PW2Ueq8xn13vtOjLUSzxWMtjts+srH2bs2bJUWf/Y2S0mXoq4tAGHetgs8jJyzql2dTV6GXnArgo61fzP4JB+bEDjd2td3Y2jlCTo1JKxbj+rDC3X4fp8w7oRl8pjlY1YFV67bsymH7Ebx+wGj8MQdOqIXUEoEbE2w+anSTlEGiAAAiAgUAKw+XA0EbGCIACb/+42H6TkQVrRb2hM27XuZupOp7FZWnk/42jCqd0bYpZ+GvHFvxbdSrMbWipyLm1Y9OFbf/ffDset6hKV2tvr01O2Rn7+5vr57+ac3zfaJ/VaFNKyO2f3Ru/b+OXBzUtKs9OqH1y6cjzu4Lal6xa8uz3yi6bi615W5e5pq867GL96ZuT899cs+jDrwgF7Z2uvouJmWtLXbL5H1XBoR/T+7VFWbRMZtQYcRo9VdenglsSo2fr6B8Spa28tOZUSF7nwo4WfvZWwcXFT6Z2Wsjsn9254/Wf/ZePi95W190Ypecm986vn/+7LT/957aIP7qYfYjtamkpvH4yLvHFmT0r8qsi576YfjTWrqoIDnWNWxdP8K9sjP4+c9dbaBe8WZqb6GDVnb9e0Fhw7EL1s7ltr5r9z+Ugspaz2WBQDPaI755OXz30revWMA7tW9UhK/PZ2xtiSlhK7bM57UYs+Pr5nY6e4hPRrvD0NxCmHzQu0fCJtEAABEJgmBGDzgvBRJBkOAdj8d7d5QssJrew3NJ7bE33rVJKtveHkrui57/395cPbz+6LWTbjzU1LPhGX3xWVZSfHLPniX1+9nprUKa64dnLPjnVf7t2yInrxp7Gr5xbePscYWnOvHJ/zu1/v2rj04fVT9QVXEtfPfft//9cLB2POHdj05Uf/eCRhZY+srLHwWsKaWQlRXxzauWbLqlmLP/9t1cMMi6bm3IGYr9m8QVy1d9uq5G2R3fIaH6v3Mu0OQ7O+MX/bsk8q7qSN9rSl7o5evWRGwqZlyXGrI+a/f/FYgrzuwc203V9+9OvzBzYqqu/W5J3ftGJG/Np5aQc2x6z4bNvqWaKqHGXD49ULfrdx+afHktYd3hm1+KM3im6dHbNq5VUPE6Lmr5n3+/1bVq6b/2HS+kWMtnmgR557LXVT1Jy9sRFJ6xdvXj6z9NY54rUXZ55dt+CjXVuW79y6fPGcd64e327W1N67cmTtkk82rZqzNzYybv3CwlsnfKaWINVG+hWw+WlSDpEGCIAACAiUAGw+HE1ErCAIwObDsHlWSRilQ1eftntd1uldrLY+8/Tu1XPeVdU98tKaxsLMbStnlmaf89n0Tx9fO7ZjjaGlRFb7KGLu+wW3L5CAc4TWnzm4fc+WiE5Z7aPMs+uXfFZbkEU8rFVTs2fTwjXz3xm2ygMu/b1L+1O2L2sovNYpLqnPv+K3afzDJkVD/pZVs4qzzzL6+stHY79m8z3KhgPxaw/Gr+2W147R2qCrM9jfoal7sDNqVumtk8NdLQ1FmY2VeW5KO2g3XjqReGLvRmd3m6Q65+z+jS0lN4atUn3Tw6qHV1y9EhJgWsqyk7cuL7id1lpxd8OyTy4c3m6UlDl7Jad2bz6/f7uusbSzraru4U1XpyzgNksrH+6LWVn74GZ7Q0nGyb3pacluWj9s0jQVZXc0lZkktcd3RKclb3OaNXSPtPjBlQNbFzcU37xwJO7U/i09mgZPf5dBUiGvvuftayb9KmLBShuBVk+kDQIgAALThQBsXhA+iiTDIQCbD8Pm7WpiU9vb604nrQnZfHt92t5NJxLXDvbKRi1KRc2Dw3Grntw5F3QYyu9d2LNxUa+sqjDr3D/93X9fOut3qxZ+sili7pefvb12yeei6vzcG2eSNkeIavLJkJVprzuRuPrs/o1BRztn19Y+unwiKUpUlkUCVHXexf1blyRuWrI58otFn7358OYJk7Iq69zXz4LtVtTv3hyRvG2VRdvksxkCdoOro9XYUpSwaubjjEPEazar6y6k7k7csiJ+w6LZH7x+aEeUSV0jqb5//mBM5f1zIza1n1GW5V46EBexZ8vStYs+2Lj80+Lscy3l2QfjI+uLM0dpjcfdWXzr4tm923skdWTU3lKcczJpy+7oFctnvBOzZJaxpdLVIS/KvrwrdvXmVfPP7ouTVeUHbb1maX3s8rmfv/WruHVLYqIWLJv3wZKP/7Ek+0x53uXYtfOP7N6YtGV5df4Nv1NHGKmvr5GwYszNT5d6iDxAAARAQJgEYPPhaCJiBUEANh+GzdvUw13N/YbGU4lR147F2/WNV4/vOLV7w5hVPWpRaurz41fPLrt7PmDTl2af27d5qbH1Sfn9K5/8y98v+eK91V9+umrBJ4mbVt7NSG0XVRXnXDmYEK1trQiOsSZFxZl9G64cj/PQyoBNU3bv7MndaxsKripqcjYu+WDT0g+3rJ69fPbbX7z396X3L3ZKnmSd23Nm7/pRU5vPKvVaxMSh6lE1HIxfu3vzSsbQNmxRB/u7A05jbd7lLUs+Kss66e5qST+WsGjWu1FLPo1c+OHsD17fHxdp0T6VVt9P3bWmOu/CYJ+o7uGlrau+iFrw/sZlny774q2ln/+25N75xpLQNW0an2QNWhSDlOrOmcOpiZtllfmq2qKkdUujZn8YvXDG8hnvRC+Y0Zifzdl7XWbtrYwT26IWrp794e4NKxQVj3VPn+yMWjzvvX9etfCTdStmbV6z8Nz+DbrWokGLojD7/O5tEVGLPt4bG1Gdd3Goqz7ISv2WJti8MKsnsgYBEACB6UIANi8IH0WS4RCAzYdh84yCs8qHu9vSdq3NPruX1dbfSttzes9GP9sedBhlVfeTY5aU37tIBnsKM08fTYiyG1rEFfd3rP+ytTyHBBwk4DCp6lvLc5xd0pK7F1N3b+oQV47S7VZ19cVDWy4e2sLZtaTfUHbv7InE1TUPLp3avfZw/Eoy0k18jKKhYPWC9x/dTO1TVmad3XMmeb3L+JRj5IRVcIxM21p+IG5t8rZVQxY18bEkYCMjpjN7NiStmSMtvSV9krlvy7Lsq6nEb7db1Kn7t6Qd2ELrG9rKs9OPxhpa8ilNdWriqmO71gXdnYRj64syd25YWHj7TEtZdszKzzLPJrtNMjejORK/5kj8muaiOzdP7t0eOcdL67hBU+2D68kxy8Xl9x0GUWvlfbtZQbzMYJ/ySPya04kbtXUFabtjss7sH3N3E+Lo1TfpGh/qWgq1LUXOPjnx0L6hvrsZR8/u32CRFITm5l04C3a6lEPkAQIgAAICJQCbD0cTESsIArD5MGyeVhCXbrRPfCIh8mbqTlZbf+VYwtGEKA+lJiMmUdndpPULCzNPkaHe6ryM3RsWyavz9C1Pdscsu3X2wECfkta3nE7ecmLXxm5ZTVlO+v5tEfrWMtLfY1FXn9234cy+DcRtJIOdJbdP7dm08Gl+Rlpy9P4ti3vl5R2yqke3Tn/29quPbqaaVdXnD24+tiPC1l4TZJUcI+doWa+68dS+2K2r5okqc1lDq7NT1Pbk9vaVn53dE+0yNLTX3t++evbFk3uGWIOssWjtkk92b17aKS2T1ealJUeX3D7ZJS6+lBKzK2axvatthFJfOhYfMfedx7dOSWvyNi7/NHXPBlFVjvzpw+iFH2cc2WlR1T++dmrDok8U1Y9obdOVo4mblsxQ1eV3S6ouHt2Rn3ORMrb2SGvO7tuad/FogNJfPBi3e8OSDnm1TlF17cKBk0mrqx9lXEvbfevCQWXLE7pTlHn+QG76QU9vE2duJhSuNy/Q6om0QQAEQGC6EIDNC8JHkWQ4BGDz393mOauM2DXujub0lC2303bRmrqbp3ZdOLjVbmgmAz2yqvtH4lfVPMjw0hpJRc6GRR/u3bTY0FL09GH6rnVzP3vjZ5/+808SImcqKu/1G5vL7qSd3rW2T1oW7O/oU1RcOxGfeToxYNcGHe1VeRePJ66S19xrLLwWGznj96/9j+Wz3zmcuDY2ak7x3XMd4pL7GSnpR7a6jPUcq/SaRUFW0SmrO3d4xwe/+eWMt16d/d4/zPzXVz987X+e3bvBqqgK2LX9+voLh2M/eedXM3//Wuy6ha8/yIEAABSdSURBVBmn95zYu7FDUmbW1O5YO3vJJ79uyM+QlGdFL/14xr/83bIv3jp/KPZY0rrcq8caim+lxK86vDNq66ov5n7wj6f3rFfW5gb7jbrm/LhVMz9/6xfRi95PPxK7f+uSp4+vOIxNRffOLFvwr7M++Psv3v7blLgVZlmF16roaC06GLvsk3d+OfPjXy2c9Zvcy/tdfZKSe+dXzH3vs/f+Yd7H/3w4aV174yPOKgrSIsK0YaXNdKmHyAMEQAAEhEkANh+OJiJWEARg89/d5olNRWzqsT5Jr/iJWVbhsSh7ZZU90ooxqyroMLo6RbqmImdHq5/VOTvaFDV5DQU3xxg1YZSqits1d9Oqs0+319wjDq3fLBk0NrCqSs4qG+luGTZLTcrKPnk5celJv4FurzO0FAyZJcRt1DY+enDl0MPMU3pxWZ+6jtI3DvSKGV19R1uh1yoJ0KGJeWJTkEEzbRDXF2eX3U8vvXep+Pa5ypyLzo6W0F1X9fXErqV1jcV5V0sfXmssv0d3inqUNdb2euLu0DXnNxRcYXW1jLZGUp1bnne5LPdSl7yyR1lNG5rcJlmfqtbRLWopzy69f7FbWhy6BWy/1kPL9C2PHl0/1FCY0SMr6ZU/cfc2E5eW7njaWp9d+vBcQ1GGRVMRutsUI/dQUkNbfkluWuGDtKqSjKHeNtJvHGXbJXUPH905f//Gyfa2Uj+r9plbA+bmoKkRNi/M6omsQQAEQGC6EIDNC8JHkWQ4BGDz383mJYSSEkrmN4m8JlFI6+2agFVO7FriaA9QCo9J4qcUoT+dugClGDNJSL/BT8kDVhlhFYRVkv524tAQh5rYVJxVQlhFwCIOvUXLApSMOLVBVumnZAFaHgxtrAswCj8lC9pUZMBABjqCdm1w/FayHKPwWCTEoQ4yco6SEFYepKUeq8LPaIhTT/qNoebUEafOZ5ESRhka2qYKMMqAvZ0MdobuNWvX+mild/x7hgCjIHZ10KYMUFKOVZEBI3G2B+0aPxM6H5c4dV5KTlw6P60k/XriVBO7KkBL/ZQkaFcSlyboUBGHKmhX+ilpkFV4KQkZ1AfsCjKgJzaFb3w3Q/vo0hC3lgxoyaCOs6tH+kQ+WhFg1aGjF7cx6NAGaFmQkhBKHLRgpc10KYfIAwRAAAQESgA2H44mIlYQBGDzf5HNS0jIMtGmkIBZH6ClXkc96dEStoqwVYxbQ6gGV0UcU/ix3DVgZJ59gi/7idfIjhlZj5H1jje/keGMTKDLTrIet+aVKelh4vV6+Vro8XgEWhSRNgiAAAgIjgBsXhA+iiTDIQCbh81PoZp/hwMh2LzgKicSBgEQAIHpRAA2H44mIlYQBGDzsHnY/KTM7mNufjpVb+QCAiAAAs8JwOYF4aNIMhwCsHnYPGweNv+86OE3CIAACPzgCMDmw9FExAqCAGweNg+bh83/4Ko3dggEQAAEnhOAzQvCR5FkOARg87B52Dxs/nnRw28QAAEQ+MERgM2Ho4mIFQQB2DxsHjYPm//BVW/sEAiAAAg8JwCbF4SPIslwCMDmYfOwedj886KH3yAAAiDwgyMAmw9HExErCAKwedg8bB42/4Or3tghEAABEHhOADYvCB9FkuEQgM3D5mHzsPnnRQ+/QQAEQOAHRwA2H44mIlYQBGDzsHnYPGz+B1e9sUMgAAIg8JwAbF4QPookwyEAm4fNw+Zh88+LHn6DAAiAwA+OAGw+HE1ErCAIwOZh87B52PwPrnpjh0AABEDgOQHYvCB8FEmGQwA2D5uHzcPmnxc9/AYBEACBHxwB2Hw4mohYQRCAzcPmYfOw+R9c9cYOgQAIgMBzArB5QfgokgyHAGweNg+bh80/L3r4DQIgAAI/OAKw+XA0EbGCIACbh83D5mHzP7jqjR0CARAAgecEYPOC8FEkGQ4B2DxsHjYPm39e9PAbBEAABH5wBGDz4WgiYgVBADYPm4fNw+Z/cNUbOwQCIAACzwnA5gXho0gyHAKwedg8bB42/7zo4TcIgAAI/OAIwObD0UTECoIAbB42D5uHzf/gqjd2CARAAASeE4DNC8JHkWQ4BGDzsHnYPGz+edHDbxAAARD4wRGAzYejiYgVBAHY/HOTs9uM/fpOJtBl4Xr6iNVExvo1HerS+kcJRF9GaAPRGD3OJrQpJjDsrhlz1vvtLYQSEWtdqNH5xFMmb0otL9lP2xuNzPNP8CU/8RrZMSPrMbLe8eY3MpyRCXTZSdbj1rwyJT1MvF4vXyU9Hs8Prlxih0AABEBgmhKAzQvCR5FkOARg889c0GB36V29RobrtAa7TMRi9g252rp1RS1Ptvp1t4n1Kelo9dJytCkmMGZv8zJSH6UM9rWTPmmomaqJvVZTm9H05LLDqoHNT9P6ibRAAARAYHoQgM2Ho4mIFQQB2Pwzm9fbB3UuxsAQo5V0monZOuK0Vek02fVFET7jOWLLJ31PSLcObYoJ+E1yrldDug3E0E307aHWIyG0vL3sbtODTIexGzY/PcolsgABEACBaUoANi8IH0WS4RCAzT+zeZ3Nq3GOaRmio4mBIr2Mc2i02tB5u6FyMWGOEG8mcV4jdBvaVBNw1BJbI2HaiFlJzOJQo+vJoMRcmyl7dHmsxwibn6b1E2mBAAiAwPQgAJsPRxMRKwgCsPlnNt9u86qdYxqW8ELfzbps/bXtHXmVxZF9ogSbMsUhSmFV+9CmmIBVH0+1J9GaZFZxxCY/EGqyeFazW1QS1Va2ddD6GDY/PcolsgABEACBaUoANi8IH0WS4RCAzU/YvE/l9KhtRMOSdoZ02fqt9qZOU1VV6faa+6ursiLbcmPqi15Fm2ICleX/s6r0b2pKXq0vfL2x4B8aC/6hvugXpY9/XvTwVaVswcDAcdj8NK2fSAsEQAAEpgcB2Hw4mohYQRCAzU+stBnVOAc0Dp/WHmi3ESPr7aHZboqx9OlYg4LVSFmlxGKwok0xgd4uQ19nj8loMeudFj1r0bNd2o5OQ193h7P3/2/nzn7jKPIAjv/RvPICu2ZX7L4grYhWIWQJgmWBDSQhxDFXFrQRhx18ZO7xEXump7vnsrurqrvn6Fo5+AHnBValmakqf0clBUupnl99Yk99HywOJocHmpq347pkCgQQQMBSAWreiR5lSBMBav6i5puRavVPG/20HqtaPKlHuh2er+NAxx096OhRRx+PWcsWODmVJ+PJyUifDC/e+lmSHZxlzeGkFumnXWre0uuTsRBAAAFLBKh5k0xkrxMC1PxFzbfD/CCU7Ug2I1WP8lqka8H5anX1s44+7sw73VktmLKWLNAMVLObN7vTRqf85a2rUVqJRTUuqrGuhdS8JdclYyCAAAKWClDzTvQoQ5oIUPMXNX8QTI+7k8Ne1g6zZpTVYt3o63pf10Pd7OlmMGkFshpp1pIF9nu6HehWoJvB+b9FPdS1wbQ6LCr9WSXSlYCat/T6ZCwEEEDAEgFq3iQT2euEADV/UfNHnXlwpE8688OgaIeq2p/uxHon0tuR3u6PtgfdnWG72k9YSxY46vUPg/FBINq9vBGPGvGoPjqsjVrV/lElCipdye/NW3JfMgYCCCBgpwA170SPMqSJADV/UfP7weyoMz8IZu3epBUW9WhajebnK57XBll9kNZH40acs5YscBDK/TDbD4t2OG3GqhmrRn/YGAyag9NWX7Tii38+C5q+aEZZM8qbUfF8TZvhvBnO9vv61ifff7S+0xO6KIpfrro8z+2885gKAQQQ8E+AmjfJRPY6IUDN25ODTOK0ADXvXwNwIgQQ8EGAmneiRxnSRICad7ogGd4eAWreh1ufMyCAgH8C1LxJJrLXCQFq3p4cZBKnBah5/xqAEyGAgA8C1LwTPcqQJgLUvNMFyfD2CFDzPtz6nAEBBPwToOZNMpG9TghQ8/bkIJM4LUDN+9cAnAgBBHwQoOad6FGGNBGg5p0uSIa3R4Ca9+HW5wwIIOCfADVvkonsdUKAmrcnB5nEaQFq3r8G4EQIIOCDADXvRI8ypIkANe90QTK8PQLUvA+3PmdAAAH/BKh5k0xkrxMC1Lw9OcgkTgtQ8/41ACdCAAEfBKh5J3qUIU0EqHmnC5Lh7RGg5n249TkDAgj4J0DNm2Qie50QoObtyUEmcVqAmvevATgRAgj4IEDNO9GjDGkiQM07XZAMb48ANe/Drc8ZEEDAPwFq3iQT2euEADVvTw4yidMC1Lx/DcCJEEDABwFq3okeZUgTAWre6YJkeHsEqHkfbn3OgAAC/glQ8yaZyF4nBKh5e3KQSZwWoOb9awBOhAACPghQ8070KEOaCFDzThckw9sjQM37cOtzBgQQ8E+AmjfJRPY6IUDN25ODTOK0ADXvXwNwIgQQ8EGAmneiRxnSRICad7ogGd4eAWreh1ufMyCAgH8C1LxJJrLXCQFq3p4cZBKnBah5/xqAEyGAgA8C1LwTPcqQJgLUvNMFyfD2CFDzPtz6nAEBBPwToOZNMpG9TghQ8/bkIJM4LUDN+9cAnAgBBHwQoOad6FGGNBGg5p0uSIa3R4Ca9+HW5wwIIOCfADVvkonsdUKAmrcnB5nEaQFq3r8G4EQIIOCDADXvRI8ypIkANe90QTK8PQLUvA+3PmdAAAH/BKh5k0xkrxMC1Lw9OcgkTgtQ8/41ACdCAAEfBKh5J3qUIU0EqHmnC5Lh7RGg5n249TkDAgj4J0DNm2Qie50QoObtyUEmcVqAmvevATgRAgj4IEDNO9GjDGkiQM07XZAMb4/AizXfispWNDsY6Fuffv/Rw92e1EVR/HIx5nnuww3JGRBAAAEXBKh5k0xkrxMC1Lw9OcgkTgu8WPPtWLfj+eFQv3vnh4839kJFzbtw7TMjAgh4J0DNO9GjDGkiQM07XZAMb48ANe9dAnAgBBDwQoCaN8lE9johQM3bk4NM4rQANe/Ftc8hEEDAOwFq3okeZUgTAWre6YJkeHsEqHnvEoADIYCAFwLUvEkmstcJAWrenhxkEqcFqHkvrn0OgQAC3glQ8070KEOaCKym5n/9WTEqJnceP3v3we52Z77bLetx2errelhWu9Nad9LoTdtR2QrmLARsFmiH01ac14O82i3rgW6E+kTo3Y7eOpzd+vzJ55tHQ61//W3PfyOAAAIILEeAmjfJRPY6IbD6mo/l5Jun43fu//zFk95Op6yG5d7JpBbMW+f/SxDdCKbVk7zdK1kI2CxQPZF7z8b1IG+GuhnqalfXQl0J9MOfwnfub33XGAYzan45FzfvggACCFwSoOad6FGGNBFYfc2P5OTZafnBg62/vbv+9dbx/rA8GOlmXFaD2dPutBLMa2HZDFgIWC3Qiuet4bwWzqpBWe/pVqwPBnqrnbz53lcff7HVSWdxQc1ful/5AgEEEFiOADVvkonsdUJg9TUvsoko9Hatc+P9+2+999mjzf1KJ3vaKSq9eSXW9aFujnUzYiFgtUA1nO2Gk71wXo90o6/3+/rHyvCDu49vffhlpR2omU4n1PxyLm7eBQEEELgkQM070aMMaSKw+ppPEnWWFKma7zU6n9x/dPNfD9b/W/tur7d7Ip6G2ZMT+bid7BylLARsFtg8SjY7Yqentg7Tb/fie4/qNz/46v1/f1NtxdmkTKU6TdNL1wtfIIAAAggsRYCaN8lE9johsPqaz2SmUpUmWarmYT/5+vHuzY+/fPO9B399+85rb9197cZnf7754I1/fM5CwGaBv7x99483bv/pxqdv3Hr49w//8897P9zb2GocDITSUmZFls6m2VKuLd4EAQQQQOCSADXvRI8ypImABTUv0iJNciGkzKTMztSsehRv1juPnuw/3Nzf2Dr8cvv46x9bLARsFvjqSXvj59bGVvvb7eMfalHtaHwmdCpmUkxycVbIQSEHl64XvkAAAQQQWIoANW+Siex1QmD1Na9EmouzTFz8HkIqczXTYqrTmU5LLfX5mrAQsFsge/6NKrUWs/OlpjoVpRATKbNMnuZykFPzS7m2eRMEEEDgBQFq3okeZUgTARtrfpTmQzEZyFksyzCdB8lsLEsWAjYLDOQsyiZ9NR8I3U/LwemMmn/hQuVLBBBAYCUC1LxJJrLXCYHV1/wLP9tCSaGUzDNVFKooRJYnUkkWAnYLCCVEnsg8k9lUqEmSToWYClGc//6YSqQany9eCCCAAAJLF6DmnehRhjQRWH3Np1IlKktUliqZqvOf8tPT0dnZSCRjJcaFOptmSZ6MWQhYLSAGuYxlOkjPTpPT8ek4lWIiRJHKPFEyyZIkS5Z+hfGGCCCAAAKSmjfJRPY6IbD6mhdSplKlUgkpxfOPnSyTSgkl00ymuRJFJjKRshCwWkCeKTmW4kwKoaTMVC5FJkQmzr+3ZarS9PxPXggggAACyxag5p3oUYY0EVh9zS/7x5r3QwABBBBAAIErI0DNm2Qie50QoOavzOcZB0UAAQQQQODqCVDzTvQoQ5oIUPNX74ONEyOAAAIIIHBlBKh5k0xkrxMC1PyV+TzjoAgggAACCFw9AWreiR5lSBMBav7qfbBxYgQQQAABBK6MADVvkonsdULgN2p+Y2Pj9u3bWuuyLNM0LXkhgAACCCCAAALuCEynU631xsbGtWvXtNbz+dyJPmNIBH6/wG/U/Pr6+ssvv/zKK6+8/vrra2trf+CFAAIIIIAAAgi4I/Dqq6+ura299NJL169fnz9//f5I4m8i4IQANe/OBxKTIoAAAggggMD/KUDNO9GjDGki8Bs1b/Jo9iKAAAIIIIAAAggggMBCBaj5hfLycAQQQAABBBBAAAEEFihAzS8Ql0cjgAACCCCAAAIIILBQAWp+obw8HAEEEEAAAQQQQACBBQpQ8wvE5dEIIIAAAggggAACCCxUgJpfKC8PRwABBBBAAAEEEEBggQLU/AJxeTQCCCCAAAIIIIAAAgsVoOYXysvDEUAAAQQQQAABBBBYoAA1v0BcHo0AAggggAACCCCAwEIFqPmF8vJwBBBAAAEEEEAAAQQWKEDNLxCXRyOAAAIIIIAAAgggsFABan6hvDwcAQQQQAABBBBAAIEFCvwPvDe1MhMVlNwAAAAASUVORK5CYII=;" parent="1" vertex="1">
          <mxGeometry x="-1110" y="170" width="617" height="464.43" as="geometry" />
        </mxCell>
        <mxCell id="tZt0MmLbYMBhl0km-Nx_-15" value="" style="endArrow=none;dashed=1;html=1;rounded=0;" parent="1" edge="1">
          <mxGeometry width="50" height="50" relative="1" as="geometry">
            <mxPoint x="-450" y="680" as="sourcePoint" />
            <mxPoint x="-450" y="114.43" as="targetPoint" />
          </mxGeometry>
        </mxCell>
        <mxCell id="tZt0MmLbYMBhl0km-Nx_-16" value="&lt;span lang=&quot;EN-US&quot; style=&quot;font-size:18.0pt;line-height:&lt;br/&gt;115%;font-family:&amp;quot;Aptos&amp;quot;,sans-serif;mso-ascii-theme-font:minor-latin;&lt;br/&gt;mso-fareast-font-family:Aptos;mso-fareast-theme-font:minor-latin;mso-hansi-theme-font:&lt;br/&gt;minor-latin;mso-bidi-font-family:&amp;quot;Times New Roman&amp;quot;;mso-bidi-theme-font:minor-bidi;&lt;br/&gt;mso-ansi-language:EN-US;mso-fareast-language:EN-US;mso-bidi-language:AR-SA&quot;&gt;portal&lt;/span&gt;&lt;span lang=&quot;EN-US&quot; style=&quot;font-size:18.0pt;line-height:115%;font-family:&amp;quot;Aptos&amp;quot;,sans-serif;&lt;br/&gt;mso-ascii-theme-font:minor-latin;mso-fareast-font-family:Aptos;mso-fareast-theme-font:&lt;br/&gt;minor-latin;mso-hansi-theme-font:minor-latin;mso-bidi-font-family:&amp;quot;Times New Roman&amp;quot;;&lt;br/&gt;mso-bidi-theme-font:minor-bidi;mso-ansi-language:EL;mso-fareast-language:EN-US;&lt;br/&gt;mso-bidi-language:AR-SA&quot;&gt; &lt;/span&gt;&lt;span style=&quot;font-size:18.0pt;line-height:&lt;br/&gt;115%;font-family:&amp;quot;Aptos&amp;quot;,sans-serif;mso-ascii-theme-font:minor-latin;&lt;br/&gt;mso-fareast-font-family:Aptos;mso-fareast-theme-font:minor-latin;mso-hansi-theme-font:&lt;br/&gt;minor-latin;mso-bidi-font-family:&amp;quot;Times New Roman&amp;quot;;mso-bidi-theme-font:minor-bidi;&lt;br/&gt;mso-ansi-language:EL;mso-fareast-language:EN-US;mso-bidi-language:AR-SA&quot;&gt;για τη διαχείριση Β2Β πελατολογίου&lt;/span&gt;" style="text;whiteSpace=wrap;html=1;" parent="1" vertex="1">
          <mxGeometry x="-1110" y="120" width="460" height="80" as="geometry" />
        </mxCell>
        <mxCell id="tZt0MmLbYMBhl0km-Nx_-17" value="&lt;font face=&quot;Aptos, sans-serif&quot;&gt;&lt;span style=&quot;font-size: 24px;&quot;&gt;Υφιστάμενες Βάσεις&lt;/span&gt;&lt;/font&gt;" style="text;whiteSpace=wrap;html=1;" parent="1" vertex="1">
          <mxGeometry x="-399.62" y="134" width="290" height="80" as="geometry" />
        </mxCell>
        <mxCell id="tZt0MmLbYMBhl0km-Nx_-18" value="Azure VM , Hyper-V nested virtualization, Docker&amp;nbsp;" style="text;html=1;align=center;verticalAlign=middle;resizable=0;points=[];autosize=1;strokeColor=none;fillColor=none;" parent="1" vertex="1">
          <mxGeometry x="-1010" y="634.43" width="290" height="30" as="geometry" />
        </mxCell>
        <mxCell id="tZt0MmLbYMBhl0km-Nx_-19" value="Nginx internal&amp;nbsp;" style="text;html=1;align=center;verticalAlign=middle;resizable=0;points=[];autosize=1;strokeColor=none;fillColor=none;" parent="1" vertex="1">
          <mxGeometry x="-770" y="480" width="100" height="30" as="geometry" />
        </mxCell>
      </root>
    </mxGraphModel>
  </diagram>
</mxfile>
